G04 Layer_Color=16711935*
%FSLAX44Y44*%
%MOMM*%
G71*
G01*
G75*
%ADD11C,0.2000*%
%ADD16C,0.1500*%
%ADD17C,0.5000*%
%ADD74R,0.9960X0.9960*%
%ADD90R,0.9960X0.9960*%
%ADD95C,0.4000*%
%ADD96C,0.1000*%
%ADD98C,0.2500*%
%ADD99C,0.3000*%
%ADD159C,0.2540*%
G36*
X562000Y5000D02*
X557000Y0D01*
X455000D01*
X450000Y5000D01*
Y14000D01*
X562000D01*
X562000Y5000D01*
D02*
G37*
G36*
X793000D02*
X788000Y0D01*
X586000D01*
X581000Y5000D01*
X581000Y14000D01*
X793000D01*
X793000Y5000D01*
D02*
G37*
D11*
X2332250Y-701000D02*
Y-582500D01*
X2054750Y-701000D02*
X2332250D01*
X2054750D02*
Y-582500D01*
X2169250Y-701000D02*
Y-582500D01*
X2054750D02*
X2332250D01*
X2054750D02*
Y-552500D01*
X2332250Y-582500D02*
Y-552500D01*
Y-434000D02*
Y-404000D01*
X2054750D02*
X2332250D01*
X2054750Y-434000D02*
Y-404000D01*
X2169250Y-552500D02*
Y-434000D01*
X2054750D02*
X2332250D01*
X2054750Y-552500D02*
Y-434000D01*
Y-552500D02*
X2332250D01*
Y-434000D01*
X46665Y18331D02*
X44998Y19997D01*
X41666D01*
X40000Y18331D01*
Y11666D01*
X41666Y10000D01*
X44998D01*
X46665Y11666D01*
X49997Y19997D02*
Y10000D01*
Y14998D01*
X51663Y16665D01*
X54995D01*
X56661Y14998D01*
Y10000D01*
X61660Y16665D02*
X64992D01*
X66658Y14998D01*
Y10000D01*
X61660D01*
X59994Y11666D01*
X61660Y13332D01*
X66658D01*
X69990Y10000D02*
Y16665D01*
X71656D01*
X73323Y14998D01*
Y10000D01*
Y14998D01*
X74989Y16665D01*
X76655Y14998D01*
Y10000D01*
X81653D02*
Y18331D01*
Y14998D01*
X79987D01*
X83319D01*
X81653D01*
Y18331D01*
X83319Y19997D01*
X93316Y10000D02*
X89984D01*
X88318Y11666D01*
Y14998D01*
X89984Y16665D01*
X93316D01*
X94982Y14998D01*
Y13332D01*
X88318D01*
X98315Y16665D02*
Y10000D01*
Y13332D01*
X99981Y14998D01*
X101647Y16665D01*
X103313D01*
X113310Y10000D02*
X109978D01*
X108311Y11666D01*
Y14998D01*
X109978Y16665D01*
X113310D01*
X114976Y14998D01*
Y13332D01*
X108311D01*
X124973Y19997D02*
Y10000D01*
X119974D01*
X118308Y11666D01*
Y14998D01*
X119974Y16665D01*
X124973D01*
X139968D02*
X143300D01*
X144966Y14998D01*
Y10000D01*
X139968D01*
X138302Y11666D01*
X139968Y13332D01*
X144966D01*
X148298Y16665D02*
Y10000D01*
Y13332D01*
X149965Y14998D01*
X151631Y16665D01*
X153297D01*
X163294Y10000D02*
X159961D01*
X158295Y11666D01*
Y14998D01*
X159961Y16665D01*
X163294D01*
X164960Y14998D01*
Y13332D01*
X158295D01*
X169958Y16665D02*
X173290D01*
X174956Y14998D01*
Y10000D01*
X169958D01*
X168292Y11666D01*
X169958Y13332D01*
X174956D01*
X188286Y10000D02*
X191618D01*
X189952D01*
Y16665D01*
X188286D01*
X196616Y10000D02*
X201615D01*
X203281Y11666D01*
X201615Y13332D01*
X198282D01*
X196616Y14998D01*
X198282Y16665D01*
X203281D01*
X216610Y10000D02*
X221608D01*
X223274Y11666D01*
X221608Y13332D01*
X218276D01*
X216610Y14998D01*
X218276Y16665D01*
X223274D01*
X226607Y19997D02*
Y10000D01*
Y14998D01*
X228273Y16665D01*
X231605D01*
X233271Y14998D01*
Y10000D01*
X238269D02*
X241602D01*
X243268Y11666D01*
Y14998D01*
X241602Y16665D01*
X238269D01*
X236603Y14998D01*
Y11666D01*
X238269Y10000D01*
X246600Y16665D02*
Y11666D01*
X248266Y10000D01*
X249932Y11666D01*
X251598Y10000D01*
X253265Y11666D01*
Y16665D01*
X256597Y10000D02*
Y16665D01*
X261595D01*
X263261Y14998D01*
Y10000D01*
X278257Y16665D02*
X281589D01*
X283255Y14998D01*
Y10000D01*
X278257D01*
X276590Y11666D01*
X278257Y13332D01*
X283255D01*
X286587Y10000D02*
X291586D01*
X293252Y11666D01*
X291586Y13332D01*
X288253D01*
X286587Y14998D01*
X288253Y16665D01*
X293252D01*
X308247Y10000D02*
Y18331D01*
Y14998D01*
X306581D01*
X309913D01*
X308247D01*
Y18331D01*
X309913Y19997D01*
X314911Y10000D02*
X318244D01*
X316577D01*
Y16665D01*
X314911D01*
X323242Y10000D02*
X326574D01*
X324908D01*
Y19997D01*
X323242D01*
X331573Y10000D02*
X334905D01*
X333239D01*
Y19997D01*
X331573D01*
X344902Y10000D02*
X341570D01*
X339903Y11666D01*
Y14998D01*
X341570Y16665D01*
X344902D01*
X346568Y14998D01*
Y13332D01*
X339903D01*
X356565Y19997D02*
Y10000D01*
X351566D01*
X349900Y11666D01*
Y14998D01*
X351566Y16665D01*
X356565D01*
X371560Y10000D02*
Y18331D01*
Y14998D01*
X369894D01*
X373226D01*
X371560D01*
Y18331D01*
X373226Y19997D01*
X378224Y10000D02*
X381557D01*
X379891D01*
Y16665D01*
X378224D01*
X391553Y10000D02*
X388221D01*
X386555Y11666D01*
Y14998D01*
X388221Y16665D01*
X391553D01*
X393219Y14998D01*
Y13332D01*
X386555D01*
X396552Y10000D02*
X399884D01*
X398218D01*
Y19997D01*
X396552D01*
X411547D02*
Y10000D01*
X406549D01*
X404882Y11666D01*
Y14998D01*
X406549Y16665D01*
X411547D01*
D16*
X-243348Y91000D02*
G03*
X-262661Y83000I0J-27314D01*
G01*
X1472000Y-291750D02*
X1513000D01*
Y-116250D01*
X843000D02*
X1513000D01*
X796250Y34000D02*
X808750Y27750D01*
X796250Y34000D02*
X808250Y39750D01*
X796250Y34000D02*
X843500D01*
X843000Y-116250D02*
Y-96750D01*
X843500Y-31000D02*
Y33000D01*
X-23000Y5000D02*
X441750D01*
X429750Y-750D02*
X441750Y5000D01*
X429250Y11250D02*
X441750Y5000D01*
X-213790D02*
X-99000D01*
X-269792Y102078D02*
X-238250Y17687D01*
X-243348Y91000D02*
X-238250D01*
X-309000Y-10000D02*
X-246000D01*
X-309000Y19000D02*
X-246000D01*
X-299000Y-10000D02*
Y19000D01*
X-303500Y-5500D02*
X-299000Y-10000D01*
X-294500Y-5500D01*
X-303500Y14500D02*
X-299000Y19000D01*
X-294500Y14500D01*
X-240000Y-320000D02*
X51250D01*
X-240000D02*
Y-28750D01*
X-234250Y-40750D01*
X-246250Y-41250D02*
X-240000Y-28750D01*
D17*
X940000Y-891750D02*
X1960000D01*
X935000Y-716750D02*
X1955000D01*
X939250Y-586500D02*
X1959250D01*
D74*
X1431500Y-63260D02*
D03*
X-63500Y752760D02*
D03*
D90*
X1432260Y752000D02*
D03*
X-64260Y-62500D02*
D03*
D95*
X828059Y-825826D02*
X808065D01*
Y-815829D01*
X811398Y-812497D01*
X818062D01*
X821394Y-815829D01*
Y-825826D01*
X811398Y-792503D02*
X808065Y-795835D01*
Y-802500D01*
X811398Y-805832D01*
X824727D01*
X828059Y-802500D01*
Y-795835D01*
X824727Y-792503D01*
X808065Y-785839D02*
Y-779174D01*
Y-782506D01*
X828059D01*
Y-785839D01*
Y-779174D01*
X854987Y-859148D02*
Y-865813D01*
X851654Y-869145D01*
X844990D01*
X841658Y-865813D01*
Y-859148D01*
X844990Y-855816D01*
X848322D01*
Y-869145D01*
X841658Y-849152D02*
X854987Y-835823D01*
X848322Y-842487D01*
X841658Y-835823D01*
X854987Y-849152D01*
X861651Y-829158D02*
X841658D01*
Y-819161D01*
X844990Y-815829D01*
X851654D01*
X854987Y-819161D01*
Y-829158D01*
X841658Y-809165D02*
X854987D01*
X848322D01*
X844990Y-805832D01*
X841658Y-802500D01*
Y-799168D01*
X854987Y-779174D02*
Y-785839D01*
X851654Y-789171D01*
X844990D01*
X841658Y-785839D01*
Y-779174D01*
X844990Y-775842D01*
X848322D01*
Y-789171D01*
X854987Y-769177D02*
Y-759181D01*
X851654Y-755848D01*
X848322Y-759181D01*
Y-765845D01*
X844990Y-769177D01*
X841658Y-765845D01*
Y-755848D01*
X854987Y-749184D02*
Y-739187D01*
X851654Y-735855D01*
X848322Y-739187D01*
Y-745852D01*
X844990Y-749184D01*
X841658Y-745852D01*
Y-735855D01*
X895243Y-869145D02*
X888579Y-875810D01*
X881914D01*
X875250Y-869145D01*
X878582Y-855816D02*
X881914D01*
Y-859148D01*
Y-852484D01*
Y-855816D01*
X891911D01*
X895243Y-852484D01*
Y-839155D02*
Y-832490D01*
X891911Y-829158D01*
X885247D01*
X881914Y-832490D01*
Y-839155D01*
X885247Y-842487D01*
X891911D01*
X895243Y-839155D01*
X901908Y-822494D02*
X881914D01*
Y-812497D01*
X885247Y-809165D01*
X891911D01*
X895243Y-812497D01*
Y-822494D01*
X881914Y-779174D02*
Y-772510D01*
X885247Y-769177D01*
X895243D01*
Y-779174D01*
X891911Y-782506D01*
X888579Y-779174D01*
Y-769177D01*
X895243Y-762513D02*
X881914D01*
Y-752516D01*
X885247Y-749184D01*
X895243D01*
X875250Y-729190D02*
X895243D01*
Y-739187D01*
X891911Y-742519D01*
X885247D01*
X881914Y-739187D01*
Y-729190D01*
X915507Y-862481D02*
X935500D01*
Y-852484D01*
X932168Y-849152D01*
X928836D01*
X925503D01*
X922171Y-852484D01*
Y-862481D01*
X935500Y-839155D02*
Y-832490D01*
X932168Y-829158D01*
X925503D01*
X922171Y-832490D01*
Y-839155D01*
X925503Y-842487D01*
X932168D01*
X935500Y-839155D01*
X918839Y-819161D02*
X922171D01*
Y-822494D01*
Y-815829D01*
Y-819161D01*
X932168D01*
X935500Y-815829D01*
X918839Y-802500D02*
X922171D01*
Y-805832D01*
Y-799168D01*
Y-802500D01*
X932168D01*
X935500Y-799168D01*
Y-785839D02*
Y-779174D01*
X932168Y-775842D01*
X925503D01*
X922171Y-779174D01*
Y-785839D01*
X925503Y-789171D01*
X932168D01*
X935500Y-785839D01*
Y-769177D02*
X922171D01*
Y-765845D01*
X925503Y-762513D01*
X935500D01*
X925503D01*
X922171Y-759181D01*
X925503Y-755848D01*
X935500D01*
Y-749184D02*
X928836Y-742519D01*
X922171D01*
X915507Y-749184D01*
X890410Y-667674D02*
X870416D01*
Y-657677D01*
X873749Y-654345D01*
X880413D01*
X883745Y-657677D01*
Y-667674D01*
Y-661010D02*
X890410Y-654345D01*
X870416Y-634352D02*
Y-647681D01*
X880413D01*
Y-641016D01*
Y-647681D01*
X890410D01*
X924002Y-684335D02*
X917338Y-691000D01*
X910673D01*
X904009Y-684335D01*
X907341Y-671006D02*
X910673D01*
Y-674339D01*
Y-667674D01*
Y-671006D01*
X920670D01*
X924002Y-667674D01*
Y-654345D02*
Y-647681D01*
X920670Y-644348D01*
X914006D01*
X910673Y-647681D01*
Y-654345D01*
X914006Y-657678D01*
X920670D01*
X924002Y-654345D01*
X930667Y-637684D02*
X910673D01*
Y-627687D01*
X914006Y-624355D01*
X920670D01*
X924002Y-627687D01*
Y-637684D01*
Y-617690D02*
X917338Y-611026D01*
X910673D01*
X904009Y-617690D01*
D96*
X581000Y74500D02*
G03*
X562000Y74500I-9500J0D01*
G01*
X450000Y109250D02*
G03*
X413500Y109250I-18250J0D01*
G01*
X1368500Y127500D02*
Y689000D01*
X581000Y5000D02*
X586000Y0D01*
X557000D02*
X562000Y5000D01*
X450000D02*
X455000Y0D01*
X586000D02*
X788000D01*
X581000Y5000D02*
Y74500D01*
X562000Y5000D02*
Y74500D01*
X455000Y0D02*
X557000D01*
X450000Y5000D02*
Y109250D01*
X413500Y45000D02*
Y109250D01*
X333500Y45000D02*
X413500D01*
X333500D02*
Y127500D01*
X150000D02*
X333500D01*
X150000Y45000D02*
Y127500D01*
X0Y45000D02*
X150000D01*
X0D02*
Y689000D01*
X793000Y127500D02*
X1368500D01*
X0Y689000D02*
X1368500D01*
X793000Y5000D02*
Y127500D01*
X788000Y0D02*
X793000Y5000D01*
D98*
X-238250Y17687D02*
Y192750D01*
Y17687D02*
X-228000Y-9737D01*
X-213790Y17687D02*
Y192750D01*
X-239250Y19687D02*
Y65750D01*
X-212790Y19687D02*
Y65750D01*
X-238250Y193000D02*
X-214000D01*
X-224040Y-9737D02*
X-213790Y17687D01*
X-228000Y-9737D02*
X-224040D01*
D99*
X346500Y689000D02*
Y725750D01*
X388500Y689000D02*
Y725750D01*
Y725750D02*
X940500D01*
X982500D02*
X1405250D01*
X982500Y689000D02*
Y725750D01*
X940500Y689000D02*
Y725750D01*
X-37250Y-36250D02*
Y390000D01*
X1368500Y430500D02*
X1405250Y430500D01*
X1368500Y388500D02*
X1405250D01*
X982500Y-37750D02*
Y128500D01*
Y-37750D02*
X1405250D01*
Y388500D01*
Y430500D02*
Y725750D01*
X-37250Y390000D02*
X-500D01*
X-37250Y432000D02*
X-500Y432000D01*
X-37250Y432000D02*
Y725750D01*
X346500D01*
X-37250Y-36250D02*
X940500D01*
Y127500D01*
X-92500Y-91500D02*
X1460500D01*
Y781000D01*
X-92500Y-91500D02*
Y781000D01*
X1460500D01*
X57500Y-170873D02*
X67497D01*
X87490Y-165874D02*
X89990Y-163375D01*
X94988D01*
X97487Y-165874D01*
Y-175871D01*
X94988Y-178370D01*
X89990D01*
X87490Y-175871D01*
Y-165874D01*
X102485Y-178370D02*
Y-175871D01*
X104985D01*
Y-178370D01*
X102485D01*
X114981Y-165874D02*
X117481Y-163375D01*
X122479D01*
X124978Y-165874D01*
Y-168374D01*
X122479Y-170873D01*
X119980D01*
X122479D01*
X124978Y-173372D01*
Y-175871D01*
X122479Y-178370D01*
X117481D01*
X114981Y-175871D01*
X139973Y-163375D02*
X129977D01*
Y-170873D01*
X134975Y-168374D01*
X137474D01*
X139973Y-170873D01*
Y-175871D01*
X137474Y-178370D01*
X132476D01*
X129977Y-175871D01*
X144972Y-178370D02*
Y-168374D01*
X147471D01*
X149970Y-170873D01*
Y-178370D01*
Y-170873D01*
X152469Y-168374D01*
X154968Y-170873D01*
Y-178370D01*
X159967D02*
Y-168374D01*
X162466D01*
X164965Y-170873D01*
Y-178370D01*
Y-170873D01*
X167464Y-168374D01*
X169964Y-170873D01*
Y-178370D01*
X189957Y-168374D02*
Y-178370D01*
Y-173372D01*
X192456Y-170873D01*
X194956Y-168374D01*
X197455D01*
X204952Y-178370D02*
X209951D01*
X207451D01*
Y-168374D01*
X204952D01*
X217448Y-178370D02*
Y-168374D01*
X224946D01*
X227445Y-170873D01*
Y-178370D01*
X237442Y-183369D02*
X239941D01*
X242440Y-180870D01*
Y-168374D01*
X234943D01*
X232443Y-170873D01*
Y-175871D01*
X234943Y-178370D01*
X242440D01*
X264933Y-168374D02*
X269931D01*
X272430Y-170873D01*
Y-178370D01*
X264933D01*
X262434Y-175871D01*
X264933Y-173372D01*
X272430D01*
X277429Y-178370D02*
Y-168374D01*
X284926D01*
X287426Y-170873D01*
Y-178370D01*
X302421Y-163375D02*
Y-178370D01*
X294923D01*
X292424Y-175871D01*
Y-170873D01*
X294923Y-168374D01*
X302421D01*
X322414Y-165874D02*
X324913Y-163375D01*
X329912D01*
X332411Y-165874D01*
Y-175871D01*
X329912Y-178370D01*
X324913D01*
X322414Y-175871D01*
Y-165874D01*
X337409Y-178370D02*
Y-175871D01*
X339909D01*
Y-178370D01*
X337409D01*
X359902D02*
X349905D01*
X359902Y-168374D01*
Y-165874D01*
X357403Y-163375D01*
X352405D01*
X349905Y-165874D01*
X364901Y-178370D02*
Y-168374D01*
X367400D01*
X369899Y-170873D01*
Y-178370D01*
Y-170873D01*
X372398Y-168374D01*
X374897Y-170873D01*
Y-178370D01*
X379896D02*
Y-168374D01*
X382395D01*
X384894Y-170873D01*
Y-178370D01*
Y-170873D01*
X387393Y-168374D01*
X389892Y-170873D01*
Y-178370D01*
X419883Y-163375D02*
Y-178370D01*
X412385D01*
X409886Y-175871D01*
Y-170873D01*
X412385Y-168374D01*
X419883D01*
X424881D02*
Y-178370D01*
Y-173372D01*
X427380Y-170873D01*
X429879Y-168374D01*
X432379D01*
X439876Y-178370D02*
X444875D01*
X442375D01*
Y-168374D01*
X439876D01*
X452372Y-178370D02*
X457371D01*
X454871D01*
Y-163375D01*
X452372D01*
X464868Y-178370D02*
X469866D01*
X467367D01*
Y-163375D01*
X464868D01*
X492359Y-168374D02*
X497358Y-178370D01*
X502356Y-168374D01*
X507354Y-178370D02*
X512353D01*
X509854D01*
Y-168374D01*
X507354D01*
X522350D02*
X527348D01*
X529847Y-170873D01*
Y-178370D01*
X522350D01*
X519850Y-175871D01*
X522350Y-173372D01*
X529847D01*
X534846Y-170873D02*
X544842D01*
X549841Y-178370D02*
X554839D01*
X552340D01*
Y-168374D01*
X549841D01*
X562337Y-178370D02*
Y-168374D01*
X569834D01*
X572333Y-170873D01*
Y-178370D01*
X577332Y-170873D02*
X587328D01*
X592327Y-183369D02*
Y-168374D01*
X599824D01*
X602324Y-170873D01*
Y-175871D01*
X599824Y-178370D01*
X592327D01*
X609821Y-168374D02*
X614820D01*
X617319Y-170873D01*
Y-178370D01*
X609821D01*
X607322Y-175871D01*
X609821Y-173372D01*
X617319D01*
X632314Y-163375D02*
Y-178370D01*
X624816D01*
X622317Y-175871D01*
Y-170873D01*
X624816Y-168374D01*
X632314D01*
X637312Y-178370D02*
X644810D01*
X647309Y-175871D01*
X644810Y-173372D01*
X639812D01*
X637312Y-170873D01*
X639812Y-168374D01*
X647309D01*
X672301Y-178370D02*
X667303Y-173372D01*
Y-168374D01*
X672301Y-163375D01*
X679799D02*
X684797D01*
X682298D01*
Y-178370D01*
X679799D01*
X684797D01*
X702291Y-165874D02*
X699792Y-163375D01*
X694794D01*
X692294Y-165874D01*
Y-175871D01*
X694794Y-178370D01*
X699792D01*
X702291Y-175871D01*
X707290Y-178370D02*
X712288D01*
X709789D01*
Y-163375D01*
X707290Y-165874D01*
X719786Y-178370D02*
X724784Y-173372D01*
Y-168374D01*
X719786Y-163375D01*
X747277Y-178370D02*
Y-168374D01*
X749776D01*
X752275Y-170873D01*
Y-178370D01*
Y-170873D01*
X754774Y-168374D01*
X757273Y-170873D01*
Y-178370D01*
X762272Y-168374D02*
Y-175871D01*
X764771Y-178370D01*
X772269D01*
Y-168374D01*
X777267Y-178370D02*
X784765D01*
X787264Y-175871D01*
X784765Y-173372D01*
X779766D01*
X777267Y-170873D01*
X779766Y-168374D01*
X787264D01*
X794761Y-165874D02*
Y-168374D01*
X792262D01*
X797261D01*
X794761D01*
Y-175871D01*
X797261Y-178370D01*
X819753Y-163375D02*
Y-178370D01*
X827251D01*
X829750Y-175871D01*
Y-173372D01*
Y-170873D01*
X827251Y-168374D01*
X819753D01*
X842246Y-178370D02*
X837248D01*
X834748Y-175871D01*
Y-170873D01*
X837248Y-168374D01*
X842246D01*
X844745Y-170873D01*
Y-173372D01*
X834748D01*
X864739Y-168374D02*
Y-178370D01*
Y-173372D01*
X867238Y-170873D01*
X869737Y-168374D01*
X872236D01*
X887231Y-178370D02*
X882233D01*
X879734Y-175871D01*
Y-170873D01*
X882233Y-168374D01*
X887231D01*
X889731Y-170873D01*
Y-173372D01*
X879734D01*
X894729Y-178370D02*
X902227D01*
X904726Y-175871D01*
X902227Y-173372D01*
X897228D01*
X894729Y-170873D01*
X897228Y-168374D01*
X904726D01*
X909724Y-178370D02*
X914723D01*
X912223D01*
Y-168374D01*
X909724D01*
X922220Y-178370D02*
Y-168374D01*
X929718D01*
X932217Y-170873D01*
Y-178370D01*
X954710D02*
Y-165874D01*
Y-170873D01*
X952210D01*
X957209D01*
X954710D01*
Y-165874D01*
X957209Y-163375D01*
X964706Y-178370D02*
X969705D01*
X967206D01*
Y-168374D01*
X964706D01*
X977202Y-178370D02*
X982201D01*
X979702D01*
Y-163375D01*
X977202D01*
X989698Y-178370D02*
X994697D01*
X992197D01*
Y-163375D01*
X989698D01*
X1009692Y-178370D02*
X1004693D01*
X1002194Y-175871D01*
Y-170873D01*
X1004693Y-168374D01*
X1009692D01*
X1012191Y-170873D01*
Y-173372D01*
X1002194D01*
X1027186Y-163375D02*
Y-178370D01*
X1019689D01*
X1017189Y-175871D01*
Y-170873D01*
X1019689Y-168374D01*
X1027186D01*
X1047180D02*
Y-175871D01*
X1049679Y-178370D01*
X1052178Y-175871D01*
X1054677Y-178370D01*
X1057176Y-175871D01*
Y-168374D01*
X1062175Y-178370D02*
X1067173D01*
X1064674D01*
Y-168374D01*
X1062175D01*
X1077170Y-165874D02*
Y-168374D01*
X1074671D01*
X1079669D01*
X1077170D01*
Y-175871D01*
X1079669Y-178370D01*
X1087167Y-163375D02*
Y-178370D01*
Y-170873D01*
X1089666Y-168374D01*
X1094664D01*
X1097163Y-170873D01*
Y-178370D01*
X1117157D02*
Y-168374D01*
X1119656D01*
X1122155Y-170873D01*
Y-178370D01*
Y-170873D01*
X1124655Y-168374D01*
X1127154Y-170873D01*
Y-178370D01*
X1139650D02*
X1134651D01*
X1132152Y-175871D01*
Y-170873D01*
X1134651Y-168374D01*
X1139650D01*
X1142149Y-170873D01*
Y-173372D01*
X1132152D01*
X1149647Y-165874D02*
Y-168374D01*
X1147147D01*
X1152146D01*
X1149647D01*
Y-175871D01*
X1152146Y-178370D01*
X1162142Y-168374D02*
X1167141D01*
X1169640Y-170873D01*
Y-178370D01*
X1162142D01*
X1159643Y-175871D01*
X1162142Y-173372D01*
X1169640D01*
X1174638Y-178370D02*
X1179637D01*
X1177138D01*
Y-163375D01*
X1174638D01*
X1212126Y-168374D02*
X1204629D01*
X1202130Y-170873D01*
Y-175871D01*
X1204629Y-178370D01*
X1212126D01*
X1219624Y-168374D02*
X1224622D01*
X1227121Y-170873D01*
Y-178370D01*
X1219624D01*
X1217125Y-175871D01*
X1219624Y-173372D01*
X1227121D01*
X1232120Y-183369D02*
Y-168374D01*
X1239617D01*
X1242117Y-170873D01*
Y-175871D01*
X1239617Y-178370D01*
X1232120D01*
X57500Y-201065D02*
X67497D01*
X97487Y-196067D02*
X94988Y-193568D01*
X89990D01*
X87490Y-196067D01*
Y-198566D01*
X89990Y-201065D01*
X94988D01*
X97487Y-203564D01*
Y-206064D01*
X94988Y-208563D01*
X89990D01*
X87490Y-206064D01*
X104985Y-208563D02*
X109983D01*
X112482Y-206064D01*
Y-201065D01*
X109983Y-198566D01*
X104985D01*
X102485Y-201065D01*
Y-206064D01*
X104985Y-208563D01*
X117481D02*
X122479D01*
X119980D01*
Y-193568D01*
X117481D01*
X139973D02*
Y-208563D01*
X132476D01*
X129977Y-206064D01*
Y-201065D01*
X132476Y-198566D01*
X139973D01*
X152469Y-208563D02*
X147471D01*
X144972Y-206064D01*
Y-201065D01*
X147471Y-198566D01*
X152469D01*
X154968Y-201065D01*
Y-203564D01*
X144972D01*
X159967Y-198566D02*
Y-208563D01*
Y-203564D01*
X162466Y-201065D01*
X164965Y-198566D01*
X167464D01*
X189957Y-208563D02*
Y-198566D01*
X192456D01*
X194956Y-201065D01*
Y-208563D01*
Y-201065D01*
X197455Y-198566D01*
X199954Y-201065D01*
Y-208563D01*
X207451Y-198566D02*
X212450D01*
X214949Y-201065D01*
Y-208563D01*
X207451D01*
X204952Y-206064D01*
X207451Y-203564D01*
X214949D01*
X219947Y-208563D02*
X227445D01*
X229944Y-206064D01*
X227445Y-203564D01*
X222447D01*
X219947Y-201065D01*
X222447Y-198566D01*
X229944D01*
X234943Y-208563D02*
Y-193568D01*
Y-203564D02*
X242440Y-198566D01*
X234943Y-203564D02*
X242440Y-208563D01*
X264933Y-198566D02*
X267432D01*
Y-201065D01*
X264933D01*
Y-198566D01*
Y-206064D02*
X267432D01*
Y-208563D01*
X264933D01*
Y-206064D01*
X292424Y-193568D02*
Y-208563D01*
X299921D01*
X302421Y-206064D01*
Y-196067D01*
X299921Y-193568D01*
X292424D01*
X307419Y-208563D02*
Y-198566D01*
X312418Y-193568D01*
X317416Y-198566D01*
Y-208563D01*
Y-201065D01*
X307419D01*
X322414Y-208563D02*
Y-193568D01*
X329912D01*
X332411Y-196067D01*
Y-201065D01*
X329912Y-203564D01*
X322414D01*
X327413D02*
X332411Y-208563D01*
X337409Y-193568D02*
Y-208563D01*
Y-203564D01*
X347406Y-193568D01*
X339909Y-201065D01*
X347406Y-208563D01*
X367400Y-193568D02*
Y-208563D01*
X374897D01*
X377396Y-206064D01*
Y-203564D01*
X374897Y-201065D01*
X367400D01*
X374897D01*
X377396Y-198566D01*
Y-196067D01*
X374897Y-193568D01*
X367400D01*
X382395D02*
Y-208563D01*
X392392D01*
X397390Y-193568D02*
Y-206064D01*
X399889Y-208563D01*
X404888D01*
X407387Y-206064D01*
Y-193568D01*
X422382D02*
X412385D01*
Y-208563D01*
X422382D01*
X412385Y-201065D02*
X417383D01*
X429879Y-211062D02*
X432379Y-208563D01*
Y-206064D01*
X429879D01*
Y-208563D01*
X432379D01*
X429879Y-211062D01*
X427380Y-213561D01*
X457370Y-193568D02*
Y-208563D01*
X464868D01*
X467367Y-206064D01*
Y-203564D01*
Y-201065D01*
X464868Y-198566D01*
X457370D01*
X474865Y-208563D02*
X479863D01*
X482362Y-206064D01*
Y-201065D01*
X479863Y-198566D01*
X474865D01*
X472366Y-201065D01*
Y-206064D01*
X474865Y-208563D01*
X489860Y-196067D02*
Y-198566D01*
X487361D01*
X492359D01*
X489860D01*
Y-206064D01*
X492359Y-208563D01*
X499857Y-193568D02*
Y-208563D01*
Y-201065D01*
X502356Y-198566D01*
X507354D01*
X509854Y-201065D01*
Y-208563D01*
X529847D02*
X537345D01*
X539844Y-206064D01*
X537345Y-203564D01*
X532346D01*
X529847Y-201065D01*
X532346Y-198566D01*
X539844D01*
X544842Y-208563D02*
X549841D01*
X547341D01*
Y-198566D01*
X544842D01*
X567335Y-193568D02*
Y-208563D01*
X559837D01*
X557338Y-206064D01*
Y-201065D01*
X559837Y-198566D01*
X567335D01*
X579831Y-208563D02*
X574832D01*
X572333Y-206064D01*
Y-201065D01*
X574832Y-198566D01*
X579831D01*
X582330Y-201065D01*
Y-203564D01*
X572333D01*
X587328Y-208563D02*
X594826D01*
X597325Y-206064D01*
X594826Y-203564D01*
X589828D01*
X587328Y-201065D01*
X589828Y-198566D01*
X597325D01*
X604823Y-211062D02*
X607322Y-208563D01*
Y-206064D01*
X604823D01*
Y-208563D01*
X607322D01*
X604823Y-211062D01*
X602324Y-213561D01*
X632314Y-193568D02*
Y-208563D01*
Y-201065D01*
X634813Y-198566D01*
X639812D01*
X642311Y-201065D01*
Y-208563D01*
X649808Y-198566D02*
X654807D01*
X657306Y-201065D01*
Y-208563D01*
X649808D01*
X647309Y-206064D01*
X649808Y-203564D01*
X657306D01*
X662304Y-208563D02*
X667303D01*
X664803D01*
Y-193568D01*
X662304D01*
X677299Y-208563D02*
X682298D01*
X684797Y-206064D01*
Y-201065D01*
X682298Y-198566D01*
X677299D01*
X674800Y-201065D01*
Y-206064D01*
X677299Y-208563D01*
X694794Y-213561D02*
X697293D01*
X699792Y-211062D01*
Y-198566D01*
X692294D01*
X689795Y-201065D01*
Y-206064D01*
X692294Y-208563D01*
X699792D01*
X712288D02*
X707290D01*
X704790Y-206064D01*
Y-201065D01*
X707290Y-198566D01*
X712288D01*
X714787Y-201065D01*
Y-203564D01*
X704790D01*
X719786Y-208563D02*
Y-198566D01*
X727283D01*
X729782Y-201065D01*
Y-208563D01*
X752275D02*
Y-196067D01*
Y-201065D01*
X749776D01*
X754774D01*
X752275D01*
Y-196067D01*
X754774Y-193568D01*
X762272Y-198566D02*
Y-208563D01*
Y-203564D01*
X764771Y-201065D01*
X767270Y-198566D01*
X769769D01*
X784764Y-208563D02*
X779766D01*
X777267Y-206064D01*
Y-201065D01*
X779766Y-198566D01*
X784764D01*
X787264Y-201065D01*
Y-203564D01*
X777267D01*
X799760Y-208563D02*
X794761D01*
X792262Y-206064D01*
Y-201065D01*
X794761Y-198566D01*
X799760D01*
X802259Y-201065D01*
Y-203564D01*
X792262D01*
X809756Y-211062D02*
X812256Y-208563D01*
Y-206064D01*
X809756D01*
Y-208563D01*
X812256D01*
X809756Y-211062D01*
X807257Y-213561D01*
X842246D02*
X844745D01*
X847244Y-211062D01*
Y-198566D01*
X839747D01*
X837248Y-201065D01*
Y-206064D01*
X839747Y-208563D01*
X847244D01*
X852243D02*
X857241D01*
X854742D01*
Y-193568D01*
X852243D01*
X867238Y-208563D02*
X872236D01*
X874735Y-206064D01*
Y-201065D01*
X872236Y-198566D01*
X867238D01*
X864739Y-201065D01*
Y-206064D01*
X867238Y-208563D01*
X879734D02*
X887231D01*
X889731Y-206064D01*
X887231Y-203564D01*
X882233D01*
X879734Y-201065D01*
X882233Y-198566D01*
X889731D01*
X894729Y-208563D02*
X902226D01*
X904726Y-206064D01*
X902226Y-203564D01*
X897228D01*
X894729Y-201065D01*
X897228Y-198566D01*
X904726D01*
X909724D02*
Y-206064D01*
X912223Y-208563D01*
X919721D01*
Y-211062D01*
X917222Y-213561D01*
X914723D01*
X919721Y-208563D02*
Y-198566D01*
X942214Y-208563D02*
Y-196067D01*
Y-201065D01*
X939714D01*
X944713D01*
X942214D01*
Y-196067D01*
X944713Y-193568D01*
X952210Y-208563D02*
X957209D01*
X954709D01*
Y-198566D01*
X952210D01*
X964706Y-208563D02*
Y-198566D01*
X972204D01*
X974703Y-201065D01*
Y-208563D01*
X979701D02*
X984700D01*
X982201D01*
Y-198566D01*
X979701D01*
X992197Y-208563D02*
X999695D01*
X1002194Y-206064D01*
X999695Y-203564D01*
X994697D01*
X992197Y-201065D01*
X994697Y-198566D01*
X1002194D01*
X1007193Y-193568D02*
Y-208563D01*
Y-201065D01*
X1009692Y-198566D01*
X1014690D01*
X1017189Y-201065D01*
Y-208563D01*
X1042181D02*
X1037183Y-203564D01*
Y-198566D01*
X1042181Y-193568D01*
X1049679Y-208563D02*
Y-193568D01*
X1059676Y-208563D01*
Y-193568D01*
X1072171D02*
X1067173D01*
X1064674Y-196067D01*
Y-206064D01*
X1067173Y-208563D01*
X1072171D01*
X1074671Y-206064D01*
Y-196067D01*
X1072171Y-193568D01*
X1079669D02*
X1089666D01*
X1084668D01*
Y-208563D01*
X1109659D02*
Y-198566D01*
X1112159D01*
X1114658Y-201065D01*
Y-208563D01*
Y-201065D01*
X1117157Y-198566D01*
X1119656Y-201065D01*
Y-208563D01*
X1127154Y-198566D02*
X1132152D01*
X1134651Y-201065D01*
Y-208563D01*
X1127154D01*
X1124654Y-206064D01*
X1127154Y-203564D01*
X1134651D01*
X1142149Y-196067D02*
Y-198566D01*
X1139650D01*
X1144648D01*
X1142149D01*
Y-206064D01*
X1144648Y-208563D01*
X1154645Y-196067D02*
Y-198566D01*
X1152146D01*
X1157144D01*
X1154645D01*
Y-206064D01*
X1157144Y-208563D01*
X1172139D02*
X1167141D01*
X1164642Y-206064D01*
Y-201065D01*
X1167141Y-198566D01*
X1172139D01*
X1174638Y-201065D01*
Y-203564D01*
X1164642D01*
X1179637Y-208563D02*
X1184635Y-203564D01*
Y-198566D01*
X1179637Y-193568D01*
X57500Y-231258D02*
X67497D01*
X87490Y-223760D02*
Y-238755D01*
X94988D01*
X97487Y-236256D01*
Y-226259D01*
X94988Y-223760D01*
X87490D01*
X102485Y-238755D02*
Y-223760D01*
X109983D01*
X112482Y-226259D01*
Y-231258D01*
X109983Y-233757D01*
X102485D01*
X107484D02*
X112482Y-238755D01*
X127477Y-226259D02*
X124978Y-223760D01*
X119980D01*
X117481Y-226259D01*
Y-236256D01*
X119980Y-238755D01*
X124978D01*
X127477Y-236256D01*
X132476Y-238755D02*
X139973D01*
X142472Y-236256D01*
X139973Y-233757D01*
X134975D01*
X132476Y-231258D01*
X134975Y-228759D01*
X142472D01*
X162466Y-238755D02*
Y-228759D01*
X164965D01*
X167464Y-231258D01*
Y-238755D01*
Y-231258D01*
X169964Y-228759D01*
X172463Y-231258D01*
Y-238755D01*
X177461Y-228759D02*
Y-236256D01*
X179960Y-238755D01*
X187458D01*
Y-228759D01*
X192456Y-238755D02*
X199954D01*
X202453Y-236256D01*
X199954Y-233757D01*
X194956D01*
X192456Y-231258D01*
X194956Y-228759D01*
X202453D01*
X209951Y-226259D02*
Y-228759D01*
X207451D01*
X212450D01*
X209951D01*
Y-236256D01*
X212450Y-238755D01*
X234943Y-223760D02*
Y-238755D01*
X242440D01*
X244939Y-236256D01*
Y-233757D01*
Y-231258D01*
X242440Y-228759D01*
X234943D01*
X257435Y-238755D02*
X252437D01*
X249938Y-236256D01*
Y-231258D01*
X252437Y-228759D01*
X257435D01*
X259935Y-231258D01*
Y-233757D01*
X249938D01*
X279928Y-228759D02*
Y-238755D01*
Y-233757D01*
X282427Y-231258D01*
X284926Y-228759D01*
X287426D01*
X294923D02*
Y-236256D01*
X297422Y-238755D01*
X304920D01*
Y-228759D01*
X309918Y-238755D02*
Y-228759D01*
X317416D01*
X319915Y-231258D01*
Y-238755D01*
X342408D02*
X347406D01*
X349905Y-236256D01*
Y-231258D01*
X347406Y-228759D01*
X342408D01*
X339909Y-231258D01*
Y-236256D01*
X342408Y-238755D01*
X354904D02*
Y-228759D01*
X362401D01*
X364901Y-231258D01*
Y-238755D01*
X394891Y-226259D02*
X392392Y-223760D01*
X387393D01*
X384894Y-226259D01*
Y-236256D01*
X387393Y-238755D01*
X392392D01*
X394891Y-236256D01*
Y-231258D01*
X389892D01*
X407387Y-238755D02*
X402388D01*
X399889Y-236256D01*
Y-231258D01*
X402388Y-228759D01*
X407387D01*
X409886Y-231258D01*
Y-233757D01*
X399889D01*
X414884Y-228759D02*
Y-238755D01*
Y-233757D01*
X417383Y-231258D01*
X419883Y-228759D01*
X422382D01*
X429879Y-223760D02*
Y-238755D01*
X437377D01*
X439876Y-236256D01*
Y-233757D01*
Y-231258D01*
X437377Y-228759D01*
X429879D01*
X452372Y-238755D02*
X447374D01*
X444875Y-236256D01*
Y-231258D01*
X447374Y-228759D01*
X452372D01*
X454871Y-231258D01*
Y-233757D01*
X444875D01*
X459870Y-228759D02*
Y-238755D01*
Y-233757D01*
X462369Y-231258D01*
X464868Y-228759D01*
X467367D01*
X492359Y-238755D02*
Y-226259D01*
Y-231258D01*
X489860D01*
X494858D01*
X492359D01*
Y-226259D01*
X494858Y-223760D01*
X502356Y-238755D02*
X507354D01*
X504855D01*
Y-228759D01*
X502356D01*
X514852Y-238755D02*
X519850D01*
X517351D01*
Y-223760D01*
X514852D01*
X534846Y-238755D02*
X529847D01*
X527348Y-236256D01*
Y-231258D01*
X529847Y-228759D01*
X534846D01*
X537345Y-231258D01*
Y-233757D01*
X527348D01*
X542343Y-238755D02*
X549841D01*
X552340Y-236256D01*
X549841Y-233757D01*
X544842D01*
X542343Y-231258D01*
X544842Y-228759D01*
X552340D01*
X572333Y-223760D02*
Y-238755D01*
X579831D01*
X582330Y-236256D01*
Y-233757D01*
Y-231258D01*
X579831Y-228759D01*
X572333D01*
X594826Y-238755D02*
X589828D01*
X587328Y-236256D01*
Y-231258D01*
X589828Y-228759D01*
X594826D01*
X597325Y-231258D01*
Y-233757D01*
X587328D01*
X604823Y-238755D02*
Y-226259D01*
Y-231258D01*
X602324D01*
X607322D01*
X604823D01*
Y-226259D01*
X607322Y-223760D01*
X617319Y-238755D02*
X622317D01*
X624816Y-236256D01*
Y-231258D01*
X622317Y-228759D01*
X617319D01*
X614820Y-231258D01*
Y-236256D01*
X617319Y-238755D01*
X629815Y-228759D02*
Y-238755D01*
Y-233757D01*
X632314Y-231258D01*
X634813Y-228759D01*
X637312D01*
X652307Y-238755D02*
X647309D01*
X644810Y-236256D01*
Y-231258D01*
X647309Y-228759D01*
X652307D01*
X654807Y-231258D01*
Y-233757D01*
X644810D01*
X674800Y-223760D02*
Y-238755D01*
X682298D01*
X684797Y-236256D01*
Y-233757D01*
Y-231258D01*
X682298Y-228759D01*
X674800D01*
X689795D02*
Y-236256D01*
X692294Y-238755D01*
X699792D01*
Y-228759D01*
X704790Y-238755D02*
X709789D01*
X707290D01*
Y-228759D01*
X704790D01*
X717286Y-238755D02*
X722285D01*
X719786D01*
Y-223760D01*
X717286D01*
X739779D02*
Y-238755D01*
X732281D01*
X729782Y-236256D01*
Y-231258D01*
X732281Y-228759D01*
X739779D01*
X744778Y-238755D02*
X749776D01*
X747277D01*
Y-228759D01*
X744778D01*
X757273Y-238755D02*
Y-228759D01*
X764771D01*
X767270Y-231258D01*
Y-238755D01*
X777267Y-243754D02*
X779766D01*
X782265Y-241255D01*
Y-228759D01*
X774768D01*
X772269Y-231258D01*
Y-236256D01*
X774768Y-238755D01*
X782265D01*
X802259Y-223760D02*
Y-238755D01*
X809756D01*
X812256Y-236256D01*
Y-233757D01*
Y-231258D01*
X809756Y-228759D01*
X802259D01*
X819753Y-238755D02*
X824752D01*
X827251Y-236256D01*
Y-231258D01*
X824752Y-228759D01*
X819753D01*
X817254Y-231258D01*
Y-236256D01*
X819753Y-238755D01*
X834748Y-228759D02*
X839747D01*
X842246Y-231258D01*
Y-238755D01*
X834748D01*
X832249Y-236256D01*
X834748Y-233757D01*
X842246D01*
X847244Y-228759D02*
Y-238755D01*
Y-233757D01*
X849743Y-231258D01*
X852243Y-228759D01*
X854742D01*
X872236Y-223760D02*
Y-238755D01*
X864739D01*
X862240Y-236256D01*
Y-231258D01*
X864739Y-228759D01*
X872236D01*
X877235Y-238755D02*
X884732D01*
X887231Y-236256D01*
X884732Y-233757D01*
X879734D01*
X877235Y-231258D01*
X879734Y-228759D01*
X887231D01*
X57500Y-261450D02*
X67497D01*
X87490Y-253953D02*
Y-268948D01*
Y-261450D01*
X97487D01*
Y-253953D01*
Y-268948D01*
X104985D02*
X109983D01*
X112482Y-266449D01*
Y-261450D01*
X109983Y-258951D01*
X104985D01*
X102485Y-261450D01*
Y-266449D01*
X104985Y-268948D01*
X117481D02*
X122479D01*
X119980D01*
Y-253953D01*
X117481D01*
X137474Y-268948D02*
X132476D01*
X129977Y-266449D01*
Y-261450D01*
X132476Y-258951D01*
X137474D01*
X139973Y-261450D01*
Y-263950D01*
X129977D01*
X169964Y-253953D02*
Y-268948D01*
X162466D01*
X159967Y-266449D01*
Y-261450D01*
X162466Y-258951D01*
X169964D01*
X174962Y-268948D02*
X179960D01*
X177461D01*
Y-258951D01*
X174962D01*
X189957D02*
X194956D01*
X197455Y-261450D01*
Y-268948D01*
X189957D01*
X187458Y-266449D01*
X189957Y-263950D01*
X197455D01*
X202453Y-268948D02*
Y-258951D01*
X204952D01*
X207451Y-261450D01*
Y-268948D01*
Y-261450D01*
X209951Y-258951D01*
X212450Y-261450D01*
Y-268948D01*
X224946D02*
X219947D01*
X217448Y-266449D01*
Y-261450D01*
X219947Y-258951D01*
X224946D01*
X227445Y-261450D01*
Y-263950D01*
X217448D01*
X234943Y-256452D02*
Y-258951D01*
X232443D01*
X237442D01*
X234943D01*
Y-266449D01*
X237442Y-268948D01*
X252437D02*
X247439D01*
X244939Y-266449D01*
Y-261450D01*
X247439Y-258951D01*
X252437D01*
X254936Y-261450D01*
Y-263950D01*
X244939D01*
X259935Y-258951D02*
Y-268948D01*
Y-263950D01*
X262434Y-261450D01*
X264933Y-258951D01*
X267432D01*
X274930Y-268948D02*
X282427D01*
X284926Y-266449D01*
X282427Y-263950D01*
X277429D01*
X274930Y-261450D01*
X277429Y-258951D01*
X284926D01*
X307419D02*
X312418D01*
X314917Y-261450D01*
Y-268948D01*
X307419D01*
X304920Y-266449D01*
X307419Y-263950D01*
X314917D01*
X319915Y-258951D02*
Y-268948D01*
Y-263950D01*
X322414Y-261450D01*
X324913Y-258951D01*
X327413D01*
X342408Y-268948D02*
X337409D01*
X334910Y-266449D01*
Y-261450D01*
X337409Y-258951D01*
X342408D01*
X344907Y-261450D01*
Y-263950D01*
X334910D01*
X367400Y-268948D02*
Y-256452D01*
Y-261450D01*
X364901D01*
X369899D01*
X367400D01*
Y-256452D01*
X369899Y-253953D01*
X377397Y-268948D02*
X382395D01*
X379896D01*
Y-258951D01*
X377397D01*
X389892Y-268948D02*
Y-258951D01*
X397390D01*
X399889Y-261450D01*
Y-268948D01*
X407387Y-258951D02*
X412385D01*
X414884Y-261450D01*
Y-268948D01*
X407387D01*
X404888Y-266449D01*
X407387Y-263950D01*
X414884D01*
X419883Y-268948D02*
X424881D01*
X422382D01*
Y-253953D01*
X419883D01*
X447374Y-268948D02*
Y-258951D01*
X449873D01*
X452372Y-261450D01*
Y-268948D01*
Y-261450D01*
X454871Y-258951D01*
X457371Y-261450D01*
Y-268948D01*
X464868Y-258951D02*
X469866D01*
X472366Y-261450D01*
Y-268948D01*
X464868D01*
X462369Y-266449D01*
X464868Y-263950D01*
X472366D01*
X477364Y-268948D02*
Y-258951D01*
X484862D01*
X487361Y-261450D01*
Y-268948D01*
X492359Y-258951D02*
Y-266449D01*
X494858Y-268948D01*
X502356D01*
Y-258951D01*
X509854Y-268948D02*
Y-256452D01*
Y-261450D01*
X507354D01*
X512353D01*
X509854D01*
Y-256452D01*
X512353Y-253953D01*
X522350Y-258951D02*
X527348D01*
X529847Y-261450D01*
Y-268948D01*
X522350D01*
X519850Y-266449D01*
X522350Y-263950D01*
X529847D01*
X544842Y-258951D02*
X537345D01*
X534846Y-261450D01*
Y-266449D01*
X537345Y-268948D01*
X544842D01*
X552340Y-256452D02*
Y-258951D01*
X549841D01*
X554839D01*
X552340D01*
Y-266449D01*
X554839Y-268948D01*
X562337Y-258951D02*
Y-266449D01*
X564836Y-268948D01*
X572333D01*
Y-258951D01*
X577332D02*
Y-268948D01*
Y-263950D01*
X579831Y-261450D01*
X582330Y-258951D01*
X584829D01*
X599824Y-268948D02*
X594826D01*
X592327Y-266449D01*
Y-261450D01*
X594826Y-258951D01*
X599824D01*
X602324Y-261450D01*
Y-263950D01*
X592327D01*
X617319Y-253953D02*
Y-268948D01*
X609821D01*
X607322Y-266449D01*
Y-261450D01*
X609821Y-258951D01*
X617319D01*
X647309Y-253953D02*
Y-268948D01*
X639812D01*
X637312Y-266449D01*
Y-261450D01*
X639812Y-258951D01*
X647309D01*
X652308Y-268948D02*
X657306D01*
X654807D01*
Y-258951D01*
X652308D01*
X667303D02*
X672301D01*
X674800Y-261450D01*
Y-268948D01*
X667303D01*
X664803Y-266449D01*
X667303Y-263950D01*
X674800D01*
X679799Y-268948D02*
Y-258951D01*
X682298D01*
X684797Y-261450D01*
Y-268948D01*
Y-261450D01*
X687296Y-258951D01*
X689795Y-261450D01*
Y-268948D01*
X702291D02*
X697293D01*
X694794Y-266449D01*
Y-261450D01*
X697293Y-258951D01*
X702291D01*
X704790Y-261450D01*
Y-263950D01*
X694794D01*
X712288Y-256452D02*
Y-258951D01*
X709789D01*
X714787D01*
X712288D01*
Y-266449D01*
X714787Y-268948D01*
X729782D02*
X724784D01*
X722285Y-266449D01*
Y-261450D01*
X724784Y-258951D01*
X729782D01*
X732282Y-261450D01*
Y-263950D01*
X722285D01*
X737280Y-258951D02*
Y-268948D01*
Y-263950D01*
X739779Y-261450D01*
X742278Y-258951D01*
X744778D01*
X752275Y-268948D02*
X759773D01*
X762272Y-266449D01*
X759773Y-263950D01*
X754774D01*
X752275Y-261450D01*
X754774Y-258951D01*
X762272D01*
X782265Y-253953D02*
X787264D01*
X784765D01*
Y-268948D01*
X782265D01*
X787264D01*
X794761D02*
Y-253953D01*
X804758Y-268948D01*
Y-253953D01*
X819753Y-256452D02*
X817254Y-253953D01*
X812256D01*
X809756Y-256452D01*
Y-266449D01*
X812256Y-268948D01*
X817254D01*
X819753Y-266449D01*
X824752Y-253953D02*
Y-268948D01*
X834748D01*
X839747Y-253953D02*
Y-266449D01*
X842246Y-268948D01*
X847244D01*
X849743Y-266449D01*
Y-253953D01*
X854742D02*
Y-268948D01*
X862240D01*
X864739Y-266449D01*
Y-256452D01*
X862240Y-253953D01*
X854742D01*
X869737D02*
X874735D01*
X872236D01*
Y-268948D01*
X869737D01*
X874735D01*
X882233D02*
Y-253953D01*
X892230Y-268948D01*
Y-253953D01*
X907225Y-256452D02*
X904726Y-253953D01*
X899727D01*
X897228Y-256452D01*
Y-266449D01*
X899727Y-268948D01*
X904726D01*
X907225Y-266449D01*
Y-261450D01*
X902227D01*
X927218Y-253953D02*
Y-268948D01*
Y-261450D01*
X937215D01*
Y-253953D01*
Y-268948D01*
X949711Y-253953D02*
X944713D01*
X942214Y-256452D01*
Y-266449D01*
X944713Y-268948D01*
X949711D01*
X952210Y-266449D01*
Y-256452D01*
X949711Y-253953D01*
X957209D02*
Y-268948D01*
X967206D01*
X982201Y-253953D02*
X972204D01*
Y-268948D01*
X982201D01*
X972204Y-261450D02*
X977202D01*
X1002194Y-268948D02*
Y-253953D01*
X1007193Y-258951D01*
X1012191Y-253953D01*
Y-268948D01*
X1027186Y-253953D02*
X1017189D01*
Y-268948D01*
X1027186D01*
X1017189Y-261450D02*
X1022188D01*
X1032185Y-253953D02*
X1042181D01*
X1037183D01*
Y-268948D01*
X1047180D02*
Y-258951D01*
X1052178Y-253953D01*
X1057176Y-258951D01*
Y-268948D01*
Y-261450D01*
X1047180D01*
X1062175Y-253953D02*
Y-268948D01*
X1072171D01*
X1077170Y-253953D02*
X1082168D01*
X1079669D01*
Y-268948D01*
X1077170D01*
X1082168D01*
X1089666Y-253953D02*
X1099663D01*
Y-256452D01*
X1089666Y-266449D01*
Y-268948D01*
X1099663D01*
X1104661D02*
Y-258951D01*
X1109659Y-253953D01*
X1114658Y-258951D01*
Y-268948D01*
Y-261450D01*
X1104661D01*
X1119656Y-253953D02*
X1129653D01*
X1124654D01*
Y-268948D01*
X1134651Y-253953D02*
X1139650D01*
X1137150D01*
Y-268948D01*
X1134651D01*
X1139650D01*
X1154645Y-253953D02*
X1149646D01*
X1147147Y-256452D01*
Y-266449D01*
X1149646Y-268948D01*
X1154645D01*
X1157144Y-266449D01*
Y-256452D01*
X1154645Y-253953D01*
X1162142Y-268948D02*
Y-253953D01*
X1172139Y-268948D01*
Y-253953D01*
X57500Y-286645D02*
X67497D01*
X87490Y-294142D02*
Y-279147D01*
X94988D01*
X97487Y-281646D01*
Y-286645D01*
X94988Y-289144D01*
X87490D01*
X112482Y-281646D02*
X109983Y-279147D01*
X104985D01*
X102485Y-281646D01*
Y-291643D01*
X104985Y-294142D01*
X109983D01*
X112482Y-291643D01*
X117481Y-279147D02*
X122479D01*
X119980D01*
Y-294142D01*
X117481D01*
X122479D01*
X154968Y-279147D02*
X144972D01*
Y-294142D01*
X154968D01*
X144972Y-286645D02*
X149970D01*
X159967Y-279147D02*
X169964Y-294142D01*
Y-279147D02*
X159967Y-294142D01*
X174962D02*
Y-279147D01*
X182460D01*
X184959Y-281646D01*
Y-286645D01*
X182460Y-289144D01*
X174962D01*
X189957Y-294142D02*
Y-279147D01*
X197455D01*
X199954Y-281646D01*
Y-286645D01*
X197455Y-289144D01*
X189957D01*
X194956D02*
X199954Y-294142D01*
X214949Y-279147D02*
X204952D01*
Y-294142D01*
X214949D01*
X204952Y-286645D02*
X209951D01*
X229944Y-281646D02*
X227445Y-279147D01*
X222447D01*
X219947Y-281646D01*
Y-284145D01*
X222447Y-286645D01*
X227445D01*
X229944Y-289144D01*
Y-291643D01*
X227445Y-294142D01*
X222447D01*
X219947Y-291643D01*
X244939Y-281646D02*
X242440Y-279147D01*
X237442D01*
X234943Y-281646D01*
Y-284145D01*
X237442Y-286645D01*
X242440D01*
X244939Y-289144D01*
Y-291643D01*
X242440Y-294142D01*
X237442D01*
X234943Y-291643D01*
X264933Y-299140D02*
Y-284145D01*
X272430D01*
X274930Y-286645D01*
Y-291643D01*
X272430Y-294142D01*
X264933D01*
X282427Y-284145D02*
X287426D01*
X289925Y-286645D01*
Y-294142D01*
X282427D01*
X279928Y-291643D01*
X282427Y-289144D01*
X289925D01*
X304920Y-279147D02*
Y-294142D01*
X297422D01*
X294923Y-291643D01*
Y-286645D01*
X297422Y-284145D01*
X304920D01*
X309918Y-294142D02*
X317416D01*
X319915Y-291643D01*
X317416Y-289144D01*
X312418D01*
X309918Y-286645D01*
X312418Y-284145D01*
X319915D01*
X344907Y-294142D02*
X339909Y-289144D01*
Y-284145D01*
X344907Y-279147D01*
X354904Y-281646D02*
Y-284145D01*
X352405D01*
X357403D01*
X354904D01*
Y-291643D01*
X357403Y-294142D01*
X367400D02*
X372398D01*
X374897Y-291643D01*
Y-286645D01*
X372398Y-284145D01*
X367400D01*
X364901Y-286645D01*
Y-291643D01*
X367400Y-294142D01*
X379896Y-299140D02*
Y-284145D01*
X387393D01*
X389892Y-286645D01*
Y-291643D01*
X387393Y-294142D01*
X379896D01*
X412385Y-284145D02*
X417383D01*
X419883Y-286645D01*
Y-294142D01*
X412385D01*
X409886Y-291643D01*
X412385Y-289144D01*
X419883D01*
X424881Y-294142D02*
Y-284145D01*
X432379D01*
X434878Y-286645D01*
Y-294142D01*
X449873Y-279147D02*
Y-294142D01*
X442375D01*
X439876Y-291643D01*
Y-286645D01*
X442375Y-284145D01*
X449873D01*
X469866Y-279147D02*
Y-294142D01*
X477364D01*
X479863Y-291643D01*
Y-289144D01*
Y-286645D01*
X477364Y-284145D01*
X469866D01*
X487361Y-294142D02*
X492359D01*
X494858Y-291643D01*
Y-286645D01*
X492359Y-284145D01*
X487361D01*
X484862Y-286645D01*
Y-291643D01*
X487361Y-294142D01*
X502356Y-281646D02*
Y-284145D01*
X499857D01*
X504855D01*
X502356D01*
Y-291643D01*
X504855Y-294142D01*
X514852Y-281646D02*
Y-284145D01*
X512353D01*
X517351D01*
X514852D01*
Y-291643D01*
X517351Y-294142D01*
X527348D02*
X532346D01*
X534846Y-291643D01*
Y-286645D01*
X532346Y-284145D01*
X527348D01*
X524849Y-286645D01*
Y-291643D01*
X527348Y-294142D01*
X539844D02*
Y-284145D01*
X542343D01*
X544842Y-286645D01*
Y-294142D01*
Y-286645D01*
X547341Y-284145D01*
X549841Y-286645D01*
Y-294142D01*
X554839D02*
X559837Y-289144D01*
Y-284145D01*
X554839Y-279147D01*
X582330Y-286645D02*
X592327D01*
X612320Y-281646D02*
X614820Y-279147D01*
X619818D01*
X622317Y-281646D01*
Y-284145D01*
X619818Y-286645D01*
X617319D01*
X619818D01*
X622317Y-289144D01*
Y-291643D01*
X619818Y-294142D01*
X614820D01*
X612320Y-291643D01*
X627315Y-281646D02*
X629815Y-279147D01*
X634813D01*
X637312Y-281646D01*
Y-291643D01*
X634813Y-294142D01*
X629815D01*
X627315Y-291643D01*
Y-281646D01*
X657306Y-294142D02*
Y-284145D01*
X659805D01*
X662304Y-286645D01*
Y-294142D01*
Y-286645D01*
X664803Y-284145D01*
X667303Y-286645D01*
Y-294142D01*
X672301D02*
X677299D01*
X674800D01*
Y-284145D01*
X672301D01*
X694794D02*
X687296D01*
X684797Y-286645D01*
Y-291643D01*
X687296Y-294142D01*
X694794D01*
X699792Y-284145D02*
Y-294142D01*
Y-289144D01*
X702291Y-286645D01*
X704790Y-284145D01*
X707290D01*
X717286Y-294142D02*
X722285D01*
X724784Y-291643D01*
Y-286645D01*
X722285Y-284145D01*
X717286D01*
X714787Y-286645D01*
Y-291643D01*
X717286Y-294142D01*
X744778D02*
X749776D01*
X747277D01*
Y-284145D01*
X744778D01*
X757273Y-294142D02*
Y-284145D01*
X764771D01*
X767270Y-286645D01*
Y-294142D01*
X782265Y-284145D02*
X774768D01*
X772269Y-286645D01*
Y-291643D01*
X774768Y-294142D01*
X782265D01*
X787264Y-279147D02*
Y-294142D01*
Y-286645D01*
X789763Y-284145D01*
X794761D01*
X797261Y-286645D01*
Y-294142D01*
X809756D02*
X804758D01*
X802259Y-291643D01*
Y-286645D01*
X804758Y-284145D01*
X809756D01*
X812256Y-286645D01*
Y-289144D01*
X802259D01*
X817254Y-294142D02*
X824752D01*
X827251Y-291643D01*
X824752Y-289144D01*
X819753D01*
X817254Y-286645D01*
X819753Y-284145D01*
X827251D01*
X849743Y-294142D02*
X854742D01*
X857241Y-291643D01*
Y-286645D01*
X854742Y-284145D01*
X849743D01*
X847244Y-286645D01*
Y-291643D01*
X849743Y-294142D01*
X864739D02*
Y-281646D01*
Y-286645D01*
X862240D01*
X867238D01*
X864739D01*
Y-281646D01*
X867238Y-279147D01*
X894729Y-299140D02*
X897228D01*
X899727Y-296641D01*
Y-284145D01*
X892230D01*
X889731Y-286645D01*
Y-291643D01*
X892230Y-294142D01*
X899727D01*
X907225D02*
X912223D01*
X914723Y-291643D01*
Y-286645D01*
X912223Y-284145D01*
X907225D01*
X904726Y-286645D01*
Y-291643D01*
X907225Y-294142D01*
X919721D02*
X924719D01*
X922220D01*
Y-279147D01*
X919721D01*
X942214D02*
Y-294142D01*
X934716D01*
X932217Y-291643D01*
Y-286645D01*
X934716Y-284145D01*
X942214D01*
X964706Y-294142D02*
X969705D01*
X972204Y-291643D01*
Y-286645D01*
X969705Y-284145D01*
X964706D01*
X962207Y-286645D01*
Y-291643D01*
X964706Y-294142D01*
X977202Y-284145D02*
X982201Y-294142D01*
X987199Y-284145D01*
X999695Y-294142D02*
X994697D01*
X992197Y-291643D01*
Y-286645D01*
X994697Y-284145D01*
X999695D01*
X1002194Y-286645D01*
Y-289144D01*
X992197D01*
X1007193Y-284145D02*
Y-294142D01*
Y-289144D01*
X1009692Y-286645D01*
X1012191Y-284145D01*
X1014690D01*
X1047180Y-279147D02*
X1037183D01*
Y-286645D01*
X1042181Y-284145D01*
X1044680D01*
X1047180Y-286645D01*
Y-291643D01*
X1044680Y-294142D01*
X1039682D01*
X1037183Y-291643D01*
X1052178Y-281646D02*
X1054677Y-279147D01*
X1059676D01*
X1062175Y-281646D01*
Y-291643D01*
X1059676Y-294142D01*
X1054677D01*
X1052178Y-291643D01*
Y-281646D01*
X1082168Y-294142D02*
Y-284145D01*
X1084668D01*
X1087167Y-286645D01*
Y-294142D01*
Y-286645D01*
X1089666Y-284145D01*
X1092165Y-286645D01*
Y-294142D01*
X1097163D02*
X1102162D01*
X1099663D01*
Y-284145D01*
X1097163D01*
X1119656D02*
X1112159D01*
X1109659Y-286645D01*
Y-291643D01*
X1112159Y-294142D01*
X1119656D01*
X1124654Y-284145D02*
Y-294142D01*
Y-289144D01*
X1127154Y-286645D01*
X1129653Y-284145D01*
X1132152D01*
X1142149Y-294142D02*
X1147147D01*
X1149646Y-291643D01*
Y-286645D01*
X1147147Y-284145D01*
X1142149D01*
X1139650Y-286645D01*
Y-291643D01*
X1142149Y-294142D01*
X1169640D02*
X1174638D01*
X1172139D01*
Y-284145D01*
X1169640D01*
X1182136Y-294142D02*
Y-284145D01*
X1189633D01*
X1192133Y-286645D01*
Y-294142D01*
X1207128Y-284145D02*
X1199630D01*
X1197131Y-286645D01*
Y-291643D01*
X1199630Y-294142D01*
X1207128D01*
X1212126Y-279147D02*
Y-294142D01*
Y-286645D01*
X1214625Y-284145D01*
X1219624D01*
X1222123Y-286645D01*
Y-294142D01*
X1234619D02*
X1229621D01*
X1227121Y-291643D01*
Y-286645D01*
X1229621Y-284145D01*
X1234619D01*
X1237118Y-286645D01*
Y-289144D01*
X1227121D01*
X1242116Y-294142D02*
X1249614D01*
X1252113Y-291643D01*
X1249614Y-289144D01*
X1244616D01*
X1242116Y-286645D01*
X1244616Y-284145D01*
X1252113D01*
X1272107Y-294142D02*
Y-284145D01*
X1279604D01*
X1282103Y-286645D01*
Y-294142D01*
X1287102D02*
X1292100D01*
X1289601D01*
Y-284145D01*
X1287102D01*
X1309595D02*
X1302097D01*
X1299598Y-286645D01*
Y-291643D01*
X1302097Y-294142D01*
X1309595D01*
X1314593D02*
Y-279147D01*
Y-289144D02*
X1322091Y-284145D01*
X1314593Y-289144D02*
X1322091Y-294142D01*
X1337086D02*
X1332087D01*
X1329588Y-291643D01*
Y-286645D01*
X1332087Y-284145D01*
X1337086D01*
X1339585Y-286645D01*
Y-289144D01*
X1329588D01*
X1344583Y-294142D02*
X1349582D01*
X1347083D01*
Y-279147D01*
X1344583D01*
X1372074Y-299140D02*
Y-284145D01*
X1379572D01*
X1382071Y-286645D01*
Y-291643D01*
X1379572Y-294142D01*
X1372074D01*
X1387070D02*
X1392068D01*
X1389569D01*
Y-279147D01*
X1387070D01*
X1402065Y-284145D02*
X1407063D01*
X1409562Y-286645D01*
Y-294142D01*
X1402065D01*
X1399565Y-291643D01*
X1402065Y-289144D01*
X1409562D01*
X1417060Y-281646D02*
Y-284145D01*
X1414561D01*
X1419559D01*
X1417060D01*
Y-291643D01*
X1419559Y-294142D01*
X1427057D02*
X1432055D01*
X1429556D01*
Y-284145D01*
X1427057D01*
X1439553Y-294142D02*
Y-284145D01*
X1447050D01*
X1449549Y-286645D01*
Y-294142D01*
X1459546Y-299140D02*
X1462045D01*
X1464545Y-296641D01*
Y-284145D01*
X1457047D01*
X1454548Y-286645D01*
Y-291643D01*
X1457047Y-294142D01*
X1464545D01*
X57500Y-316837D02*
X67497D01*
X87490Y-309340D02*
Y-324335D01*
X94988D01*
X97487Y-321836D01*
Y-319336D01*
X94988Y-316837D01*
X87490D01*
X94988D01*
X97487Y-314338D01*
Y-311839D01*
X94988Y-309340D01*
X87490D01*
X104985Y-324335D02*
X109983D01*
X112482Y-321836D01*
Y-316837D01*
X109983Y-314338D01*
X104985D01*
X102485Y-316837D01*
Y-321836D01*
X104985Y-324335D01*
X119980Y-314338D02*
X124978D01*
X127477Y-316837D01*
Y-324335D01*
X119980D01*
X117481Y-321836D01*
X119980Y-319336D01*
X127477D01*
X132476Y-314338D02*
Y-324335D01*
Y-319336D01*
X134975Y-316837D01*
X137474Y-314338D01*
X139973D01*
X157468Y-309340D02*
Y-324335D01*
X149970D01*
X147471Y-321836D01*
Y-316837D01*
X149970Y-314338D01*
X157468D01*
X184959Y-324335D02*
X179960D01*
X177461Y-321836D01*
Y-316837D01*
X179960Y-314338D01*
X184959D01*
X187458Y-316837D01*
Y-319336D01*
X177461D01*
X202453Y-309340D02*
Y-324335D01*
X194956D01*
X192456Y-321836D01*
Y-316837D01*
X194956Y-314338D01*
X202453D01*
X212450Y-329333D02*
X214949D01*
X217448Y-326834D01*
Y-314338D01*
X209951D01*
X207451Y-316837D01*
Y-321836D01*
X209951Y-324335D01*
X217448D01*
X229944D02*
X224946D01*
X222447Y-321836D01*
Y-316837D01*
X224946Y-314338D01*
X229944D01*
X232443Y-316837D01*
Y-319336D01*
X222447D01*
X252437Y-309340D02*
Y-324335D01*
X259935D01*
X262434Y-321836D01*
Y-319336D01*
Y-316837D01*
X259935Y-314338D01*
X252437D01*
X274930Y-324335D02*
X269931D01*
X267432Y-321836D01*
Y-316837D01*
X269931Y-314338D01*
X274930D01*
X277429Y-316837D01*
Y-319336D01*
X267432D01*
X282427Y-324335D02*
X287426D01*
X284926D01*
Y-309340D01*
X282427D01*
X297422Y-324335D02*
X302421D01*
X304920Y-321836D01*
Y-316837D01*
X302421Y-314338D01*
X297422D01*
X294923Y-316837D01*
Y-321836D01*
X297422Y-324335D01*
X309918Y-314338D02*
Y-321836D01*
X312418Y-324335D01*
X314917Y-321836D01*
X317416Y-324335D01*
X319915Y-321836D01*
Y-314338D01*
X339909Y-324335D02*
Y-309340D01*
X347406D01*
X349905Y-311839D01*
Y-316837D01*
X347406Y-319336D01*
X339909D01*
X364901Y-311839D02*
X362401Y-309340D01*
X357403D01*
X354904Y-311839D01*
Y-321836D01*
X357403Y-324335D01*
X362401D01*
X364901Y-321836D01*
X369899Y-309340D02*
X374897D01*
X372398D01*
Y-324335D01*
X369899D01*
X374897D01*
X397390Y-329333D02*
Y-314338D01*
X404888D01*
X407387Y-316837D01*
Y-321836D01*
X404888Y-324335D01*
X397390D01*
X414884Y-314338D02*
X419883D01*
X422382Y-316837D01*
Y-324335D01*
X414884D01*
X412385Y-321836D01*
X414884Y-319336D01*
X422382D01*
X437377Y-309340D02*
Y-324335D01*
X429879D01*
X427380Y-321836D01*
Y-316837D01*
X429879Y-314338D01*
X437377D01*
X442375Y-324335D02*
X449873D01*
X452372Y-321836D01*
X449873Y-319336D01*
X444875D01*
X442375Y-316837D01*
X444875Y-314338D01*
X452372D01*
X472366Y-324335D02*
Y-314338D01*
X474865D01*
X477364Y-316837D01*
Y-324335D01*
Y-316837D01*
X479863Y-314338D01*
X482362Y-316837D01*
Y-324335D01*
X487361Y-314338D02*
Y-321836D01*
X489860Y-324335D01*
X497358D01*
Y-314338D01*
X502356Y-324335D02*
X509854D01*
X512353Y-321836D01*
X509854Y-319336D01*
X504855D01*
X502356Y-316837D01*
X504855Y-314338D01*
X512353D01*
X519850Y-311839D02*
Y-314338D01*
X517351D01*
X522350D01*
X519850D01*
Y-321836D01*
X522350Y-324335D01*
X544842Y-309340D02*
Y-324335D01*
X552340D01*
X554839Y-321836D01*
Y-319336D01*
Y-316837D01*
X552340Y-314338D01*
X544842D01*
X567335Y-324335D02*
X562337D01*
X559837Y-321836D01*
Y-316837D01*
X562337Y-314338D01*
X567335D01*
X569834Y-316837D01*
Y-319336D01*
X559837D01*
X599824Y-314338D02*
X592327D01*
X589828Y-316837D01*
Y-321836D01*
X592327Y-324335D01*
X599824D01*
X604823Y-309340D02*
Y-324335D01*
Y-316837D01*
X607322Y-314338D01*
X612320D01*
X614819Y-316837D01*
Y-324335D01*
X622317Y-314338D02*
X627315D01*
X629815Y-316837D01*
Y-324335D01*
X622317D01*
X619818Y-321836D01*
X622317Y-319336D01*
X629815D01*
X634813Y-324335D02*
Y-314338D01*
X637312D01*
X639812Y-316837D01*
Y-324335D01*
Y-316837D01*
X642311Y-314338D01*
X644810Y-316837D01*
Y-324335D01*
X652307D02*
Y-311839D01*
Y-316837D01*
X649808D01*
X654807D01*
X652307D01*
Y-311839D01*
X654807Y-309340D01*
X669802Y-324335D02*
X664803D01*
X662304Y-321836D01*
Y-316837D01*
X664803Y-314338D01*
X669802D01*
X672301Y-316837D01*
Y-319336D01*
X662304D01*
X677299Y-314338D02*
Y-324335D01*
Y-319336D01*
X679799Y-316837D01*
X682298Y-314338D01*
X684797D01*
X699792Y-324335D02*
X694794D01*
X692294Y-321836D01*
Y-316837D01*
X694794Y-314338D01*
X699792D01*
X702291Y-316837D01*
Y-319336D01*
X692294D01*
X717286Y-309340D02*
Y-324335D01*
X709789D01*
X707290Y-321836D01*
Y-316837D01*
X709789Y-314338D01*
X717286D01*
X742278Y-324335D02*
X737280Y-319336D01*
Y-314338D01*
X742278Y-309340D01*
X752275Y-314338D02*
X757273D01*
X759773Y-316837D01*
Y-324335D01*
X752275D01*
X749776Y-321836D01*
X752275Y-319336D01*
X759773D01*
X764771Y-324335D02*
X772269D01*
X774768Y-321836D01*
X772269Y-319336D01*
X767270D01*
X764771Y-316837D01*
X767270Y-314338D01*
X774768D01*
X794761Y-324335D02*
X802259D01*
X804758Y-321836D01*
X802259Y-319336D01*
X797261D01*
X794761Y-316837D01*
X797261Y-314338D01*
X804758D01*
X809756Y-309340D02*
Y-324335D01*
Y-316837D01*
X812256Y-314338D01*
X817254D01*
X819753Y-316837D01*
Y-324335D01*
X827251D02*
X832249D01*
X834748Y-321836D01*
Y-316837D01*
X832249Y-314338D01*
X827251D01*
X824752Y-316837D01*
Y-321836D01*
X827251Y-324335D01*
X839747Y-314338D02*
Y-321836D01*
X842246Y-324335D01*
X844745Y-321836D01*
X847244Y-324335D01*
X849743Y-321836D01*
Y-314338D01*
X854742Y-324335D02*
Y-314338D01*
X862239D01*
X864739Y-316837D01*
Y-324335D01*
X869737D02*
X874735Y-319336D01*
Y-314338D01*
X869737Y-309340D01*
X882233Y-324335D02*
Y-321836D01*
X884732D01*
Y-324335D01*
X882233D01*
X919721Y-309340D02*
X909724D01*
Y-324335D01*
X919721D01*
X909724Y-316837D02*
X914723D01*
X934716Y-309340D02*
Y-324335D01*
X927218D01*
X924719Y-321836D01*
Y-316837D01*
X927218Y-314338D01*
X934716D01*
X944713Y-329333D02*
X947212D01*
X949711Y-326834D01*
Y-314338D01*
X942214D01*
X939714Y-316837D01*
Y-321836D01*
X942214Y-324335D01*
X949711D01*
X962207D02*
X957209D01*
X954709Y-321836D01*
Y-316837D01*
X957209Y-314338D01*
X962207D01*
X964706Y-316837D01*
Y-319336D01*
X954709D01*
X969705Y-324335D02*
X977202D01*
X979701Y-321836D01*
X977202Y-319336D01*
X972204D01*
X969705Y-316837D01*
X972204Y-314338D01*
X979701D01*
X999695Y-324335D02*
Y-314338D01*
X1002194D01*
X1004693Y-316837D01*
Y-324335D01*
Y-316837D01*
X1007193Y-314338D01*
X1009692Y-316837D01*
Y-324335D01*
X1014690Y-314338D02*
Y-321836D01*
X1017189Y-324335D01*
X1024687D01*
Y-314338D01*
X1029685Y-324335D02*
X1037183D01*
X1039682Y-321836D01*
X1037183Y-319336D01*
X1032184D01*
X1029685Y-316837D01*
X1032184Y-314338D01*
X1039682D01*
X1047180Y-311839D02*
Y-314338D01*
X1044680D01*
X1049679D01*
X1047180D01*
Y-321836D01*
X1049679Y-324335D01*
X1072171Y-309340D02*
Y-324335D01*
X1079669D01*
X1082168Y-321836D01*
Y-319336D01*
Y-316837D01*
X1079669Y-314338D01*
X1072171D01*
X1094664Y-324335D02*
X1089666D01*
X1087167Y-321836D01*
Y-316837D01*
X1089666Y-314338D01*
X1094664D01*
X1097163Y-316837D01*
Y-319336D01*
X1087167D01*
X1119656Y-324335D02*
Y-311839D01*
Y-316837D01*
X1117157D01*
X1122155D01*
X1119656D01*
Y-311839D01*
X1122155Y-309340D01*
X1129653Y-314338D02*
Y-324335D01*
Y-319336D01*
X1132152Y-316837D01*
X1134651Y-314338D01*
X1137150D01*
X1152146Y-324335D02*
X1147147D01*
X1144648Y-321836D01*
Y-316837D01*
X1147147Y-314338D01*
X1152146D01*
X1154645Y-316837D01*
Y-319336D01*
X1144648D01*
X1167141Y-324335D02*
X1162142D01*
X1159643Y-321836D01*
Y-316837D01*
X1162142Y-314338D01*
X1167141D01*
X1169640Y-316837D01*
Y-319336D01*
X1159643D01*
X1192133Y-324335D02*
X1197131D01*
X1199630Y-321836D01*
Y-316837D01*
X1197131Y-314338D01*
X1192133D01*
X1189633Y-316837D01*
Y-321836D01*
X1192133Y-324335D01*
X1207128D02*
Y-311839D01*
Y-316837D01*
X1204629D01*
X1209627D01*
X1207128D01*
Y-311839D01*
X1209627Y-309340D01*
X1242116Y-314338D02*
X1234619D01*
X1232120Y-316837D01*
Y-321836D01*
X1234619Y-324335D01*
X1242116D01*
X1247115Y-314338D02*
Y-321836D01*
X1249614Y-324335D01*
X1257112D01*
Y-314338D01*
X1264609Y-311839D02*
Y-314338D01*
X1262110D01*
X1267108D01*
X1264609D01*
Y-321836D01*
X1267108Y-324335D01*
X1277105Y-311839D02*
Y-314338D01*
X1274606D01*
X1279604D01*
X1277105D01*
Y-321836D01*
X1279604Y-324335D01*
X1287102D02*
X1292100D01*
X1289601D01*
Y-314338D01*
X1287102D01*
X1299598Y-324335D02*
Y-314338D01*
X1307095D01*
X1309595Y-316837D01*
Y-324335D01*
X1319591Y-329333D02*
X1322091D01*
X1324590Y-326834D01*
Y-314338D01*
X1317092D01*
X1314593Y-316837D01*
Y-321836D01*
X1317092Y-324335D01*
X1324590D01*
X1344583Y-309340D02*
Y-324335D01*
X1352081D01*
X1354580Y-321836D01*
Y-319336D01*
Y-316837D01*
X1352081Y-314338D01*
X1344583D01*
X1359579D02*
Y-321836D01*
X1362078Y-324335D01*
X1369575D01*
Y-314338D01*
X1374574D02*
Y-324335D01*
Y-319336D01*
X1377073Y-316837D01*
X1379572Y-314338D01*
X1382071D01*
X1389569D02*
Y-324335D01*
Y-319336D01*
X1392068Y-316837D01*
X1394567Y-314338D01*
X1397066D01*
X1404564Y-324335D02*
X1412061D01*
X1414561Y-321836D01*
X1412061Y-319336D01*
X1407063D01*
X1404564Y-316837D01*
X1407063Y-314338D01*
X1414561D01*
X-311220Y233442D02*
Y248438D01*
X-303723D01*
X-301224Y245938D01*
Y240940D01*
X-303723Y238441D01*
X-311220D01*
X-286229Y245938D02*
X-288728Y248438D01*
X-293726D01*
X-296225Y245938D01*
Y235942D01*
X-293726Y233442D01*
X-288728D01*
X-286229Y235942D01*
X-281230Y248438D02*
X-276232D01*
X-278731D01*
Y233442D01*
X-281230D01*
X-276232D01*
X-243742Y243439D02*
X-251240D01*
X-253739Y240940D01*
Y235942D01*
X-251240Y233442D01*
X-243742D01*
X-236245D02*
X-231246D01*
X-228747Y235942D01*
Y240940D01*
X-231246Y243439D01*
X-236245D01*
X-238744Y240940D01*
Y235942D01*
X-236245Y233442D01*
X-223749D02*
Y243439D01*
X-216251D01*
X-213752Y240940D01*
Y233442D01*
X-208754D02*
Y243439D01*
X-201256D01*
X-198757Y240940D01*
Y233442D01*
X-186261D02*
X-191259D01*
X-193759Y235942D01*
Y240940D01*
X-191259Y243439D01*
X-186261D01*
X-183762Y240940D01*
Y238441D01*
X-193759D01*
X-168767Y243439D02*
X-176264D01*
X-178763Y240940D01*
Y235942D01*
X-176264Y233442D01*
X-168767D01*
X-161269Y245938D02*
Y243439D01*
X-163768D01*
X-158770D01*
X-161269D01*
Y235942D01*
X-158770Y233442D01*
X-148773D02*
X-143775D01*
X-141276Y235942D01*
Y240940D01*
X-143775Y243439D01*
X-148773D01*
X-151272Y240940D01*
Y235942D01*
X-148773Y233442D01*
X-136277Y243439D02*
Y233442D01*
Y238441D01*
X-133778Y240940D01*
X-131279Y243439D01*
X-128779D01*
X-297475Y208248D02*
X-302473D01*
X-304972Y210748D01*
Y215746D01*
X-302473Y218245D01*
X-297475D01*
X-294976Y215746D01*
Y213247D01*
X-304972D01*
X-279981Y223244D02*
Y208248D01*
X-287478D01*
X-289977Y210748D01*
Y215746D01*
X-287478Y218245D01*
X-279981D01*
X-269984Y203250D02*
X-267485D01*
X-264985Y205749D01*
Y218245D01*
X-272483D01*
X-274982Y215746D01*
Y210748D01*
X-272483Y208248D01*
X-264985D01*
X-252489D02*
X-257488D01*
X-259987Y210748D01*
Y215746D01*
X-257488Y218245D01*
X-252489D01*
X-249990Y215746D01*
Y213247D01*
X-259987D01*
X-220000Y218245D02*
X-227498D01*
X-229997Y215746D01*
Y210748D01*
X-227498Y208248D01*
X-220000D01*
X-215002Y223244D02*
Y208248D01*
Y215746D01*
X-212502Y218245D01*
X-207504D01*
X-205005Y215746D01*
Y208248D01*
X-197507Y218245D02*
X-192509D01*
X-190010Y215746D01*
Y208248D01*
X-197507D01*
X-200007Y210748D01*
X-197507Y213247D01*
X-190010D01*
X-185011Y208248D02*
Y218245D01*
X-182512D01*
X-180013Y215746D01*
Y208248D01*
Y215746D01*
X-177514Y218245D01*
X-175015Y215746D01*
Y208248D01*
X-167517D02*
Y220744D01*
Y215746D01*
X-170016D01*
X-165018D01*
X-167517D01*
Y220744D01*
X-165018Y223244D01*
X-150023Y208248D02*
X-155021D01*
X-157520Y210748D01*
Y215746D01*
X-155021Y218245D01*
X-150023D01*
X-147523Y215746D01*
Y213247D01*
X-157520D01*
X-142525Y218245D02*
Y208248D01*
Y213247D01*
X-140026Y215746D01*
X-137527Y218245D01*
X-135028D01*
X-382231Y141123D02*
X-392228D01*
X-382231Y151120D01*
Y153619D01*
X-384730Y156118D01*
X-389729D01*
X-392228Y153619D01*
X-377233D02*
X-374733Y156118D01*
X-369735D01*
X-367236Y153619D01*
Y143622D01*
X-369735Y141123D01*
X-374733D01*
X-377233Y143622D01*
Y153619D01*
X-342244Y141123D02*
X-347242Y146121D01*
Y151120D01*
X-342244Y156118D01*
X-334746Y148620D02*
X-324750D01*
X-329748Y153619D02*
Y143622D01*
X-319751Y141123D02*
X-309754Y151120D01*
X-304756Y148620D02*
X-294759D01*
X-264769Y156118D02*
X-274766D01*
Y148620D01*
X-269767Y151120D01*
X-267268D01*
X-264769Y148620D01*
Y143622D01*
X-267268Y141123D01*
X-272267D01*
X-274766Y143622D01*
X-259771Y141123D02*
X-254772Y146121D01*
Y151120D01*
X-259771Y156118D01*
X-363487Y130924D02*
Y115929D01*
X-370985D01*
X-373484Y118428D01*
Y123426D01*
X-370985Y125925D01*
X-363487D01*
X-350991Y115929D02*
X-355989D01*
X-358489Y118428D01*
Y123426D01*
X-355989Y125925D01*
X-350991D01*
X-348492Y123426D01*
Y120927D01*
X-358489D01*
X-338495Y110930D02*
X-335996D01*
X-333497Y113429D01*
Y125925D01*
X-340994D01*
X-343493Y123426D01*
Y118428D01*
X-340994Y115929D01*
X-333497D01*
X-328498Y125925D02*
Y115929D01*
Y120927D01*
X-325999Y123426D01*
X-323500Y125925D01*
X-321001D01*
X-306006Y115929D02*
X-311004D01*
X-313503Y118428D01*
Y123426D01*
X-311004Y125925D01*
X-306006D01*
X-303507Y123426D01*
Y120927D01*
X-313503D01*
X-291010Y115929D02*
X-296009D01*
X-298508Y118428D01*
Y123426D01*
X-296009Y125925D01*
X-291010D01*
X-288511Y123426D01*
Y120927D01*
X-298508D01*
X-283513Y115929D02*
X-276015D01*
X-273516Y118428D01*
X-276015Y120927D01*
X-281014D01*
X-283513Y123426D01*
X-281014Y125925D01*
X-273516D01*
X-397987Y-2000D02*
X-392989D01*
X-395488D01*
Y12995D01*
X-397987Y10496D01*
X-385491Y-2000D02*
Y499D01*
X-382992D01*
Y-2000D01*
X-385491D01*
X-365498D02*
Y12995D01*
X-372995Y5498D01*
X-362998D01*
X-343005Y-2000D02*
Y7997D01*
X-340506D01*
X-338007Y5498D01*
Y-2000D01*
Y5498D01*
X-335507Y7997D01*
X-333008Y5498D01*
Y-2000D01*
X-328010D02*
Y7997D01*
X-325510D01*
X-323011Y5498D01*
Y-2000D01*
Y5498D01*
X-320512Y7997D01*
X-318013Y5498D01*
Y-2000D01*
X950000Y-524005D02*
Y-539000D01*
X957498D01*
X959997Y-536501D01*
Y-534002D01*
X957498Y-531502D01*
X950000D01*
X957498D01*
X959997Y-529003D01*
Y-526504D01*
X957498Y-524005D01*
X950000D01*
X972493D02*
X967494D01*
X964995Y-526504D01*
Y-536501D01*
X967494Y-539000D01*
X972493D01*
X974992Y-536501D01*
Y-526504D01*
X972493Y-524005D01*
X979990D02*
X989987D01*
X984989D01*
Y-539000D01*
X994985Y-524005D02*
X1004982D01*
X999984D01*
Y-539000D01*
X1017478Y-524005D02*
X1012480D01*
X1009981Y-526504D01*
Y-536501D01*
X1012480Y-539000D01*
X1017478D01*
X1019977Y-536501D01*
Y-526504D01*
X1017478Y-524005D01*
X1024976Y-539000D02*
Y-524005D01*
X1029974Y-529003D01*
X1034973Y-524005D01*
Y-539000D01*
X1054966Y-524005D02*
Y-539000D01*
X1064963D01*
X1069961D02*
Y-529003D01*
X1074959Y-524005D01*
X1079958Y-529003D01*
Y-539000D01*
Y-531502D01*
X1069961D01*
X1084956Y-524005D02*
Y-526504D01*
X1089955Y-531502D01*
X1094953Y-526504D01*
Y-524005D01*
X1089955Y-531502D02*
Y-539000D01*
X1109948Y-524005D02*
X1099951D01*
Y-539000D01*
X1109948D01*
X1099951Y-531502D02*
X1104950D01*
X1114947Y-539000D02*
Y-524005D01*
X1122444D01*
X1124943Y-526504D01*
Y-531502D01*
X1122444Y-534002D01*
X1114947D01*
X1119945D02*
X1124943Y-539000D01*
X1154934Y-526504D02*
X1152434Y-524005D01*
X1147436D01*
X1144937Y-526504D01*
Y-536501D01*
X1147436Y-539000D01*
X1152434D01*
X1154934Y-536501D01*
X1167430Y-524005D02*
X1162431D01*
X1159932Y-526504D01*
Y-536501D01*
X1162431Y-539000D01*
X1167430D01*
X1169929Y-536501D01*
Y-526504D01*
X1167430Y-524005D01*
X1174927Y-539000D02*
Y-524005D01*
X1182425D01*
X1184924Y-526504D01*
Y-531502D01*
X1182425Y-534002D01*
X1174927D01*
X1189922Y-539000D02*
Y-524005D01*
X1197420D01*
X1199919Y-526504D01*
Y-531502D01*
X1197420Y-534002D01*
X1189922D01*
X1214914Y-524005D02*
X1204917D01*
Y-539000D01*
X1214914D01*
X1204917Y-531502D02*
X1209916D01*
X1219913Y-539000D02*
Y-524005D01*
X1227410D01*
X1229909Y-526504D01*
Y-531502D01*
X1227410Y-534002D01*
X1219913D01*
X1224911D02*
X1229909Y-539000D01*
X1259900Y-524005D02*
X1249903D01*
Y-531502D01*
X1254901D01*
X1249903D01*
Y-539000D01*
X1272396Y-524005D02*
X1267397D01*
X1264898Y-526504D01*
Y-536501D01*
X1267397Y-539000D01*
X1272396D01*
X1274895Y-536501D01*
Y-526504D01*
X1272396Y-524005D01*
X1279893D02*
X1284892D01*
X1282392D01*
Y-539000D01*
X1279893D01*
X1284892D01*
X1292389Y-524005D02*
Y-539000D01*
X1302386D01*
X1322379Y-524005D02*
X1332376D01*
X1327378D01*
Y-539000D01*
X1337375Y-524005D02*
Y-539000D01*
Y-531502D01*
X1347371D01*
Y-524005D01*
Y-539000D01*
X1352370Y-524005D02*
X1357368D01*
X1354869D01*
Y-539000D01*
X1352370D01*
X1357368D01*
X1374862Y-526504D02*
X1372363Y-524005D01*
X1367365D01*
X1364866Y-526504D01*
Y-536501D01*
X1367365Y-539000D01*
X1372363D01*
X1374862Y-536501D01*
X1379861Y-524005D02*
Y-539000D01*
Y-534002D01*
X1389857Y-524005D01*
X1382360Y-531502D01*
X1389857Y-539000D01*
X1394856D02*
Y-524005D01*
X1404853Y-539000D01*
Y-524005D01*
X1419848D02*
X1409851D01*
Y-539000D01*
X1419848D01*
X1409851Y-531502D02*
X1414850D01*
X1434843Y-526504D02*
X1432344Y-524005D01*
X1427345D01*
X1424846Y-526504D01*
Y-529003D01*
X1427345Y-531502D01*
X1432344D01*
X1434843Y-534002D01*
Y-536501D01*
X1432344Y-539000D01*
X1427345D01*
X1424846Y-536501D01*
X1449838Y-526504D02*
X1447339Y-524005D01*
X1442341D01*
X1439841Y-526504D01*
Y-529003D01*
X1442341Y-531502D01*
X1447339D01*
X1449838Y-534002D01*
Y-536501D01*
X1447339Y-539000D01*
X1442341D01*
X1439841Y-536501D01*
X1454836Y-529003D02*
X1457336D01*
Y-531502D01*
X1454836D01*
Y-529003D01*
Y-536501D02*
X1457336D01*
Y-539000D01*
X1454836D01*
Y-536501D01*
X1482328Y-539000D02*
X1487326D01*
X1484827D01*
Y-524005D01*
X1482328Y-526504D01*
X1494824Y-524005D02*
X1504820D01*
Y-526504D01*
X1494824Y-536501D01*
Y-539000D01*
X1509819D02*
Y-536501D01*
X1512318D01*
Y-539000D01*
X1509819D01*
X1532311Y-524005D02*
X1522315D01*
Y-531502D01*
X1527313Y-529003D01*
X1529812D01*
X1532311Y-531502D01*
Y-536501D01*
X1529812Y-539000D01*
X1524814D01*
X1522315Y-536501D01*
X1552305Y-529003D02*
Y-536501D01*
X1554804Y-539000D01*
X1562302D01*
Y-529003D01*
X1567300Y-539000D02*
Y-529003D01*
X1569799D01*
X1572298Y-531502D01*
Y-539000D01*
Y-531502D01*
X1574798Y-529003D01*
X1577297Y-531502D01*
Y-539000D01*
X962497Y-551505D02*
X952500D01*
Y-566500D01*
X962497D01*
X952500Y-559002D02*
X957498D01*
X967495Y-556503D02*
Y-566500D01*
Y-561502D01*
X969994Y-559002D01*
X972494Y-556503D01*
X974993D01*
X987489Y-566500D02*
X982490Y-561502D01*
Y-556503D01*
X987489Y-551505D01*
X994986D02*
Y-566500D01*
X1004983D01*
X1009981D02*
X1014980D01*
X1012481D01*
Y-551505D01*
X1009981Y-554004D01*
X1022477Y-566500D02*
X1027476D01*
X1024977D01*
Y-551505D01*
X1022477Y-554004D01*
X1034973Y-559002D02*
X1044970D01*
X1049968Y-551505D02*
Y-566500D01*
X1057466D01*
X1059965Y-564001D01*
Y-561502D01*
X1057466Y-559002D01*
X1049968D01*
X1057466D01*
X1059965Y-556503D01*
Y-554004D01*
X1057466Y-551505D01*
X1049968D01*
X1067463Y-566500D02*
X1072461D01*
X1074960Y-564001D01*
Y-559002D01*
X1072461Y-556503D01*
X1067463D01*
X1064964Y-559002D01*
Y-564001D01*
X1067463Y-566500D01*
X1082458Y-554004D02*
Y-556503D01*
X1079959D01*
X1084957D01*
X1082458D01*
Y-564001D01*
X1084957Y-566500D01*
X1094954Y-554004D02*
Y-556503D01*
X1092455D01*
X1097453D01*
X1094954D01*
Y-564001D01*
X1097453Y-566500D01*
X1107450D02*
X1112448D01*
X1114947Y-564001D01*
Y-559002D01*
X1112448Y-556503D01*
X1107450D01*
X1104951Y-559002D01*
Y-564001D01*
X1107450Y-566500D01*
X1119946D02*
Y-556503D01*
X1122445D01*
X1124944Y-559002D01*
Y-566500D01*
Y-559002D01*
X1127443Y-556503D01*
X1129942Y-559002D01*
Y-566500D01*
X1134941D02*
X1139939Y-561502D01*
Y-556503D01*
X1134941Y-551505D01*
X1162432Y-561502D02*
X1172429D01*
X1162432Y-556503D02*
X1172429D01*
X1199920Y-566500D02*
Y-551505D01*
X1192422Y-559002D01*
X1202419D01*
X1207418Y-566500D02*
Y-564001D01*
X1209917D01*
Y-566500D01*
X1207418D01*
X1229910D02*
X1219913D01*
X1229910Y-556503D01*
Y-554004D01*
X1227411Y-551505D01*
X1222413D01*
X1219913Y-554004D01*
X947500Y-496505D02*
Y-511500D01*
X957497D01*
X962495D02*
X967494D01*
X964994D01*
Y-496505D01*
X962495Y-499004D01*
X974991Y-511500D02*
X979989D01*
X977490D01*
Y-496505D01*
X974991Y-499004D01*
X987487Y-504002D02*
X997484D01*
X1002482Y-496505D02*
Y-511500D01*
X1009980D01*
X1012479Y-509001D01*
Y-506502D01*
X1009980Y-504002D01*
X1002482D01*
X1009980D01*
X1012479Y-501503D01*
Y-499004D01*
X1009980Y-496505D01*
X1002482D01*
X1019977Y-511500D02*
X1024975D01*
X1027474Y-509001D01*
Y-504002D01*
X1024975Y-501503D01*
X1019977D01*
X1017477Y-504002D01*
Y-509001D01*
X1019977Y-511500D01*
X1034972Y-499004D02*
Y-501503D01*
X1032473D01*
X1037471D01*
X1034972D01*
Y-509001D01*
X1037471Y-511500D01*
X1047468Y-499004D02*
Y-501503D01*
X1044968D01*
X1049967D01*
X1047468D01*
Y-509001D01*
X1049967Y-511500D01*
X1059964D02*
X1064962D01*
X1067461Y-509001D01*
Y-504002D01*
X1064962Y-501503D01*
X1059964D01*
X1057464Y-504002D01*
Y-509001D01*
X1059964Y-511500D01*
X1072460D02*
Y-501503D01*
X1074959D01*
X1077458Y-504002D01*
Y-511500D01*
Y-504002D01*
X1079957Y-501503D01*
X1082456Y-504002D01*
Y-511500D01*
X1102450Y-504002D02*
X1112447D01*
X1117445Y-511500D02*
X1124943Y-504002D01*
X1117445Y-496505D01*
X1144936Y-511500D02*
X1149934D01*
X1147435D01*
Y-496505D01*
X1144936Y-499004D01*
X1157432Y-496505D02*
X1167429D01*
Y-499004D01*
X1157432Y-509001D01*
Y-511500D01*
X1172427Y-499004D02*
X1174926Y-496505D01*
X1179925D01*
X1182424Y-499004D01*
Y-501503D01*
X1179925Y-504002D01*
X1177426D01*
X1179925D01*
X1182424Y-506502D01*
Y-509001D01*
X1179925Y-511500D01*
X1174926D01*
X1172427Y-509001D01*
X1187422Y-501503D02*
Y-509001D01*
X1189921Y-511500D01*
X1197419D01*
Y-501503D01*
X1202418Y-511500D02*
Y-501503D01*
X1204917D01*
X1207416Y-504002D01*
Y-511500D01*
Y-504002D01*
X1209915Y-501503D01*
X1212414Y-504002D01*
Y-511500D01*
X1234907Y-499004D02*
Y-501503D01*
X1232408D01*
X1237406D01*
X1234907D01*
Y-509001D01*
X1237406Y-511500D01*
X1244904Y-496505D02*
Y-511500D01*
Y-504002D01*
X1247403Y-501503D01*
X1252401D01*
X1254901Y-504002D01*
Y-511500D01*
X1259899D02*
X1264897D01*
X1262398D01*
Y-501503D01*
X1259899D01*
X1282392D02*
X1274894D01*
X1272395Y-504002D01*
Y-509001D01*
X1274894Y-511500D01*
X1282392D01*
X1287390D02*
Y-496505D01*
Y-506502D02*
X1294888Y-501503D01*
X1287390Y-506502D02*
X1294888Y-511500D01*
X541500Y815495D02*
Y800500D01*
X548998D01*
X551497Y802999D01*
Y805498D01*
X548998Y807998D01*
X541500D01*
X548998D01*
X551497Y810497D01*
Y812996D01*
X548998Y815495D01*
X541500D01*
X558994Y800500D02*
X563993D01*
X566492Y802999D01*
Y807998D01*
X563993Y810497D01*
X558994D01*
X556495Y807998D01*
Y802999D01*
X558994Y800500D01*
X573989Y810497D02*
X578988D01*
X581487Y807998D01*
Y800500D01*
X573989D01*
X571490Y802999D01*
X573989Y805498D01*
X581487D01*
X586485Y810497D02*
Y800500D01*
Y805498D01*
X588985Y807998D01*
X591484Y810497D01*
X593983D01*
X611477Y815495D02*
Y800500D01*
X603980D01*
X601481Y802999D01*
Y807998D01*
X603980Y810497D01*
X611477D01*
X641468Y812996D02*
X638968Y815495D01*
X633970D01*
X631471Y812996D01*
Y802999D01*
X633970Y800500D01*
X638968D01*
X641468Y802999D01*
X646466Y810497D02*
Y802999D01*
X648965Y800500D01*
X656463D01*
Y810497D01*
X663960Y812996D02*
Y810497D01*
X661461D01*
X666460D01*
X663960D01*
Y802999D01*
X666460Y800500D01*
X676456D02*
X681455D01*
X683954Y802999D01*
Y807998D01*
X681455Y810497D01*
X676456D01*
X673957Y807998D01*
Y802999D01*
X676456Y800500D01*
X688952Y810497D02*
Y802999D01*
X691451Y800500D01*
X698949D01*
Y810497D01*
X706447Y812996D02*
Y810497D01*
X703947D01*
X708946D01*
X706447D01*
Y802999D01*
X708946Y800500D01*
X949750Y-786755D02*
Y-801750D01*
X957248D01*
X959747Y-799251D01*
Y-789254D01*
X957248Y-786755D01*
X949750D01*
X964745D02*
X969744D01*
X967244D01*
Y-801750D01*
X964745D01*
X969744D01*
X987238Y-786755D02*
X977241D01*
Y-794252D01*
X982240D01*
X977241D01*
Y-801750D01*
X1002233Y-786755D02*
X992236D01*
Y-794252D01*
X997235D01*
X992236D01*
Y-801750D01*
X1017228Y-786755D02*
X1007232D01*
Y-801750D01*
X1017228D01*
X1007232Y-794252D02*
X1012230D01*
X1022227Y-801750D02*
Y-786755D01*
X1029724D01*
X1032224Y-789254D01*
Y-794252D01*
X1029724Y-796751D01*
X1022227D01*
X1027225D02*
X1032224Y-801750D01*
X1047219Y-786755D02*
X1037222D01*
Y-801750D01*
X1047219D01*
X1037222Y-794252D02*
X1042220D01*
X1052217Y-801750D02*
Y-786755D01*
X1062214Y-801750D01*
Y-786755D01*
X1067212D02*
X1077209D01*
X1072211D01*
Y-801750D01*
X1082207Y-786755D02*
X1087206D01*
X1084706D01*
Y-801750D01*
X1082207D01*
X1087206D01*
X1094703D02*
Y-791753D01*
X1099702Y-786755D01*
X1104700Y-791753D01*
Y-801750D01*
Y-794252D01*
X1094703D01*
X1109698Y-786755D02*
Y-801750D01*
X1119695D01*
X1139689Y-786755D02*
X1144687D01*
X1142188D01*
Y-801750D01*
X1139689D01*
X1144687D01*
X1152185D02*
Y-786755D01*
X1157183Y-791753D01*
X1162181Y-786755D01*
Y-801750D01*
X1167180D02*
Y-786755D01*
X1174677D01*
X1177177Y-789254D01*
Y-794252D01*
X1174677Y-796751D01*
X1167180D01*
X1192172Y-786755D02*
X1182175D01*
Y-801750D01*
X1192172D01*
X1182175Y-794252D02*
X1187173D01*
X1197170Y-786755D02*
Y-801750D01*
X1204668D01*
X1207167Y-799251D01*
Y-789254D01*
X1204668Y-786755D01*
X1197170D01*
X1212165Y-801750D02*
Y-791753D01*
X1217164Y-786755D01*
X1222162Y-791753D01*
Y-801750D01*
Y-794252D01*
X1212165D01*
X1227160Y-801750D02*
Y-786755D01*
X1237157Y-801750D01*
Y-786755D01*
X1252152Y-789254D02*
X1249653Y-786755D01*
X1244655D01*
X1242156Y-789254D01*
Y-799251D01*
X1244655Y-801750D01*
X1249653D01*
X1252152Y-799251D01*
X1267147Y-786755D02*
X1257151D01*
Y-801750D01*
X1267147D01*
X1257151Y-794252D02*
X1262149D01*
X1272146Y-791753D02*
X1274645D01*
Y-794252D01*
X1272146D01*
Y-791753D01*
Y-799251D02*
X1274645D01*
Y-801750D01*
X1272146D01*
Y-799251D01*
X1299637Y-789254D02*
X1302136Y-786755D01*
X1307135D01*
X1309634Y-789254D01*
Y-791753D01*
X1307135Y-794252D01*
X1309634Y-796751D01*
Y-799251D01*
X1307135Y-801750D01*
X1302136D01*
X1299637Y-799251D01*
Y-796751D01*
X1302136Y-794252D01*
X1299637Y-791753D01*
Y-789254D01*
X1302136Y-794252D02*
X1307135D01*
X1324629Y-786755D02*
X1314632D01*
Y-794252D01*
X1319630Y-791753D01*
X1322130D01*
X1324629Y-794252D01*
Y-799251D01*
X1322130Y-801750D01*
X1317131D01*
X1314632Y-799251D01*
X1352120Y-786755D02*
X1347121D01*
X1344622Y-789254D01*
Y-799251D01*
X1347121Y-801750D01*
X1352120D01*
X1354619Y-799251D01*
Y-789254D01*
X1352120Y-786755D01*
X1359617D02*
Y-801750D01*
Y-794252D01*
X1362117Y-791753D01*
X1367115D01*
X1369614Y-794252D01*
Y-801750D01*
X1374613D02*
Y-791753D01*
X1377112D01*
X1379611Y-794252D01*
Y-801750D01*
Y-794252D01*
X1382110Y-791753D01*
X1384609Y-794252D01*
Y-801750D01*
X1389608D02*
X1397105D01*
X1399604Y-799251D01*
X1397105Y-796751D01*
X1392107D01*
X1389608Y-794252D01*
X1392107Y-791753D01*
X1399604D01*
X949750Y-816755D02*
X959747D01*
X954749D01*
Y-831750D01*
X972243Y-816755D02*
X967244D01*
X964745Y-819254D01*
Y-829251D01*
X967244Y-831750D01*
X972243D01*
X974742Y-829251D01*
Y-819254D01*
X972243Y-816755D01*
X979741D02*
Y-831750D01*
X989737D01*
X1004732Y-816755D02*
X994736D01*
Y-831750D01*
X1004732D01*
X994736Y-824252D02*
X999734D01*
X1009731Y-831750D02*
Y-816755D01*
X1017228D01*
X1019727Y-819254D01*
Y-824252D01*
X1017228Y-826751D01*
X1009731D01*
X1014729D02*
X1019727Y-831750D01*
X1024726D02*
Y-821753D01*
X1029724Y-816755D01*
X1034723Y-821753D01*
Y-831750D01*
Y-824252D01*
X1024726D01*
X1039721Y-831750D02*
Y-816755D01*
X1049718Y-831750D01*
Y-816755D01*
X1064713Y-819254D02*
X1062214Y-816755D01*
X1057215D01*
X1054716Y-819254D01*
Y-829251D01*
X1057215Y-831750D01*
X1062214D01*
X1064713Y-829251D01*
X1079708Y-816755D02*
X1069711D01*
Y-831750D01*
X1079708D01*
X1069711Y-824252D02*
X1074710D01*
X1084706Y-821753D02*
X1087206D01*
Y-824252D01*
X1084706D01*
Y-821753D01*
Y-829251D02*
X1087206D01*
Y-831750D01*
X1084706D01*
Y-829251D01*
X1112198Y-824252D02*
X1122194D01*
X1117196Y-819254D02*
Y-829251D01*
X1127193Y-831750D02*
X1137189Y-821753D01*
X1142188Y-824252D02*
X1152185D01*
X1172178Y-831750D02*
X1177177D01*
X1174677D01*
Y-816755D01*
X1172178Y-819254D01*
X1184674D02*
X1187173Y-816755D01*
X1192172D01*
X1194671Y-819254D01*
Y-829251D01*
X1192172Y-831750D01*
X1187173D01*
X1184674Y-829251D01*
Y-819254D01*
X1199669Y-829251D02*
X1212165Y-816755D01*
X1199669D02*
Y-814256D01*
X1202169D01*
Y-816755D01*
X1199669D01*
X1209666Y-831750D02*
Y-829251D01*
X1212165D01*
Y-831750D01*
X1209666D01*
X949750Y-759255D02*
Y-774250D01*
X957248D01*
X959747Y-771751D01*
Y-761754D01*
X957248Y-759255D01*
X949750D01*
X964745D02*
X969744D01*
X967244D01*
Y-774250D01*
X964745D01*
X969744D01*
X987238Y-759255D02*
X977241D01*
Y-766752D01*
X982240D01*
X977241D01*
Y-774250D01*
X992236D02*
Y-771751D01*
X994736D01*
Y-774250D01*
X992236D01*
X1019728D02*
Y-759255D01*
X1027225D01*
X1029724Y-761754D01*
Y-766752D01*
X1027225Y-769251D01*
X1019728D01*
X1034723Y-774250D02*
Y-764253D01*
X1039721Y-759255D01*
X1044719Y-764253D01*
Y-774250D01*
Y-766752D01*
X1034723D01*
X1049718Y-759255D02*
X1054716D01*
X1052217D01*
Y-774250D01*
X1049718D01*
X1054716D01*
X1062214D02*
Y-759255D01*
X1069711D01*
X1072211Y-761754D01*
Y-766752D01*
X1069711Y-769251D01*
X1062214D01*
X1067212D02*
X1072211Y-774250D01*
X1102201Y-761754D02*
X1099702Y-759255D01*
X1094703D01*
X1092204Y-761754D01*
Y-764253D01*
X1094703Y-766752D01*
X1099702D01*
X1102201Y-769251D01*
Y-771751D01*
X1099702Y-774250D01*
X1094703D01*
X1092204Y-771751D01*
X1107199Y-774250D02*
Y-759255D01*
X1114697D01*
X1117196Y-761754D01*
Y-766752D01*
X1114697Y-769251D01*
X1107199D01*
X1122194Y-774250D02*
Y-764253D01*
X1127193Y-759255D01*
X1132191Y-764253D01*
Y-774250D01*
Y-766752D01*
X1122194D01*
X1147186Y-761754D02*
X1144687Y-759255D01*
X1139689D01*
X1137189Y-761754D01*
Y-771751D01*
X1139689Y-774250D01*
X1144687D01*
X1147186Y-771751D01*
X1152185Y-759255D02*
X1157183D01*
X1154684D01*
Y-774250D01*
X1152185D01*
X1157183D01*
X1164681D02*
Y-759255D01*
X1174677Y-774250D01*
Y-759255D01*
X1189672Y-761754D02*
X1187173Y-759255D01*
X1182175D01*
X1179676Y-761754D01*
Y-771751D01*
X1182175Y-774250D01*
X1187173D01*
X1189672Y-771751D01*
Y-766752D01*
X1184674D01*
X1194671Y-764253D02*
X1197170D01*
Y-766752D01*
X1194671D01*
Y-764253D01*
Y-771751D02*
X1197170D01*
Y-774250D01*
X1194671D01*
Y-771751D01*
X1222162Y-761754D02*
X1224661Y-759255D01*
X1229660D01*
X1232159Y-761754D01*
Y-771751D01*
X1229660Y-774250D01*
X1224661D01*
X1222162Y-771751D01*
Y-761754D01*
X1237157Y-774250D02*
Y-771751D01*
X1239656D01*
Y-774250D01*
X1237157D01*
X1259650D02*
X1249653D01*
X1259650Y-764253D01*
Y-761754D01*
X1257151Y-759255D01*
X1252152D01*
X1249653Y-761754D01*
X1264648Y-774250D02*
Y-764253D01*
X1267148D01*
X1269647Y-766752D01*
Y-774250D01*
Y-766752D01*
X1272146Y-764253D01*
X1274645Y-766752D01*
Y-774250D01*
X1279643D02*
Y-764253D01*
X1282143D01*
X1284642Y-766752D01*
Y-774250D01*
Y-766752D01*
X1287141Y-764253D01*
X1289640Y-766752D01*
Y-774250D01*
X949000Y-733005D02*
Y-748000D01*
X956498D01*
X958997Y-745501D01*
Y-735504D01*
X956498Y-733005D01*
X949000D01*
X963995D02*
X968994D01*
X966495D01*
Y-748000D01*
X963995D01*
X968994D01*
X986488Y-733005D02*
X976491D01*
Y-740502D01*
X981490D01*
X976491D01*
Y-748000D01*
X991487D02*
Y-745501D01*
X993986D01*
Y-748000D01*
X991487D01*
X1018978D02*
Y-733005D01*
X1026475D01*
X1028974Y-735504D01*
Y-740502D01*
X1026475Y-743001D01*
X1018978D01*
X1033973Y-748000D02*
Y-738003D01*
X1038971Y-733005D01*
X1043969Y-738003D01*
Y-748000D01*
Y-740502D01*
X1033973D01*
X1048968Y-733005D02*
X1053966D01*
X1051467D01*
Y-748000D01*
X1048968D01*
X1053966D01*
X1061464D02*
Y-733005D01*
X1068961D01*
X1071461Y-735504D01*
Y-740502D01*
X1068961Y-743001D01*
X1061464D01*
X1066462D02*
X1071461Y-748000D01*
X1091454Y-733005D02*
Y-748000D01*
X1096452Y-743001D01*
X1101451Y-748000D01*
Y-733005D01*
X1106449D02*
X1111448D01*
X1108948D01*
Y-748000D01*
X1106449D01*
X1111448D01*
X1118945Y-733005D02*
Y-748000D01*
X1126443D01*
X1128942Y-745501D01*
Y-735504D01*
X1126443Y-733005D01*
X1118945D01*
X1133940D02*
X1143937D01*
X1138939D01*
Y-748000D01*
X1148935Y-733005D02*
Y-748000D01*
Y-740502D01*
X1158932D01*
Y-733005D01*
Y-748000D01*
X1163931Y-738003D02*
X1166430D01*
Y-740502D01*
X1163931D01*
Y-738003D01*
Y-745501D02*
X1166430D01*
Y-748000D01*
X1163931D01*
Y-745501D01*
X1191422Y-735504D02*
X1193921Y-733005D01*
X1198919D01*
X1201419Y-735504D01*
Y-745501D01*
X1198919Y-748000D01*
X1193921D01*
X1191422Y-745501D01*
Y-735504D01*
X1206417Y-748000D02*
Y-745501D01*
X1208916D01*
Y-748000D01*
X1206417D01*
X1218913Y-735504D02*
X1221412Y-733005D01*
X1226410D01*
X1228910Y-735504D01*
Y-738003D01*
X1226410Y-740502D01*
X1223911D01*
X1226410D01*
X1228910Y-743001D01*
Y-745501D01*
X1226410Y-748000D01*
X1221412D01*
X1218913Y-745501D01*
X1233908Y-748000D02*
Y-738003D01*
X1236407D01*
X1238906Y-740502D01*
Y-748000D01*
Y-740502D01*
X1241406Y-738003D01*
X1243905Y-740502D01*
Y-748000D01*
X1248903D02*
Y-738003D01*
X1251402D01*
X1253902Y-740502D01*
Y-748000D01*
Y-740502D01*
X1256401Y-738003D01*
X1258900Y-740502D01*
Y-748000D01*
X29500Y-134505D02*
Y-144502D01*
X34498Y-149500D01*
X39497Y-144502D01*
Y-134505D01*
X54492D02*
X44495D01*
Y-149500D01*
X54492D01*
X44495Y-142002D02*
X49493D01*
X59490Y-149500D02*
Y-134505D01*
X66988D01*
X69487Y-137004D01*
Y-142002D01*
X66988Y-144502D01*
X59490D01*
X64489D02*
X69487Y-149500D01*
X74485Y-134505D02*
Y-137004D01*
X79484Y-142002D01*
X84482Y-137004D01*
Y-134505D01*
X79484Y-142002D02*
Y-149500D01*
X104476Y-134505D02*
X109474D01*
X106975D01*
Y-149500D01*
X104476D01*
X109474D01*
X116972D02*
Y-134505D01*
X121970Y-139503D01*
X126968Y-134505D01*
Y-149500D01*
X131967D02*
Y-134505D01*
X139464D01*
X141964Y-137004D01*
Y-142002D01*
X139464Y-144502D01*
X131967D01*
X154459Y-134505D02*
X149461D01*
X146962Y-137004D01*
Y-147001D01*
X149461Y-149500D01*
X154459D01*
X156959Y-147001D01*
Y-137004D01*
X154459Y-134505D01*
X161957Y-149500D02*
Y-134505D01*
X169455D01*
X171954Y-137004D01*
Y-142002D01*
X169455Y-144502D01*
X161957D01*
X166956D02*
X171954Y-149500D01*
X176952Y-134505D02*
X186949D01*
X181951D01*
Y-149500D01*
X191947D02*
Y-139503D01*
X196946Y-134505D01*
X201944Y-139503D01*
Y-149500D01*
Y-142002D01*
X191947D01*
X206943Y-149500D02*
Y-134505D01*
X216939Y-149500D01*
Y-134505D01*
X221938D02*
X231934D01*
X226936D01*
Y-149500D01*
X251928D02*
Y-134505D01*
X261925Y-149500D01*
Y-134505D01*
X274421D02*
X269422D01*
X266923Y-137004D01*
Y-147001D01*
X269422Y-149500D01*
X274421D01*
X276920Y-147001D01*
Y-137004D01*
X274421Y-134505D01*
X281918D02*
X291915D01*
X286917D01*
Y-149500D01*
X306910Y-134505D02*
X296913D01*
Y-149500D01*
X306910D01*
X296913Y-142002D02*
X301912D01*
X321905Y-137004D02*
X319406Y-134505D01*
X314408D01*
X311908Y-137004D01*
Y-139503D01*
X314408Y-142002D01*
X319406D01*
X321905Y-144502D01*
Y-147001D01*
X319406Y-149500D01*
X314408D01*
X311908Y-147001D01*
X326904Y-139503D02*
X329403D01*
Y-142002D01*
X326904D01*
Y-139503D01*
Y-147001D02*
X329403D01*
Y-149500D01*
X326904D01*
Y-147001D01*
X947000Y-921755D02*
X951998D01*
X949499D01*
Y-936750D01*
X947000D01*
X951998D01*
X959496D02*
Y-921755D01*
X969493Y-936750D01*
Y-921755D01*
X974491D02*
X984488D01*
X979489D01*
Y-936750D01*
X999483Y-921755D02*
X989486D01*
Y-936750D01*
X999483D01*
X989486Y-929252D02*
X994485D01*
X1004481Y-936750D02*
Y-921755D01*
X1011979D01*
X1014478Y-924254D01*
Y-929252D01*
X1011979Y-931752D01*
X1004481D01*
X1009480D02*
X1014478Y-936750D01*
X1019476D02*
Y-921755D01*
X1029473Y-936750D01*
Y-921755D01*
X1034472Y-936750D02*
Y-926753D01*
X1039470Y-921755D01*
X1044468Y-926753D01*
Y-936750D01*
Y-929252D01*
X1034472D01*
X1049467Y-921755D02*
Y-936750D01*
X1059464D01*
X1079457Y-921755D02*
Y-936750D01*
X1089454D01*
X1094452D02*
Y-926753D01*
X1099451Y-921755D01*
X1104449Y-926753D01*
Y-936750D01*
Y-929252D01*
X1094452D01*
X1109447Y-921755D02*
Y-924254D01*
X1114446Y-929252D01*
X1119444Y-924254D01*
Y-921755D01*
X1114446Y-929252D02*
Y-936750D01*
X1134439Y-921755D02*
X1124443D01*
Y-936750D01*
X1134439D01*
X1124443Y-929252D02*
X1129441D01*
X1139438Y-936750D02*
Y-921755D01*
X1146935D01*
X1149434Y-924254D01*
Y-929252D01*
X1146935Y-931752D01*
X1139438D01*
X1144436D02*
X1149434Y-936750D01*
X1179425Y-924254D02*
X1176926Y-921755D01*
X1171927D01*
X1169428Y-924254D01*
Y-934251D01*
X1171927Y-936750D01*
X1176926D01*
X1179425Y-934251D01*
X1191921Y-921755D02*
X1186922D01*
X1184423Y-924254D01*
Y-934251D01*
X1186922Y-936750D01*
X1191921D01*
X1194420Y-934251D01*
Y-924254D01*
X1191921Y-921755D01*
X1199418Y-936750D02*
Y-921755D01*
X1206916D01*
X1209415Y-924254D01*
Y-929252D01*
X1206916Y-931752D01*
X1199418D01*
X1214413Y-936750D02*
Y-921755D01*
X1221911D01*
X1224410Y-924254D01*
Y-929252D01*
X1221911Y-931752D01*
X1214413D01*
X1239405Y-921755D02*
X1229408D01*
Y-936750D01*
X1239405D01*
X1229408Y-929252D02*
X1234407D01*
X1244404Y-936750D02*
Y-921755D01*
X1251901D01*
X1254400Y-924254D01*
Y-929252D01*
X1251901Y-931752D01*
X1244404D01*
X1249402D02*
X1254400Y-936750D01*
X1284391Y-921755D02*
X1274394D01*
Y-929252D01*
X1279392D01*
X1274394D01*
Y-936750D01*
X1296887Y-921755D02*
X1291888D01*
X1289389Y-924254D01*
Y-934251D01*
X1291888Y-936750D01*
X1296887D01*
X1299386Y-934251D01*
Y-924254D01*
X1296887Y-921755D01*
X1304384D02*
X1309383D01*
X1306883D01*
Y-936750D01*
X1304384D01*
X1309383D01*
X1316880Y-921755D02*
Y-936750D01*
X1326877D01*
X1346871Y-921755D02*
X1356867D01*
X1351869D01*
Y-936750D01*
X1361866Y-921755D02*
Y-936750D01*
Y-929252D01*
X1371862D01*
Y-921755D01*
Y-936750D01*
X1376861Y-921755D02*
X1381859D01*
X1379360D01*
Y-936750D01*
X1376861D01*
X1381859D01*
X1399353Y-924254D02*
X1396854Y-921755D01*
X1391856D01*
X1389357Y-924254D01*
Y-934251D01*
X1391856Y-936750D01*
X1396854D01*
X1399353Y-934251D01*
X1404352Y-921755D02*
Y-936750D01*
Y-931752D01*
X1414349Y-921755D01*
X1406851Y-929252D01*
X1414349Y-936750D01*
X1419347D02*
Y-921755D01*
X1429344Y-936750D01*
Y-921755D01*
X1444339D02*
X1434342D01*
Y-936750D01*
X1444339D01*
X1434342Y-929252D02*
X1439341D01*
X1459334Y-924254D02*
X1456835Y-921755D01*
X1451837D01*
X1449337Y-924254D01*
Y-926753D01*
X1451837Y-929252D01*
X1456835D01*
X1459334Y-931752D01*
Y-934251D01*
X1456835Y-936750D01*
X1451837D01*
X1449337Y-934251D01*
X1474329Y-924254D02*
X1471830Y-921755D01*
X1466832D01*
X1464332Y-924254D01*
Y-926753D01*
X1466832Y-929252D01*
X1471830D01*
X1474329Y-931752D01*
Y-934251D01*
X1471830Y-936750D01*
X1466832D01*
X1464332Y-934251D01*
X1479328Y-926753D02*
X1481827D01*
Y-929252D01*
X1479328D01*
Y-926753D01*
Y-934251D02*
X1481827D01*
Y-936750D01*
X1479328D01*
Y-934251D01*
X1506819Y-924254D02*
X1509318Y-921755D01*
X1514316D01*
X1516815Y-924254D01*
Y-926753D01*
X1514316Y-929252D01*
X1511817D01*
X1514316D01*
X1516815Y-931752D01*
Y-934251D01*
X1514316Y-936750D01*
X1509318D01*
X1506819Y-934251D01*
X1521814Y-924254D02*
X1524313Y-921755D01*
X1529311D01*
X1531811Y-924254D01*
Y-926753D01*
X1529311Y-929252D01*
X1526812D01*
X1529311D01*
X1531811Y-931752D01*
Y-934251D01*
X1529311Y-936750D01*
X1524313D01*
X1521814Y-934251D01*
X1551804Y-926753D02*
Y-934251D01*
X1554303Y-936750D01*
X1561801D01*
Y-926753D01*
X1566799Y-936750D02*
Y-926753D01*
X1569298D01*
X1571798Y-929252D01*
Y-936750D01*
Y-929252D01*
X1574297Y-926753D01*
X1576796Y-929252D01*
Y-936750D01*
X899250Y-395250D02*
Y-380255D01*
X906748D01*
X909247Y-382754D01*
Y-387752D01*
X906748Y-390252D01*
X899250D01*
X924242Y-382754D02*
X921743Y-380255D01*
X916744D01*
X914245Y-382754D01*
Y-392751D01*
X916744Y-395250D01*
X921743D01*
X924242Y-392751D01*
X929240Y-380255D02*
Y-395250D01*
X936738D01*
X939237Y-392751D01*
Y-390252D01*
X936738Y-387752D01*
X929240D01*
X936738D01*
X939237Y-385253D01*
Y-382754D01*
X936738Y-380255D01*
X929240D01*
X959230D02*
X964229D01*
X961730D01*
Y-395250D01*
X959230D01*
X964229D01*
X971727D02*
Y-380255D01*
X976725Y-385253D01*
X981723Y-380255D01*
Y-395250D01*
X986722D02*
Y-380255D01*
X994219D01*
X996718Y-382754D01*
Y-387752D01*
X994219Y-390252D01*
X986722D01*
X1011713Y-380255D02*
X1001717D01*
Y-395250D01*
X1011713D01*
X1001717Y-387752D02*
X1006715D01*
X1016712Y-380255D02*
Y-395250D01*
X1024210D01*
X1026709Y-392751D01*
Y-382754D01*
X1024210Y-380255D01*
X1016712D01*
X1031707Y-395250D02*
Y-385253D01*
X1036705Y-380255D01*
X1041704Y-385253D01*
Y-395250D01*
Y-387752D01*
X1031707D01*
X1046702Y-395250D02*
Y-380255D01*
X1056699Y-395250D01*
Y-380255D01*
X1071694Y-382754D02*
X1069195Y-380255D01*
X1064197D01*
X1061697Y-382754D01*
Y-392751D01*
X1064197Y-395250D01*
X1069195D01*
X1071694Y-392751D01*
X1086689Y-380255D02*
X1076693D01*
Y-395250D01*
X1086689D01*
X1076693Y-387752D02*
X1081691D01*
X1106683Y-395250D02*
Y-380255D01*
X1114180D01*
X1116680Y-382754D01*
Y-387752D01*
X1114180Y-390252D01*
X1106683D01*
X1121678Y-395250D02*
Y-385253D01*
X1126676Y-380255D01*
X1131675Y-385253D01*
Y-395250D01*
Y-387752D01*
X1121678D01*
X1136673Y-395250D02*
Y-380255D01*
X1144171D01*
X1146670Y-382754D01*
Y-387752D01*
X1144171Y-390252D01*
X1136673D01*
X1141672D02*
X1146670Y-395250D01*
X1151668D02*
Y-385253D01*
X1156667Y-380255D01*
X1161665Y-385253D01*
Y-395250D01*
Y-387752D01*
X1151668D01*
X1166663Y-395250D02*
Y-380255D01*
X1171662Y-385253D01*
X1176660Y-380255D01*
Y-395250D01*
X1191655Y-380255D02*
X1181658D01*
Y-395250D01*
X1191655D01*
X1181658Y-387752D02*
X1186657D01*
X1196654Y-380255D02*
X1206650D01*
X1201652D01*
Y-395250D01*
X1221646Y-380255D02*
X1211649D01*
Y-395250D01*
X1221646D01*
X1211649Y-387752D02*
X1216647D01*
X1226644Y-395250D02*
Y-380255D01*
X1234141D01*
X1236641Y-382754D01*
Y-387752D01*
X1234141Y-390252D01*
X1226644D01*
X1231642D02*
X1236641Y-395250D01*
X1251636Y-382754D02*
X1249137Y-380255D01*
X1244138D01*
X1241639Y-382754D01*
Y-385253D01*
X1244138Y-387752D01*
X1249137D01*
X1251636Y-390252D01*
Y-392751D01*
X1249137Y-395250D01*
X1244138D01*
X1241639Y-392751D01*
X1256634Y-385253D02*
X1259133D01*
Y-387752D01*
X1256634D01*
Y-385253D01*
Y-392751D02*
X1259133D01*
Y-395250D01*
X1256634D01*
Y-392751D01*
X947500Y-406505D02*
X957497D01*
X952498D01*
Y-421500D01*
X964994D02*
X969993D01*
X972492Y-419001D01*
Y-414002D01*
X969993Y-411503D01*
X964994D01*
X962495Y-414002D01*
Y-419001D01*
X964994Y-421500D01*
X977490Y-426498D02*
Y-411503D01*
X984988D01*
X987487Y-414002D01*
Y-419001D01*
X984988Y-421500D01*
X977490D01*
X992485Y-414002D02*
X1002482D01*
X1007481Y-406505D02*
Y-421500D01*
X1017477D01*
X1032473D02*
X1022476D01*
X1032473Y-411503D01*
Y-409004D01*
X1029973Y-406505D01*
X1024975D01*
X1022476Y-409004D01*
X1052466Y-414002D02*
X1062463D01*
X1067461Y-421500D02*
X1074959Y-414002D01*
X1067461Y-406505D01*
X1094952Y-421500D02*
X1099951D01*
X1097451D01*
Y-406505D01*
X1094952Y-409004D01*
X1107448Y-406505D02*
X1117445D01*
Y-409004D01*
X1107448Y-419001D01*
Y-421500D01*
X1122443Y-409004D02*
X1124942Y-406505D01*
X1129941D01*
X1132440Y-409004D01*
Y-411503D01*
X1129941Y-414002D01*
X1127442D01*
X1129941D01*
X1132440Y-416502D01*
Y-419001D01*
X1129941Y-421500D01*
X1124942D01*
X1122443Y-419001D01*
X1137439Y-411503D02*
Y-419001D01*
X1139938Y-421500D01*
X1147435D01*
Y-411503D01*
X1152434Y-421500D02*
Y-411503D01*
X1154933D01*
X1157432Y-414002D01*
Y-421500D01*
Y-414002D01*
X1159931Y-411503D01*
X1162430Y-414002D01*
Y-421500D01*
X1184923Y-409004D02*
Y-411503D01*
X1182424D01*
X1187422D01*
X1184923D01*
Y-419001D01*
X1187422Y-421500D01*
X1194920Y-406505D02*
Y-421500D01*
Y-414002D01*
X1197419Y-411503D01*
X1202418D01*
X1204917Y-414002D01*
Y-421500D01*
X1209915D02*
X1214913D01*
X1212414D01*
Y-411503D01*
X1209915D01*
X1232408D02*
X1224910D01*
X1222411Y-414002D01*
Y-419001D01*
X1224910Y-421500D01*
X1232408D01*
X1237406D02*
Y-406505D01*
Y-416502D02*
X1244904Y-411503D01*
X1237406Y-416502D02*
X1244904Y-421500D01*
X962497Y-461505D02*
X952500D01*
Y-476500D01*
X962497D01*
X952500Y-469002D02*
X957498D01*
X967495Y-466503D02*
Y-476500D01*
Y-471502D01*
X969994Y-469002D01*
X972494Y-466503D01*
X974993D01*
X987489Y-476500D02*
X982490Y-471502D01*
Y-466503D01*
X987489Y-461505D01*
X994986D02*
X1004983D01*
X999985D01*
Y-476500D01*
X1012481D02*
X1017479D01*
X1019978Y-474001D01*
Y-469002D01*
X1017479Y-466503D01*
X1012481D01*
X1009981Y-469002D01*
Y-474001D01*
X1012481Y-476500D01*
X1024977Y-481498D02*
Y-466503D01*
X1032474D01*
X1034973Y-469002D01*
Y-474001D01*
X1032474Y-476500D01*
X1024977D01*
X1039972Y-469002D02*
X1049968D01*
X1054967Y-461505D02*
Y-476500D01*
X1064964D01*
X1079959D02*
X1069962D01*
X1079959Y-466503D01*
Y-464004D01*
X1077459Y-461505D01*
X1072461D01*
X1069962Y-464004D01*
X1084957Y-476500D02*
X1089956Y-471502D01*
Y-466503D01*
X1084957Y-461505D01*
X1112448Y-471502D02*
X1122445D01*
X1112448Y-466503D02*
X1122445D01*
X1149936Y-476500D02*
Y-461505D01*
X1142439Y-469002D01*
X1152435D01*
X1157434Y-476500D02*
Y-474001D01*
X1159933D01*
Y-476500D01*
X1157434D01*
X1179926D02*
X1169930D01*
X1179926Y-466503D01*
Y-464004D01*
X1177427Y-461505D01*
X1172429D01*
X1169930Y-464004D01*
X948500Y-602755D02*
Y-617750D01*
X955998D01*
X958497Y-615251D01*
Y-605254D01*
X955998Y-602755D01*
X948500D01*
X963495D02*
X968493D01*
X965994D01*
Y-617750D01*
X963495D01*
X968493D01*
X985988Y-602755D02*
X975991D01*
Y-610252D01*
X980990D01*
X975991D01*
Y-617750D01*
X990986D02*
Y-615251D01*
X993485D01*
Y-617750D01*
X990986D01*
X1018477D02*
Y-602755D01*
X1025975D01*
X1028474Y-605254D01*
Y-610252D01*
X1025975Y-612752D01*
X1018477D01*
X1033473Y-617750D02*
Y-607753D01*
X1038471Y-602755D01*
X1043469Y-607753D01*
Y-617750D01*
Y-610252D01*
X1033473D01*
X1048468Y-602755D02*
X1053466D01*
X1050967D01*
Y-617750D01*
X1048468D01*
X1053466D01*
X1060964D02*
Y-602755D01*
X1068461D01*
X1070960Y-605254D01*
Y-610252D01*
X1068461Y-612752D01*
X1060964D01*
X1065962D02*
X1070960Y-617750D01*
X1090954Y-602755D02*
Y-617750D01*
X1095952Y-612752D01*
X1100951Y-617750D01*
Y-602755D01*
X1105949D02*
X1110947D01*
X1108448D01*
Y-617750D01*
X1105949D01*
X1110947D01*
X1118445Y-602755D02*
Y-617750D01*
X1125943D01*
X1128442Y-615251D01*
Y-605254D01*
X1125943Y-602755D01*
X1118445D01*
X1133440D02*
X1143437D01*
X1138438D01*
Y-617750D01*
X1148435Y-602755D02*
Y-617750D01*
Y-610252D01*
X1158432D01*
Y-602755D01*
Y-617750D01*
X1163430Y-607753D02*
X1165930D01*
Y-610252D01*
X1163430D01*
Y-607753D01*
Y-615251D02*
X1165930D01*
Y-617750D01*
X1163430D01*
Y-615251D01*
X1190921Y-605254D02*
X1193421Y-602755D01*
X1198419D01*
X1200918Y-605254D01*
Y-615251D01*
X1198419Y-617750D01*
X1193421D01*
X1190921Y-615251D01*
Y-605254D01*
X1205917Y-617750D02*
Y-615251D01*
X1208416D01*
Y-617750D01*
X1205917D01*
X1228409D02*
X1218413D01*
X1228409Y-607753D01*
Y-605254D01*
X1225910Y-602755D01*
X1220912D01*
X1218413Y-605254D01*
X1233408Y-617750D02*
Y-607753D01*
X1235907D01*
X1238406Y-610252D01*
Y-617750D01*
Y-610252D01*
X1240905Y-607753D01*
X1243404Y-610252D01*
Y-617750D01*
X1248403D02*
Y-607753D01*
X1250902D01*
X1253401Y-610252D01*
Y-617750D01*
Y-610252D01*
X1255900Y-607753D01*
X1258400Y-610252D01*
Y-617750D01*
X949250Y-629005D02*
Y-644000D01*
X956748D01*
X959247Y-641501D01*
Y-631504D01*
X956748Y-629005D01*
X949250D01*
X964245D02*
X969243D01*
X966744D01*
Y-644000D01*
X964245D01*
X969243D01*
X986738Y-629005D02*
X976741D01*
Y-636502D01*
X981740D01*
X976741D01*
Y-644000D01*
X991736D02*
Y-641501D01*
X994235D01*
Y-644000D01*
X991736D01*
X1019227D02*
Y-629005D01*
X1026725D01*
X1029224Y-631504D01*
Y-636502D01*
X1026725Y-639002D01*
X1019227D01*
X1034222Y-644000D02*
Y-634003D01*
X1039221Y-629005D01*
X1044219Y-634003D01*
Y-644000D01*
Y-636502D01*
X1034222D01*
X1049218Y-629005D02*
X1054216D01*
X1051717D01*
Y-644000D01*
X1049218D01*
X1054216D01*
X1061714D02*
Y-629005D01*
X1069211D01*
X1071710Y-631504D01*
Y-636502D01*
X1069211Y-639002D01*
X1061714D01*
X1066712D02*
X1071710Y-644000D01*
X1101701Y-631504D02*
X1099201Y-629005D01*
X1094203D01*
X1091704Y-631504D01*
Y-634003D01*
X1094203Y-636502D01*
X1099201D01*
X1101701Y-639002D01*
Y-641501D01*
X1099201Y-644000D01*
X1094203D01*
X1091704Y-641501D01*
X1106699Y-644000D02*
Y-629005D01*
X1114197D01*
X1116696Y-631504D01*
Y-636502D01*
X1114197Y-639002D01*
X1106699D01*
X1121694Y-644000D02*
Y-634003D01*
X1126693Y-629005D01*
X1131691Y-634003D01*
Y-644000D01*
Y-636502D01*
X1121694D01*
X1146686Y-631504D02*
X1144187Y-629005D01*
X1139189D01*
X1136689Y-631504D01*
Y-641501D01*
X1139189Y-644000D01*
X1144187D01*
X1146686Y-641501D01*
X1151684Y-629005D02*
X1156683D01*
X1154184D01*
Y-644000D01*
X1151684D01*
X1156683D01*
X1164180D02*
Y-629005D01*
X1174177Y-644000D01*
Y-629005D01*
X1189172Y-631504D02*
X1186673Y-629005D01*
X1181675D01*
X1179175Y-631504D01*
Y-641501D01*
X1181675Y-644000D01*
X1186673D01*
X1189172Y-641501D01*
Y-636502D01*
X1184174D01*
X1194171Y-634003D02*
X1196670D01*
Y-636502D01*
X1194171D01*
Y-634003D01*
Y-641501D02*
X1196670D01*
Y-644000D01*
X1194171D01*
Y-641501D01*
X1221662Y-631504D02*
X1224161Y-629005D01*
X1229159D01*
X1231658Y-631504D01*
Y-641501D01*
X1229159Y-644000D01*
X1224161D01*
X1221662Y-641501D01*
Y-631504D01*
X1236657Y-644000D02*
Y-641501D01*
X1239156D01*
Y-644000D01*
X1236657D01*
X1249153D02*
X1254151D01*
X1251652D01*
Y-629005D01*
X1249153Y-631504D01*
X1269146Y-644000D02*
Y-629005D01*
X1261649Y-636502D01*
X1271646D01*
X1276644Y-644000D02*
Y-634003D01*
X1279143D01*
X1281642Y-636502D01*
Y-644000D01*
Y-636502D01*
X1284142Y-634003D01*
X1286641Y-636502D01*
Y-644000D01*
X1291639D02*
Y-634003D01*
X1294138D01*
X1296638Y-636502D01*
Y-644000D01*
Y-636502D01*
X1299137Y-634003D01*
X1301636Y-636502D01*
Y-644000D01*
X950000Y-434005D02*
X959997D01*
X954998D01*
Y-449000D01*
X972493Y-434005D02*
X967494D01*
X964995Y-436504D01*
Y-446501D01*
X967494Y-449000D01*
X972493D01*
X974992Y-446501D01*
Y-436504D01*
X972493Y-434005D01*
X979990Y-449000D02*
Y-434005D01*
X987488D01*
X989987Y-436504D01*
Y-441502D01*
X987488Y-444002D01*
X979990D01*
X1009981Y-434005D02*
Y-449000D01*
X1019977D01*
X1024976D02*
Y-439003D01*
X1029974Y-434005D01*
X1034973Y-439003D01*
Y-449000D01*
Y-441502D01*
X1024976D01*
X1039971Y-434005D02*
Y-436504D01*
X1044969Y-441502D01*
X1049968Y-436504D01*
Y-434005D01*
X1044969Y-441502D02*
Y-449000D01*
X1064963Y-434005D02*
X1054966D01*
Y-449000D01*
X1064963D01*
X1054966Y-441502D02*
X1059964D01*
X1069961Y-449000D02*
Y-434005D01*
X1077459D01*
X1079958Y-436504D01*
Y-441502D01*
X1077459Y-444002D01*
X1069961D01*
X1074959D02*
X1079958Y-449000D01*
X1109948Y-436504D02*
X1107449Y-434005D01*
X1102451D01*
X1099951Y-436504D01*
Y-446501D01*
X1102451Y-449000D01*
X1107449D01*
X1109948Y-446501D01*
X1122444Y-434005D02*
X1117446D01*
X1114947Y-436504D01*
Y-446501D01*
X1117446Y-449000D01*
X1122444D01*
X1124943Y-446501D01*
Y-436504D01*
X1122444Y-434005D01*
X1129942Y-449000D02*
Y-434005D01*
X1137439D01*
X1139939Y-436504D01*
Y-441502D01*
X1137439Y-444002D01*
X1129942D01*
X1144937Y-449000D02*
Y-434005D01*
X1152434D01*
X1154934Y-436504D01*
Y-441502D01*
X1152434Y-444002D01*
X1144937D01*
X1169929Y-434005D02*
X1159932D01*
Y-449000D01*
X1169929D01*
X1159932Y-441502D02*
X1164930D01*
X1174927Y-449000D02*
Y-434005D01*
X1182425D01*
X1184924Y-436504D01*
Y-441502D01*
X1182425Y-444002D01*
X1174927D01*
X1179926D02*
X1184924Y-449000D01*
X1214914Y-434005D02*
X1204917D01*
Y-441502D01*
X1209916D01*
X1204917D01*
Y-449000D01*
X1227410Y-434005D02*
X1222412D01*
X1219913Y-436504D01*
Y-446501D01*
X1222412Y-449000D01*
X1227410D01*
X1229909Y-446501D01*
Y-436504D01*
X1227410Y-434005D01*
X1234908D02*
X1239906D01*
X1237407D01*
Y-449000D01*
X1234908D01*
X1239906D01*
X1247404Y-434005D02*
Y-449000D01*
X1257400D01*
X1277394Y-434005D02*
X1287391D01*
X1282392D01*
Y-449000D01*
X1292389Y-434005D02*
Y-449000D01*
Y-441502D01*
X1302386D01*
Y-434005D01*
Y-449000D01*
X1307384Y-434005D02*
X1312383D01*
X1309883D01*
Y-449000D01*
X1307384D01*
X1312383D01*
X1329877Y-436504D02*
X1327378Y-434005D01*
X1322379D01*
X1319880Y-436504D01*
Y-446501D01*
X1322379Y-449000D01*
X1327378D01*
X1329877Y-446501D01*
X1334875Y-434005D02*
Y-449000D01*
Y-444002D01*
X1344872Y-434005D01*
X1337375Y-441502D01*
X1344872Y-449000D01*
X1349870D02*
Y-434005D01*
X1359867Y-449000D01*
Y-434005D01*
X1374862D02*
X1364866D01*
Y-449000D01*
X1374862D01*
X1364866Y-441502D02*
X1369864D01*
X1389857Y-436504D02*
X1387358Y-434005D01*
X1382360D01*
X1379861Y-436504D01*
Y-439003D01*
X1382360Y-441502D01*
X1387358D01*
X1389857Y-444002D01*
Y-446501D01*
X1387358Y-449000D01*
X1382360D01*
X1379861Y-446501D01*
X1404853Y-436504D02*
X1402354Y-434005D01*
X1397355D01*
X1394856Y-436504D01*
Y-439003D01*
X1397355Y-441502D01*
X1402354D01*
X1404853Y-444002D01*
Y-446501D01*
X1402354Y-449000D01*
X1397355D01*
X1394856Y-446501D01*
X1409851Y-439003D02*
X1412350D01*
Y-441502D01*
X1409851D01*
Y-439003D01*
Y-446501D02*
X1412350D01*
Y-449000D01*
X1409851D01*
Y-446501D01*
X1437342Y-449000D02*
X1442341D01*
X1439841D01*
Y-434005D01*
X1437342Y-436504D01*
X1449838Y-434005D02*
X1459835D01*
Y-436504D01*
X1449838Y-446501D01*
Y-449000D01*
X1464833D02*
Y-446501D01*
X1467332D01*
Y-449000D01*
X1464833D01*
X1487326Y-434005D02*
X1477329D01*
Y-441502D01*
X1482328Y-439003D01*
X1484827D01*
X1487326Y-441502D01*
Y-446501D01*
X1484827Y-449000D01*
X1479828D01*
X1477329Y-446501D01*
X1507319Y-439003D02*
Y-446501D01*
X1509819Y-449000D01*
X1517316D01*
Y-439003D01*
X1522315Y-449000D02*
Y-439003D01*
X1524814D01*
X1527313Y-441502D01*
Y-449000D01*
Y-441502D01*
X1529812Y-439003D01*
X1532311Y-441502D01*
Y-449000D01*
X949250Y-686505D02*
X959247D01*
X954248D01*
Y-701500D01*
X971743Y-686505D02*
X966744D01*
X964245Y-689004D01*
Y-699001D01*
X966744Y-701500D01*
X971743D01*
X974242Y-699001D01*
Y-689004D01*
X971743Y-686505D01*
X979240D02*
Y-701500D01*
X989237D01*
X1004232Y-686505D02*
X994235D01*
Y-701500D01*
X1004232D01*
X994235Y-694002D02*
X999234D01*
X1009230Y-701500D02*
Y-686505D01*
X1016728D01*
X1019227Y-689004D01*
Y-694002D01*
X1016728Y-696501D01*
X1009230D01*
X1014229D02*
X1019227Y-701500D01*
X1024226D02*
Y-691503D01*
X1029224Y-686505D01*
X1034222Y-691503D01*
Y-701500D01*
Y-694002D01*
X1024226D01*
X1039221Y-701500D02*
Y-686505D01*
X1049218Y-701500D01*
Y-686505D01*
X1064213Y-689004D02*
X1061713Y-686505D01*
X1056715D01*
X1054216Y-689004D01*
Y-699001D01*
X1056715Y-701500D01*
X1061713D01*
X1064213Y-699001D01*
X1079208Y-686505D02*
X1069211D01*
Y-701500D01*
X1079208D01*
X1069211Y-694002D02*
X1074210D01*
X1084206Y-691503D02*
X1086705D01*
Y-694002D01*
X1084206D01*
Y-691503D01*
Y-699001D02*
X1086705D01*
Y-701500D01*
X1084206D01*
Y-699001D01*
X1111697Y-694002D02*
X1121694D01*
X1116696Y-689004D02*
Y-699001D01*
X1126693Y-701500D02*
X1136689Y-691503D01*
X1141688Y-694002D02*
X1151684D01*
X1171678Y-701500D02*
X1176676D01*
X1174177D01*
Y-686505D01*
X1171678Y-689004D01*
X1184174D02*
X1186673Y-686505D01*
X1191672D01*
X1194171Y-689004D01*
Y-699001D01*
X1191672Y-701500D01*
X1186673D01*
X1184174Y-699001D01*
Y-689004D01*
X1199169Y-699001D02*
X1211665Y-686505D01*
X1199169D02*
Y-684006D01*
X1201668D01*
Y-686505D01*
X1199169D01*
X1209166Y-701500D02*
Y-699001D01*
X1211665D01*
Y-701500D01*
X1209166D01*
X949250Y-656505D02*
Y-671500D01*
X956748D01*
X959247Y-669001D01*
Y-659004D01*
X956748Y-656505D01*
X949250D01*
X964245D02*
X969243D01*
X966744D01*
Y-671500D01*
X964245D01*
X969243D01*
X986738Y-656505D02*
X976741D01*
Y-664002D01*
X981740D01*
X976741D01*
Y-671500D01*
X1001733Y-656505D02*
X991736D01*
Y-664002D01*
X996735D01*
X991736D01*
Y-671500D01*
X1016728Y-656505D02*
X1006731D01*
Y-671500D01*
X1016728D01*
X1006731Y-664002D02*
X1011730D01*
X1021727Y-671500D02*
Y-656505D01*
X1029224D01*
X1031723Y-659004D01*
Y-664002D01*
X1029224Y-666501D01*
X1021727D01*
X1026725D02*
X1031723Y-671500D01*
X1046718Y-656505D02*
X1036722D01*
Y-671500D01*
X1046718D01*
X1036722Y-664002D02*
X1041720D01*
X1051717Y-671500D02*
Y-656505D01*
X1061713Y-671500D01*
Y-656505D01*
X1066712D02*
X1076709D01*
X1071710D01*
Y-671500D01*
X1081707Y-656505D02*
X1086705D01*
X1084206D01*
Y-671500D01*
X1081707D01*
X1086705D01*
X1094203D02*
Y-661503D01*
X1099201Y-656505D01*
X1104200Y-661503D01*
Y-671500D01*
Y-664002D01*
X1094203D01*
X1109198Y-656505D02*
Y-671500D01*
X1119195D01*
X1139189Y-656505D02*
X1144187D01*
X1141688D01*
Y-671500D01*
X1139189D01*
X1144187D01*
X1151684D02*
Y-656505D01*
X1156683Y-661503D01*
X1161681Y-656505D01*
Y-671500D01*
X1166680D02*
Y-656505D01*
X1174177D01*
X1176676Y-659004D01*
Y-664002D01*
X1174177Y-666501D01*
X1166680D01*
X1191672Y-656505D02*
X1181675D01*
Y-671500D01*
X1191672D01*
X1181675Y-664002D02*
X1186673D01*
X1196670Y-656505D02*
Y-671500D01*
X1204167D01*
X1206667Y-669001D01*
Y-659004D01*
X1204167Y-656505D01*
X1196670D01*
X1211665Y-671500D02*
Y-661503D01*
X1216663Y-656505D01*
X1221662Y-661503D01*
Y-671500D01*
Y-664002D01*
X1211665D01*
X1226660Y-671500D02*
Y-656505D01*
X1236657Y-671500D01*
Y-656505D01*
X1251652Y-659004D02*
X1249153Y-656505D01*
X1244155D01*
X1241655Y-659004D01*
Y-669001D01*
X1244155Y-671500D01*
X1249153D01*
X1251652Y-669001D01*
X1266647Y-656505D02*
X1256650D01*
Y-671500D01*
X1266647D01*
X1256650Y-664002D02*
X1261649D01*
X1271646Y-661503D02*
X1274145D01*
Y-664002D01*
X1271646D01*
Y-661503D01*
Y-669001D02*
X1274145D01*
Y-671500D01*
X1271646D01*
Y-669001D01*
X1299137Y-671500D02*
X1304135D01*
X1301636D01*
Y-656505D01*
X1299137Y-659004D01*
X1311633D02*
X1314132Y-656505D01*
X1319130D01*
X1321629Y-659004D01*
Y-669001D01*
X1319130Y-671500D01*
X1314132D01*
X1311633Y-669001D01*
Y-659004D01*
X1326628D02*
X1329127Y-656505D01*
X1334125D01*
X1336625Y-659004D01*
Y-669001D01*
X1334125Y-671500D01*
X1329127D01*
X1326628Y-669001D01*
Y-659004D01*
X1341623Y-671500D02*
Y-669001D01*
X1344122D01*
Y-671500D01*
X1341623D01*
X1354119Y-656505D02*
X1364116D01*
Y-659004D01*
X1354119Y-669001D01*
Y-671500D01*
X1379111Y-656505D02*
X1369114D01*
Y-664002D01*
X1374112Y-661503D01*
X1376612D01*
X1379111Y-664002D01*
Y-669001D01*
X1376612Y-671500D01*
X1371613D01*
X1369114Y-669001D01*
X1394106Y-671500D02*
X1384109D01*
X1394106Y-661503D01*
Y-659004D01*
X1391607Y-656505D01*
X1386608D01*
X1384109Y-659004D01*
X1421597Y-656505D02*
X1416599D01*
X1414099Y-659004D01*
Y-669001D01*
X1416599Y-671500D01*
X1421597D01*
X1424096Y-669001D01*
Y-659004D01*
X1421597Y-656505D01*
X1429095D02*
Y-671500D01*
Y-664002D01*
X1431594Y-661503D01*
X1436592D01*
X1439091Y-664002D01*
Y-671500D01*
X1444090D02*
Y-661503D01*
X1446589D01*
X1449088Y-664002D01*
Y-671500D01*
Y-664002D01*
X1451587Y-661503D01*
X1454086Y-664002D01*
Y-671500D01*
X1459085D02*
X1466582D01*
X1469082Y-669001D01*
X1466582Y-666501D01*
X1461584D01*
X1459085Y-664002D01*
X1461584Y-661503D01*
X1469082D01*
X1558497Y-605254D02*
X1555997Y-602755D01*
X1550999D01*
X1548500Y-605254D01*
Y-607753D01*
X1550999Y-610252D01*
X1555997D01*
X1558497Y-612752D01*
Y-615251D01*
X1555997Y-617750D01*
X1550999D01*
X1548500Y-615251D01*
X1573492Y-602755D02*
X1563495D01*
Y-617750D01*
X1573492D01*
X1563495Y-610252D02*
X1568493D01*
X1593485Y-602755D02*
X1603482D01*
X1598484D01*
Y-617750D01*
X1608481D02*
Y-602755D01*
X1615978D01*
X1618477Y-605254D01*
Y-610252D01*
X1615978Y-612752D01*
X1608481D01*
X1613479D02*
X1618477Y-617750D01*
X1623476D02*
Y-607753D01*
X1628474Y-602755D01*
X1633472Y-607753D01*
Y-617750D01*
Y-610252D01*
X1623476D01*
X1648468Y-605254D02*
X1645968Y-602755D01*
X1640970D01*
X1638471Y-605254D01*
Y-615251D01*
X1640970Y-617750D01*
X1645968D01*
X1648468Y-615251D01*
X1653466Y-602755D02*
Y-617750D01*
Y-612752D01*
X1663463Y-602755D01*
X1655965Y-610252D01*
X1663463Y-617750D01*
X1683456Y-602755D02*
Y-617750D01*
X1688455Y-612752D01*
X1693453Y-617750D01*
Y-602755D01*
X1698451D02*
X1703450D01*
X1700951D01*
Y-617750D01*
X1698451D01*
X1703450D01*
X1710947Y-602755D02*
Y-617750D01*
X1718445D01*
X1720944Y-615251D01*
Y-605254D01*
X1718445Y-602755D01*
X1710947D01*
X1725943D02*
X1735939D01*
X1730941D01*
Y-617750D01*
X1740938Y-602755D02*
Y-617750D01*
Y-610252D01*
X1750934D01*
Y-602755D01*
Y-617750D01*
X1755933Y-607753D02*
X1758432D01*
Y-610252D01*
X1755933D01*
Y-607753D01*
Y-615251D02*
X1758432D01*
Y-617750D01*
X1755933D01*
Y-615251D01*
X1783424Y-605254D02*
X1785923Y-602755D01*
X1790921D01*
X1793421Y-605254D01*
Y-615251D01*
X1790921Y-617750D01*
X1785923D01*
X1783424Y-615251D01*
Y-605254D01*
X1798419Y-617750D02*
Y-615251D01*
X1800918D01*
Y-617750D01*
X1798419D01*
X1810915Y-605254D02*
X1813414Y-602755D01*
X1818413D01*
X1820912Y-605254D01*
Y-607753D01*
X1818413Y-610252D01*
X1815913D01*
X1818413D01*
X1820912Y-612752D01*
Y-615251D01*
X1818413Y-617750D01*
X1813414D01*
X1810915Y-615251D01*
X1825910Y-605254D02*
X1828409Y-602755D01*
X1833408D01*
X1835907Y-605254D01*
Y-615251D01*
X1833408Y-617750D01*
X1828409D01*
X1825910Y-615251D01*
Y-605254D01*
X1840905Y-615251D02*
X1843405Y-617750D01*
X1848403D01*
X1850902Y-615251D01*
Y-605254D01*
X1848403Y-602755D01*
X1843405D01*
X1840905Y-605254D01*
Y-607753D01*
X1843405Y-610252D01*
X1850902D01*
X1855901Y-617750D02*
Y-607753D01*
X1858400D01*
X1860899Y-610252D01*
Y-617750D01*
Y-610252D01*
X1863398Y-607753D01*
X1865897Y-610252D01*
Y-617750D01*
X1870896D02*
Y-607753D01*
X1873395D01*
X1875894Y-610252D01*
Y-617750D01*
Y-610252D01*
X1878393Y-607753D01*
X1880892Y-610252D01*
Y-617750D01*
X1559247Y-634004D02*
X1556747Y-631505D01*
X1551749D01*
X1549250Y-634004D01*
Y-636503D01*
X1551749Y-639002D01*
X1556747D01*
X1559247Y-641501D01*
Y-644001D01*
X1556747Y-646500D01*
X1551749D01*
X1549250Y-644001D01*
X1574242Y-631505D02*
X1564245D01*
Y-646500D01*
X1574242D01*
X1564245Y-639002D02*
X1569243D01*
X1594235Y-631505D02*
X1599234D01*
X1596735D01*
Y-646500D01*
X1594235D01*
X1599234D01*
X1606731D02*
Y-631505D01*
X1611730Y-636503D01*
X1616728Y-631505D01*
Y-646500D01*
X1621727D02*
Y-631505D01*
X1629224D01*
X1631723Y-634004D01*
Y-639002D01*
X1629224Y-641501D01*
X1621727D01*
X1646718Y-631505D02*
X1636722D01*
Y-646500D01*
X1646718D01*
X1636722Y-639002D02*
X1641720D01*
X1651717Y-631505D02*
Y-646500D01*
X1659214D01*
X1661714Y-644001D01*
Y-634004D01*
X1659214Y-631505D01*
X1651717D01*
X1666712Y-646500D02*
Y-636503D01*
X1671710Y-631505D01*
X1676709Y-636503D01*
Y-646500D01*
Y-639002D01*
X1666712D01*
X1681707Y-646500D02*
Y-631505D01*
X1691704Y-646500D01*
Y-631505D01*
X1706699Y-634004D02*
X1704200Y-631505D01*
X1699201D01*
X1696702Y-634004D01*
Y-644001D01*
X1699201Y-646500D01*
X1704200D01*
X1706699Y-644001D01*
X1721694Y-631505D02*
X1711697D01*
Y-646500D01*
X1721694D01*
X1711697Y-639002D02*
X1716696D01*
X1726693Y-636503D02*
X1729192D01*
Y-639002D01*
X1726693D01*
Y-636503D01*
Y-644001D02*
X1729192D01*
Y-646500D01*
X1726693D01*
Y-644001D01*
X1761681Y-646500D02*
Y-631505D01*
X1754184Y-639002D01*
X1764180D01*
X1769179Y-644001D02*
X1771678Y-646500D01*
X1776676D01*
X1779176Y-644001D01*
Y-634004D01*
X1776676Y-631505D01*
X1771678D01*
X1769179Y-634004D01*
Y-636503D01*
X1771678Y-639002D01*
X1779176D01*
X1784174Y-646500D02*
Y-644001D01*
X1786673D01*
Y-646500D01*
X1784174D01*
X1796670Y-644001D02*
X1799169Y-646500D01*
X1804167D01*
X1806667Y-644001D01*
Y-634004D01*
X1804167Y-631505D01*
X1799169D01*
X1796670Y-634004D01*
Y-636503D01*
X1799169Y-639002D01*
X1806667D01*
X1811665Y-644001D02*
X1814164Y-646500D01*
X1819163D01*
X1821662Y-644001D01*
Y-634004D01*
X1819163Y-631505D01*
X1814164D01*
X1811665Y-634004D01*
Y-636503D01*
X1814164Y-639002D01*
X1821662D01*
X1826660Y-644001D02*
X1829159Y-646500D01*
X1834158D01*
X1836657Y-644001D01*
Y-634004D01*
X1834158Y-631505D01*
X1829159D01*
X1826660Y-634004D01*
Y-636503D01*
X1829159Y-639002D01*
X1836657D01*
X1841655Y-634004D02*
X1844155Y-631505D01*
X1849153D01*
X1851652Y-634004D01*
Y-636503D01*
X1849153Y-639002D01*
X1851652Y-641501D01*
Y-644001D01*
X1849153Y-646500D01*
X1844155D01*
X1841655Y-644001D01*
Y-641501D01*
X1844155Y-639002D01*
X1841655Y-636503D01*
Y-634004D01*
X1844155Y-639002D02*
X1849153D01*
X1879143Y-631505D02*
X1874145D01*
X1871646Y-634004D01*
Y-644001D01*
X1874145Y-646500D01*
X1879143D01*
X1881642Y-644001D01*
Y-634004D01*
X1879143Y-631505D01*
X1886641D02*
Y-646500D01*
Y-639002D01*
X1889140Y-636503D01*
X1894138D01*
X1896638Y-639002D01*
Y-646500D01*
X1901636D02*
Y-636503D01*
X1904135D01*
X1906634Y-639002D01*
Y-646500D01*
Y-639002D01*
X1909133Y-636503D01*
X1911633Y-639002D01*
Y-646500D01*
X1916631D02*
X1924129D01*
X1926628Y-644001D01*
X1924129Y-641501D01*
X1919130D01*
X1916631Y-639002D01*
X1919130Y-636503D01*
X1926628D01*
X1549250Y-661505D02*
X1559247D01*
X1554248D01*
Y-676500D01*
X1571743Y-661505D02*
X1566744D01*
X1564245Y-664004D01*
Y-674001D01*
X1566744Y-676500D01*
X1571743D01*
X1574242Y-674001D01*
Y-664004D01*
X1571743Y-661505D01*
X1579240D02*
Y-676500D01*
X1589237D01*
X1604232Y-661505D02*
X1594235D01*
Y-676500D01*
X1604232D01*
X1594235Y-669002D02*
X1599234D01*
X1609230Y-676500D02*
Y-661505D01*
X1616728D01*
X1619227Y-664004D01*
Y-669002D01*
X1616728Y-671501D01*
X1609230D01*
X1614229D02*
X1619227Y-676500D01*
X1624226D02*
Y-666503D01*
X1629224Y-661505D01*
X1634222Y-666503D01*
Y-676500D01*
Y-669002D01*
X1624226D01*
X1639221Y-676500D02*
Y-661505D01*
X1649218Y-676500D01*
Y-661505D01*
X1664213Y-664004D02*
X1661714Y-661505D01*
X1656715D01*
X1654216Y-664004D01*
Y-674001D01*
X1656715Y-676500D01*
X1661714D01*
X1664213Y-674001D01*
X1679208Y-661505D02*
X1669211D01*
Y-676500D01*
X1679208D01*
X1669211Y-669002D02*
X1674209D01*
X1684206Y-666503D02*
X1686705D01*
Y-669002D01*
X1684206D01*
Y-666503D01*
Y-674001D02*
X1686705D01*
Y-676500D01*
X1684206D01*
Y-674001D01*
X1711697Y-669002D02*
X1721694D01*
X1716696Y-664004D02*
Y-674001D01*
X1726693Y-676500D02*
X1736689Y-666503D01*
X1741688Y-669002D02*
X1751684D01*
X1771678Y-676500D02*
X1776676D01*
X1774177D01*
Y-661505D01*
X1771678Y-664004D01*
X1784174D02*
X1786673Y-661505D01*
X1791671D01*
X1794171Y-664004D01*
Y-674001D01*
X1791671Y-676500D01*
X1786673D01*
X1784174Y-674001D01*
Y-664004D01*
X1799169Y-674001D02*
X1811665Y-661505D01*
X1799169D02*
Y-659006D01*
X1801668D01*
Y-661505D01*
X1799169D01*
X1809166Y-676500D02*
Y-674001D01*
X1811665D01*
Y-676500D01*
X1809166D01*
X1546750Y-795755D02*
X1556747D01*
X1551748D01*
Y-810750D01*
X1569243Y-795755D02*
X1564244D01*
X1561745Y-798254D01*
Y-808251D01*
X1564244Y-810750D01*
X1569243D01*
X1571742Y-808251D01*
Y-798254D01*
X1569243Y-795755D01*
X1576740D02*
Y-810750D01*
X1586737D01*
X1601732Y-795755D02*
X1591735D01*
Y-810750D01*
X1601732D01*
X1591735Y-803252D02*
X1596734D01*
X1606730Y-810750D02*
Y-795755D01*
X1614228D01*
X1616727Y-798254D01*
Y-803252D01*
X1614228Y-805751D01*
X1606730D01*
X1611729D02*
X1616727Y-810750D01*
X1621726D02*
Y-800753D01*
X1626724Y-795755D01*
X1631722Y-800753D01*
Y-810750D01*
Y-803252D01*
X1621726D01*
X1636721Y-810750D02*
Y-795755D01*
X1646718Y-810750D01*
Y-795755D01*
X1661713Y-798254D02*
X1659214Y-795755D01*
X1654215D01*
X1651716Y-798254D01*
Y-808251D01*
X1654215Y-810750D01*
X1659214D01*
X1661713Y-808251D01*
X1676708Y-795755D02*
X1666711D01*
Y-810750D01*
X1676708D01*
X1666711Y-803252D02*
X1671709D01*
X1681706Y-800753D02*
X1684205D01*
Y-803252D01*
X1681706D01*
Y-800753D01*
Y-808251D02*
X1684205D01*
Y-810750D01*
X1681706D01*
Y-808251D01*
X1709197Y-803252D02*
X1719194D01*
X1714196Y-798254D02*
Y-808251D01*
X1724193Y-810750D02*
X1734189Y-800753D01*
X1739188Y-803252D02*
X1749184D01*
X1769178Y-810750D02*
X1774176D01*
X1771677D01*
Y-795755D01*
X1769178Y-798254D01*
X1781674D02*
X1784173Y-795755D01*
X1789171D01*
X1791671Y-798254D01*
Y-808251D01*
X1789171Y-810750D01*
X1784173D01*
X1781674Y-808251D01*
Y-798254D01*
X1796669Y-808251D02*
X1809165Y-795755D01*
X1796669D02*
Y-793256D01*
X1799168D01*
Y-795755D01*
X1796669D01*
X1806666Y-810750D02*
Y-808251D01*
X1809165D01*
Y-810750D01*
X1806666D01*
X1556747Y-768254D02*
X1554247Y-765755D01*
X1549249D01*
X1546750Y-768254D01*
Y-770753D01*
X1549249Y-773252D01*
X1554247D01*
X1556747Y-775751D01*
Y-778251D01*
X1554247Y-780750D01*
X1549249D01*
X1546750Y-778251D01*
X1571742Y-765755D02*
X1561745D01*
Y-780750D01*
X1571742D01*
X1561745Y-773252D02*
X1566743D01*
X1591735Y-765755D02*
X1596734D01*
X1594235D01*
Y-780750D01*
X1591735D01*
X1596734D01*
X1604231D02*
Y-765755D01*
X1609230Y-770753D01*
X1614228Y-765755D01*
Y-780750D01*
X1619227D02*
Y-765755D01*
X1626724D01*
X1629223Y-768254D01*
Y-773252D01*
X1626724Y-775751D01*
X1619227D01*
X1644218Y-765755D02*
X1634222D01*
Y-780750D01*
X1644218D01*
X1634222Y-773252D02*
X1639220D01*
X1649217Y-765755D02*
Y-780750D01*
X1656714D01*
X1659214Y-778251D01*
Y-768254D01*
X1656714Y-765755D01*
X1649217D01*
X1664212Y-780750D02*
Y-770753D01*
X1669210Y-765755D01*
X1674209Y-770753D01*
Y-780750D01*
Y-773252D01*
X1664212D01*
X1679207Y-780750D02*
Y-765755D01*
X1689204Y-780750D01*
Y-765755D01*
X1704199Y-768254D02*
X1701700Y-765755D01*
X1696701D01*
X1694202Y-768254D01*
Y-778251D01*
X1696701Y-780750D01*
X1701700D01*
X1704199Y-778251D01*
X1719194Y-765755D02*
X1709197D01*
Y-780750D01*
X1719194D01*
X1709197Y-773252D02*
X1714196D01*
X1724193Y-770753D02*
X1726692D01*
Y-773252D01*
X1724193D01*
Y-770753D01*
Y-778251D02*
X1726692D01*
Y-780750D01*
X1724193D01*
Y-778251D01*
X1759181Y-780750D02*
Y-765755D01*
X1751684Y-773252D01*
X1761680D01*
X1766679Y-778251D02*
X1769178Y-780750D01*
X1774176D01*
X1776676Y-778251D01*
Y-768254D01*
X1774176Y-765755D01*
X1769178D01*
X1766679Y-768254D01*
Y-770753D01*
X1769178Y-773252D01*
X1776676D01*
X1781674Y-780750D02*
Y-778251D01*
X1784173D01*
Y-780750D01*
X1781674D01*
X1794170Y-778251D02*
X1796669Y-780750D01*
X1801667D01*
X1804167Y-778251D01*
Y-768254D01*
X1801667Y-765755D01*
X1796669D01*
X1794170Y-768254D01*
Y-770753D01*
X1796669Y-773252D01*
X1804167D01*
X1809165Y-778251D02*
X1811664Y-780750D01*
X1816663D01*
X1819162Y-778251D01*
Y-768254D01*
X1816663Y-765755D01*
X1811664D01*
X1809165Y-768254D01*
Y-770753D01*
X1811664Y-773252D01*
X1819162D01*
X1824160Y-778251D02*
X1826659Y-780750D01*
X1831658D01*
X1834157Y-778251D01*
Y-768254D01*
X1831658Y-765755D01*
X1826659D01*
X1824160Y-768254D01*
Y-770753D01*
X1826659Y-773252D01*
X1834157D01*
X1839155Y-768254D02*
X1841655Y-765755D01*
X1846653D01*
X1849152Y-768254D01*
Y-770753D01*
X1846653Y-773252D01*
X1849152Y-775751D01*
Y-778251D01*
X1846653Y-780750D01*
X1841655D01*
X1839155Y-778251D01*
Y-775751D01*
X1841655Y-773252D01*
X1839155Y-770753D01*
Y-768254D01*
X1841655Y-773252D02*
X1846653D01*
X1876643Y-765755D02*
X1871645D01*
X1869146Y-768254D01*
Y-778251D01*
X1871645Y-780750D01*
X1876643D01*
X1879142Y-778251D01*
Y-768254D01*
X1876643Y-765755D01*
X1884141D02*
Y-780750D01*
Y-773252D01*
X1886640Y-770753D01*
X1891638D01*
X1894138Y-773252D01*
Y-780750D01*
X1899136D02*
Y-770753D01*
X1901635D01*
X1904134Y-773252D01*
Y-780750D01*
Y-773252D01*
X1906633Y-770753D01*
X1909133Y-773252D01*
Y-780750D01*
X1914131D02*
X1921629D01*
X1924128Y-778251D01*
X1921629Y-775751D01*
X1916630D01*
X1914131Y-773252D01*
X1916630Y-770753D01*
X1924128D01*
X1555997Y-739504D02*
X1553498Y-737005D01*
X1548499D01*
X1546000Y-739504D01*
Y-742003D01*
X1548499Y-744502D01*
X1553498D01*
X1555997Y-747001D01*
Y-749501D01*
X1553498Y-752000D01*
X1548499D01*
X1546000Y-749501D01*
X1570992Y-737005D02*
X1560995D01*
Y-752000D01*
X1570992D01*
X1560995Y-744502D02*
X1565993D01*
X1590985Y-737005D02*
X1600982D01*
X1595984D01*
Y-752000D01*
X1605981D02*
Y-737005D01*
X1613478D01*
X1615977Y-739504D01*
Y-744502D01*
X1613478Y-747001D01*
X1605981D01*
X1610979D02*
X1615977Y-752000D01*
X1620976D02*
Y-742003D01*
X1625974Y-737005D01*
X1630972Y-742003D01*
Y-752000D01*
Y-744502D01*
X1620976D01*
X1645968Y-739504D02*
X1643468Y-737005D01*
X1638470D01*
X1635971Y-739504D01*
Y-749501D01*
X1638470Y-752000D01*
X1643468D01*
X1645968Y-749501D01*
X1650966Y-737005D02*
Y-752000D01*
Y-747001D01*
X1660963Y-737005D01*
X1653465Y-744502D01*
X1660963Y-752000D01*
X1680956Y-737005D02*
Y-752000D01*
X1685955Y-747001D01*
X1690953Y-752000D01*
Y-737005D01*
X1695951D02*
X1700950D01*
X1698451D01*
Y-752000D01*
X1695951D01*
X1700950D01*
X1708447Y-737005D02*
Y-752000D01*
X1715945D01*
X1718444Y-749501D01*
Y-739504D01*
X1715945Y-737005D01*
X1708447D01*
X1723443D02*
X1733439D01*
X1728441D01*
Y-752000D01*
X1738438Y-737005D02*
Y-752000D01*
Y-744502D01*
X1748434D01*
Y-737005D01*
Y-752000D01*
X1753433Y-742003D02*
X1755932D01*
Y-744502D01*
X1753433D01*
Y-742003D01*
Y-749501D02*
X1755932D01*
Y-752000D01*
X1753433D01*
Y-749501D01*
X1780924Y-739504D02*
X1783423Y-737005D01*
X1788421D01*
X1790921Y-739504D01*
Y-749501D01*
X1788421Y-752000D01*
X1783423D01*
X1780924Y-749501D01*
Y-739504D01*
X1795919Y-752000D02*
Y-749501D01*
X1798418D01*
Y-752000D01*
X1795919D01*
X1808415Y-739504D02*
X1810914Y-737005D01*
X1815913D01*
X1818412Y-739504D01*
Y-742003D01*
X1815913Y-744502D01*
X1813413D01*
X1815913D01*
X1818412Y-747001D01*
Y-749501D01*
X1815913Y-752000D01*
X1810914D01*
X1808415Y-749501D01*
X1823410Y-739504D02*
X1825909Y-737005D01*
X1830908D01*
X1833407Y-739504D01*
Y-749501D01*
X1830908Y-752000D01*
X1825909D01*
X1823410Y-749501D01*
Y-739504D01*
X1838405Y-749501D02*
X1840905Y-752000D01*
X1845903D01*
X1848402Y-749501D01*
Y-739504D01*
X1845903Y-737005D01*
X1840905D01*
X1838405Y-739504D01*
Y-742003D01*
X1840905Y-744502D01*
X1848402D01*
X1853401Y-752000D02*
Y-742003D01*
X1855900D01*
X1858399Y-744502D01*
Y-752000D01*
Y-744502D01*
X1860898Y-742003D01*
X1863397Y-744502D01*
Y-752000D01*
X1868396D02*
Y-742003D01*
X1870895D01*
X1873394Y-744502D01*
Y-752000D01*
Y-744502D01*
X1875893Y-742003D01*
X1878392Y-744502D01*
Y-752000D01*
X36750Y-368750D02*
Y-353755D01*
X46747Y-368750D01*
Y-353755D01*
X59243D02*
X54244D01*
X51745Y-356254D01*
Y-366251D01*
X54244Y-368750D01*
X59243D01*
X61742Y-366251D01*
Y-356254D01*
X59243Y-353755D01*
X66740D02*
X76737D01*
X71739D01*
Y-368750D01*
X91732Y-353755D02*
X81735D01*
Y-368750D01*
X91732D01*
X81735Y-361253D02*
X86734D01*
X106727Y-356254D02*
X104228Y-353755D01*
X99230D01*
X96731Y-356254D01*
Y-358753D01*
X99230Y-361253D01*
X104228D01*
X106727Y-363752D01*
Y-366251D01*
X104228Y-368750D01*
X99230D01*
X96731Y-366251D01*
X111726Y-358753D02*
X114225D01*
Y-361253D01*
X111726D01*
Y-358753D01*
Y-366251D02*
X114225D01*
Y-368750D01*
X111726D01*
Y-366251D01*
D159*
X87000Y-472765D02*
Y-488000D01*
X97157D01*
X102235Y-475304D02*
X104774Y-472765D01*
X109853D01*
X112392Y-475304D01*
Y-477843D01*
X109853Y-480382D01*
X107313D01*
X109853D01*
X112392Y-482922D01*
Y-485461D01*
X109853Y-488000D01*
X104774D01*
X102235Y-485461D01*
X117470Y-477843D02*
X120009D01*
Y-480382D01*
X117470D01*
Y-477843D01*
Y-485461D02*
X120009D01*
Y-488000D01*
X117470D01*
Y-485461D01*
X145401Y-488000D02*
Y-472765D01*
X153019D01*
X155558Y-475304D01*
Y-480382D01*
X153019Y-482922D01*
X145401D01*
X160636Y-472765D02*
Y-488000D01*
X165714Y-482922D01*
X170793Y-488000D01*
Y-472765D01*
X175871Y-488000D02*
Y-472765D01*
X183489D01*
X186028Y-475304D01*
Y-480382D01*
X183489Y-482922D01*
X175871D01*
X180950D02*
X186028Y-488000D01*
X191106D02*
X201263Y-477843D01*
X216498Y-475304D02*
X213959Y-472765D01*
X208881D01*
X206341Y-475304D01*
Y-477843D01*
X208881Y-480382D01*
X213959D01*
X216498Y-482922D01*
Y-485461D01*
X213959Y-488000D01*
X208881D01*
X206341Y-485461D01*
X221576Y-488000D02*
X226655D01*
X224116D01*
Y-477843D01*
X221576D01*
X239351Y-493078D02*
X241890D01*
X244429Y-490539D01*
Y-477843D01*
X236812D01*
X234272Y-480382D01*
Y-485461D01*
X236812Y-488000D01*
X244429D01*
X249507D02*
Y-477843D01*
X257125D01*
X259664Y-480382D01*
Y-488000D01*
X267282Y-477843D02*
X272360D01*
X274899Y-480382D01*
Y-488000D01*
X267282D01*
X264743Y-485461D01*
X267282Y-482922D01*
X274899D01*
X279977Y-488000D02*
X285056D01*
X282517D01*
Y-472765D01*
X279977D01*
X292673Y-488000D02*
X302830Y-477843D01*
X318065Y-475304D02*
X315526Y-472765D01*
X310448D01*
X307908Y-475304D01*
Y-485461D01*
X310448Y-488000D01*
X315526D01*
X318065Y-485461D01*
Y-480382D01*
X312987D01*
X323144Y-488000D02*
Y-472765D01*
X333300Y-488000D01*
Y-472765D01*
X338379D02*
Y-488000D01*
X345996D01*
X348535Y-485461D01*
Y-475304D01*
X345996Y-472765D01*
X338379D01*
X90000Y-727515D02*
Y-742750D01*
X97618D01*
X100157Y-740211D01*
Y-737672D01*
X97618Y-735133D01*
X90000D01*
X97618D01*
X100157Y-732593D01*
Y-730054D01*
X97618Y-727515D01*
X90000D01*
X107774Y-742750D02*
X112853D01*
X115392Y-740211D01*
Y-735133D01*
X112853Y-732593D01*
X107774D01*
X105235Y-735133D01*
Y-740211D01*
X107774Y-742750D01*
X123009Y-730054D02*
Y-732593D01*
X120470D01*
X125548D01*
X123009D01*
Y-740211D01*
X125548Y-742750D01*
X135705Y-730054D02*
Y-732593D01*
X133166D01*
X138244D01*
X135705D01*
Y-740211D01*
X138244Y-742750D01*
X148401D02*
X153479D01*
X156019Y-740211D01*
Y-735133D01*
X153479Y-732593D01*
X148401D01*
X145862Y-735133D01*
Y-740211D01*
X148401Y-742750D01*
X161097D02*
Y-732593D01*
X163636D01*
X166175Y-735133D01*
Y-742750D01*
Y-735133D01*
X168715Y-732593D01*
X171254Y-735133D01*
Y-742750D01*
X176332Y-732593D02*
X178871D01*
Y-735133D01*
X176332D01*
Y-732593D01*
Y-740211D02*
X178871D01*
Y-742750D01*
X176332D01*
Y-740211D01*
X214420Y-730054D02*
X211881Y-727515D01*
X206802D01*
X204263Y-730054D01*
Y-732593D01*
X206802Y-735133D01*
X211881D01*
X214420Y-737672D01*
Y-740211D01*
X211881Y-742750D01*
X206802D01*
X204263Y-740211D01*
X219498Y-742750D02*
X224576D01*
X222037D01*
Y-732593D01*
X219498D01*
X237272Y-747828D02*
X239811D01*
X242351Y-745289D01*
Y-732593D01*
X234733D01*
X232194Y-735133D01*
Y-740211D01*
X234733Y-742750D01*
X242351D01*
X247429D02*
Y-732593D01*
X255047D01*
X257586Y-735133D01*
Y-742750D01*
X265203Y-732593D02*
X270282D01*
X272821Y-735133D01*
Y-742750D01*
X265203D01*
X262664Y-740211D01*
X265203Y-737672D01*
X272821D01*
X277899Y-742750D02*
X282978D01*
X280438D01*
Y-727515D01*
X277899D01*
X290595Y-742750D02*
X300752Y-732593D01*
X305830Y-742750D02*
Y-727515D01*
X313448D01*
X315987Y-730054D01*
Y-735133D01*
X313448Y-737672D01*
X305830D01*
X321065Y-727515D02*
Y-742750D01*
X326144Y-737672D01*
X331222Y-742750D01*
Y-727515D01*
X336300Y-742750D02*
Y-727515D01*
X343918D01*
X346457Y-730054D01*
Y-735133D01*
X343918Y-737672D01*
X336300D01*
X341379D02*
X346457Y-742750D01*
X351535D02*
X361692Y-732593D01*
X376927Y-730054D02*
X374388Y-727515D01*
X369310D01*
X366770Y-730054D01*
Y-740211D01*
X369310Y-742750D01*
X374388D01*
X376927Y-740211D01*
Y-735133D01*
X371849D01*
X382006Y-742750D02*
Y-727515D01*
X392162Y-742750D01*
Y-727515D01*
X397241D02*
Y-742750D01*
X404858D01*
X407397Y-740211D01*
Y-730054D01*
X404858Y-727515D01*
X397241D01*
X87000Y-502765D02*
Y-518000D01*
X97157D01*
X109853D02*
Y-502765D01*
X102235Y-510382D01*
X112392D01*
X117470Y-507843D02*
X120009D01*
Y-510382D01*
X117470D01*
Y-507843D01*
Y-515461D02*
X120009D01*
Y-518000D01*
X117470D01*
Y-515461D01*
X155558Y-505304D02*
X153019Y-502765D01*
X147940D01*
X145401Y-505304D01*
Y-507843D01*
X147940Y-510382D01*
X153019D01*
X155558Y-512922D01*
Y-515461D01*
X153019Y-518000D01*
X147940D01*
X145401Y-515461D01*
X160636Y-518000D02*
X165714D01*
X163175D01*
Y-507843D01*
X160636D01*
X178410Y-523078D02*
X180950D01*
X183489Y-520539D01*
Y-507843D01*
X175871D01*
X173332Y-510382D01*
Y-515461D01*
X175871Y-518000D01*
X183489D01*
X188567D02*
Y-507843D01*
X196185D01*
X198724Y-510382D01*
Y-518000D01*
X206341Y-507843D02*
X211420D01*
X213959Y-510382D01*
Y-518000D01*
X206341D01*
X203802Y-515461D01*
X206341Y-512922D01*
X213959D01*
X219037Y-518000D02*
X224116D01*
X221576D01*
Y-502765D01*
X219037D01*
X231733Y-518000D02*
X241890Y-507843D01*
X246968Y-518000D02*
Y-502765D01*
X254586D01*
X257125Y-505304D01*
Y-510382D01*
X254586Y-512922D01*
X246968D01*
X262203Y-502765D02*
Y-518000D01*
X267282Y-512922D01*
X272360Y-518000D01*
Y-502765D01*
X277438Y-518000D02*
Y-502765D01*
X285056D01*
X287595Y-505304D01*
Y-510382D01*
X285056Y-512922D01*
X277438D01*
X282517D02*
X287595Y-518000D01*
X292673D02*
X302830Y-507843D01*
X318065Y-505304D02*
X315526Y-502765D01*
X310448D01*
X307908Y-505304D01*
Y-515461D01*
X310448Y-518000D01*
X315526D01*
X318065Y-515461D01*
Y-510382D01*
X312987D01*
X323144Y-518000D02*
Y-502765D01*
X333300Y-518000D01*
Y-502765D01*
X338379D02*
Y-518000D01*
X345996D01*
X348535Y-515461D01*
Y-505304D01*
X345996Y-502765D01*
X338379D01*
X87000Y-442765D02*
Y-458000D01*
X97157D01*
X112392D02*
X102235D01*
X112392Y-447843D01*
Y-445304D01*
X109853Y-442765D01*
X104774D01*
X102235Y-445304D01*
X117470Y-447843D02*
X120009D01*
Y-450382D01*
X117470D01*
Y-447843D01*
Y-455461D02*
X120009D01*
Y-458000D01*
X117470D01*
Y-455461D01*
X155558Y-445304D02*
X153019Y-442765D01*
X147940D01*
X145401Y-445304D01*
Y-455461D01*
X147940Y-458000D01*
X153019D01*
X155558Y-455461D01*
Y-450382D01*
X150479D01*
X160636Y-458000D02*
Y-442765D01*
X170793Y-458000D01*
Y-442765D01*
X175871D02*
Y-458000D01*
X183489D01*
X186028Y-455461D01*
Y-445304D01*
X183489Y-442765D01*
X175871D01*
X86750Y-412515D02*
X96907D01*
X91828D01*
Y-427750D01*
X104524D02*
X109603D01*
X112142Y-425211D01*
Y-420132D01*
X109603Y-417593D01*
X104524D01*
X101985Y-420132D01*
Y-425211D01*
X104524Y-427750D01*
X117220Y-432828D02*
Y-417593D01*
X124838D01*
X127377Y-420132D01*
Y-425211D01*
X124838Y-427750D01*
X117220D01*
X132455Y-417593D02*
X134994D01*
Y-420132D01*
X132455D01*
Y-417593D01*
Y-425211D02*
X134994D01*
Y-427750D01*
X132455D01*
Y-425211D01*
X160386Y-427750D02*
Y-412515D01*
X168004D01*
X170543Y-415054D01*
Y-420132D01*
X168004Y-422672D01*
X160386D01*
X165464D02*
X170543Y-427750D01*
X185778Y-412515D02*
X175621D01*
Y-420132D01*
X180700D01*
X175621D01*
Y-427750D01*
X190856D02*
X201013Y-417593D01*
X216248Y-415054D02*
X213709Y-412515D01*
X208631D01*
X206091Y-415054D01*
Y-425211D01*
X208631Y-427750D01*
X213709D01*
X216248Y-425211D01*
Y-420132D01*
X211170D01*
X221326Y-427750D02*
Y-412515D01*
X231483Y-427750D01*
Y-412515D01*
X236562D02*
Y-427750D01*
X244179D01*
X246718Y-425211D01*
Y-415054D01*
X244179Y-412515D01*
X236562D01*
X88000Y-532765D02*
Y-548000D01*
X98157D01*
X113392Y-532765D02*
X103235D01*
Y-540382D01*
X108314Y-537843D01*
X110853D01*
X113392Y-540382D01*
Y-545461D01*
X110853Y-548000D01*
X105774D01*
X103235Y-545461D01*
X118470Y-537843D02*
X121009D01*
Y-540382D01*
X118470D01*
Y-537843D01*
Y-545461D02*
X121009D01*
Y-548000D01*
X118470D01*
Y-545461D01*
X156558Y-535304D02*
X154019Y-532765D01*
X148940D01*
X146401Y-535304D01*
Y-537843D01*
X148940Y-540382D01*
X154019D01*
X156558Y-542922D01*
Y-545461D01*
X154019Y-548000D01*
X148940D01*
X146401Y-545461D01*
X161636Y-548000D02*
X166715D01*
X164175D01*
Y-537843D01*
X161636D01*
X179410Y-553078D02*
X181950D01*
X184489Y-550539D01*
Y-537843D01*
X176871D01*
X174332Y-540382D01*
Y-545461D01*
X176871Y-548000D01*
X184489D01*
X189567D02*
Y-537843D01*
X197185D01*
X199724Y-540382D01*
Y-548000D01*
X207341Y-537843D02*
X212420D01*
X214959Y-540382D01*
Y-548000D01*
X207341D01*
X204802Y-545461D01*
X207341Y-542922D01*
X214959D01*
X220037Y-548000D02*
X225116D01*
X222577D01*
Y-532765D01*
X220037D01*
X232733Y-548000D02*
X242890Y-537843D01*
X247968Y-548000D02*
Y-532765D01*
X255586D01*
X258125Y-535304D01*
Y-540382D01*
X255586Y-542922D01*
X247968D01*
X263203Y-532765D02*
Y-548000D01*
X268282Y-542922D01*
X273360Y-548000D01*
Y-532765D01*
X278438Y-548000D02*
Y-532765D01*
X286056D01*
X288595Y-535304D01*
Y-540382D01*
X286056Y-542922D01*
X278438D01*
X283517D02*
X288595Y-548000D01*
X293673D02*
X303830Y-537843D01*
X319065Y-535304D02*
X316526Y-532765D01*
X311448D01*
X308909Y-535304D01*
Y-545461D01*
X311448Y-548000D01*
X316526D01*
X319065Y-545461D01*
Y-540382D01*
X313987D01*
X324144Y-548000D02*
Y-532765D01*
X334300Y-548000D01*
Y-532765D01*
X339379D02*
Y-548000D01*
X346996D01*
X349535Y-545461D01*
Y-535304D01*
X346996Y-532765D01*
X339379D01*
X88000Y-591265D02*
Y-606500D01*
X98157D01*
X103235Y-591265D02*
X113392D01*
Y-593804D01*
X103235Y-603961D01*
Y-606500D01*
X118470Y-596343D02*
X121009D01*
Y-598882D01*
X118470D01*
Y-596343D01*
Y-603961D02*
X121009D01*
Y-606500D01*
X118470D01*
Y-603961D01*
X146401Y-606500D02*
Y-591265D01*
X154019D01*
X156558Y-593804D01*
Y-598882D01*
X154019Y-601422D01*
X146401D01*
X161636Y-591265D02*
Y-606500D01*
X166715Y-601422D01*
X171793Y-606500D01*
Y-591265D01*
X176871Y-606500D02*
Y-591265D01*
X184489D01*
X187028Y-593804D01*
Y-598882D01*
X184489Y-601422D01*
X176871D01*
X181950D02*
X187028Y-606500D01*
X192106D02*
X202263Y-596343D01*
X217498Y-593804D02*
X214959Y-591265D01*
X209881D01*
X207341Y-593804D01*
Y-603961D01*
X209881Y-606500D01*
X214959D01*
X217498Y-603961D01*
Y-598882D01*
X212420D01*
X222577Y-606500D02*
Y-591265D01*
X232733Y-606500D01*
Y-591265D01*
X237812D02*
Y-606500D01*
X245429D01*
X247968Y-603961D01*
Y-593804D01*
X245429Y-591265D01*
X237812D01*
X87000Y-561265D02*
Y-576500D01*
X97157D01*
X112392Y-561265D02*
X107313Y-563804D01*
X102235Y-568882D01*
Y-573961D01*
X104774Y-576500D01*
X109853D01*
X112392Y-573961D01*
Y-571422D01*
X109853Y-568882D01*
X102235D01*
X117470Y-566343D02*
X120009D01*
Y-568882D01*
X117470D01*
Y-566343D01*
Y-573961D02*
X120009D01*
Y-576500D01*
X117470D01*
Y-573961D01*
X145401Y-576500D02*
Y-561265D01*
X153019D01*
X155558Y-563804D01*
Y-568882D01*
X153019Y-571422D01*
X145401D01*
X160636Y-561265D02*
Y-576500D01*
X165714Y-571422D01*
X170793Y-576500D01*
Y-561265D01*
X175871Y-576500D02*
Y-561265D01*
X183489D01*
X186028Y-563804D01*
Y-568882D01*
X183489Y-571422D01*
X175871D01*
X180950D02*
X186028Y-576500D01*
X191106D02*
X201263Y-566343D01*
X216498Y-563804D02*
X213959Y-561265D01*
X208881D01*
X206341Y-563804D01*
Y-573961D01*
X208881Y-576500D01*
X213959D01*
X216498Y-573961D01*
Y-568882D01*
X211420D01*
X221576Y-576500D02*
Y-561265D01*
X231733Y-576500D01*
Y-561265D01*
X236812D02*
Y-576500D01*
X244429D01*
X246968Y-573961D01*
Y-563804D01*
X244429Y-561265D01*
X236812D01*
X88000Y-673265D02*
Y-688500D01*
X98157D01*
X103235D02*
X108313D01*
X105774D01*
Y-673265D01*
X103235Y-675804D01*
X115931D02*
X118470Y-673265D01*
X123548D01*
X126088Y-675804D01*
Y-685961D01*
X123548Y-688500D01*
X118470D01*
X115931Y-685961D01*
Y-675804D01*
X131166Y-678343D02*
X133705D01*
Y-680882D01*
X131166D01*
Y-678343D01*
Y-685961D02*
X133705D01*
Y-688500D01*
X131166D01*
Y-685961D01*
X169254Y-675804D02*
X166714Y-673265D01*
X161636D01*
X159097Y-675804D01*
Y-685961D01*
X161636Y-688500D01*
X166714D01*
X169254Y-685961D01*
X174332Y-673265D02*
Y-688500D01*
X184489D01*
X189567Y-673265D02*
Y-688500D01*
Y-683422D01*
X199724Y-673265D01*
X192106Y-680882D01*
X199724Y-688500D01*
X204802D02*
X214959Y-678343D01*
X230194Y-675804D02*
X227655Y-673265D01*
X222576D01*
X220037Y-675804D01*
Y-678343D01*
X222576Y-680882D01*
X227655D01*
X230194Y-683422D01*
Y-685961D01*
X227655Y-688500D01*
X222576D01*
X220037Y-685961D01*
X235272Y-688500D02*
X240351D01*
X237812D01*
Y-678343D01*
X235272D01*
X253047Y-693578D02*
X255586D01*
X258125Y-691039D01*
Y-678343D01*
X250507D01*
X247968Y-680882D01*
Y-685961D01*
X250507Y-688500D01*
X258125D01*
X263203D02*
Y-678343D01*
X270821D01*
X273360Y-680882D01*
Y-688500D01*
X280977Y-678343D02*
X286056D01*
X288595Y-680882D01*
Y-688500D01*
X280977D01*
X278438Y-685961D01*
X280977Y-683422D01*
X288595D01*
X293673Y-688500D02*
X298752D01*
X296213D01*
Y-673265D01*
X293673D01*
X88500Y-701265D02*
Y-716500D01*
X98657D01*
X103735D02*
X108813D01*
X106274D01*
Y-701265D01*
X103735Y-703804D01*
X116431Y-716500D02*
X121509D01*
X118970D01*
Y-701265D01*
X116431Y-703804D01*
X129127Y-706343D02*
X131666D01*
Y-708883D01*
X129127D01*
Y-706343D01*
Y-713961D02*
X131666D01*
Y-716500D01*
X129127D01*
Y-713961D01*
X167215Y-703804D02*
X164675Y-701265D01*
X159597D01*
X157058Y-703804D01*
Y-713961D01*
X159597Y-716500D01*
X164675D01*
X167215Y-713961D01*
Y-708883D01*
X162136D01*
X172293Y-716500D02*
Y-701265D01*
X182450Y-716500D01*
Y-701265D01*
X187528D02*
Y-716500D01*
X195146D01*
X197685Y-713961D01*
Y-703804D01*
X195146Y-701265D01*
X187528D01*
X86250Y-621015D02*
Y-636250D01*
X96407D01*
X101485Y-623554D02*
X104024Y-621015D01*
X109103D01*
X111642Y-623554D01*
Y-626093D01*
X109103Y-628633D01*
X111642Y-631172D01*
Y-633711D01*
X109103Y-636250D01*
X104024D01*
X101485Y-633711D01*
Y-631172D01*
X104024Y-628633D01*
X101485Y-626093D01*
Y-623554D01*
X104024Y-628633D02*
X109103D01*
X116720Y-626093D02*
X119259D01*
Y-628633D01*
X116720D01*
Y-626093D01*
Y-633711D02*
X119259D01*
Y-636250D01*
X116720D01*
Y-633711D01*
X154808Y-623554D02*
X152269Y-621015D01*
X147190D01*
X144651Y-623554D01*
Y-626093D01*
X147190Y-628633D01*
X152269D01*
X154808Y-631172D01*
Y-633711D01*
X152269Y-636250D01*
X147190D01*
X144651Y-633711D01*
X159886Y-636250D02*
X164965D01*
X162425D01*
Y-626093D01*
X159886D01*
X177661Y-641328D02*
X180200D01*
X182739Y-638789D01*
Y-626093D01*
X175121D01*
X172582Y-628633D01*
Y-633711D01*
X175121Y-636250D01*
X182739D01*
X187817D02*
Y-626093D01*
X195435D01*
X197974Y-628633D01*
Y-636250D01*
X205592Y-626093D02*
X210670D01*
X213209Y-628633D01*
Y-636250D01*
X205592D01*
X203052Y-633711D01*
X205592Y-631172D01*
X213209D01*
X218287Y-636250D02*
X223366D01*
X220826D01*
Y-621015D01*
X218287D01*
X230983Y-636250D02*
X241140Y-626093D01*
X246218Y-636250D02*
Y-621015D01*
X253836D01*
X256375Y-623554D01*
Y-628633D01*
X253836Y-631172D01*
X246218D01*
X261453Y-621015D02*
Y-636250D01*
X266532Y-631172D01*
X271610Y-636250D01*
Y-621015D01*
X276688Y-636250D02*
Y-621015D01*
X284306D01*
X286845Y-623554D01*
Y-628633D01*
X284306Y-631172D01*
X276688D01*
X281767D02*
X286845Y-636250D01*
X291924D02*
X302080Y-626093D01*
X317315Y-623554D02*
X314776Y-621015D01*
X309698D01*
X307159Y-623554D01*
Y-633711D01*
X309698Y-636250D01*
X314776D01*
X317315Y-633711D01*
Y-628633D01*
X312237D01*
X322394Y-636250D02*
Y-621015D01*
X332550Y-636250D01*
Y-621015D01*
X337629D02*
Y-636250D01*
X345246D01*
X347785Y-633711D01*
Y-623554D01*
X345246Y-621015D01*
X337629D01*
X87250Y-646765D02*
Y-662000D01*
X97407D01*
X102485Y-659461D02*
X105024Y-662000D01*
X110103D01*
X112642Y-659461D01*
Y-649304D01*
X110103Y-646765D01*
X105024D01*
X102485Y-649304D01*
Y-651843D01*
X105024Y-654382D01*
X112642D01*
X117720Y-651843D02*
X120259D01*
Y-654382D01*
X117720D01*
Y-651843D01*
Y-659461D02*
X120259D01*
Y-662000D01*
X117720D01*
Y-659461D01*
X155808Y-649304D02*
X153269Y-646765D01*
X148190D01*
X145651Y-649304D01*
Y-659461D01*
X148190Y-662000D01*
X153269D01*
X155808Y-659461D01*
Y-654382D01*
X150730D01*
X160886Y-662000D02*
Y-646765D01*
X171043Y-662000D01*
Y-646765D01*
X176121D02*
Y-662000D01*
X183739D01*
X186278Y-659461D01*
Y-649304D01*
X183739Y-646765D01*
X176121D01*
X191356Y-662000D02*
X201513Y-651843D01*
X206591Y-662000D02*
Y-646765D01*
X214209D01*
X216748Y-649304D01*
Y-654382D01*
X214209Y-656922D01*
X206591D01*
X221826Y-646765D02*
Y-662000D01*
X226905Y-656922D01*
X231983Y-662000D01*
Y-646765D01*
X237062Y-662000D02*
Y-646765D01*
X244679D01*
X247218Y-649304D01*
Y-654382D01*
X244679Y-656922D01*
X237062D01*
X242140D02*
X247218Y-662000D01*
X2198081Y-646250D02*
X2190750D01*
X2198081Y-638919D01*
Y-637086D01*
X2196248Y-635254D01*
X2192583D01*
X2190750Y-637086D01*
X2201746D02*
X2203579Y-635254D01*
X2207245D01*
X2209077Y-637086D01*
Y-644417D01*
X2207245Y-646250D01*
X2203579D01*
X2201746Y-644417D01*
Y-637086D01*
X2212743Y-646250D02*
X2216408D01*
X2214576D01*
Y-635254D01*
X2212743Y-637086D01*
X2229238Y-635254D02*
X2221907D01*
Y-640752D01*
X2225572Y-638919D01*
X2227405D01*
X2229238Y-640752D01*
Y-644417D01*
X2227405Y-646250D01*
X2223739D01*
X2221907Y-644417D01*
X2232903Y-640752D02*
X2240234D01*
X2243900Y-646250D02*
X2247565D01*
X2245732D01*
Y-635254D01*
X2243900Y-637086D01*
X2253063Y-646250D02*
X2256729D01*
X2254896D01*
Y-635254D01*
X2253063Y-637086D01*
X2262227Y-640752D02*
X2269558D01*
X2273223Y-646250D02*
X2276889D01*
X2275056D01*
Y-635254D01*
X2273223Y-637086D01*
X2282387D02*
X2284220Y-635254D01*
X2287885D01*
X2289718Y-637086D01*
Y-638919D01*
X2287885Y-640752D01*
X2286053D01*
X2287885D01*
X2289718Y-642585D01*
Y-644417D01*
X2287885Y-646250D01*
X2284220D01*
X2282387Y-644417D01*
X2197831Y-685500D02*
X2190500D01*
X2197831Y-678169D01*
Y-676336D01*
X2195998Y-674504D01*
X2192333D01*
X2190500Y-676336D01*
X2201496D02*
X2203329Y-674504D01*
X2206995D01*
X2208827Y-676336D01*
Y-683667D01*
X2206995Y-685500D01*
X2203329D01*
X2201496Y-683667D01*
Y-676336D01*
X2212493Y-685500D02*
X2216158D01*
X2214326D01*
Y-674504D01*
X2212493Y-676336D01*
X2228988Y-674504D02*
X2221657D01*
Y-680002D01*
X2225322Y-678169D01*
X2227155D01*
X2228988Y-680002D01*
Y-683667D01*
X2227155Y-685500D01*
X2223489D01*
X2221657Y-683667D01*
X2232653Y-680002D02*
X2239984D01*
X2243649Y-685500D02*
X2247315D01*
X2245482D01*
Y-674504D01*
X2243649Y-676336D01*
X2252813Y-685500D02*
X2256479D01*
X2254646D01*
Y-674504D01*
X2252813Y-676336D01*
X2261977Y-680002D02*
X2269308D01*
X2272973Y-676336D02*
X2274806Y-674504D01*
X2278472D01*
X2280304Y-676336D01*
Y-678169D01*
X2276639Y-681834D01*
Y-683667D02*
Y-685500D01*
X2283970Y-676336D02*
X2285802Y-674504D01*
X2289468D01*
X2291301Y-676336D01*
Y-678169D01*
X2287635Y-681834D01*
Y-683667D02*
Y-685500D01*
X2200831Y-536750D02*
X2193500D01*
X2200831Y-529419D01*
Y-527586D01*
X2198998Y-525754D01*
X2195333D01*
X2193500Y-527586D01*
X2204496D02*
X2206329Y-525754D01*
X2209995D01*
X2211827Y-527586D01*
Y-534917D01*
X2209995Y-536750D01*
X2206329D01*
X2204496Y-534917D01*
Y-527586D01*
X2215493Y-536750D02*
X2219158D01*
X2217326D01*
Y-525754D01*
X2215493Y-527586D01*
X2231988Y-525754D02*
X2224657D01*
Y-531252D01*
X2228322Y-529419D01*
X2230155D01*
X2231988Y-531252D01*
Y-534917D01*
X2230155Y-536750D01*
X2226489D01*
X2224657Y-534917D01*
X2235653Y-531252D02*
X2242984D01*
X2246649Y-536750D02*
X2250315D01*
X2248482D01*
Y-525754D01*
X2246649Y-527586D01*
X2255813Y-536750D02*
X2259479D01*
X2257646D01*
Y-525754D01*
X2255813Y-527586D01*
X2264977Y-531252D02*
X2272308D01*
X2275973Y-527586D02*
X2277806Y-525754D01*
X2281472D01*
X2283304Y-527586D01*
Y-529419D01*
X2279639Y-533084D01*
Y-534917D02*
Y-536750D01*
X2286970Y-527586D02*
X2288803Y-525754D01*
X2292468D01*
X2294301Y-527586D01*
Y-529419D01*
X2290635Y-533084D01*
Y-534917D02*
Y-536750D01*
X2201081Y-497500D02*
X2193750D01*
X2201081Y-490169D01*
Y-488336D01*
X2199248Y-486504D01*
X2195583D01*
X2193750Y-488336D01*
X2204746D02*
X2206579Y-486504D01*
X2210245D01*
X2212077Y-488336D01*
Y-495667D01*
X2210245Y-497500D01*
X2206579D01*
X2204746Y-495667D01*
Y-488336D01*
X2215743Y-497500D02*
X2219408D01*
X2217576D01*
Y-486504D01*
X2215743Y-488336D01*
X2232238Y-486504D02*
X2224907D01*
Y-492002D01*
X2228572Y-490169D01*
X2230405D01*
X2232238Y-492002D01*
Y-495667D01*
X2230405Y-497500D01*
X2226739D01*
X2224907Y-495667D01*
X2235903Y-492002D02*
X2243234D01*
X2246900Y-497500D02*
X2250565D01*
X2248732D01*
Y-486504D01*
X2246900Y-488336D01*
X2256063Y-497500D02*
X2259729D01*
X2257896D01*
Y-486504D01*
X2256063Y-488336D01*
X2265227Y-492002D02*
X2272558D01*
X2276223Y-497500D02*
X2279889D01*
X2278056D01*
Y-486504D01*
X2276223Y-488336D01*
X2285387D02*
X2287220Y-486504D01*
X2290885D01*
X2292718Y-488336D01*
Y-490169D01*
X2290885Y-492002D01*
X2289052D01*
X2290885D01*
X2292718Y-493834D01*
Y-495667D01*
X2290885Y-497500D01*
X2287220D01*
X2285387Y-495667D01*
X2063250Y-597753D02*
X2066915D01*
X2065083D01*
Y-608750D01*
X2063250D01*
X2066915D01*
X2072414D02*
Y-597753D01*
X2079745Y-608750D01*
Y-597753D01*
X2083410D02*
X2087076D01*
X2085243D01*
Y-608750D01*
X2083410D01*
X2087076D01*
X2092574Y-597753D02*
X2099905D01*
X2096239D01*
Y-608750D01*
X2103570Y-597753D02*
X2107236D01*
X2105403D01*
Y-608750D01*
X2103570D01*
X2107236D01*
X2112734D02*
Y-601419D01*
X2116400Y-597753D01*
X2120065Y-601419D01*
Y-608750D01*
Y-603252D01*
X2112734D01*
X2123730Y-597753D02*
Y-608750D01*
X2131061D01*
X2134727Y-601419D02*
X2136560D01*
Y-603252D01*
X2134727D01*
Y-601419D01*
Y-606917D02*
X2136560D01*
Y-608750D01*
X2134727D01*
Y-606917D01*
X2072081Y-637336D02*
X2070248Y-635504D01*
X2066583D01*
X2064750Y-637336D01*
Y-644667D01*
X2066583Y-646500D01*
X2070248D01*
X2072081Y-644667D01*
X2075746Y-635504D02*
Y-646500D01*
Y-641002D01*
X2083077D01*
Y-635504D01*
Y-646500D01*
X2094074Y-635504D02*
X2086743D01*
Y-646500D01*
X2094074D01*
X2086743Y-641002D02*
X2090408D01*
X2105070Y-637336D02*
X2103237Y-635504D01*
X2099572D01*
X2097739Y-637336D01*
Y-644667D01*
X2099572Y-646500D01*
X2103237D01*
X2105070Y-644667D01*
X2108736Y-635504D02*
Y-646500D01*
Y-642834D01*
X2116067Y-635504D01*
X2110569Y-641002D01*
X2116067Y-646500D01*
X2127063Y-635504D02*
X2119732D01*
Y-646500D01*
X2127063D01*
X2119732Y-641002D02*
X2123398D01*
X2130729Y-635504D02*
Y-646500D01*
X2136227D01*
X2138060Y-644667D01*
Y-637336D01*
X2136227Y-635504D01*
X2130729D01*
X2141725Y-639169D02*
X2143558D01*
Y-641002D01*
X2141725D01*
Y-639169D01*
Y-644667D02*
X2143558D01*
Y-646500D01*
X2141725D01*
Y-644667D01*
X2064500Y-685500D02*
Y-674503D01*
X2069998D01*
X2071831Y-676336D01*
Y-680002D01*
X2069998Y-681834D01*
X2064500D01*
X2068165D02*
X2071831Y-685500D01*
X2082827Y-674503D02*
X2075496D01*
Y-685500D01*
X2082827D01*
X2075496Y-680002D02*
X2079162D01*
X2093824Y-676336D02*
X2091991Y-674503D01*
X2088326D01*
X2086493Y-676336D01*
Y-683667D01*
X2088326Y-685500D01*
X2091991D01*
X2093824Y-683667D01*
X2097489Y-674503D02*
Y-685500D01*
Y-680002D01*
X2104820D01*
Y-674503D01*
Y-685500D01*
X2115817Y-674503D02*
X2108486D01*
Y-685500D01*
X2115817D01*
X2108486Y-680002D02*
X2112151D01*
X2126813Y-676336D02*
X2124980Y-674503D01*
X2121315D01*
X2119482Y-676336D01*
Y-683667D01*
X2121315Y-685500D01*
X2124980D01*
X2126813Y-683667D01*
X2130479Y-674503D02*
Y-685500D01*
Y-681834D01*
X2137810Y-674503D01*
X2132311Y-680002D01*
X2137810Y-685500D01*
X2148806Y-674503D02*
X2141475D01*
Y-685500D01*
X2148806D01*
X2141475Y-680002D02*
X2145141D01*
X2152471Y-674503D02*
Y-685500D01*
X2157970D01*
X2159803Y-683667D01*
Y-676336D01*
X2157970Y-674503D01*
X2152471D01*
X2163468Y-678169D02*
X2165301D01*
Y-680002D01*
X2163468D01*
Y-678169D01*
Y-683667D02*
X2165301D01*
Y-685500D01*
X2163468D01*
Y-683667D01*
X2116000Y-560004D02*
Y-571000D01*
X2123331D01*
X2126996D02*
Y-563669D01*
X2130662Y-560004D01*
X2134327Y-563669D01*
Y-571000D01*
Y-565502D01*
X2126996D01*
X2137993Y-560004D02*
Y-561836D01*
X2141658Y-565502D01*
X2145324Y-561836D01*
Y-560004D01*
X2141658Y-565502D02*
Y-571000D01*
X2154488Y-560004D02*
X2150822D01*
X2148989Y-561836D01*
Y-569167D01*
X2150822Y-571000D01*
X2154488D01*
X2156320Y-569167D01*
Y-561836D01*
X2154488Y-560004D01*
X2159986D02*
Y-569167D01*
X2161819Y-571000D01*
X2165484D01*
X2167317Y-569167D01*
Y-560004D01*
X2170982D02*
X2178313D01*
X2174648D01*
Y-571000D01*
X2200306Y-561836D02*
X2198473Y-560004D01*
X2194808D01*
X2192975Y-561836D01*
Y-563669D01*
X2194808Y-565502D01*
X2198473D01*
X2200306Y-567335D01*
Y-569167D01*
X2198473Y-571000D01*
X2194808D01*
X2192975Y-569167D01*
X2203972Y-560004D02*
X2211302D01*
X2207637D01*
Y-571000D01*
X2214968D02*
Y-563669D01*
X2218634Y-560004D01*
X2222299Y-563669D01*
Y-571000D01*
Y-565502D01*
X2214968D01*
X2225965Y-560004D02*
X2233295D01*
X2229630D01*
Y-571000D01*
X2236961Y-560004D02*
Y-569167D01*
X2238794Y-571000D01*
X2242459D01*
X2244292Y-569167D01*
Y-560004D01*
X2255288Y-561836D02*
X2253456Y-560004D01*
X2249790D01*
X2247957Y-561836D01*
Y-563669D01*
X2249790Y-565502D01*
X2253456D01*
X2255288Y-567335D01*
Y-569167D01*
X2253456Y-571000D01*
X2249790D01*
X2247957Y-569167D01*
X2203331Y-459000D02*
X2196000D01*
X2203331Y-451669D01*
Y-449836D01*
X2201498Y-448004D01*
X2197833D01*
X2196000Y-449836D01*
X2206996D02*
X2208829Y-448004D01*
X2212495D01*
X2214327Y-449836D01*
Y-457167D01*
X2212495Y-459000D01*
X2208829D01*
X2206996Y-457167D01*
Y-449836D01*
X2217993Y-459000D02*
X2221658D01*
X2219826D01*
Y-448004D01*
X2217993Y-449836D01*
X2234488Y-448004D02*
X2227157D01*
Y-453502D01*
X2230822Y-451669D01*
X2232655D01*
X2234488Y-453502D01*
Y-457167D01*
X2232655Y-459000D01*
X2228989D01*
X2227157Y-457167D01*
X2238153Y-453502D02*
X2245484D01*
X2249149Y-459000D02*
X2252815D01*
X2250982D01*
Y-448004D01*
X2249149Y-449836D01*
X2258313Y-459000D02*
X2261979D01*
X2260146D01*
Y-448004D01*
X2258313Y-449836D01*
X2267477Y-453502D02*
X2274808D01*
X2278473Y-459000D02*
X2282139D01*
X2280306D01*
Y-448004D01*
X2278473Y-449836D01*
X2294968Y-459000D02*
X2287637D01*
X2294968Y-451669D01*
Y-449836D01*
X2293135Y-448004D01*
X2289470D01*
X2287637Y-449836D01*
X2064500Y-537000D02*
Y-526003D01*
X2069998D01*
X2071831Y-527836D01*
Y-531502D01*
X2069998Y-533335D01*
X2064500D01*
X2068165D02*
X2071831Y-537000D01*
X2082827Y-526003D02*
X2075496D01*
Y-537000D01*
X2082827D01*
X2075496Y-531502D02*
X2079162D01*
X2093824Y-527836D02*
X2091991Y-526003D01*
X2088326D01*
X2086493Y-527836D01*
Y-535167D01*
X2088326Y-537000D01*
X2091991D01*
X2093824Y-535167D01*
X2097489Y-526003D02*
Y-537000D01*
Y-531502D01*
X2104820D01*
Y-526003D01*
Y-537000D01*
X2115817Y-526003D02*
X2108486D01*
Y-537000D01*
X2115817D01*
X2108486Y-531502D02*
X2112151D01*
X2126813Y-527836D02*
X2124980Y-526003D01*
X2121315D01*
X2119482Y-527836D01*
Y-535167D01*
X2121315Y-537000D01*
X2124980D01*
X2126813Y-535167D01*
X2130479Y-526003D02*
Y-537000D01*
Y-533335D01*
X2137810Y-526003D01*
X2132311Y-531502D01*
X2137810Y-537000D01*
X2148806Y-526003D02*
X2141475D01*
Y-537000D01*
X2148806D01*
X2141475Y-531502D02*
X2145141D01*
X2152471Y-526003D02*
Y-537000D01*
X2157970D01*
X2159803Y-535167D01*
Y-527836D01*
X2157970Y-526003D01*
X2152471D01*
X2163468Y-529669D02*
X2165301D01*
Y-531502D01*
X2163468D01*
Y-529669D01*
Y-535167D02*
X2165301D01*
Y-537000D01*
X2163468D01*
Y-535167D01*
X2072081Y-488836D02*
X2070248Y-487004D01*
X2066583D01*
X2064750Y-488836D01*
Y-496167D01*
X2066583Y-498000D01*
X2070248D01*
X2072081Y-496167D01*
X2075746Y-487004D02*
Y-498000D01*
Y-492502D01*
X2083077D01*
Y-487004D01*
Y-498000D01*
X2094074Y-487004D02*
X2086743D01*
Y-498000D01*
X2094074D01*
X2086743Y-492502D02*
X2090408D01*
X2105070Y-488836D02*
X2103237Y-487004D01*
X2099572D01*
X2097739Y-488836D01*
Y-496167D01*
X2099572Y-498000D01*
X2103237D01*
X2105070Y-496167D01*
X2108736Y-487004D02*
Y-498000D01*
Y-494334D01*
X2116067Y-487004D01*
X2110569Y-492502D01*
X2116067Y-498000D01*
X2127063Y-487004D02*
X2119732D01*
Y-498000D01*
X2127063D01*
X2119732Y-492502D02*
X2123398D01*
X2130729Y-487004D02*
Y-498000D01*
X2136227D01*
X2138060Y-496167D01*
Y-488836D01*
X2136227Y-487004D01*
X2130729D01*
X2141725Y-490669D02*
X2143558D01*
Y-492502D01*
X2141725D01*
Y-490669D01*
Y-496167D02*
X2143558D01*
Y-498000D01*
X2141725D01*
Y-496167D01*
X2063250Y-449254D02*
X2066915D01*
X2065083D01*
Y-460250D01*
X2063250D01*
X2066915D01*
X2072414D02*
Y-449254D01*
X2079745Y-460250D01*
Y-449254D01*
X2083410D02*
X2087076D01*
X2085243D01*
Y-460250D01*
X2083410D01*
X2087076D01*
X2092574Y-449254D02*
X2099905D01*
X2096239D01*
Y-460250D01*
X2103570Y-449254D02*
X2107236D01*
X2105403D01*
Y-460250D01*
X2103570D01*
X2107236D01*
X2112734D02*
Y-452919D01*
X2116400Y-449254D01*
X2120065Y-452919D01*
Y-460250D01*
Y-454752D01*
X2112734D01*
X2123730Y-449254D02*
Y-460250D01*
X2131061D01*
X2134727Y-452919D02*
X2136560D01*
Y-454752D01*
X2134727D01*
Y-452919D01*
Y-458417D02*
X2136560D01*
Y-460250D01*
X2134727D01*
Y-458417D01*
X2123331Y-415004D02*
X2116000D01*
Y-420502D01*
X2119666D01*
X2116000D01*
Y-426000D01*
X2132495Y-415004D02*
X2128829D01*
X2126996Y-416836D01*
Y-424167D01*
X2128829Y-426000D01*
X2132495D01*
X2134327Y-424167D01*
Y-416836D01*
X2132495Y-415004D01*
X2143491D02*
X2139826D01*
X2137993Y-416836D01*
Y-424167D01*
X2139826Y-426000D01*
X2143491D01*
X2145324Y-424167D01*
Y-416836D01*
X2143491Y-415004D01*
X2148989D02*
X2156320D01*
X2152655D01*
Y-426000D01*
X2159986D02*
Y-415004D01*
X2165484D01*
X2167317Y-416836D01*
Y-420502D01*
X2165484Y-422335D01*
X2159986D01*
X2170982Y-426000D02*
Y-415004D01*
X2176481D01*
X2178313Y-416836D01*
Y-420502D01*
X2176481Y-422335D01*
X2170982D01*
X2174648D02*
X2178313Y-426000D01*
X2181979Y-415004D02*
X2185644D01*
X2183811D01*
Y-426000D01*
X2181979D01*
X2185644D01*
X2191142D02*
Y-415004D01*
X2198473Y-426000D01*
Y-415004D01*
X2202139D02*
X2209470D01*
X2205804D01*
Y-426000D01*
X2231463Y-416836D02*
X2229630Y-415004D01*
X2225965D01*
X2224132Y-416836D01*
Y-418669D01*
X2225965Y-420502D01*
X2229630D01*
X2231463Y-422335D01*
Y-424167D01*
X2229630Y-426000D01*
X2225965D01*
X2224132Y-424167D01*
X2235128Y-415004D02*
X2242459D01*
X2238794D01*
Y-426000D01*
X2246125D02*
Y-418669D01*
X2249790Y-415004D01*
X2253456Y-418669D01*
Y-426000D01*
Y-420502D01*
X2246125D01*
X2257121Y-415004D02*
X2264452D01*
X2260786D01*
Y-426000D01*
X2268118Y-415004D02*
Y-424167D01*
X2269950Y-426000D01*
X2273616D01*
X2275448Y-424167D01*
Y-415004D01*
X2286445Y-416836D02*
X2284612Y-415004D01*
X2280947D01*
X2279114Y-416836D01*
Y-418669D01*
X2280947Y-420502D01*
X2284612D01*
X2286445Y-422335D01*
Y-424167D01*
X2284612Y-426000D01*
X2280947D01*
X2279114Y-424167D01*
X67657Y-381304D02*
X65118Y-378765D01*
X60039D01*
X57500Y-381304D01*
Y-383843D01*
X60039Y-386382D01*
X65118D01*
X67657Y-388922D01*
Y-391461D01*
X65118Y-394000D01*
X60039D01*
X57500Y-391461D01*
X72735Y-378765D02*
X82892D01*
X77813D01*
Y-394000D01*
X87970D02*
Y-383843D01*
X93048Y-378765D01*
X98127Y-383843D01*
Y-394000D01*
Y-386382D01*
X87970D01*
X113362Y-381304D02*
X110823Y-378765D01*
X105744D01*
X103205Y-381304D01*
Y-391461D01*
X105744Y-394000D01*
X110823D01*
X113362Y-391461D01*
X118440Y-378765D02*
Y-394000D01*
Y-388922D01*
X128597Y-378765D01*
X120979Y-386382D01*
X128597Y-394000D01*
X133675Y-378765D02*
Y-391461D01*
X136215Y-394000D01*
X141293D01*
X143832Y-391461D01*
Y-378765D01*
X148910Y-394000D02*
Y-378765D01*
X156528D01*
X159067Y-381304D01*
Y-386382D01*
X156528Y-388922D01*
X148910D01*
X164146Y-383843D02*
X166685D01*
Y-386382D01*
X164146D01*
Y-383843D01*
Y-391461D02*
X166685D01*
Y-394000D01*
X164146D01*
Y-391461D01*
X392500Y-424000D02*
Y-413843D01*
X397578Y-408765D01*
X402657Y-413843D01*
Y-424000D01*
Y-416382D01*
X392500D01*
X407735Y-408765D02*
Y-424000D01*
X415353D01*
X417892Y-421461D01*
Y-411304D01*
X415353Y-408765D01*
X407735D01*
X422970D02*
Y-424000D01*
X430588D01*
X433127Y-421461D01*
Y-411304D01*
X430588Y-408765D01*
X422970D01*
X438205D02*
X443284D01*
X440744D01*
Y-424000D01*
X438205D01*
X443284D01*
X450901Y-408765D02*
X461058D01*
X455979D01*
Y-424000D01*
X466136Y-408765D02*
X471214D01*
X468675D01*
Y-424000D01*
X466136D01*
X471214D01*
X486450Y-408765D02*
X481371D01*
X478832Y-411304D01*
Y-421461D01*
X481371Y-424000D01*
X486450D01*
X488989Y-421461D01*
Y-411304D01*
X486450Y-408765D01*
X494067Y-424000D02*
Y-408765D01*
X504224Y-424000D01*
Y-408765D01*
X509302Y-424000D02*
Y-413843D01*
X514381Y-408765D01*
X519459Y-413843D01*
Y-424000D01*
Y-416382D01*
X509302D01*
X524537Y-408765D02*
Y-424000D01*
X534694D01*
X555007Y-408765D02*
Y-424000D01*
X565164D01*
X570243D02*
Y-413843D01*
X575321Y-408765D01*
X580399Y-413843D01*
Y-424000D01*
Y-416382D01*
X570243D01*
X585478Y-408765D02*
Y-411304D01*
X590556Y-416382D01*
X595634Y-411304D01*
Y-408765D01*
X590556Y-416382D02*
Y-424000D01*
X610869Y-408765D02*
X600713D01*
Y-424000D01*
X610869D01*
X600713Y-416382D02*
X605791D01*
X615948Y-424000D02*
Y-408765D01*
X623565D01*
X626104Y-411304D01*
Y-416382D01*
X623565Y-418922D01*
X615948D01*
X621026D02*
X626104Y-424000D01*
X641339Y-411304D02*
X638800Y-408765D01*
X633722D01*
X631183Y-411304D01*
Y-413843D01*
X633722Y-416382D01*
X638800D01*
X641339Y-418922D01*
Y-421461D01*
X638800Y-424000D01*
X633722D01*
X631183Y-421461D01*
X646418Y-413843D02*
X648957D01*
Y-416382D01*
X646418D01*
Y-413843D01*
Y-421461D02*
X648957D01*
Y-424000D01*
X646418D01*
Y-421461D01*
X407500Y-459000D02*
Y-443765D01*
X412578Y-448843D01*
X417657Y-443765D01*
Y-459000D01*
X430353D02*
X425274D01*
X422735Y-456461D01*
Y-451382D01*
X425274Y-448843D01*
X430353D01*
X432892Y-451382D01*
Y-453922D01*
X422735D01*
X448127Y-448843D02*
X440509D01*
X437970Y-451382D01*
Y-456461D01*
X440509Y-459000D01*
X448127D01*
X453205Y-443765D02*
Y-459000D01*
Y-451382D01*
X455744Y-448843D01*
X460823D01*
X463362Y-451382D01*
Y-459000D01*
X470979Y-448843D02*
X476058D01*
X478597Y-451382D01*
Y-459000D01*
X470979D01*
X468440Y-456461D01*
X470979Y-453922D01*
X478597D01*
X483675Y-459000D02*
Y-448843D01*
X491293D01*
X493832Y-451382D01*
Y-459000D01*
X498910D02*
X503989D01*
X501450D01*
Y-448843D01*
X498910D01*
X521763D02*
X514146D01*
X511606Y-451382D01*
Y-456461D01*
X514146Y-459000D01*
X521763D01*
X529381Y-448843D02*
X534459D01*
X536998Y-451382D01*
Y-459000D01*
X529381D01*
X526841Y-456461D01*
X529381Y-453922D01*
X536998D01*
X542076Y-459000D02*
X547155D01*
X544616D01*
Y-443765D01*
X542076D01*
X570007Y-459000D02*
X575086D01*
X572547D01*
Y-443765D01*
X570007Y-446304D01*
X582703Y-448843D02*
X585243D01*
Y-451382D01*
X582703D01*
Y-448843D01*
Y-456461D02*
X585243D01*
Y-459000D01*
X582703D01*
Y-456461D01*
X610634Y-443765D02*
Y-459000D01*
X618252D01*
X620791Y-456461D01*
Y-453922D01*
X618252Y-451382D01*
X610634D01*
X618252D01*
X620791Y-448843D01*
Y-446304D01*
X618252Y-443765D01*
X610634D01*
X628409Y-459000D02*
X633487D01*
X636026Y-456461D01*
Y-451382D01*
X633487Y-448843D01*
X628409D01*
X625869Y-451382D01*
Y-456461D01*
X628409Y-459000D01*
X643644Y-448843D02*
X648722D01*
X651261Y-451382D01*
Y-459000D01*
X643644D01*
X641104Y-456461D01*
X643644Y-453922D01*
X651261D01*
X656339Y-448843D02*
Y-459000D01*
Y-453922D01*
X658879Y-451382D01*
X661418Y-448843D01*
X663957D01*
X681731Y-443765D02*
Y-459000D01*
X674114D01*
X671575Y-456461D01*
Y-451382D01*
X674114Y-448843D01*
X681731D01*
X712201D02*
X704584D01*
X702045Y-451382D01*
Y-456461D01*
X704584Y-459000D01*
X712201D01*
X717280Y-448843D02*
Y-456461D01*
X719819Y-459000D01*
X727437D01*
Y-448843D01*
X735054Y-446304D02*
Y-448843D01*
X732515D01*
X737593D01*
X735054D01*
Y-456461D01*
X737593Y-459000D01*
X747750D02*
X752828D01*
X755368Y-456461D01*
Y-451382D01*
X752828Y-448843D01*
X747750D01*
X745211Y-451382D01*
Y-456461D01*
X747750Y-459000D01*
X760446Y-448843D02*
Y-456461D01*
X762985Y-459000D01*
X770602D01*
Y-448843D01*
X778220Y-446304D02*
Y-448843D01*
X775681D01*
X780759D01*
X778220D01*
Y-456461D01*
X780759Y-459000D01*
X788377D02*
X798533Y-448843D01*
X803612Y-459000D02*
Y-443765D01*
X813769Y-459000D01*
Y-443765D01*
X821386Y-459000D02*
X826464D01*
X829004Y-456461D01*
Y-451382D01*
X826464Y-448843D01*
X821386D01*
X818847Y-451382D01*
Y-456461D01*
X821386Y-459000D01*
X836621Y-446304D02*
Y-448843D01*
X834082D01*
X839160D01*
X836621D01*
Y-456461D01*
X839160Y-459000D01*
X854395D02*
X849317D01*
X846778Y-456461D01*
Y-451382D01*
X849317Y-448843D01*
X854395D01*
X856935Y-451382D01*
Y-453922D01*
X846778D01*
X862013Y-459000D02*
X869631D01*
X872170Y-456461D01*
X869631Y-453922D01*
X864552D01*
X862013Y-451382D01*
X864552Y-448843D01*
X872170D01*
X407500Y-489000D02*
Y-478843D01*
X412578Y-473765D01*
X417657Y-478843D01*
Y-489000D01*
Y-481382D01*
X407500D01*
X432892Y-476304D02*
X430353Y-473765D01*
X425274D01*
X422735Y-476304D01*
Y-478843D01*
X425274Y-481382D01*
X430353D01*
X432892Y-483922D01*
Y-486461D01*
X430353Y-489000D01*
X425274D01*
X422735Y-486461D01*
X437970Y-489000D02*
Y-473765D01*
X443049Y-478843D01*
X448127Y-473765D01*
Y-489000D01*
X468440Y-473765D02*
X478597D01*
X473519D01*
Y-489000D01*
X491293Y-473765D02*
X486214D01*
X483675Y-476304D01*
Y-486461D01*
X486214Y-489000D01*
X491293D01*
X493832Y-486461D01*
Y-476304D01*
X491293Y-473765D01*
X498910Y-489000D02*
Y-473765D01*
X506528D01*
X509067Y-476304D01*
Y-481382D01*
X506528Y-483922D01*
X498910D01*
X514146Y-478843D02*
X516685D01*
Y-481382D01*
X514146D01*
Y-478843D01*
Y-486461D02*
X516685D01*
Y-489000D01*
X514146D01*
Y-486461D01*
X542076Y-489000D02*
Y-478843D01*
X547155Y-473765D01*
X552233Y-478843D01*
Y-489000D01*
Y-481382D01*
X542076D01*
X557312Y-489000D02*
X564929D01*
X567468Y-486461D01*
X564929Y-483922D01*
X559851D01*
X557312Y-481382D01*
X559851Y-478843D01*
X567468D01*
X572547Y-489000D02*
X580164D01*
X582703Y-486461D01*
X580164Y-483922D01*
X575086D01*
X572547Y-481382D01*
X575086Y-478843D01*
X582703D01*
X595399Y-489000D02*
X590321D01*
X587782Y-486461D01*
Y-481382D01*
X590321Y-478843D01*
X595399D01*
X597938Y-481382D01*
Y-483922D01*
X587782D01*
X603017Y-489000D02*
Y-478843D01*
X605556D01*
X608095Y-481382D01*
Y-489000D01*
Y-481382D01*
X610634Y-478843D01*
X613173Y-481382D01*
Y-489000D01*
X618252Y-473765D02*
Y-489000D01*
X625869D01*
X628409Y-486461D01*
Y-483922D01*
Y-481382D01*
X625869Y-478843D01*
X618252D01*
X633487Y-489000D02*
X638565D01*
X636026D01*
Y-473765D01*
X633487D01*
X646183Y-478843D02*
Y-486461D01*
X648722Y-489000D01*
X656339D01*
Y-491539D01*
X653800Y-494078D01*
X651261D01*
X656339Y-489000D02*
Y-478843D01*
X679192Y-476304D02*
Y-478843D01*
X676653D01*
X681731D01*
X679192D01*
Y-486461D01*
X681731Y-489000D01*
X691888D02*
X696966D01*
X699505Y-486461D01*
Y-481382D01*
X696966Y-478843D01*
X691888D01*
X689349Y-481382D01*
Y-486461D01*
X691888Y-489000D01*
X704584Y-494078D02*
Y-478843D01*
X712201D01*
X714741Y-481382D01*
Y-486461D01*
X712201Y-489000D01*
X704584D01*
X407500Y-519000D02*
Y-508843D01*
X412578Y-503765D01*
X417657Y-508843D01*
Y-519000D01*
Y-511382D01*
X407500D01*
X432892Y-506304D02*
X430353Y-503765D01*
X425274D01*
X422735Y-506304D01*
Y-508843D01*
X425274Y-511382D01*
X430353D01*
X432892Y-513922D01*
Y-516461D01*
X430353Y-519000D01*
X425274D01*
X422735Y-516461D01*
X437970Y-519000D02*
Y-503765D01*
X443049Y-508843D01*
X448127Y-503765D01*
Y-519000D01*
X468440Y-503765D02*
Y-519000D01*
X476058D01*
X478597Y-516461D01*
Y-513922D01*
X476058Y-511382D01*
X468440D01*
X476058D01*
X478597Y-508843D01*
Y-506304D01*
X476058Y-503765D01*
X468440D01*
X491293D02*
X486214D01*
X483675Y-506304D01*
Y-516461D01*
X486214Y-519000D01*
X491293D01*
X493832Y-516461D01*
Y-506304D01*
X491293Y-503765D01*
X498910D02*
X509067D01*
X503989D01*
Y-519000D01*
X514146Y-508843D02*
X516685D01*
Y-511382D01*
X514146D01*
Y-508843D01*
Y-516461D02*
X516685D01*
Y-519000D01*
X514146D01*
Y-516461D01*
X542076Y-519000D02*
Y-508843D01*
X547155Y-503765D01*
X552233Y-508843D01*
Y-519000D01*
Y-511382D01*
X542076D01*
X557312Y-519000D02*
X564929D01*
X567468Y-516461D01*
X564929Y-513922D01*
X559851D01*
X557312Y-511382D01*
X559851Y-508843D01*
X567468D01*
X572547Y-519000D02*
X580164D01*
X582703Y-516461D01*
X580164Y-513922D01*
X575086D01*
X572547Y-511382D01*
X575086Y-508843D01*
X582703D01*
X595399Y-519000D02*
X590321D01*
X587782Y-516461D01*
Y-511382D01*
X590321Y-508843D01*
X595399D01*
X597938Y-511382D01*
Y-513922D01*
X587782D01*
X603017Y-519000D02*
Y-508843D01*
X605556D01*
X608095Y-511382D01*
Y-519000D01*
Y-511382D01*
X610634Y-508843D01*
X613173Y-511382D01*
Y-519000D01*
X618252Y-503765D02*
Y-519000D01*
X625869D01*
X628409Y-516461D01*
Y-513922D01*
Y-511382D01*
X625869Y-508843D01*
X618252D01*
X633487Y-519000D02*
X638565D01*
X636026D01*
Y-503765D01*
X633487D01*
X646183Y-508843D02*
Y-516461D01*
X648722Y-519000D01*
X656339D01*
Y-521539D01*
X653800Y-524078D01*
X651261D01*
X656339Y-519000D02*
Y-508843D01*
X676653Y-503765D02*
Y-519000D01*
X684270D01*
X686810Y-516461D01*
Y-513922D01*
Y-511382D01*
X684270Y-508843D01*
X676653D01*
X694427Y-519000D02*
X699505D01*
X702045Y-516461D01*
Y-511382D01*
X699505Y-508843D01*
X694427D01*
X691888Y-511382D01*
Y-516461D01*
X694427Y-519000D01*
X709662Y-506304D02*
Y-508843D01*
X707123D01*
X712201D01*
X709662D01*
Y-516461D01*
X712201Y-519000D01*
X722358Y-506304D02*
Y-508843D01*
X719819D01*
X724897D01*
X722358D01*
Y-516461D01*
X724897Y-519000D01*
X735054D02*
X740132D01*
X742672Y-516461D01*
Y-511382D01*
X740132Y-508843D01*
X735054D01*
X732515Y-511382D01*
Y-516461D01*
X735054Y-519000D01*
X747750D02*
Y-508843D01*
X750289D01*
X752828Y-511382D01*
Y-519000D01*
Y-511382D01*
X755368Y-508843D01*
X757907Y-511382D01*
Y-519000D01*
X407500Y-549000D02*
Y-533765D01*
X412578Y-538843D01*
X417657Y-533765D01*
Y-549000D01*
X430353D02*
X425274D01*
X422735Y-546461D01*
Y-541382D01*
X425274Y-538843D01*
X430353D01*
X432892Y-541382D01*
Y-543922D01*
X422735D01*
X448127Y-538843D02*
X440509D01*
X437970Y-541382D01*
Y-546461D01*
X440509Y-549000D01*
X448127D01*
X453205Y-533765D02*
Y-549000D01*
Y-541382D01*
X455744Y-538843D01*
X460823D01*
X463362Y-541382D01*
Y-549000D01*
X470979Y-538843D02*
X476058D01*
X478597Y-541382D01*
Y-549000D01*
X470979D01*
X468440Y-546461D01*
X470979Y-543922D01*
X478597D01*
X483675Y-549000D02*
Y-538843D01*
X491293D01*
X493832Y-541382D01*
Y-549000D01*
X498910D02*
X503989D01*
X501450D01*
Y-538843D01*
X498910D01*
X521763D02*
X514146D01*
X511606Y-541382D01*
Y-546461D01*
X514146Y-549000D01*
X521763D01*
X529381Y-538843D02*
X534459D01*
X536998Y-541382D01*
Y-549000D01*
X529381D01*
X526841Y-546461D01*
X529381Y-543922D01*
X536998D01*
X542076Y-549000D02*
X547155D01*
X544616D01*
Y-533765D01*
X542076D01*
X570007Y-549000D02*
X575086D01*
X572547D01*
Y-533765D01*
X570007Y-536304D01*
X582703D02*
X585243Y-533765D01*
X590321D01*
X592860Y-536304D01*
Y-538843D01*
X590321Y-541382D01*
X587782D01*
X590321D01*
X592860Y-543922D01*
Y-546461D01*
X590321Y-549000D01*
X585243D01*
X582703Y-546461D01*
X597938Y-538843D02*
X600478D01*
Y-541382D01*
X597938D01*
Y-538843D01*
Y-546461D02*
X600478D01*
Y-549000D01*
X597938D01*
Y-546461D01*
X636026Y-536304D02*
X633487Y-533765D01*
X628409D01*
X625869Y-536304D01*
Y-546461D01*
X628409Y-549000D01*
X633487D01*
X636026Y-546461D01*
X643644Y-549000D02*
X648722D01*
X651261Y-546461D01*
Y-541382D01*
X648722Y-538843D01*
X643644D01*
X641104Y-541382D01*
Y-546461D01*
X643644Y-549000D01*
X656339D02*
Y-538843D01*
X658879D01*
X661418Y-541382D01*
Y-549000D01*
Y-541382D01*
X663957Y-538843D01*
X666496Y-541382D01*
Y-549000D01*
X671575Y-554078D02*
Y-538843D01*
X679192D01*
X681731Y-541382D01*
Y-546461D01*
X679192Y-549000D01*
X671575D01*
X689349D02*
X694427D01*
X696966Y-546461D01*
Y-541382D01*
X694427Y-538843D01*
X689349D01*
X686810Y-541382D01*
Y-546461D01*
X689349Y-549000D01*
X702045D02*
Y-538843D01*
X709662D01*
X712201Y-541382D01*
Y-549000D01*
X724897D02*
X719819D01*
X717280Y-546461D01*
Y-541382D01*
X719819Y-538843D01*
X724897D01*
X727437Y-541382D01*
Y-543922D01*
X717280D01*
X732515Y-549000D02*
Y-538843D01*
X740132D01*
X742672Y-541382D01*
Y-549000D01*
X750289Y-536304D02*
Y-538843D01*
X747750D01*
X752828D01*
X750289D01*
Y-546461D01*
X752828Y-549000D01*
X775681Y-536304D02*
X778220Y-533765D01*
X783298D01*
X785838Y-536304D01*
Y-538843D01*
X783298Y-541382D01*
X780759D01*
X783298D01*
X785838Y-543922D01*
Y-546461D01*
X783298Y-549000D01*
X778220D01*
X775681Y-546461D01*
X790916Y-533765D02*
Y-549000D01*
X798533D01*
X801073Y-546461D01*
Y-536304D01*
X798533Y-533765D01*
X790916D01*
X821386D02*
Y-549000D01*
X829004D01*
X831543Y-546461D01*
Y-543922D01*
Y-541382D01*
X829004Y-538843D01*
X821386D01*
X839160Y-549000D02*
X844239D01*
X846778Y-546461D01*
Y-541382D01*
X844239Y-538843D01*
X839160D01*
X836621Y-541382D01*
Y-546461D01*
X839160Y-549000D01*
X862013Y-533765D02*
Y-549000D01*
X854395D01*
X851856Y-546461D01*
Y-541382D01*
X854395Y-538843D01*
X862013D01*
X867091D02*
Y-546461D01*
X869631Y-549000D01*
X877248D01*
Y-551539D01*
X874709Y-554078D01*
X872170D01*
X877248Y-549000D02*
Y-538843D01*
X2200081Y-608500D02*
X2192750D01*
X2200081Y-601169D01*
Y-599336D01*
X2198248Y-597504D01*
X2194583D01*
X2192750Y-599336D01*
X2203746D02*
X2205579Y-597504D01*
X2209245D01*
X2211077Y-599336D01*
Y-606667D01*
X2209245Y-608500D01*
X2205579D01*
X2203746Y-606667D01*
Y-599336D01*
X2214743Y-608500D02*
X2218408D01*
X2216576D01*
Y-597504D01*
X2214743Y-599336D01*
X2231238Y-597504D02*
X2223907D01*
Y-603002D01*
X2227572Y-601169D01*
X2229405D01*
X2231238Y-603002D01*
Y-606667D01*
X2229405Y-608500D01*
X2225739D01*
X2223907Y-606667D01*
X2234903Y-603002D02*
X2242234D01*
X2245900Y-608500D02*
X2249565D01*
X2247732D01*
Y-597504D01*
X2245900Y-599336D01*
X2255063Y-608500D02*
X2258729D01*
X2256896D01*
Y-597504D01*
X2255063Y-599336D01*
X2264227Y-603002D02*
X2271558D01*
X2275223Y-608500D02*
X2278889D01*
X2277056D01*
Y-597504D01*
X2275223Y-599336D01*
X2291718Y-608500D02*
X2284387D01*
X2291718Y-601169D01*
Y-599336D01*
X2289885Y-597504D01*
X2286220D01*
X2284387Y-599336D01*
M02*
