G04 Layer_Color=16711935*
%FSLAX44Y44*%
%MOMM*%
G71*
G01*
G75*
G04:AMPARAMS|DCode=18|XSize=0.6mm|YSize=0.6mm|CornerRadius=0.06mm|HoleSize=0mm|Usage=FLASHONLY|Rotation=0.000|XOffset=0mm|YOffset=0mm|HoleType=Round|Shape=RoundedRectangle|*
%AMROUNDEDRECTD18*
21,1,0.6000,0.4800,0,0,0.0*
21,1,0.4800,0.6000,0,0,0.0*
1,1,0.1200,0.2400,-0.2400*
1,1,0.1200,-0.2400,-0.2400*
1,1,0.1200,-0.2400,0.2400*
1,1,0.1200,0.2400,0.2400*
%
%ADD18ROUNDEDRECTD18*%
G04:AMPARAMS|DCode=19|XSize=0.5mm|YSize=0.6mm|CornerRadius=0.05mm|HoleSize=0mm|Usage=FLASHONLY|Rotation=0.000|XOffset=0mm|YOffset=0mm|HoleType=Round|Shape=RoundedRectangle|*
%AMROUNDEDRECTD19*
21,1,0.5000,0.5000,0,0,0.0*
21,1,0.4000,0.6000,0,0,0.0*
1,1,0.1000,0.2000,-0.2500*
1,1,0.1000,-0.2000,-0.2500*
1,1,0.1000,-0.2000,0.2500*
1,1,0.1000,0.2000,0.2500*
%
%ADD19ROUNDEDRECTD19*%
G04:AMPARAMS|DCode=20|XSize=0.6mm|YSize=0.6mm|CornerRadius=0.06mm|HoleSize=0mm|Usage=FLASHONLY|Rotation=270.000|XOffset=0mm|YOffset=0mm|HoleType=Round|Shape=RoundedRectangle|*
%AMROUNDEDRECTD20*
21,1,0.6000,0.4800,0,0,270.0*
21,1,0.4800,0.6000,0,0,270.0*
1,1,0.1200,-0.2400,-0.2400*
1,1,0.1200,-0.2400,0.2400*
1,1,0.1200,0.2400,0.2400*
1,1,0.1200,0.2400,-0.2400*
%
%ADD20ROUNDEDRECTD20*%
%ADD23R,0.9500X0.4000*%
%ADD27C,0.4500*%
G04:AMPARAMS|DCode=29|XSize=0.5mm|YSize=0.6mm|CornerRadius=0.05mm|HoleSize=0mm|Usage=FLASHONLY|Rotation=90.000|XOffset=0mm|YOffset=0mm|HoleType=Round|Shape=RoundedRectangle|*
%AMROUNDEDRECTD29*
21,1,0.5000,0.5000,0,0,90.0*
21,1,0.4000,0.6000,0,0,90.0*
1,1,0.1000,0.2500,0.2000*
1,1,0.1000,0.2500,-0.2000*
1,1,0.1000,-0.2500,-0.2000*
1,1,0.1000,-0.2500,0.2000*
%
%ADD29ROUNDEDRECTD29*%
G04:AMPARAMS|DCode=30|XSize=1.3mm|YSize=0.8mm|CornerRadius=0.1mm|HoleSize=0mm|Usage=FLASHONLY|Rotation=90.000|XOffset=0mm|YOffset=0mm|HoleType=Round|Shape=RoundedRectangle|*
%AMROUNDEDRECTD30*
21,1,1.3000,0.6000,0,0,90.0*
21,1,1.1000,0.8000,0,0,90.0*
1,1,0.2000,0.3000,0.5500*
1,1,0.2000,0.3000,-0.5500*
1,1,0.2000,-0.3000,-0.5500*
1,1,0.2000,-0.3000,0.5500*
%
%ADD30ROUNDEDRECTD30*%
G04:AMPARAMS|DCode=37|XSize=1.8mm|YSize=1.15mm|CornerRadius=0.1437mm|HoleSize=0mm|Usage=FLASHONLY|Rotation=0.000|XOffset=0mm|YOffset=0mm|HoleType=Round|Shape=RoundedRectangle|*
%AMROUNDEDRECTD37*
21,1,1.8000,0.8625,0,0,0.0*
21,1,1.5125,1.1500,0,0,0.0*
1,1,0.2875,0.7562,-0.4313*
1,1,0.2875,-0.7562,-0.4313*
1,1,0.2875,-0.7562,0.4313*
1,1,0.2875,0.7562,0.4313*
%
%ADD37ROUNDEDRECTD37*%
G04:AMPARAMS|DCode=38|XSize=1.8mm|YSize=1.15mm|CornerRadius=0.1437mm|HoleSize=0mm|Usage=FLASHONLY|Rotation=270.000|XOffset=0mm|YOffset=0mm|HoleType=Round|Shape=RoundedRectangle|*
%AMROUNDEDRECTD38*
21,1,1.8000,0.8625,0,0,270.0*
21,1,1.5125,1.1500,0,0,270.0*
1,1,0.2875,-0.4313,-0.7562*
1,1,0.2875,-0.4313,0.7562*
1,1,0.2875,0.4313,0.7562*
1,1,0.2875,0.4313,-0.7562*
%
%ADD38ROUNDEDRECTD38*%
G04:AMPARAMS|DCode=44|XSize=1mm|YSize=0.9mm|CornerRadius=0.1125mm|HoleSize=0mm|Usage=FLASHONLY|Rotation=0.000|XOffset=0mm|YOffset=0mm|HoleType=Round|Shape=RoundedRectangle|*
%AMROUNDEDRECTD44*
21,1,1.0000,0.6750,0,0,0.0*
21,1,0.7750,0.9000,0,0,0.0*
1,1,0.2250,0.3875,-0.3375*
1,1,0.2250,-0.3875,-0.3375*
1,1,0.2250,-0.3875,0.3375*
1,1,0.2250,0.3875,0.3375*
%
%ADD44ROUNDEDRECTD44*%
G04:AMPARAMS|DCode=45|XSize=1mm|YSize=0.9mm|CornerRadius=0.1125mm|HoleSize=0mm|Usage=FLASHONLY|Rotation=270.000|XOffset=0mm|YOffset=0mm|HoleType=Round|Shape=RoundedRectangle|*
%AMROUNDEDRECTD45*
21,1,1.0000,0.6750,0,0,270.0*
21,1,0.7750,0.9000,0,0,270.0*
1,1,0.2250,-0.3375,-0.3875*
1,1,0.2250,-0.3375,0.3875*
1,1,0.2250,0.3375,0.3875*
1,1,0.2250,0.3375,-0.3875*
%
%ADD45ROUNDEDRECTD45*%
G04:AMPARAMS|DCode=46|XSize=1.3mm|YSize=0.8mm|CornerRadius=0.1mm|HoleSize=0mm|Usage=FLASHONLY|Rotation=180.000|XOffset=0mm|YOffset=0mm|HoleType=Round|Shape=RoundedRectangle|*
%AMROUNDEDRECTD46*
21,1,1.3000,0.6000,0,0,180.0*
21,1,1.1000,0.8000,0,0,180.0*
1,1,0.2000,-0.5500,0.3000*
1,1,0.2000,0.5500,0.3000*
1,1,0.2000,0.5500,-0.3000*
1,1,0.2000,-0.5500,-0.3000*
%
%ADD46ROUNDEDRECTD46*%
%ADD74R,0.9960X0.9960*%
G04:AMPARAMS|DCode=78|XSize=0.6mm|YSize=0.6mm|CornerRadius=0.06mm|HoleSize=0mm|Usage=FLASHONLY|Rotation=45.000|XOffset=0mm|YOffset=0mm|HoleType=Round|Shape=RoundedRectangle|*
%AMROUNDEDRECTD78*
21,1,0.6000,0.4800,0,0,45.0*
21,1,0.4800,0.6000,0,0,45.0*
1,1,0.1200,0.3394,0.0000*
1,1,0.1200,0.0000,-0.3394*
1,1,0.1200,-0.3394,0.0000*
1,1,0.1200,0.0000,0.3394*
%
%ADD78ROUNDEDRECTD78*%
%ADD90R,0.9960X0.9960*%
%ADD91R,0.7000X4.2000*%
%ADD92R,0.7000X3.2000*%
%ADD93C,0.5000*%
%ADD107C,3.1000*%
%ADD108C,5.0000*%
G04:AMPARAMS|DCode=110|XSize=1.524mm|YSize=1.524mm|CornerRadius=0.1905mm|HoleSize=0mm|Usage=FLASHONLY|Rotation=270.000|XOffset=0mm|YOffset=0mm|HoleType=Round|Shape=RoundedRectangle|*
%AMROUNDEDRECTD110*
21,1,1.5240,1.1430,0,0,270.0*
21,1,1.1430,1.5240,0,0,270.0*
1,1,0.3810,-0.5715,-0.5715*
1,1,0.3810,-0.5715,0.5715*
1,1,0.3810,0.5715,0.5715*
1,1,0.3810,0.5715,-0.5715*
%
%ADD110ROUNDEDRECTD110*%
%ADD111C,1.6000*%
%ADD112O,5.0000X2.0000*%
%ADD113O,2.2000X5.0000*%
%ADD114O,2.0000X5.0000*%
%ADD115C,1.4000*%
G04:AMPARAMS|DCode=116|XSize=1.4mm|YSize=1.4mm|CornerRadius=0.35mm|HoleSize=0mm|Usage=FLASHONLY|Rotation=90.000|XOffset=0mm|YOffset=0mm|HoleType=Round|Shape=RoundedRectangle|*
%AMROUNDEDRECTD116*
21,1,1.4000,0.7000,0,0,90.0*
21,1,0.7000,1.4000,0,0,90.0*
1,1,0.7000,0.3500,0.3500*
1,1,0.7000,0.3500,-0.3500*
1,1,0.7000,-0.3500,-0.3500*
1,1,0.7000,-0.3500,0.3500*
%
%ADD116ROUNDEDRECTD116*%
%ADD118C,2.8800*%
%ADD119C,0.4000*%
G04:AMPARAMS|DCode=129|XSize=0.6mm|YSize=1mm|CornerRadius=0.075mm|HoleSize=0mm|Usage=FLASHONLY|Rotation=180.000|XOffset=0mm|YOffset=0mm|HoleType=Round|Shape=RoundedRectangle|*
%AMROUNDEDRECTD129*
21,1,0.6000,0.8500,0,0,180.0*
21,1,0.4500,1.0000,0,0,180.0*
1,1,0.1500,-0.2250,0.4250*
1,1,0.1500,0.2250,0.4250*
1,1,0.1500,0.2250,-0.4250*
1,1,0.1500,-0.2250,-0.4250*
%
%ADD129ROUNDEDRECTD129*%
%ADD130R,0.3500X0.3000*%
%ADD131R,0.3000X0.3500*%
%ADD132R,2.1000X2.1000*%
%ADD134R,2.5400X1.2700*%
%ADD135R,1.2000X1.5000*%
%ADD136R,0.9000X1.4000*%
G04:AMPARAMS|DCode=137|XSize=0.3mm|YSize=0.35mm|CornerRadius=0mm|HoleSize=0mm|Usage=FLASHONLY|Rotation=315.000|XOffset=0mm|YOffset=0mm|HoleType=Round|Shape=Rectangle|*
%AMROTATEDRECTD137*
4,1,4,-0.2298,-0.0177,0.0177,0.2298,0.2298,0.0177,-0.0177,-0.2298,-0.2298,-0.0177,0.0*
%
%ADD137ROTATEDRECTD137*%

G04:AMPARAMS|DCode=138|XSize=0.3mm|YSize=0.35mm|CornerRadius=0mm|HoleSize=0mm|Usage=FLASHONLY|Rotation=45.000|XOffset=0mm|YOffset=0mm|HoleType=Round|Shape=Rectangle|*
%AMROTATEDRECTD138*
4,1,4,0.0177,-0.2298,-0.2298,0.0177,-0.0177,0.2298,0.2298,-0.0177,0.0177,-0.2298,0.0*
%
%ADD138ROTATEDRECTD138*%

G04:AMPARAMS|DCode=139|XSize=1.4mm|YSize=1.2mm|CornerRadius=0.15mm|HoleSize=0mm|Usage=FLASHONLY|Rotation=180.000|XOffset=0mm|YOffset=0mm|HoleType=Round|Shape=RoundedRectangle|*
%AMROUNDEDRECTD139*
21,1,1.4000,0.9000,0,0,180.0*
21,1,1.1000,1.2000,0,0,180.0*
1,1,0.3000,-0.5500,0.4500*
1,1,0.3000,0.5500,0.4500*
1,1,0.3000,0.5500,-0.4500*
1,1,0.3000,-0.5500,-0.4500*
%
%ADD139ROUNDEDRECTD139*%
%ADD144R,2.7000X2.7000*%
G04:AMPARAMS|DCode=147|XSize=0.6mm|YSize=1mm|CornerRadius=0.075mm|HoleSize=0mm|Usage=FLASHONLY|Rotation=90.000|XOffset=0mm|YOffset=0mm|HoleType=Round|Shape=RoundedRectangle|*
%AMROUNDEDRECTD147*
21,1,0.6000,0.8500,0,0,90.0*
21,1,0.4500,1.0000,0,0,90.0*
1,1,0.1500,0.4250,0.2250*
1,1,0.1500,0.4250,-0.2250*
1,1,0.1500,-0.4250,-0.2250*
1,1,0.1500,-0.4250,0.2250*
%
%ADD147ROUNDEDRECTD147*%
%ADD148R,0.8500X0.4000*%
G04:AMPARAMS|DCode=149|XSize=2.5mm|YSize=1.5mm|CornerRadius=0.1875mm|HoleSize=0mm|Usage=FLASHONLY|Rotation=0.000|XOffset=0mm|YOffset=0mm|HoleType=Round|Shape=RoundedRectangle|*
%AMROUNDEDRECTD149*
21,1,2.5000,1.1250,0,0,0.0*
21,1,2.1250,1.5000,0,0,0.0*
1,1,0.3750,1.0625,-0.5625*
1,1,0.3750,-1.0625,-0.5625*
1,1,0.3750,-1.0625,0.5625*
1,1,0.3750,1.0625,0.5625*
%
%ADD149ROUNDEDRECTD149*%
%ADD164R,34.8000X5.9750*%
%ADD184R,0.4000X0.8000*%
%ADD185R,1.4500X1.7500*%
%ADD186R,0.8000X0.4000*%
%ADD187O,1.0000X0.3500*%
%ADD188O,0.3500X1.0000*%
%ADD189R,1.5000X0.5500*%
%ADD190R,2.8000X2.8000*%
%ADD191R,0.9000X0.3500*%
%ADD192R,0.3500X0.9000*%
%ADD193C,0.3900*%
G36*
X360500Y584000D02*
X329250D01*
X261750Y651500D01*
X193500D01*
Y476750D01*
X161000D01*
Y264500D01*
X215250Y264500D01*
X259500Y308750D01*
X259500Y331250D01*
X268750Y340500D01*
X333000D01*
X345717Y353217D01*
Y354023D01*
X345717Y383133D01*
X345717Y383134D01*
X345722Y383182D01*
X345727Y383232D01*
X345748Y383304D01*
X345755Y383326D01*
X345802Y383413D01*
X345833Y383451D01*
X345864Y383489D01*
X345864Y383489D01*
X349864Y387489D01*
X349940Y387551D01*
X350027Y387598D01*
X350049Y387604D01*
X350121Y387626D01*
X350170Y387631D01*
X350219Y387636D01*
X350219Y387636D01*
X354511Y387636D01*
X355467Y388591D01*
Y392175D01*
X354511Y393131D01*
X346219D01*
X346121Y393141D01*
X346027Y393169D01*
X345940Y393216D01*
X345864Y393278D01*
X345801Y393354D01*
X345755Y393441D01*
X345726Y393535D01*
X345717Y393633D01*
X345717Y405383D01*
X345717Y405383D01*
X345726Y405473D01*
X345726Y405481D01*
X345755Y405576D01*
X345801Y405662D01*
X345836Y405704D01*
X345864Y405739D01*
X345864Y405739D01*
X350467Y410341D01*
X350467Y433883D01*
X350476Y433981D01*
X350505Y434076D01*
X350551Y434162D01*
X350614Y434239D01*
X350690Y434301D01*
X350777Y434348D01*
X350871Y434376D01*
X350969Y434386D01*
X357011D01*
X358614Y435989D01*
X358690Y436051D01*
X358777Y436098D01*
X358799Y436104D01*
X358871Y436126D01*
X358920Y436131D01*
X358969Y436136D01*
X358969Y436136D01*
X368969D01*
X369067Y436126D01*
X369140Y436104D01*
X369161Y436098D01*
X369248Y436051D01*
X369324Y435989D01*
X369324Y435989D01*
X375824Y429489D01*
X375825Y429488D01*
X383427Y421886D01*
X384761Y421886D01*
X388717Y425841D01*
Y427925D01*
X385614Y431028D01*
X385614Y431028D01*
X385586Y431063D01*
X385551Y431104D01*
X385505Y431191D01*
X385476Y431285D01*
X385476Y431294D01*
X385467Y431384D01*
X385471Y431432D01*
X385476Y431482D01*
X385498Y431554D01*
X385505Y431576D01*
X385551Y431663D01*
X385614Y431739D01*
X385648Y431767D01*
X385690Y431801D01*
X385777Y431848D01*
X385871Y431876D01*
X385880Y431877D01*
X385969Y431886D01*
X385969Y431886D01*
X407761D01*
X413364Y437489D01*
X413364D01*
Y437489D01*
X413440Y437551D01*
X413516Y437592D01*
X413527Y437598D01*
D01*
X413527Y437598D01*
X413621Y437626D01*
X413709Y437635D01*
X413719Y437636D01*
D01*
X413719D01*
X413817Y437626D01*
X413846Y437617D01*
X413912Y437598D01*
X413998Y437551D01*
X414075Y437489D01*
X414075Y437489D01*
X415824Y435739D01*
X415887Y435662D01*
X415908Y435622D01*
X415933Y435576D01*
X415942Y435547D01*
X415962Y435481D01*
X415971Y435383D01*
X415962Y435285D01*
X415953Y435257D01*
X415933Y435191D01*
X415912Y435151D01*
X415887Y435104D01*
X415824Y435028D01*
X415824Y435028D01*
X409222Y428425D01*
X409222Y418133D01*
X409212Y418035D01*
X409183Y417941D01*
X409137Y417854D01*
X409074Y417778D01*
X408998Y417716D01*
X408911Y417669D01*
X408817Y417641D01*
X408719Y417631D01*
X400177Y417631D01*
X398971Y416425D01*
X398971Y412841D01*
X404574Y407239D01*
X404637Y407163D01*
X404683Y407076D01*
X404690Y407054D01*
X404712Y406981D01*
X404717Y406932D01*
X404721Y406883D01*
X404721Y406883D01*
X404721Y381883D01*
X404712Y381785D01*
X404683Y381691D01*
X404637Y381604D01*
X404574Y381528D01*
X404498Y381466D01*
X404411Y381419D01*
X404317Y381391D01*
X404219Y381381D01*
X389469D01*
X389469Y381381D01*
X389420Y381386D01*
X389371Y381391D01*
X389299Y381413D01*
X389277Y381419D01*
X389190Y381466D01*
X389114Y381528D01*
X389114Y381528D01*
X387261Y383381D01*
X375427Y383381D01*
X374472Y382425D01*
X374472Y379634D01*
X374472Y379633D01*
X374463Y379544D01*
X374462Y379535D01*
X374433Y379441D01*
X374387Y379354D01*
X374353Y379313D01*
X374324Y379278D01*
X374324Y379278D01*
X368222Y373175D01*
Y309258D01*
X368212Y309160D01*
X368183Y309066D01*
X368137Y308979D01*
X368074Y308903D01*
X368014Y308854D01*
X421868Y255000D01*
X588250Y255000D01*
X588250Y190838D01*
X578662Y181250D01*
X560000Y181250D01*
X519000Y140250D01*
X85500D01*
Y179250D01*
X81250Y183500D01*
X11500Y183500D01*
X11501Y583502D01*
X128500Y583499D01*
Y677000D01*
X193500Y677000D01*
X360500D01*
X360500Y584000D01*
D02*
G37*
G36*
X374092Y442697D02*
X374186Y442669D01*
X374273Y442622D01*
X374349Y442560D01*
X374412Y442484D01*
X374458Y442397D01*
X374487Y442303D01*
X374496Y442205D01*
Y436955D01*
X374487Y436857D01*
X374458Y436763D01*
X374412Y436676D01*
X374349Y436600D01*
X374273Y436537D01*
X374186Y436491D01*
X374092Y436462D01*
X373994Y436452D01*
X357744D01*
X357646Y436462D01*
X357552Y436491D01*
X357465Y436537D01*
X357389Y436600D01*
X357326Y436676D01*
X357280Y436763D01*
X357251Y436857D01*
X357242Y436955D01*
Y442205D01*
X357251Y442303D01*
X357280Y442397D01*
X357326Y442484D01*
X357389Y442560D01*
X357465Y442622D01*
X357552Y442669D01*
X357646Y442697D01*
X357744Y442707D01*
X373994D01*
X374092Y442697D01*
D02*
G37*
D18*
X739000Y454250D02*
D03*
Y444250D02*
D03*
X939750Y301000D02*
D03*
Y291000D02*
D03*
X810500Y356000D02*
D03*
Y366000D02*
D03*
X780500Y516000D02*
D03*
Y506000D02*
D03*
Y486000D02*
D03*
Y496000D02*
D03*
X800750Y446250D02*
D03*
Y456250D02*
D03*
X916000Y238500D02*
D03*
Y228500D02*
D03*
X563750Y514500D02*
D03*
Y524500D02*
D03*
X584250Y535500D02*
D03*
Y545500D02*
D03*
X749500Y454250D02*
D03*
Y444250D02*
D03*
X726500Y440500D02*
D03*
Y430500D02*
D03*
X732500Y533500D02*
D03*
Y523500D02*
D03*
X599250Y427125D02*
D03*
Y437125D02*
D03*
X588250Y427125D02*
D03*
Y437125D02*
D03*
X413740Y415563D02*
D03*
Y425563D02*
D03*
X451000Y402750D02*
D03*
Y392750D02*
D03*
X566500Y338250D02*
D03*
X566500Y328250D02*
D03*
X539500Y338250D02*
D03*
Y328250D02*
D03*
X1212244Y299006D02*
D03*
Y309006D02*
D03*
X631645Y455821D02*
D03*
Y445821D02*
D03*
X802000Y574000D02*
D03*
Y584000D02*
D03*
X976500Y574500D02*
D03*
Y584500D02*
D03*
X904000Y289000D02*
D03*
Y299000D02*
D03*
X957250Y311000D02*
D03*
Y301000D02*
D03*
X945750Y312250D02*
D03*
Y322250D02*
D03*
X968250Y318250D02*
D03*
Y328250D02*
D03*
X979250Y333000D02*
D03*
Y323000D02*
D03*
X684250Y338500D02*
D03*
Y348500D02*
D03*
X1037700Y601250D02*
D03*
Y611250D02*
D03*
X1064699Y601250D02*
D03*
Y611250D02*
D03*
X1092000Y601250D02*
D03*
Y611250D02*
D03*
X1117950Y601250D02*
D03*
X1117950Y611250D02*
D03*
X1145000Y601250D02*
D03*
Y611250D02*
D03*
X1172000Y601250D02*
D03*
Y611250D02*
D03*
X1205301Y615250D02*
D03*
Y625250D02*
D03*
X1218001Y615250D02*
D03*
Y625250D02*
D03*
X1230701Y615250D02*
D03*
Y625250D02*
D03*
X1243401Y615250D02*
D03*
Y625250D02*
D03*
X528500Y406000D02*
D03*
Y396000D02*
D03*
D19*
X634750Y339250D02*
D03*
Y329250D02*
D03*
X840500Y516000D02*
D03*
Y526000D02*
D03*
X810500Y496250D02*
D03*
Y506250D02*
D03*
X627515Y612500D02*
D03*
X627515Y602500D02*
D03*
X617265D02*
D03*
X617265Y612500D02*
D03*
X627265Y569476D02*
D03*
X627265Y559476D02*
D03*
X617265Y559476D02*
D03*
Y569476D02*
D03*
X653000Y416250D02*
D03*
Y426250D02*
D03*
X593500Y535500D02*
D03*
Y545500D02*
D03*
X738000Y413500D02*
D03*
Y403500D02*
D03*
X706250Y355500D02*
D03*
Y365500D02*
D03*
X705000Y440750D02*
D03*
Y450750D02*
D03*
X577500Y363250D02*
D03*
Y353250D02*
D03*
X601750Y363250D02*
D03*
Y353250D02*
D03*
X609500Y427125D02*
D03*
Y437125D02*
D03*
X578750Y427000D02*
D03*
Y437000D02*
D03*
X727500Y355500D02*
D03*
Y365500D02*
D03*
X622500Y412125D02*
D03*
Y402125D02*
D03*
X591500Y640250D02*
D03*
Y630250D02*
D03*
X581500Y640000D02*
D03*
Y630000D02*
D03*
X539750Y351750D02*
D03*
Y361750D02*
D03*
X1224244Y351756D02*
D03*
Y341756D02*
D03*
X563000Y625500D02*
D03*
Y635500D02*
D03*
X774000Y641000D02*
D03*
Y631000D02*
D03*
X784000Y641000D02*
D03*
Y631000D02*
D03*
X810000Y642000D02*
D03*
Y632000D02*
D03*
X814000Y584000D02*
D03*
Y574000D02*
D03*
X838000Y607000D02*
D03*
Y617000D02*
D03*
X760000Y613000D02*
D03*
Y623000D02*
D03*
X710000Y614000D02*
D03*
Y624000D02*
D03*
X988500Y584500D02*
D03*
Y574500D02*
D03*
X884500Y614500D02*
D03*
Y624500D02*
D03*
X934500Y613500D02*
D03*
Y623500D02*
D03*
X960500Y643500D02*
D03*
Y633500D02*
D03*
X948500Y641500D02*
D03*
Y631500D02*
D03*
X984500Y642500D02*
D03*
Y632500D02*
D03*
X1012500Y607500D02*
D03*
Y617500D02*
D03*
X900500Y355750D02*
D03*
Y345750D02*
D03*
X890250Y386250D02*
D03*
Y376250D02*
D03*
X880740Y386250D02*
D03*
Y376250D02*
D03*
X850750Y456250D02*
D03*
Y446250D02*
D03*
X900500Y386250D02*
D03*
Y376250D02*
D03*
X840750Y496000D02*
D03*
Y486000D02*
D03*
X890250Y436000D02*
D03*
Y426000D02*
D03*
X910500Y416250D02*
D03*
Y426250D02*
D03*
X880500Y496000D02*
D03*
Y506000D02*
D03*
X870500Y496000D02*
D03*
Y506000D02*
D03*
X770250Y396000D02*
D03*
Y386000D02*
D03*
X900500Y416000D02*
D03*
Y426000D02*
D03*
X791000Y438000D02*
D03*
Y428000D02*
D03*
X960250Y355750D02*
D03*
Y345750D02*
D03*
X820500Y516000D02*
D03*
Y526000D02*
D03*
X930500Y486000D02*
D03*
Y496000D02*
D03*
X820500Y356250D02*
D03*
Y366250D02*
D03*
X850750Y366000D02*
D03*
Y356000D02*
D03*
X929250Y301000D02*
D03*
Y291000D02*
D03*
X900000Y476000D02*
D03*
Y486000D02*
D03*
X940500Y346000D02*
D03*
Y356000D02*
D03*
Y495750D02*
D03*
Y485750D02*
D03*
X780500Y346000D02*
D03*
Y356000D02*
D03*
X983500Y374000D02*
D03*
Y384000D02*
D03*
X930750Y516250D02*
D03*
Y506250D02*
D03*
X790750Y496000D02*
D03*
Y506000D02*
D03*
X970250Y525750D02*
D03*
Y515750D02*
D03*
X970000Y506000D02*
D03*
Y496000D02*
D03*
X985750Y453000D02*
D03*
Y463000D02*
D03*
Y484500D02*
D03*
Y474500D02*
D03*
X800500Y356000D02*
D03*
Y366000D02*
D03*
X971000Y376000D02*
D03*
Y386000D02*
D03*
X830500Y506000D02*
D03*
Y496000D02*
D03*
X950500Y426000D02*
D03*
Y436000D02*
D03*
X860750Y425750D02*
D03*
Y415750D02*
D03*
X801000Y476000D02*
D03*
Y486000D02*
D03*
X940000Y446000D02*
D03*
Y456000D02*
D03*
X940750Y386250D02*
D03*
Y376250D02*
D03*
X820750Y476000D02*
D03*
Y486000D02*
D03*
X920500Y395750D02*
D03*
Y385750D02*
D03*
X930500Y445500D02*
D03*
Y455500D02*
D03*
X930750Y386250D02*
D03*
Y376250D02*
D03*
X850750Y425750D02*
D03*
Y435750D02*
D03*
X840750Y366500D02*
D03*
Y356500D02*
D03*
X840500Y425500D02*
D03*
Y435500D02*
D03*
X800750Y425750D02*
D03*
Y415750D02*
D03*
X970750D02*
D03*
Y425750D02*
D03*
X770000Y486000D02*
D03*
Y496000D02*
D03*
X810500Y485500D02*
D03*
Y475500D02*
D03*
X771000Y466000D02*
D03*
Y476000D02*
D03*
X830500Y356250D02*
D03*
Y366250D02*
D03*
X790500Y366000D02*
D03*
Y376000D02*
D03*
X870500Y326500D02*
D03*
Y316500D02*
D03*
X900500Y446000D02*
D03*
Y436000D02*
D03*
X940500Y516250D02*
D03*
Y506250D02*
D03*
X940750Y425750D02*
D03*
Y415750D02*
D03*
X993250Y374000D02*
D03*
Y384000D02*
D03*
X1086000Y479750D02*
D03*
Y469750D02*
D03*
X1096000D02*
D03*
Y479750D02*
D03*
X1106000Y479750D02*
D03*
Y469750D02*
D03*
X636500Y146500D02*
D03*
Y156500D02*
D03*
X626500Y146500D02*
D03*
Y156500D02*
D03*
X676500Y146500D02*
D03*
Y156500D02*
D03*
X686500Y146500D02*
D03*
Y156500D02*
D03*
X716500Y146500D02*
D03*
Y156500D02*
D03*
X726500Y146500D02*
D03*
Y156500D02*
D03*
X766500Y146500D02*
D03*
Y156500D02*
D03*
X756500Y146500D02*
D03*
Y156500D02*
D03*
X1203000Y382250D02*
D03*
Y392250D02*
D03*
X1157250Y418000D02*
D03*
Y408000D02*
D03*
X566250Y361750D02*
D03*
Y351750D02*
D03*
X568750Y443125D02*
D03*
Y433125D02*
D03*
X539000Y396250D02*
D03*
Y406250D02*
D03*
X538750Y386000D02*
D03*
Y376000D02*
D03*
X622250Y452250D02*
D03*
Y462250D02*
D03*
D20*
X601250Y262000D02*
D03*
X591250D02*
D03*
X601250Y272250D02*
D03*
X591250D02*
D03*
X1332500Y491643D02*
D03*
X1322500D02*
D03*
X760500Y316000D02*
D03*
X770500D02*
D03*
X790500Y456000D02*
D03*
X780500D02*
D03*
X442250Y481750D02*
D03*
X432250D02*
D03*
X472500Y482250D02*
D03*
X462500D02*
D03*
X716500Y413500D02*
D03*
X726500D02*
D03*
X716500Y402500D02*
D03*
X726500D02*
D03*
X716500Y391500D02*
D03*
X726500D02*
D03*
X632500Y426750D02*
D03*
X642500D02*
D03*
X579750Y485750D02*
D03*
X589750D02*
D03*
X663250Y349750D02*
D03*
X673250D02*
D03*
X652750Y359250D02*
D03*
X642750D02*
D03*
X695250Y371000D02*
D03*
X685250D02*
D03*
X705000Y431000D02*
D03*
X715000D02*
D03*
X718250Y454250D02*
D03*
X728250D02*
D03*
X692750Y456250D02*
D03*
X682750D02*
D03*
X573750Y535500D02*
D03*
X563750D02*
D03*
X455740Y424063D02*
D03*
X465740D02*
D03*
X449740Y377063D02*
D03*
X459740D02*
D03*
X1107500Y357500D02*
D03*
X1117500Y357500D02*
D03*
X494750Y380000D02*
D03*
X484750D02*
D03*
X478500Y409500D02*
D03*
X468500D02*
D03*
X442250Y492750D02*
D03*
X432250D02*
D03*
X450250Y470750D02*
D03*
X440250D02*
D03*
X450750Y458000D02*
D03*
X460750D02*
D03*
X455750Y435000D02*
D03*
X465750D02*
D03*
X476750Y442500D02*
D03*
X486750D02*
D03*
X471000Y369000D02*
D03*
X481000D02*
D03*
X496500Y391000D02*
D03*
X506500D02*
D03*
X838000Y560000D02*
D03*
X848000D02*
D03*
X757000Y570000D02*
D03*
X767000D02*
D03*
X1012500Y560500D02*
D03*
X1022500D02*
D03*
X931500Y570500D02*
D03*
X941500D02*
D03*
X727610Y333600D02*
D03*
X717610D02*
D03*
X552000Y146500D02*
D03*
X562000D02*
D03*
X1322500Y542500D02*
D03*
X1332500Y542500D02*
D03*
X1322500Y593357D02*
D03*
X1332500D02*
D03*
X553500Y419500D02*
D03*
X563500D02*
D03*
D23*
X856250Y591250D02*
D03*
Y599250D02*
D03*
X856250Y607250D02*
D03*
Y615250D02*
D03*
X872250Y591250D02*
D03*
X872250Y599250D02*
D03*
Y607250D02*
D03*
Y615250D02*
D03*
X862000Y541250D02*
D03*
X862000Y549250D02*
D03*
Y557250D02*
D03*
Y565250D02*
D03*
X878000Y541250D02*
D03*
Y549250D02*
D03*
Y557250D02*
D03*
X878000Y565250D02*
D03*
D27*
X426440Y396007D02*
D03*
X376500Y459250D02*
D03*
X379820Y455947D02*
D03*
X343190Y439297D02*
D03*
X339860Y455947D02*
D03*
X363490Y372377D02*
D03*
X336530Y432637D02*
D03*
X339860Y449287D02*
D03*
Y442627D02*
D03*
X329870Y439297D02*
D03*
X343190Y425977D02*
D03*
X336530Y425977D02*
D03*
X333200Y442627D02*
D03*
X333200Y449287D02*
D03*
X326540Y429307D02*
D03*
X339860Y435967D02*
D03*
X343190Y445957D02*
D03*
X349850Y452617D02*
D03*
X339860Y382687D02*
D03*
X343190Y386017D02*
D03*
Y392677D02*
D03*
X429770Y439297D02*
D03*
X429770Y445957D02*
D03*
X419780Y415987D02*
D03*
X426440Y415987D02*
D03*
Y422647D02*
D03*
X416450Y452617D02*
D03*
X416450Y459277D02*
D03*
X423110Y452617D02*
D03*
X423110Y432637D02*
D03*
X426440Y435967D02*
D03*
X419740Y429313D02*
D03*
X413120Y462607D02*
D03*
X406460Y462607D02*
D03*
X419780Y462607D02*
D03*
X423110Y392677D02*
D03*
X426440Y442627D02*
D03*
X429770Y425977D02*
D03*
X426440Y429307D02*
D03*
X423110Y386017D02*
D03*
X419780Y389347D02*
D03*
X426440Y389347D02*
D03*
X419780Y396007D02*
D03*
X423110Y379357D02*
D03*
X399800Y362707D02*
D03*
X393140Y369367D02*
D03*
X343190Y459277D02*
D03*
X393140Y455947D02*
D03*
X383150Y452617D02*
D03*
X413120Y455947D02*
D03*
X406460D02*
D03*
X409790Y459277D02*
D03*
X423110Y425977D02*
D03*
X419780Y422647D02*
D03*
X423110Y412657D02*
D03*
X429770Y412657D02*
D03*
X403130Y452617D02*
D03*
X406460Y376027D02*
D03*
X409790Y359377D02*
D03*
X336530Y392677D02*
D03*
X386480Y369367D02*
D03*
X393140Y462607D02*
D03*
X389810Y452617D02*
D03*
X386480Y455947D02*
D03*
X423110Y445957D02*
D03*
X326740Y383813D02*
D03*
X333200Y389347D02*
D03*
X389810Y366037D02*
D03*
X383150Y366037D02*
D03*
X379820Y362707D02*
D03*
X399800Y369367D02*
D03*
X429770Y386017D02*
D03*
X423110Y439297D02*
D03*
X403130Y459277D02*
D03*
X426440Y382687D02*
D03*
X396470Y372697D02*
D03*
X409790Y366037D02*
D03*
X403130D02*
D03*
X433100Y409327D02*
D03*
X379820Y469267D02*
D03*
X376490Y465937D02*
D03*
D29*
X656500Y456750D02*
D03*
X646500D02*
D03*
X907500Y591750D02*
D03*
X897500D02*
D03*
X732750Y582000D02*
D03*
X722750D02*
D03*
X732750Y592250D02*
D03*
X722750D02*
D03*
X770250Y455750D02*
D03*
X760250D02*
D03*
X850500Y465750D02*
D03*
X840500D02*
D03*
X770250Y445750D02*
D03*
X760250D02*
D03*
X865750Y526750D02*
D03*
X855750D02*
D03*
X618226Y663985D02*
D03*
X628226D02*
D03*
X649250Y405750D02*
D03*
X639250D02*
D03*
X642500Y436750D02*
D03*
X652500D02*
D03*
X642500Y446750D02*
D03*
X652500D02*
D03*
X642500Y416250D02*
D03*
X632500D02*
D03*
X738000Y375750D02*
D03*
X728000D02*
D03*
X652500Y349500D02*
D03*
X642500D02*
D03*
X673250Y359500D02*
D03*
X663250D02*
D03*
X696000Y358500D02*
D03*
X686000D02*
D03*
X673250Y369500D02*
D03*
X663250D02*
D03*
X684500Y431000D02*
D03*
X694500D02*
D03*
X692750Y445750D02*
D03*
X682750D02*
D03*
X599250Y447500D02*
D03*
X609250D02*
D03*
X554500Y430000D02*
D03*
X544500D02*
D03*
X1160250Y345500D02*
D03*
X1150250D02*
D03*
X431248Y503243D02*
D03*
X441248Y503243D02*
D03*
X605500Y329000D02*
D03*
X615500D02*
D03*
X552500Y615000D02*
D03*
X542500Y615000D02*
D03*
X588250Y447500D02*
D03*
X578250D02*
D03*
X844000Y545500D02*
D03*
X834000D02*
D03*
X822000Y545500D02*
D03*
X812000D02*
D03*
X790000Y545500D02*
D03*
X800000D02*
D03*
X769000Y545500D02*
D03*
X779000D02*
D03*
X748000D02*
D03*
X758000D02*
D03*
X725000Y550000D02*
D03*
X735000D02*
D03*
X781000Y574000D02*
D03*
X791000D02*
D03*
X824250Y594250D02*
D03*
X814250D02*
D03*
X812000Y616000D02*
D03*
X822000D02*
D03*
X771000Y594000D02*
D03*
X781000D02*
D03*
Y584000D02*
D03*
X771000D02*
D03*
X734000Y624000D02*
D03*
X724000D02*
D03*
X899500Y550500D02*
D03*
X909500D02*
D03*
X953500Y546000D02*
D03*
X943500D02*
D03*
X932500D02*
D03*
X922500D02*
D03*
X964500Y546000D02*
D03*
X974500D02*
D03*
X996500Y546000D02*
D03*
X986500D02*
D03*
X1018500Y546000D02*
D03*
X1008500D02*
D03*
X965500Y574000D02*
D03*
X955500D02*
D03*
X998750Y594750D02*
D03*
X988750D02*
D03*
X945500Y584000D02*
D03*
X955500D02*
D03*
X945500Y594000D02*
D03*
X955500D02*
D03*
X908500Y624500D02*
D03*
X898500D02*
D03*
X962000Y616000D02*
D03*
X952000D02*
D03*
X1007500Y631500D02*
D03*
X997500D02*
D03*
X725110Y298850D02*
D03*
X715110D02*
D03*
X706610Y333600D02*
D03*
X696610D02*
D03*
X701610Y323600D02*
D03*
X691610D02*
D03*
X889750Y366250D02*
D03*
X879750D02*
D03*
X920500Y376250D02*
D03*
X910500D02*
D03*
X821000Y436000D02*
D03*
X831000D02*
D03*
X920250Y356250D02*
D03*
X930250D02*
D03*
X800500Y435500D02*
D03*
X810500D02*
D03*
X930250Y435750D02*
D03*
X940250D02*
D03*
X820500Y466000D02*
D03*
X830500D02*
D03*
X920250Y436000D02*
D03*
X910250D02*
D03*
X890750Y505750D02*
D03*
X900750D02*
D03*
X790500Y466000D02*
D03*
X780500D02*
D03*
X920500Y406000D02*
D03*
X930500D02*
D03*
X820750Y326250D02*
D03*
X830750D02*
D03*
X910750Y455750D02*
D03*
X920750D02*
D03*
X870750Y406000D02*
D03*
X860750D02*
D03*
X810500Y466000D02*
D03*
X800500D02*
D03*
X880500Y426250D02*
D03*
X870500D02*
D03*
X850750Y326000D02*
D03*
X840750D02*
D03*
X810750Y425750D02*
D03*
X820750D02*
D03*
X890500Y496000D02*
D03*
X900500D02*
D03*
X850750Y336000D02*
D03*
X840750D02*
D03*
X810750Y316000D02*
D03*
X820750D02*
D03*
X890750Y336000D02*
D03*
X900750D02*
D03*
X830750Y336250D02*
D03*
X820750D02*
D03*
X890750Y326250D02*
D03*
X900750D02*
D03*
X790500D02*
D03*
X780500D02*
D03*
X890750Y315750D02*
D03*
X900750D02*
D03*
X780500Y336000D02*
D03*
X790500D02*
D03*
X860500Y314500D02*
D03*
X850500D02*
D03*
X860250Y376000D02*
D03*
X850250D02*
D03*
X780500Y396000D02*
D03*
X790500D02*
D03*
X920500Y445750D02*
D03*
X910500D02*
D03*
X931000Y416500D02*
D03*
X921000D02*
D03*
X920750Y425750D02*
D03*
X930750D02*
D03*
X891250Y415750D02*
D03*
X881250D02*
D03*
X871250Y436250D02*
D03*
X861250D02*
D03*
X940250Y366250D02*
D03*
X950250D02*
D03*
X800750Y515750D02*
D03*
X790750D02*
D03*
X930250Y366250D02*
D03*
X920250D02*
D03*
X879750Y356250D02*
D03*
X889750D02*
D03*
X1055000Y400250D02*
D03*
X1065000D02*
D03*
X1047975Y414395D02*
D03*
X1037975D02*
D03*
X1047975Y425865D02*
D03*
X1037975D02*
D03*
X1078750Y449250D02*
D03*
X1088750D02*
D03*
X1078750Y439250D02*
D03*
X1088750D02*
D03*
X784000Y615000D02*
D03*
X774000D02*
D03*
X1275000Y410250D02*
D03*
X1285000D02*
D03*
X1162500Y232500D02*
D03*
X1152500Y232500D02*
D03*
X701750Y464750D02*
D03*
X711750D02*
D03*
X562250Y376750D02*
D03*
X552250D02*
D03*
X549500Y406750D02*
D03*
X559500D02*
D03*
X549500Y397500D02*
D03*
X559500D02*
D03*
Y388000D02*
D03*
X549500D02*
D03*
D30*
X1050750Y382250D02*
D03*
X1070750D02*
D03*
X1003000Y361750D02*
D03*
X983000D02*
D03*
X985500Y396750D02*
D03*
X1005500D02*
D03*
X592750Y461250D02*
D03*
X612750D02*
D03*
X1234250Y463250D02*
D03*
X1214250D02*
D03*
X1116000Y459000D02*
D03*
X1136000D02*
D03*
D37*
X891250Y666250D02*
D03*
Y636250D02*
D03*
X870000Y481000D02*
D03*
Y451000D02*
D03*
X823500Y411000D02*
D03*
Y381000D02*
D03*
X887250Y301750D02*
D03*
Y271750D02*
D03*
X859000Y302250D02*
D03*
Y272250D02*
D03*
X836000Y301500D02*
D03*
Y271500D02*
D03*
X814750Y301500D02*
D03*
Y271500D02*
D03*
X792250Y310500D02*
D03*
Y280500D02*
D03*
X753500Y479750D02*
D03*
Y509750D02*
D03*
D38*
X785500Y413250D02*
D03*
X755500D02*
D03*
X1035250Y379000D02*
D03*
X1005250D02*
D03*
X984750Y414750D02*
D03*
X1014750D02*
D03*
X984250Y435750D02*
D03*
X1014250D02*
D03*
X1008250Y457250D02*
D03*
X1038250D02*
D03*
X998250Y478500D02*
D03*
X1028250D02*
D03*
X998250Y499750D02*
D03*
X1028250D02*
D03*
X987000Y519250D02*
D03*
X1017000D02*
D03*
X886500Y524500D02*
D03*
X916500D02*
D03*
D44*
X798250Y623500D02*
D03*
Y606500D02*
D03*
X972500Y634000D02*
D03*
Y651000D02*
D03*
X804750Y328250D02*
D03*
Y345250D02*
D03*
X806250Y381750D02*
D03*
X806250Y398750D02*
D03*
X865500Y342500D02*
D03*
Y359500D02*
D03*
X856750Y491000D02*
D03*
Y508000D02*
D03*
X915500Y499500D02*
D03*
Y482500D02*
D03*
X953500Y506000D02*
D03*
Y523000D02*
D03*
X917250Y300250D02*
D03*
Y283250D02*
D03*
X1187250Y383250D02*
D03*
Y366250D02*
D03*
X1142600Y488640D02*
D03*
Y471640D02*
D03*
X1157800Y488640D02*
D03*
Y471640D02*
D03*
X1173000Y488640D02*
D03*
Y471640D02*
D03*
X1188200Y488640D02*
D03*
Y471640D02*
D03*
X1203400Y488640D02*
D03*
Y471640D02*
D03*
D45*
X1186300Y351800D02*
D03*
X1203300D02*
D03*
X957000Y451000D02*
D03*
X974000D02*
D03*
X900250Y460000D02*
D03*
X883250D02*
D03*
X856500Y391750D02*
D03*
X839500D02*
D03*
X904000Y399500D02*
D03*
X887000D02*
D03*
X774000Y432500D02*
D03*
X757000D02*
D03*
X911000Y471750D02*
D03*
X928000D02*
D03*
X817000Y451000D02*
D03*
X834000D02*
D03*
X990500Y349000D02*
D03*
X973500D02*
D03*
X1031000Y439000D02*
D03*
X1048000D02*
D03*
D46*
X669500Y449500D02*
D03*
Y429500D02*
D03*
X589500Y361500D02*
D03*
Y341500D02*
D03*
X553000Y341750D02*
D03*
Y361750D02*
D03*
X745000Y365000D02*
D03*
Y345000D02*
D03*
D74*
X1431500Y-63260D02*
D03*
X-63500Y752760D02*
D03*
D78*
X376964Y433536D02*
D03*
X384036Y426465D02*
D03*
D90*
X1432260Y752000D02*
D03*
X-64260Y-62500D02*
D03*
D91*
X756500Y35000D02*
D03*
X766500D02*
D03*
X706500D02*
D03*
X686500D02*
D03*
X656500D02*
D03*
X786500D02*
D03*
X726500D02*
D03*
X736500D02*
D03*
X776500D02*
D03*
X746500D02*
D03*
X676500D02*
D03*
X696500D02*
D03*
X666500D02*
D03*
X716500D02*
D03*
X636500D02*
D03*
X536500D02*
D03*
X626500D02*
D03*
X596500D02*
D03*
X466500D02*
D03*
X486500D02*
D03*
X556500D02*
D03*
X526500D02*
D03*
X586500D02*
D03*
X616500D02*
D03*
X506500D02*
D03*
X516500D02*
D03*
X546500D02*
D03*
X476500D02*
D03*
X496500D02*
D03*
X606500D02*
D03*
X646500D02*
D03*
D92*
X456500Y40000D02*
D03*
D93*
X383990Y374063D02*
D03*
D107*
X816250Y182000D02*
D03*
X617000Y638500D02*
D03*
D108*
X55000Y555000D02*
D03*
Y240000D02*
D03*
X1324000Y166000D02*
D03*
X1323500Y639000D02*
D03*
D110*
X1228700Y367500D02*
D03*
X1205200Y232750D02*
D03*
D111*
X1203300Y367500D02*
D03*
X1179800Y232750D02*
D03*
D112*
X1290250Y458250D02*
D03*
D113*
X1257250Y410250D02*
D03*
D114*
X1320250D02*
D03*
D115*
X74500Y173750D02*
D03*
X49500D02*
D03*
D116*
X74500Y148750D02*
D03*
X49500D02*
D03*
D118*
X75000Y632500D02*
D03*
Y93500D02*
D03*
D119*
X35000Y315000D02*
D03*
Y275000D02*
D03*
X25000Y265000D02*
D03*
X35000Y295000D02*
D03*
X25000Y305000D02*
D03*
Y285000D02*
D03*
Y325000D02*
D03*
X15000Y295000D02*
D03*
Y275000D02*
D03*
Y315000D02*
D03*
X45000Y325000D02*
D03*
Y285000D02*
D03*
Y305000D02*
D03*
X55000Y295000D02*
D03*
X45000Y265000D02*
D03*
X55000Y275000D02*
D03*
Y315000D02*
D03*
X65000Y325000D02*
D03*
Y285000D02*
D03*
Y305000D02*
D03*
X75000Y295000D02*
D03*
X65000Y265000D02*
D03*
X75000Y275000D02*
D03*
Y315000D02*
D03*
Y375000D02*
D03*
Y335000D02*
D03*
Y355000D02*
D03*
X65000Y365000D02*
D03*
Y345000D02*
D03*
Y385000D02*
D03*
X55000Y375000D02*
D03*
Y335000D02*
D03*
Y355000D02*
D03*
X45000Y365000D02*
D03*
Y345000D02*
D03*
Y385000D02*
D03*
X15000Y375000D02*
D03*
Y335000D02*
D03*
Y355000D02*
D03*
X25000Y385000D02*
D03*
Y345000D02*
D03*
Y365000D02*
D03*
X35000Y355000D02*
D03*
Y335000D02*
D03*
Y375000D02*
D03*
X75000Y435000D02*
D03*
Y395000D02*
D03*
Y415000D02*
D03*
X65000Y425000D02*
D03*
Y405000D02*
D03*
Y445000D02*
D03*
X55000Y435000D02*
D03*
Y395000D02*
D03*
Y415000D02*
D03*
X45000Y425000D02*
D03*
Y405000D02*
D03*
Y445000D02*
D03*
X15000Y435000D02*
D03*
Y395000D02*
D03*
Y415000D02*
D03*
X25000Y445000D02*
D03*
Y405000D02*
D03*
Y425000D02*
D03*
X35000Y415000D02*
D03*
Y395000D02*
D03*
Y435000D02*
D03*
X75000Y495000D02*
D03*
Y455000D02*
D03*
Y475000D02*
D03*
X65000Y485000D02*
D03*
Y465000D02*
D03*
Y505000D02*
D03*
X55000Y495000D02*
D03*
Y455000D02*
D03*
Y475000D02*
D03*
X45000Y485000D02*
D03*
Y465000D02*
D03*
Y505000D02*
D03*
X15000Y495000D02*
D03*
Y455000D02*
D03*
Y475000D02*
D03*
X25000Y505000D02*
D03*
Y465000D02*
D03*
Y485000D02*
D03*
X35000Y475000D02*
D03*
Y455000D02*
D03*
Y495000D02*
D03*
Y515000D02*
D03*
X25000Y525000D02*
D03*
X15000Y515000D02*
D03*
X45000Y525000D02*
D03*
X55000Y515000D02*
D03*
X65000Y525000D02*
D03*
X75000Y515000D02*
D03*
X15000Y255000D02*
D03*
Y215000D02*
D03*
Y235000D02*
D03*
X25000Y225000D02*
D03*
Y245000D02*
D03*
Y205000D02*
D03*
X15000Y195000D02*
D03*
X35000Y215000D02*
D03*
X85000Y265000D02*
D03*
X85000Y285000D02*
D03*
X85000Y385000D02*
D03*
Y365000D02*
D03*
Y345000D02*
D03*
Y305000D02*
D03*
Y325000D02*
D03*
X85000Y485000D02*
D03*
Y465000D02*
D03*
Y445000D02*
D03*
Y405000D02*
D03*
Y425000D02*
D03*
X85000Y565000D02*
D03*
Y545000D02*
D03*
Y505000D02*
D03*
Y525000D02*
D03*
X15000Y575000D02*
D03*
X25000Y565000D02*
D03*
Y545000D02*
D03*
X15000Y535000D02*
D03*
Y555000D02*
D03*
X85000Y245000D02*
D03*
X85000Y225000D02*
D03*
X85000Y205000D02*
D03*
X75000Y215000D02*
D03*
X35000Y195000D02*
D03*
D129*
X1191250Y432750D02*
D03*
X1181750Y409750D02*
D03*
X1200750D02*
D03*
D130*
X622515Y594026D02*
D03*
Y588426D02*
D03*
X406990Y397363D02*
D03*
Y391763D02*
D03*
X414500Y397363D02*
D03*
Y391763D02*
D03*
X442290Y396963D02*
D03*
Y402563D02*
D03*
X434490Y399763D02*
D03*
Y405363D02*
D03*
X414500Y408267D02*
D03*
Y402667D02*
D03*
X406990Y408363D02*
D03*
Y402763D02*
D03*
X442500Y435350D02*
D03*
Y429750D02*
D03*
X435240Y435437D02*
D03*
Y429837D02*
D03*
X444490Y449863D02*
D03*
Y444263D02*
D03*
X437500Y452900D02*
D03*
Y458500D02*
D03*
X419240Y467513D02*
D03*
Y473113D02*
D03*
X411240Y472863D02*
D03*
Y467263D02*
D03*
X407690Y489813D02*
D03*
Y484213D02*
D03*
X397937Y490790D02*
D03*
Y485190D02*
D03*
X388820Y496030D02*
D03*
Y490430D02*
D03*
X376250Y499350D02*
D03*
Y493750D02*
D03*
X455000Y449850D02*
D03*
Y444250D02*
D03*
X441750Y382663D02*
D03*
Y377063D02*
D03*
X433250Y382663D02*
D03*
Y377063D02*
D03*
X378990Y372663D02*
D03*
Y367063D02*
D03*
X382500Y384600D02*
D03*
Y379000D02*
D03*
X389940Y349963D02*
D03*
Y355563D02*
D03*
X401990Y347763D02*
D03*
Y353363D02*
D03*
X412740Y345763D02*
D03*
Y351363D02*
D03*
X414990Y356763D02*
D03*
Y362363D02*
D03*
X420490Y345763D02*
D03*
Y351363D02*
D03*
X428000Y350400D02*
D03*
Y356000D02*
D03*
X435740Y348613D02*
D03*
Y343013D02*
D03*
X445750Y343150D02*
D03*
Y348750D02*
D03*
X416240Y339313D02*
D03*
Y333713D02*
D03*
X407240Y333963D02*
D03*
Y339563D02*
D03*
X375490Y345013D02*
D03*
Y350613D02*
D03*
X367813Y516310D02*
D03*
Y510710D02*
D03*
X344240Y475113D02*
D03*
Y469513D02*
D03*
X352000Y475113D02*
D03*
Y469513D02*
D03*
X334760Y463887D02*
D03*
Y469487D02*
D03*
X379740Y479613D02*
D03*
Y474013D02*
D03*
X371990Y479613D02*
D03*
Y474013D02*
D03*
X347990Y463113D02*
D03*
Y457513D02*
D03*
X325540Y482663D02*
D03*
Y477063D02*
D03*
X396740Y441063D02*
D03*
Y435463D02*
D03*
X386480Y442213D02*
D03*
Y447813D02*
D03*
X375313Y446960D02*
D03*
Y452560D02*
D03*
X368813Y450790D02*
D03*
Y445190D02*
D03*
X361990Y452335D02*
D03*
Y457934D02*
D03*
X321290Y462863D02*
D03*
Y457263D02*
D03*
X290536Y458704D02*
D03*
Y453104D02*
D03*
X282313Y458560D02*
D03*
Y452960D02*
D03*
X313250Y433900D02*
D03*
Y439500D02*
D03*
X311690Y412063D02*
D03*
Y406463D02*
D03*
X325750Y398277D02*
D03*
Y392677D02*
D03*
X303990Y371013D02*
D03*
Y376613D02*
D03*
X311500Y365200D02*
D03*
Y370800D02*
D03*
X338390Y358613D02*
D03*
Y364213D02*
D03*
X342740Y369213D02*
D03*
Y374813D02*
D03*
X331340Y364213D02*
D03*
Y358613D02*
D03*
X323790Y360250D02*
D03*
Y354650D02*
D03*
X393240Y482613D02*
D03*
Y477013D02*
D03*
X729500Y474450D02*
D03*
Y480050D02*
D03*
X361633Y510496D02*
D03*
Y516096D02*
D03*
X382750Y498200D02*
D03*
Y503800D02*
D03*
X374860Y504904D02*
D03*
Y510504D02*
D03*
X725250Y285410D02*
D03*
X725250Y291010D02*
D03*
D131*
X609776Y668985D02*
D03*
X604176D02*
D03*
X615026Y549985D02*
D03*
X609426Y549985D02*
D03*
X401190Y414813D02*
D03*
X406790D02*
D03*
X447540Y423563D02*
D03*
X441940D02*
D03*
X409190Y440313D02*
D03*
X414790D02*
D03*
Y448063D02*
D03*
X409190D02*
D03*
X439850Y446363D02*
D03*
X434250D02*
D03*
X413040Y479313D02*
D03*
X407440D02*
D03*
X461140Y416013D02*
D03*
X455540D02*
D03*
X395824Y378313D02*
D03*
X401424D02*
D03*
X395350Y361750D02*
D03*
X389750D02*
D03*
X428340Y362363D02*
D03*
X422740D02*
D03*
X428090Y339313D02*
D03*
X422490D02*
D03*
X384750Y339500D02*
D03*
X390350D02*
D03*
X390040Y331563D02*
D03*
X384440D02*
D03*
X385840Y323750D02*
D03*
X380240D02*
D03*
X385920Y315933D02*
D03*
X380320D02*
D03*
X401750Y288500D02*
D03*
X407350D02*
D03*
X319902Y469461D02*
D03*
X325502D02*
D03*
X365690Y465813D02*
D03*
X371290D02*
D03*
X355100Y445563D02*
D03*
X349500D02*
D03*
X355040Y436813D02*
D03*
X349440D02*
D03*
X309640Y457263D02*
D03*
X315240D02*
D03*
X300750Y451500D02*
D03*
X295150D02*
D03*
X320440Y443813D02*
D03*
X326040D02*
D03*
X346787Y430490D02*
D03*
X341187D02*
D03*
X295190Y444313D02*
D03*
X300790D02*
D03*
X320440Y435063D02*
D03*
X326040D02*
D03*
X322310Y427687D02*
D03*
X316710D02*
D03*
X308690Y419563D02*
D03*
X314290D02*
D03*
X329560Y417937D02*
D03*
X323960D02*
D03*
X343750Y410500D02*
D03*
X338150D02*
D03*
X353540Y390313D02*
D03*
X347940D02*
D03*
X313476Y392677D02*
D03*
X319076D02*
D03*
X314190Y385063D02*
D03*
X319790D02*
D03*
X313940Y378563D02*
D03*
X319540D02*
D03*
X318190Y367063D02*
D03*
X323790D02*
D03*
X368846Y504864D02*
D03*
X363246D02*
D03*
X343800Y418000D02*
D03*
X338200D02*
D03*
X409050Y299750D02*
D03*
X403450D02*
D03*
X715760Y323250D02*
D03*
X710160D02*
D03*
D132*
X684250Y399250D02*
D03*
D134*
X707250Y483250D02*
D03*
X621250D02*
D03*
Y534250D02*
D03*
X707250D02*
D03*
D135*
X642250Y483000D02*
D03*
Y535000D02*
D03*
X686250D02*
D03*
Y483000D02*
D03*
X642250D02*
D03*
Y535000D02*
D03*
X686250D02*
D03*
Y483000D02*
D03*
D136*
X664250Y539500D02*
D03*
Y475500D02*
D03*
D137*
X426720Y402333D02*
D03*
X422760Y406293D02*
D03*
X413220Y369333D02*
D03*
X409260Y373293D02*
D03*
X440040Y358710D02*
D03*
X444000Y354750D02*
D03*
X331760Y457387D02*
D03*
X335720Y453427D02*
D03*
D138*
X396900Y448823D02*
D03*
X392940Y444863D02*
D03*
X336760Y439543D02*
D03*
X332800Y435583D02*
D03*
D139*
X593500Y671250D02*
D03*
X571500D02*
D03*
Y654250D02*
D03*
X593500D02*
D03*
D144*
X591250Y394625D02*
D03*
D147*
X1196500Y258250D02*
D03*
X1173500Y267750D02*
D03*
Y248750D02*
D03*
D148*
X744250Y323250D02*
D03*
Y316750D02*
D03*
Y310250D02*
D03*
X725250D02*
D03*
Y316750D02*
D03*
Y323250D02*
D03*
D149*
X648250Y627500D02*
D03*
X684250D02*
D03*
Y603500D02*
D03*
X648250D02*
D03*
X648265Y670476D02*
D03*
X684265D02*
D03*
Y646476D02*
D03*
X648265D02*
D03*
Y584476D02*
D03*
X684265D02*
D03*
Y560476D02*
D03*
X648265D02*
D03*
D164*
X621500Y27375D02*
D03*
D184*
X1216000Y447100D02*
D03*
X1221000D02*
D03*
X1226000D02*
D03*
X1216000Y418400D02*
D03*
X1221000D02*
D03*
X1226000D02*
D03*
X1124500Y418400D02*
D03*
X1119500D02*
D03*
X1114500D02*
D03*
X1124500Y447100D02*
D03*
X1119500D02*
D03*
X1114500D02*
D03*
X674250Y380250D02*
D03*
X679250D02*
D03*
X684250D02*
D03*
X689250D02*
D03*
X694250D02*
D03*
Y418250D02*
D03*
X689250D02*
D03*
X684250D02*
D03*
X679250D02*
D03*
X674250D02*
D03*
X574750Y524500D02*
D03*
X579750D02*
D03*
X584750D02*
D03*
X589750D02*
D03*
X574750Y497500D02*
D03*
X579750Y497500D02*
D03*
X584750Y497500D02*
D03*
X589750D02*
D03*
D185*
X1221000Y432750D02*
D03*
X1119500Y432750D02*
D03*
D186*
X704750Y389250D02*
D03*
Y394250D02*
D03*
Y399250D02*
D03*
Y404250D02*
D03*
Y409250D02*
D03*
X663750D02*
D03*
Y404250D02*
D03*
Y399250D02*
D03*
Y394250D02*
D03*
Y389250D02*
D03*
D187*
X572000Y407125D02*
D03*
Y402125D02*
D03*
Y397125D02*
D03*
Y392125D02*
D03*
Y387125D02*
D03*
Y382125D02*
D03*
X610500D02*
D03*
Y387125D02*
D03*
Y392125D02*
D03*
Y397125D02*
D03*
Y402125D02*
D03*
Y407125D02*
D03*
D188*
X578750Y375375D02*
D03*
X583750D02*
D03*
X588750D02*
D03*
X593750D02*
D03*
X598750D02*
D03*
X603750D02*
D03*
Y413875D02*
D03*
X598750D02*
D03*
X593750D02*
D03*
X588750D02*
D03*
X583750D02*
D03*
X578750D02*
D03*
D189*
X674500Y283500D02*
D03*
Y277000D02*
D03*
Y270500D02*
D03*
Y264000D02*
D03*
X615500Y283500D02*
D03*
Y277000D02*
D03*
Y270500D02*
D03*
Y264000D02*
D03*
X674500Y319750D02*
D03*
Y313250D02*
D03*
Y306750D02*
D03*
Y300250D02*
D03*
X615500Y319750D02*
D03*
Y313250D02*
D03*
Y306750D02*
D03*
Y300250D02*
D03*
D190*
X581500Y596750D02*
D03*
D191*
X600750Y586750D02*
D03*
Y591750D02*
D03*
Y596750D02*
D03*
Y601750D02*
D03*
X600750Y606750D02*
D03*
X562250D02*
D03*
X562250Y601750D02*
D03*
Y596750D02*
D03*
Y591750D02*
D03*
X562250Y586750D02*
D03*
D192*
X591500Y616000D02*
D03*
X586500Y616000D02*
D03*
X581500D02*
D03*
X576500D02*
D03*
X571500Y616000D02*
D03*
Y577500D02*
D03*
X576500Y577500D02*
D03*
X581500D02*
D03*
X586500D02*
D03*
X591500D02*
D03*
D193*
X429770Y399337D02*
D03*
X423110Y399337D02*
D03*
X426440Y409327D02*
D03*
X419780Y402667D02*
D03*
X429770Y405997D02*
D03*
M02*
