M48
;Layer_Color=9474304
;FILE_FORMAT=4:4
METRIC,LZ
;TYPE=PLATED
T1F00S00C0.2000
T2F00S00C0.3810
T4F00S00C0.9000
T5F00S00C0.9652
T6F00S00C1.0000
T9F00S00C3.0000
;TYPE=NON_PLATED
T10F00S00C3.1800
%
T01
X00038Y001805
Y0018575
X00116499Y0015
X00126499
X00159499
X00169499
X0017425Y0017425
X0018275Y00172
X00168Y001805
X001705Y0018775
X0016225Y0018675
X0019125Y0017225
X00279Y0017225
X002765Y0017825
X002765Y00184
X002765Y0018975
X0028725Y0017325
X0028475Y00166
X00291Y0015975
X002995Y001575
X00298499Y0015
X00288499
X00308Y0015775
X00331499Y0015
X00341499
X00374499
X00384499
X0039Y00165
X0039725Y001675
X0039625Y0015925
X0040225Y0015675
X00408Y0015675
X0041375Y0015675
X0041975Y0015925
X0041875Y001675
X00426Y00165
X0043225Y0017125
X004345Y0017975
X0043425Y0018825
X00465914Y00188
X00465664Y001795
X00467914Y00171
X00474164Y0016475
X00481414Y0016725
X00480414Y00159
X00486414Y001565
X00492164Y001565
X00497914Y001565
X00503914Y00159
X00502914Y0016725
X00510164Y0016475
X00516414Y00171
X00518664Y001795
X00518414Y00188
X0054725Y00183
X005675Y00174
X0057075Y0017
X00564
Y00163
X0055725
X00579Y0016325
X0057725Y00132
X0058225
X005625Y0013525
X0052825Y00127
X0051025Y001235
X004865Y0011175
Y0010625
Y0010075
X00471Y0009325
Y0008775
X0047625
Y0008225
X00471
X004655
Y0008775
X00526Y000835
Y000785
Y000735
X00536
Y000785
Y000835
X00586Y0008625
Y0009175
Y0009725
Y0008075
X0038375Y0017125
X003815Y0017975
X0038175Y0018825
X0058775Y001735
X005885Y00163
X0059725Y001785
X0062175Y0017
X0062675
X0063625Y0017
X0064125
X0067175Y0017
X0067675
X0068625Y0017
X0069125
X0071175
X0071675
X0072625Y0017
X0073125
X0075175Y0017
X0075675
X0076625Y0017
X0077125
X00772Y00182
X0075075Y0013825
X0074575
X0073725Y0013825
X0073225Y0013825
X0073075Y0013175
X007125Y001315
X0071075Y0013825
X0070575
X0069725Y0013825
X0069225Y0013825
X0069075Y001315
X0067225
X0067075Y0013825
X0066575
X0065725Y0013825
X0065225Y0013825
X006465Y001315
X0062075Y0013825
X0061575
X0060725Y0013825
X0060225Y0013825
X0059575Y00132
X0059075Y00132
X0061875Y001565
X00664Y0017825
X0075225Y0013175
X008775Y0017725
X0089055Y001883
X009615Y001715
X0096725
Y00165
X009615
X01354Y0017
Y0019
Y0015
X01344Y002
Y0022
X01334Y0021
X01324Y002
X01354Y0021
Y0023
Y0025
Y0027
Y0029
Y0031
Y0033
Y0035
Y0037
Y0039
Y0041
Y0043
Y0045
Y0047
X01344Y0046
Y0044
Y0042
Y004
Y0038
Y0036
Y0034
Y0032
X01334Y0033
Y0035
X013235Y0034975
X0131175Y00341
X013115Y0035875
X01314Y0037
X01304Y0038
X01294Y0037
X0128925Y003585
X012895Y00341
X01267244Y00341506
X0126725Y003585
X01274Y0037
X0127525Y003855
X01294Y0039
Y0041
X01304Y004
X01284
Y0042
X0127375Y00416
X0127275Y004415
X01284Y0044
X01294Y0043
X01304Y0044
X01324
X01334Y0045
Y0047
X01324Y0046
X01314Y0047
X01316Y00491643
Y00517071
Y005425
X0128425Y0058425
X01259Y00575
X01239
X01219
X01229Y00565
X01249
Y00585
X01229
X0122925Y0052775
X0122925Y0051875
X01242
X01242Y0052775
X012165
X012165Y0051875
X0120375
X0120375Y0052775
X01191Y0052775
X01191Y0051875
X011615Y00519
X011615Y00528
X0114875
X0114875Y00519
X01136
X01136Y00528
X0112325
X0112325Y00519
X011105Y00519
X011105Y00528
X01103142Y00564142
X01095Y0058
X01117284Y00578284
X01071Y00568
X01059
X01046
X010335
X01021
X010045Y005685
Y005605
Y005525
X009965
X009885
Y005605
X009965
Y005685
X009885
X0099425Y0058425
X00996Y0053975
X0101975Y00539
X0100825Y00522
Y0051625
Y005105
X0101275Y0049775
X0101075Y00471
X0099125Y00452
X0100175Y0043675
X0100225Y0042225
X0099625
X0099925Y00418
X01047Y0042
X01052
X0104625Y0040875
X010405
X010395Y004005
X0104575Y0040025
X0102975Y003945
X0102375Y003875
Y003755
X0103825Y00364
X010725Y00373
X0107775
Y00378
X0108375Y00367
X0110775Y0036425
X0112775Y003575
X0113625
X0114475
Y003455
X0113625
X0112775
X01133Y0032425
X011415Y0032425
X011505Y0032425
X01154Y0033625
X011635Y0035175
X011565Y0030975
X0116575Y0029925
X01166Y0029075
X0116725Y0028275
Y0027525
X011665Y00255
X01166Y0024875
X0116275Y0024025
X0115375
X01173Y002595
X0118725Y00280756
X01202744Y00275256
X01213244Y00274756
X01205494Y00299256
X01212244Y00319256
X01212244Y00327756
Y00336256
X01224244Y00336256
X01224244Y00327756
X01224244Y00319256
X01243744Y00322006
Y00330506
X01243744Y00339506
X01233494Y00345506
X01217994Y00355006
X01255Y0035
X01254Y0037
X01234Y003855
X0123425Y004085
X01228
X012405
X0124475Y00436
Y0044175
X01245Y0045275
X0125075
X0124075Y00458
Y00464
X01244Y00475
X01254Y00485
X01264Y00475
X01265Y00517071
X01226Y0045325
X01221
X0117325Y0044525
X0116725
Y0043255
X0117325
Y0041985
X0116725
X0118825Y004085
X0119375
X01136Y00408
X0113
X011195Y0041225
X011145
X0112875Y00381
X0111925Y0030675
Y003015
X0111725Y0028725
Y002805
X011175Y00269
Y0026225
X0111775Y0025075
Y00244
X01006Y0020875
Y00203
X0100025
Y0020875
X0098535Y0028325
X0098825Y00311
Y00321
X0098775Y00331
X0099075Y0034075
X01003Y0034025
X0100125Y0035075
X0100625
X0099675Y0036125
X0098425Y00351
X010105Y00321
X0105625Y00437
X0106125Y004335
X010615Y0044075
X0106175Y0044575
X01071Y0043775
X0109675Y0045725
Y004625
X0110775
X0110325Y0045725
X01112Y0047975
X0106775Y0048325
X0106125Y0048175
X010565Y004855
X01071Y0049125
X010375Y00493
X01344Y0048
X01334Y0043
Y0041
Y0039
Y0037
X01325744Y00309255
X01318994
X01307494Y00309005
X01300744
X01289244Y00308755
X01282494
X01268244Y00310756
X01261494
X009835Y0031725
X009755Y0031075
X009655Y00311
X009555Y00321
Y00331
Y00341
X009655
X009755Y00341
X00983Y0034125
X009755Y00361
X009655
X009555Y00351
X009455
X009355
Y00341
X009455
Y00331
X009355
X009255
Y00341
X009155
Y00331
Y00321
Y00311
X009255
X009355
Y00321
X009255
X009055
X008955
X008855Y00321
Y00331
X008955
X009055
Y00341
Y00351
Y00361
Y00371
Y00381
X009155
X009255
X009355
X009455
Y00371
X009355
Y00361
X009455
X009555Y00371
Y00381
X009655
Y00391
X009655Y00401
X009555Y00401
X009455
X009355
Y00391
X009455
X009255
X009155
Y00401
X009255
X009255Y00411
X009155
X009155Y00421
X009255
X009355
X009455
X009555
Y00411
X009455
X009355
X009355Y00431
X009455
Y00441
Y00451
X009355
Y00441
X009255
Y00451
Y00461
X009355
X009455
X009555
Y00471
X009455
X009355
Y00481
X009455
X009455Y00491
X009555
X009655
Y00481
X009555
X009755Y00481
Y00491
Y00501
X009655Y00501
X009655Y00511
Y00521
X009755
Y00511
X009455
Y00501
X009355
Y00491
X009255
X009155
X009055Y00491
X009055Y00501
Y00511
Y00521
X0090025Y00534
X008865Y005365
X008755Y00521
X008655
X008655Y00511
X008755
X008755Y00501
X008855Y00501
Y00491
X008855Y00481
X008955
X009055
X008955Y00491
Y00501
X008855Y00511
X008655Y00501
X008655Y00491
X008755
X008755Y00471
X008855
X008955
Y00451
Y00441
Y00431
Y00421
Y00411
Y00401
Y00391
X008855
X008755
X008655
Y00401
Y00411
Y00421
Y00431
X008555
Y00441
Y00451
Y00461
Y00471
Y00481
X008455Y00481
Y00491
Y00501
X008355
X008255
X008155
Y00491
Y00481
X008255
Y00491
X008355
Y00481
Y00471
X008255
X008155
X008055
Y00481
Y00491
X007955
Y00481
Y00471
Y00461
Y00451
Y00441
X008055
Y00451
Y00461
X008155
X008255
Y00451
Y00441
X008155
Y00431
X008255
X008355
Y00441
X008455
Y00451
Y00461
Y00471
X008655Y00471
Y00461
X008755
X008855Y00451
X008855Y00441
Y00431
X008755
Y00421
X008855
Y00411
X008755
Y00401
Y00381
X008855
Y00371
X008955
Y00361
Y00351
Y00341
X008855Y00341
Y00351
X008755Y00351
Y00361
X008755Y00371
X008555
Y00361
Y00351
X008655
X008555Y00341
Y00331
Y00321
Y00311
X008655
Y00321
X008755
Y00331
Y00311
X008955
X009055
X0089725Y00289
X00883Y0028975
X0089625Y002535
X009029Y002409
X009283Y0022695
X0093925Y002645
X0095675Y002945
X0097625Y0024825
X009755Y00371
Y00381
Y00401
Y00421
Y00431
X009655
X009655Y00421
Y00441
X009555Y00441
X009655Y00451
X009655Y00461
X009755Y00461
Y00441
X009255Y00431
X009155
Y00441
Y00451
Y00461
X009055Y00451
Y00441
Y00431
Y00421
X009055Y00411
X009055Y00391
X008955Y00381
X008655
X008555
X008455
X008455Y00371
Y00361
X008355
Y00371
X008255
Y00361
X008155
Y00371
X008055
Y00361
X007955
X007855
X007855Y00351
X007755
X007655Y00351
Y00361
X007555
Y00371
X007655
Y00381
Y00391
Y00401
Y00411
X007755Y00401
X007855
X007955
Y00411
X008055
X008155Y00401
X008255
X008355
X008455
X008555Y00411
Y00421
X008455Y00421
Y00431
X008355Y00421
X008255
X008155
X008055Y00431
X007955
X007855Y00441
Y00451
X007755
Y00441
X007655Y00441
Y00451
X007555
Y00441
X007655Y00431
X007755Y00421
X007855Y00391
X007955
X008055
X008255
Y00351
X008155
Y00341
X008255
Y00331
X008155
Y00321
X008255
X008355
X008455
Y00331
X008355
Y00341
Y00351
X008455
Y00341
X007955
Y00351
Y00371
Y00381
X007855
X007755
Y00371
X007555Y00381
Y00391
Y00401
X0073225Y0040325
X0073225Y004135
X0073325Y003915
X0072975Y0038175
X007315Y0036925
X007425Y003375
X00748
X007555Y00341
Y00331
X0075025Y0032825
X0074425Y00328321
X007655Y00331
X007655Y00341
X007755Y00341
X007755Y00331
X007855
X007955
Y00321
X008055
Y00311
X008155
X008255
X007755
X007755Y00321
X007655
Y00311
X00751321Y0031125
X00744Y002815
X0074425Y002715
X007695Y0027175
X0077525
X00773Y002815
X00768
X007625Y002815
X0075275Y0024475
Y0023975
X0074775
Y0023475
X007525Y0022925
X007655Y002135
X0075825Y00201
X00686Y0021525
X0066975Y002025
X0066375Y001995
Y00193
X0062975Y002095
X0062525Y002065
Y0021275
X00647Y0022675
X0065075Y002305
X006545Y0023425
X00635Y0026275
X006225Y0025625
X006245Y00277
X0062475Y0029025
X00625Y0030025
X00626Y00309
X0063175Y0030875
X006365Y0029975
X006255Y0031975
X00619Y003435
X00609
X005995Y0034325
X0059325Y003695
X0058825Y0036775
X0059675Y00389125
Y00400125
X00616Y0041275
X0062525Y00425
X006195Y004335
Y004385
X006095Y0044275
X0059925Y00452
X0059375Y004535
X0058825Y00452
X0059325Y0047625
X00595Y00481
X00599Y004865
X0060475Y0048125
X00631Y004735
X00634Y0044
X006525Y0044125
X0066575Y00441
X00672Y00438
X00679Y0043625
X0067875Y0040475
X0068975
Y0039375
X0067875
X00698Y0038175
X0068425Y003635
X0064675Y00364
X006355Y003685
X0061925Y00368
X0063625Y0035075
X0064125Y0034375
X0062775Y00401
X006595Y004495
X0065875Y004645
X006675Y004615
X006735Y0047675
X0067625Y004845
X0069425Y00472
X0070475
X007175Y004815
X0072525Y004695
X0073025Y004695
X0072675Y0046275
X007265Y0044625
X0071Y00452
X007105Y0043875
X0072025Y004995
X0070975Y00511
X0070925Y005185
X007275Y00534
X007395Y0053475
X00738Y0052375
X007655Y00521
X007755
X007855
X007955
Y00511
Y00501
X007855
X007755
Y00511
X007855
X007655
Y00501
X007555
Y00491
Y00471
X007655Y00471
X007655Y00461
X007755Y00461
X007855
Y00471
X007755
Y00481
Y00491
X007855
Y00481
X007655
X007775Y005305
X00774Y00552
X00766
Y0056
X00774
Y00568
X00782
X0079
Y0056
X00782
Y00552
X0079
X00798
Y0056
Y00568
X00806
Y0056
X00814
Y00568
X0083
Y00576
X00838
Y00568
X0083Y0056
X0083Y00552
X0084425
X00814
X00806
X008055Y00521
Y00511
X008155
X008255
Y00521
X008355
X008455
Y00511
X008355
Y00461
X009255Y00501
Y00511
X009355
Y00521
X009255
X009455
X009485Y005525
X009405
Y005605
X009485
Y005685
X009565
Y005605
X009645
Y005685
X009725
Y005605
Y005525
X009805
Y005605
Y005685
X009645Y005525
X009565
X009325
Y005605
X009245
Y005685
X009165
Y005605
Y005525
X009085Y005605
Y005685
Y005765
X009005Y005685
X00898843Y005565
X009325Y005765
X009485Y005765
X0085625Y0058175
X0080825Y0058425
X00774Y00576
X00758Y00576
Y0056
X0075
Y00568
X00742
Y0056
X00734
Y00568
X00726Y00568
Y00576
X0070975Y005775
X00724343Y00556
X00742Y00552
X00758
X006925Y0054775
X00665Y0055
X00665Y005545
X00665Y0055925
X0067075Y005595
X006635Y0057525
X0062Y00576
X00607Y0058675
X005915Y0057125
X0059125Y0055475
X0063325Y0054625
X0065825Y0050225
Y0049725
X0075625Y0035025
X007855Y00321
X0082125Y0026075
Y0025525
X0082725
Y0026075
X008335Y002605
X008165Y00245
Y002375
X0088375Y00201
X009155Y00351
X009255
Y00361
Y00371
X009155
Y00361
X0058575Y00389125
Y00400125
X0057375Y0043125
X00576Y004525
X00583Y004535
X005675Y0045225
X0056175Y0044625
X0055675
X00554Y0045575
X005545Y0043625
X005155Y004435
Y0044825
X0050425Y004485
Y0044375
X00487Y0043575
X0048175
X0047575Y0043575
X00478Y0044875
X00483053Y0044875
X0047275Y0044875
X0046575Y0047075
X004625Y00475
X004575Y0047075
X00447127Y00476874
X004505Y0048525
X00447246Y00506032
X00448484Y0051434
X00467052Y00516278
X00462102Y00521228
X0050425Y00527
X0050875
X0051425Y0052175
X0051875
X0051875Y00511
X0051425
X0050775Y00506
X005265Y0051175
Y0051675
X005345Y0051675
X0053425Y0052425
X0052725
X005185Y005325
X00514
X0051525Y0054075
X0051025
X00524Y005405
X005285Y00554001
Y00564001
X00486856Y00560191
X00475658Y00557191
X00489908Y00571441
X00421797Y00561533
X00416847Y00566483
X00416403Y00545921
X00406595Y00546684
X0039695Y00558257
X0038995
X0038519Y00543757
X0039019Y00537007
X00365445Y00560814
X003655Y00585448
X0033295Y00558257
X0032595
X00308557Y00562802
X00300248Y00564039
X00293361Y00577658
X00298311Y00582608
X00253506Y00587218
X00253056Y00537353
X00248106Y00532403
X00266668Y00530459
X00267905Y0052215
X0026845Y00499268
X002752Y00504268
X0025395Y00504028
Y00511028
X00251393Y00467523
X00229998Y00467523
X00219593Y00480223
X00208843Y00474473
Y00485973
X0020675Y0043325
X00208Y00427687
X00203Y0042775
X0020575Y0042125
X0021375Y00421437
X002185
X0021825Y004345
X0021325Y00434375
X0020825Y0041025
X002035
X0019825Y0040525
X00192313Y0041
Y00415187
X002205Y0040075
X002255Y00400937
X00237059Y00361372
X00257309
X00225559Y00348813
X00215309Y00354313
X00215309Y00343063
X00205309Y00348813
X00281493Y00301066
X00267049Y00286566
X00268493Y00269566
X00264743Y00258316
X00253993Y00255316
X00256743Y00266066
X00234881Y00233056
X00229Y00233056
X0022312Y00233056
X0022925Y00207
X002375Y002135
X002435Y0020825
Y0019575
X00279Y0019575
X0028725Y0019475
X0028475Y00202
X00291Y0020825
X002995Y002105
X00308Y0021025
X0030027Y00237416
X0029927Y00248916
X00291269Y00230416
X00365165Y00228748
X00376447Y00228926
X0037065Y00218886
Y00239039
X00358035Y00250429
X00357945Y00271023
X00395493Y00280008
X00404242Y00261508
X00420742Y00256758
X00419863Y00245035
X00429992Y00249758
X00429492Y00238008
X0046668Y00235517
X00475519Y00244356
X00483474Y00243826
X0047764Y00226325
X00459446Y00207946
X00455288Y00212104
X0045113Y00216262
X0046402Y0026504
X00460924Y00276218
X00449395Y00279539
X005045Y0029975
X00509438Y0029975
X005155Y0029825
X0051925Y003015
Y0029475
X00516Y002915
X005245Y003035
X0052Y00316
X00522535Y00320272
X0050125Y003265
X00511035Y003425
Y00347965
X005135Y00357
X00507528Y00360722
X0050375Y0035725
X0050275Y00364429
X00506321Y00368
X005155Y00389
X0051375Y0039925
X005045Y0040325
X004945Y00403144
X0048925Y00403197
X00484Y0040325
X0047875
X0047325Y0040325
X0046875Y003995
X004685Y00407
X0046875Y004155
X0044424Y00418063
X0044275Y0040825
X004331Y00409327
X0042977Y00412657
X0042644Y00415987
X0041978Y00415987
X0042311Y00412657
X0042644Y00409327
X0042977Y00405997
Y00399337
X0042644Y00396007
X0042311Y00399337
Y00392677
X0042644Y00389347
X0042977Y00386017
X0042644Y00382687
X0042311Y00386017
X0041978Y00389347
Y00396007
X0041978Y00402667
X0040184Y00404267
Y00409267
X0039184
Y00404267
Y00399267
Y00394267
X0039684
Y00389267
X0040184Y00389267
X0039184
X0038184Y00389367
Y00394367
Y00399367
Y00404367
Y00409367
Y00419367
Y00429367
Y00439367
X0037184Y00439267
X0036184
Y00434267
Y00429267
Y00424267
Y00419267
X0037184
Y00424267
Y00429267
Y00409267
Y00404267
Y00399267
Y00394267
Y00389267
X0036184
Y00394267
Y00399267
Y00404267
Y00409267
X0035549Y00385563
Y00380563
X0036349Y00372377
X0038399Y00374063
X0038648Y00369367
X0039314
X003998
X003998Y00362707
X0040313Y00366037
X0040979
Y00359377
X0040646Y00376027
X0039647Y00372697
X0038981Y00366037
X0038315Y00366037
X0037982Y00362707
X0043525Y0036125
X0042311Y00379357
X00456Y0038175
X0049075Y00391
X0048525Y0035575
X00542Y0036725
X005525Y0036775
X0056175
X00564Y0034375
X00553Y0034775
X0054175Y0034375
X0054375Y0031375
Y0030875
Y0030375
X00553Y0029375
X0056575Y0028725
X005575Y00279
Y002675
X005515Y002735
X005525Y002565
X0055275Y00224
Y002115
X00543Y0021325
Y002065
X0055025Y0019875
X0052675Y0026375
X0058425Y002945
X00585Y0031775
X0058325Y00322
X0057575Y003295
X0056075Y0032775
Y003225
X00531Y0046775
X0052575Y004705
X0051625Y0046175
X00477377Y00477374
X0042725Y004705
X0041978Y00462607
X0041645Y00459277
X0041312Y00462607
Y00455947
X0041645Y00452617
X0042311Y00452617
Y00445957
X0042977
X0042977Y00439297
X0042644Y00442627
Y00435967
X0042311Y00439297
Y00432637
X0042644Y00429307
X0042644Y00422647
X0042311Y00425977
X0041978Y00422647
X0041974Y00429313
X0042977Y00425977
X0044275Y0044025
X0040184Y00439267
X0039184
Y00429267
Y00424267
Y00419267
X0040184
Y00424267
Y00429267
X0040313Y00452617
X0040646Y00455947
X0040979Y00459277
X0040646Y00462607
X0040313Y00459277
X0039314Y00462607
X0039314Y00455947
X0038981Y00452617
X0038648Y00455947
X0038315Y00452617
X0037982Y00455947
X003765Y0045925
X0037649Y00465937
X0037982Y00469267
X00398Y0047475
X0041304Y00479313
X003435Y004655
X0034319Y00459277
X0033986Y00455947
X0033986Y00449287
X003332
X003332Y00442627
X0033986
Y00435967
X0034319Y00439297
X0034319Y00445957
X0034985Y00452617
X0032987Y00439297
X0033653Y00432637
Y00425977
X0034319Y00425977
X0032654Y00429307
X00308Y0043425
X0030375Y0041975
X0030825Y0038775
X0032674Y00383813
X003332Y00389347
X0033653Y00392677
X0034319
Y00386017
X0033986Y00382687
X0040184Y00399267
X002752Y00446778
X0026845Y00451778
X0025395Y00447028
X0025395Y00440028
X003327Y00537007
X003377Y00543757
X0057475Y00543
Y00531396
X0056875Y0052425
X0058075Y005145
X005675Y00501
X00577Y00487
X00583Y004885
X005865Y0056575
X005865Y0057125
X005765Y0057125
X0019125Y0022475
X0018275Y00225
X0017425Y0022475
X001675Y002165
X001705Y0020925
X0016225Y0021025
X0015975Y0020425
X0015975Y001985
X0015975Y0019275
X001495Y0022775
X00141Y002275
X001325Y0022975
X0012625Y00236
X0012875Y0024325
X001205Y0024225
X00118Y0024825
X00118Y00254
X00118Y0025975
X001205Y0026575
X0012875Y0026475
X0012625Y00272
X001325Y0027825
X001495Y0028025
X0016675Y0028975
X001495Y003155
X001325Y003175
X0012625Y0032375
X0012875Y00331
X001205Y0033
X00118Y00336
X00118Y0034175
X00118Y003475
X001205Y003535
X0012875Y003525
X0012625Y0035975
X001325Y00366
X001495Y00368
X001495Y004285
X001325Y004305
X0012625Y0043675
X0012875Y00444
X001205Y00443
X00118Y00449
Y0045475
Y004605
X001205Y004665
X0012875Y004655
X0012625Y0047275
X001325Y00479
X00141Y0048125
X001495Y00481
X00085Y00485
X00075Y00495
Y00475
X00085Y00465
X00075Y00455
X00065Y00465
Y00445
X00085
X00075Y00435
X00085Y00425
X00075Y00415
X00085Y00405
X00075Y00395
X00065Y00405
Y00385
X00075Y00375
X00085Y00365
Y00385
Y00345
X00075Y00355
Y00335
X00065Y00345
Y00325
X00045
Y00345
X00055Y00335
Y00355
X00065Y00365
X00055Y00375
X00045Y00365
Y00385
Y00405
X00055Y00395
Y00415
X00065Y00425
X00055Y00435
X00045Y00425
Y00445
Y00465
X00055Y00455
Y00475
X00065Y00485
Y00505
X00055Y00495
X00045Y00485
Y00505
X00025
X00015Y00495
Y00475
Y00455
X00025Y00465
Y00445
X00015Y00435
Y00415
Y00395
X00025Y00405
Y00385
X00015Y00375
Y00355
Y00335
X00025Y00345
Y00325
X00035Y00315
Y00295
Y00275
X00025Y00285
Y00265
X00015Y00275
Y00295
X00025Y00305
X00015Y00315
X00045Y00305
Y00285
X00055Y00275
Y00295
Y00315
X00065Y00305
Y00285
X00075Y00275
X00085Y00265
Y00245
X00085Y00225
X00085Y00205
X00075Y00215
X00035
X00025Y00225
X00015Y00215
Y00235
Y00255
X00025Y00245
X00085Y00285
X00075Y00295
Y00315
X00085Y00305
Y00325
X00035Y00335
Y00355
X00025Y00365
X00035Y00375
Y00395
Y00415
X00025Y00425
X00035Y00435
Y00455
Y00475
X00025Y00485
X00035Y00495
Y00515
X00025Y00525
X00015Y00515
Y00535
X00025Y00545
Y00565
X00015Y00575
Y00555
X00045Y00525
X00055Y00515
X00065Y00525
X00075Y00515
X00085Y00505
Y00525
Y00545
Y00565
X0015575Y00613
X0016425Y0061075
X0017275Y00611
X0018225Y0059775
X00186408Y00593592
X001495Y0061925
X00152Y006265
X0014375Y006255
X0014125Y006315
Y0063725
Y00643
X0014375Y00649
X00152Y00648
X001495Y0065525
X0015575Y006615
X0016425Y0066375
X00163249Y00669
X0017275Y006635
X00183249Y00669
X00143249
X00200057Y00615372
X00209249Y00604412
X00218088Y00613251
X00217558Y00621206
X00250506Y00598416
X0029225Y006156
X0029475Y0062285
X002865Y0062185
X00284Y0062785
Y006336
Y0063935
X002865Y0064535
X0029475Y0064435
X0029225Y006516
X002985Y0065785
X00307Y006601
X003155Y0065985
X0031625Y00669
X0033625
X0035625Y00669
X0037625
X0039625
X00408Y0065175
X004105Y006445
X0040225Y006455
X0039975Y006395
Y0063375
Y00628
X0040225Y00623
X004105Y00623
X00408Y0061375
X00378145Y00614009
X00383855Y00603988
X00372355
X00448944Y0061012
X00448944Y00616
X00448944Y0062188
X00468863Y00624066
X00486894Y00621945
X00486364Y00629899
X00478055Y00613106
X00543Y0061525
X005475Y0062525
X0054775Y0063475
X00554Y00635
X00544Y00645
X00536Y00649001
X005285Y00649001
Y00639001
X00536
X00544Y00665
X00554Y00655
X0056275Y00662
X00554Y00675
X00575Y00629
X005765Y0062225
X005815
X005715
X00576Y0060225
X00576Y0059125
X00556Y0059175
Y0059675
Y0060175
X00556Y0060675
X0043125Y0066
X0042275Y0066025
X0041425Y00658
X0029625Y00669
X0027625
X00190566Y00589434
X00587Y0059125
X00587Y0060225
X006Y0061075
X00607Y0059675
Y0059175
X005915Y0062375
X0060275Y00662
X00611Y0066475
X00604176Y00674926
X0066675Y0067075
X006655Y0065775
X0066625Y0061775
X0066025Y006165
X0067075Y006025
X007Y00633
X0071375Y006345
X00718Y00624
Y00616
X00726
Y00608
X00734Y00608
Y006
X00742
X0075
Y00608
X00746Y00617657
X00734Y00616
X0072925Y006295
X00754Y00625657
X00774Y00624
X00782
X0079
Y00608
X00782
Y006
X0079
X00798
X00806
Y00608
X00814
X00822
Y006
X00814
X0083
X00838Y0059575
Y00624
X00822
X00814
X00806
X00798Y00616
X0083
X0085325Y0062025
X00859Y006205
X00856Y0062575
X0085775Y006365
X00863
X00868
X008925Y006245
Y006165
X009005
Y006085
X009085Y006085
Y006005
X009165
X009245
X009325
X009405
X009485
Y006085
X009405
X009405Y006165
X009485Y006245
X009565
X009645
X009725
X009805
Y006085
Y006005
X009725
X009645
X009565
Y006085
X009645
X009245
X009205Y00618157
X009085Y006165
X009285Y00626157
X0094825Y006595
X00903
X0087525Y00667
X0087075Y006715
X00811Y006705
Y0066575
Y0067525
X0077225Y006555
Y0064925
X00779Y0064325
X0076775Y006355
X00766Y00616
X00766Y00608
X00774
Y006
X00766
X00758
X0070025Y0067075
X009885Y006245
X009965
X009965Y006165
X009965Y006085
Y006005
X009885
Y006085
X010045Y006005
X010125Y006245
X01057699Y0061725
Y0059525
X01092Y0059525
X01109142Y00594142
X0111795Y0059525
X0111795Y0061725
X01092Y0061725
X01145Y0061725
Y0059525
X01172
Y0061725
X0119725Y0062525
X01205301Y0060925
X01218001
X01230701
X01243401
X01264Y00615
Y00635
X01274Y00625
Y00645
X01284Y00635
Y00615
X0128425Y0060225
X01294Y00625
X01304Y00615
X01314Y00605
X01316Y00593357
X01334Y00605
X01354
Y00625
Y00645
Y00665
X01344Y00675
X01324
X01304
X01294Y00665
X01284Y00675
Y00655
X01274Y00665
X01264Y00655
Y00675
X01244
X01224
X01204
X01184
X01344Y00615
T02
X00832Y00645
X008415
X0083675Y0065125
X008415Y006575
X00832
T04
X000495Y0016975
X000745
Y0019475
X000495
T05
X011798Y0023275
X012052
X012033Y003675
X012287
T06
X009495Y001265
X009615
X0097325
X0137Y003975
Y004095
Y0042125
X-0000225Y00423
Y00411
Y0039925
X0035575Y00691
X003675
X003795
X0094975
X009615
X009735
T09
X01324Y00166
X00055Y0024
Y00555
X013235Y00639
T10
X00075Y000935
Y006325
M30
