G04 Layer_Color=255*
%FSLAX44Y44*%
%MOMM*%
G71*
G01*
G75*
G04:AMPARAMS|DCode=17|XSize=0.5mm|YSize=0.6mm|CornerRadius=0.05mm|HoleSize=0mm|Usage=FLASHONLY|Rotation=90.000|XOffset=0mm|YOffset=0mm|HoleType=Round|Shape=RoundedRectangle|*
%AMROUNDEDRECTD17*
21,1,0.5000,0.5000,0,0,90.0*
21,1,0.4000,0.6000,0,0,90.0*
1,1,0.1000,0.2500,0.2000*
1,1,0.1000,0.2500,-0.2000*
1,1,0.1000,-0.2500,-0.2000*
1,1,0.1000,-0.2500,0.2000*
%
%ADD17ROUNDEDRECTD17*%
G04:AMPARAMS|DCode=18|XSize=0.5mm|YSize=0.6mm|CornerRadius=0.05mm|HoleSize=0mm|Usage=FLASHONLY|Rotation=135.000|XOffset=0mm|YOffset=0mm|HoleType=Round|Shape=RoundedRectangle|*
%AMROUNDEDRECTD18*
21,1,0.5000,0.5000,0,0,135.0*
21,1,0.4000,0.6000,0,0,135.0*
1,1,0.1000,0.0354,0.3182*
1,1,0.1000,0.3182,0.0354*
1,1,0.1000,-0.0354,-0.3182*
1,1,0.1000,-0.3182,-0.0354*
%
%ADD18ROUNDEDRECTD18*%
G04:AMPARAMS|DCode=19|XSize=0.35mm|YSize=0.15mm|CornerRadius=0mm|HoleSize=0mm|Usage=FLASHONLY|Rotation=135.000|XOffset=0mm|YOffset=0mm|HoleType=Round|Shape=Rectangle|*
%AMROTATEDRECTD19*
4,1,4,0.1768,-0.0707,0.0707,-0.1768,-0.1768,0.0707,-0.0707,0.1768,0.1768,-0.0707,0.0*
%
%ADD19ROTATEDRECTD19*%

G04:AMPARAMS|DCode=20|XSize=0.5mm|YSize=0.6mm|CornerRadius=0.05mm|HoleSize=0mm|Usage=FLASHONLY|Rotation=0.000|XOffset=0mm|YOffset=0mm|HoleType=Round|Shape=RoundedRectangle|*
%AMROUNDEDRECTD20*
21,1,0.5000,0.5000,0,0,0.0*
21,1,0.4000,0.6000,0,0,0.0*
1,1,0.1000,0.2000,-0.2500*
1,1,0.1000,-0.2000,-0.2500*
1,1,0.1000,-0.2000,0.2500*
1,1,0.1000,0.2000,0.2500*
%
%ADD20ROUNDEDRECTD20*%
%ADD21R,0.3500X0.1500*%
G04:AMPARAMS|DCode=22|XSize=0.5mm|YSize=0.6mm|CornerRadius=0.05mm|HoleSize=0mm|Usage=FLASHONLY|Rotation=45.000|XOffset=0mm|YOffset=0mm|HoleType=Round|Shape=RoundedRectangle|*
%AMROUNDEDRECTD22*
21,1,0.5000,0.5000,0,0,45.0*
21,1,0.4000,0.6000,0,0,45.0*
1,1,0.1000,0.3182,-0.0354*
1,1,0.1000,0.0354,-0.3182*
1,1,0.1000,-0.3182,0.0354*
1,1,0.1000,-0.0354,0.3182*
%
%ADD22ROUNDEDRECTD22*%
%ADD23R,1.5500X1.0000*%
%ADD24R,1.2000X1.6000*%
%ADD25R,1.2000X1.2000*%
%ADD26R,1.2000X2.1500*%
G04:AMPARAMS|DCode=27|XSize=1mm|YSize=0.9mm|CornerRadius=0.1125mm|HoleSize=0mm|Usage=FLASHONLY|Rotation=0.000|XOffset=0mm|YOffset=0mm|HoleType=Round|Shape=RoundedRectangle|*
%AMROUNDEDRECTD27*
21,1,1.0000,0.6750,0,0,0.0*
21,1,0.7750,0.9000,0,0,0.0*
1,1,0.2250,0.3875,-0.3375*
1,1,0.2250,-0.3875,-0.3375*
1,1,0.2250,-0.3875,0.3375*
1,1,0.2250,0.3875,0.3375*
%
%ADD27ROUNDEDRECTD27*%
G04:AMPARAMS|DCode=28|XSize=0.6mm|YSize=0.6mm|CornerRadius=0.06mm|HoleSize=0mm|Usage=FLASHONLY|Rotation=90.000|XOffset=0mm|YOffset=0mm|HoleType=Round|Shape=RoundedRectangle|*
%AMROUNDEDRECTD28*
21,1,0.6000,0.4800,0,0,90.0*
21,1,0.4800,0.6000,0,0,90.0*
1,1,0.1200,0.2400,0.2400*
1,1,0.1200,0.2400,-0.2400*
1,1,0.1200,-0.2400,-0.2400*
1,1,0.1200,-0.2400,0.2400*
%
%ADD28ROUNDEDRECTD28*%
G04:AMPARAMS|DCode=29|XSize=1.6mm|YSize=0.3mm|CornerRadius=0.0375mm|HoleSize=0mm|Usage=FLASHONLY|Rotation=0.000|XOffset=0mm|YOffset=0mm|HoleType=Round|Shape=RoundedRectangle|*
%AMROUNDEDRECTD29*
21,1,1.6000,0.2250,0,0,0.0*
21,1,1.5250,0.3000,0,0,0.0*
1,1,0.0750,0.7625,-0.1125*
1,1,0.0750,-0.7625,-0.1125*
1,1,0.0750,-0.7625,0.1125*
1,1,0.0750,0.7625,0.1125*
%
%ADD29ROUNDEDRECTD29*%
%ADD30O,1.6000X0.3000*%
G04:AMPARAMS|DCode=31|XSize=1.6mm|YSize=1.9mm|CornerRadius=0.2mm|HoleSize=0mm|Usage=FLASHONLY|Rotation=180.000|XOffset=0mm|YOffset=0mm|HoleType=Round|Shape=RoundedRectangle|*
%AMROUNDEDRECTD31*
21,1,1.6000,1.5000,0,0,180.0*
21,1,1.2000,1.9000,0,0,180.0*
1,1,0.4000,-0.6000,0.7500*
1,1,0.4000,0.6000,0.7500*
1,1,0.4000,0.6000,-0.7500*
1,1,0.4000,-0.6000,-0.7500*
%
%ADD31ROUNDEDRECTD31*%
%ADD32R,2.3500X1.6000*%
%ADD33R,0.3000X0.7000*%
%ADD34R,0.7000X0.3000*%
%ADD35R,1.6000X2.3500*%
G04:AMPARAMS|DCode=36|XSize=0.6mm|YSize=0.6mm|CornerRadius=0.06mm|HoleSize=0mm|Usage=FLASHONLY|Rotation=0.000|XOffset=0mm|YOffset=0mm|HoleType=Round|Shape=RoundedRectangle|*
%AMROUNDEDRECTD36*
21,1,0.6000,0.4800,0,0,0.0*
21,1,0.4800,0.6000,0,0,0.0*
1,1,0.1200,0.2400,-0.2400*
1,1,0.1200,-0.2400,-0.2400*
1,1,0.1200,-0.2400,0.2400*
1,1,0.1200,0.2400,0.2400*
%
%ADD36ROUNDEDRECTD36*%
%ADD37R,1.0000X1.5500*%
%ADD38R,1.6000X1.2000*%
%ADD39R,1.2000X1.2000*%
%ADD40R,2.1500X1.2000*%
G04:AMPARAMS|DCode=41|XSize=1.3mm|YSize=0.8mm|CornerRadius=0.1mm|HoleSize=0mm|Usage=FLASHONLY|Rotation=90.000|XOffset=0mm|YOffset=0mm|HoleType=Round|Shape=RoundedRectangle|*
%AMROUNDEDRECTD41*
21,1,1.3000,0.6000,0,0,90.0*
21,1,1.1000,0.8000,0,0,90.0*
1,1,0.2000,0.3000,0.5500*
1,1,0.2000,0.3000,-0.5500*
1,1,0.2000,-0.3000,-0.5500*
1,1,0.2000,-0.3000,0.5500*
%
%ADD41ROUNDEDRECTD41*%
%ADD42R,0.2500X0.6250*%
%ADD43R,1.6000X1.6000*%
G04:AMPARAMS|DCode=44|XSize=2.5mm|YSize=1.1mm|CornerRadius=0.1375mm|HoleSize=0mm|Usage=FLASHONLY|Rotation=180.000|XOffset=0mm|YOffset=0mm|HoleType=Round|Shape=RoundedRectangle|*
%AMROUNDEDRECTD44*
21,1,2.5000,0.8250,0,0,180.0*
21,1,2.2250,1.1000,0,0,180.0*
1,1,0.2750,-1.1125,0.4125*
1,1,0.2750,1.1125,0.4125*
1,1,0.2750,1.1125,-0.4125*
1,1,0.2750,-1.1125,-0.4125*
%
%ADD44ROUNDEDRECTD44*%
G04:AMPARAMS|DCode=45|XSize=10mm|YSize=10.5mm|CornerRadius=1.25mm|HoleSize=0mm|Usage=FLASHONLY|Rotation=180.000|XOffset=0mm|YOffset=0mm|HoleType=Round|Shape=RoundedRectangle|*
%AMROUNDEDRECTD45*
21,1,10.0000,8.0000,0,0,180.0*
21,1,7.5000,10.5000,0,0,180.0*
1,1,2.5000,-3.7500,4.0000*
1,1,2.5000,3.7500,4.0000*
1,1,2.5000,3.7500,-4.0000*
1,1,2.5000,-3.7500,-4.0000*
%
%ADD45ROUNDEDRECTD45*%
%ADD46R,0.9000X2.5500*%
%ADD47R,1.4000X2.5500*%
%ADD48R,1.0000X0.2500*%
%ADD49R,0.2500X1.0000*%
G04:AMPARAMS|DCode=50|XSize=1.8mm|YSize=1.15mm|CornerRadius=0.1437mm|HoleSize=0mm|Usage=FLASHONLY|Rotation=0.000|XOffset=0mm|YOffset=0mm|HoleType=Round|Shape=RoundedRectangle|*
%AMROUNDEDRECTD50*
21,1,1.8000,0.8625,0,0,0.0*
21,1,1.5125,1.1500,0,0,0.0*
1,1,0.2875,0.7562,-0.4313*
1,1,0.2875,-0.7562,-0.4313*
1,1,0.2875,-0.7562,0.4313*
1,1,0.2875,0.7562,0.4313*
%
%ADD50ROUNDEDRECTD50*%
G04:AMPARAMS|DCode=51|XSize=1.3mm|YSize=0.8mm|CornerRadius=0.1mm|HoleSize=0mm|Usage=FLASHONLY|Rotation=180.000|XOffset=0mm|YOffset=0mm|HoleType=Round|Shape=RoundedRectangle|*
%AMROUNDEDRECTD51*
21,1,1.3000,0.6000,0,0,180.0*
21,1,1.1000,0.8000,0,0,180.0*
1,1,0.2000,-0.5500,0.3000*
1,1,0.2000,0.5500,0.3000*
1,1,0.2000,0.5500,-0.3000*
1,1,0.2000,-0.5500,-0.3000*
%
%ADD51ROUNDEDRECTD51*%
G04:AMPARAMS|DCode=52|XSize=1.3mm|YSize=0.8mm|CornerRadius=0.1mm|HoleSize=0mm|Usage=FLASHONLY|Rotation=225.000|XOffset=0mm|YOffset=0mm|HoleType=Round|Shape=RoundedRectangle|*
%AMROUNDEDRECTD52*
21,1,1.3000,0.6000,0,0,225.0*
21,1,1.1000,0.8000,0,0,225.0*
1,1,0.2000,-0.6010,-0.1768*
1,1,0.2000,0.1768,0.6010*
1,1,0.2000,0.6010,0.1768*
1,1,0.2000,-0.1768,-0.6010*
%
%ADD52ROUNDEDRECTD52*%
G04:AMPARAMS|DCode=53|XSize=1.3mm|YSize=0.8mm|CornerRadius=0.1mm|HoleSize=0mm|Usage=FLASHONLY|Rotation=135.000|XOffset=0mm|YOffset=0mm|HoleType=Round|Shape=RoundedRectangle|*
%AMROUNDEDRECTD53*
21,1,1.3000,0.6000,0,0,135.0*
21,1,1.1000,0.8000,0,0,135.0*
1,1,0.2000,-0.1768,0.6010*
1,1,0.2000,0.6010,-0.1768*
1,1,0.2000,0.1768,-0.6010*
1,1,0.2000,-0.6010,0.1768*
%
%ADD53ROUNDEDRECTD53*%
G04:AMPARAMS|DCode=54|XSize=0.5mm|YSize=0.6mm|CornerRadius=0.05mm|HoleSize=0mm|Usage=FLASHONLY|Rotation=247.500|XOffset=0mm|YOffset=0mm|HoleType=Round|Shape=RoundedRectangle|*
%AMROUNDEDRECTD54*
21,1,0.5000,0.5000,0,0,247.5*
21,1,0.4000,0.6000,0,0,247.5*
1,1,0.1000,-0.3075,-0.0891*
1,1,0.1000,-0.1544,0.2804*
1,1,0.1000,0.3075,0.0891*
1,1,0.1000,0.1544,-0.2804*
%
%ADD54ROUNDEDRECTD54*%
%ADD55R,2.5500X0.9000*%
%ADD56R,2.5500X1.4000*%
%ADD57R,4.0000X5.0000*%
G04:AMPARAMS|DCode=58|XSize=0.5mm|YSize=0.6mm|CornerRadius=0.05mm|HoleSize=0mm|Usage=FLASHONLY|Rotation=157.500|XOffset=0mm|YOffset=0mm|HoleType=Round|Shape=RoundedRectangle|*
%AMROUNDEDRECTD58*
21,1,0.5000,0.5000,0,0,157.5*
21,1,0.4000,0.6000,0,0,157.5*
1,1,0.1000,-0.0891,0.3075*
1,1,0.1000,0.2804,0.1544*
1,1,0.1000,0.0891,-0.3075*
1,1,0.1000,-0.2804,-0.1544*
%
%ADD58ROUNDEDRECTD58*%
G04:AMPARAMS|DCode=59|XSize=0.6mm|YSize=0.6mm|CornerRadius=0.06mm|HoleSize=0mm|Usage=FLASHONLY|Rotation=45.000|XOffset=0mm|YOffset=0mm|HoleType=Round|Shape=RoundedRectangle|*
%AMROUNDEDRECTD59*
21,1,0.6000,0.4800,0,0,45.0*
21,1,0.4800,0.6000,0,0,45.0*
1,1,0.1200,0.3394,0.0000*
1,1,0.1200,0.0000,-0.3394*
1,1,0.1200,-0.3394,0.0000*
1,1,0.1200,0.0000,0.3394*
%
%ADD59ROUNDEDRECTD59*%
G04:AMPARAMS|DCode=60|XSize=0.5mm|YSize=0.6mm|CornerRadius=0.05mm|HoleSize=0mm|Usage=FLASHONLY|Rotation=205.000|XOffset=0mm|YOffset=0mm|HoleType=Round|Shape=RoundedRectangle|*
%AMROUNDEDRECTD60*
21,1,0.5000,0.5000,0,0,205.0*
21,1,0.4000,0.6000,0,0,205.0*
1,1,0.1000,-0.2869,0.1421*
1,1,0.1000,0.0756,0.3111*
1,1,0.1000,0.2869,-0.1421*
1,1,0.1000,-0.0756,-0.3111*
%
%ADD60ROUNDEDRECTD60*%
G04:AMPARAMS|DCode=61|XSize=0.5mm|YSize=0.6mm|CornerRadius=0.05mm|HoleSize=0mm|Usage=FLASHONLY|Rotation=295.000|XOffset=0mm|YOffset=0mm|HoleType=Round|Shape=RoundedRectangle|*
%AMROUNDEDRECTD61*
21,1,0.5000,0.5000,0,0,295.0*
21,1,0.4000,0.6000,0,0,295.0*
1,1,0.1000,-0.1421,-0.2869*
1,1,0.1000,-0.3111,0.0756*
1,1,0.1000,0.1421,0.2869*
1,1,0.1000,0.3111,-0.0756*
%
%ADD61ROUNDEDRECTD61*%
G04:AMPARAMS|DCode=62|XSize=0.6mm|YSize=0.6mm|CornerRadius=0.06mm|HoleSize=0mm|Usage=FLASHONLY|Rotation=135.000|XOffset=0mm|YOffset=0mm|HoleType=Round|Shape=RoundedRectangle|*
%AMROUNDEDRECTD62*
21,1,0.6000,0.4800,0,0,135.0*
21,1,0.4800,0.6000,0,0,135.0*
1,1,0.1200,0.0000,0.3394*
1,1,0.1200,0.3394,0.0000*
1,1,0.1200,0.0000,-0.3394*
1,1,0.1200,-0.3394,0.0000*
%
%ADD62ROUNDEDRECTD62*%
G04:AMPARAMS|DCode=63|XSize=0.76mm|YSize=1.65mm|CornerRadius=0mm|HoleSize=0mm|Usage=FLASHONLY|Rotation=45.000|XOffset=0mm|YOffset=0mm|HoleType=Round|Shape=Rectangle|*
%AMROTATEDRECTD63*
4,1,4,0.3147,-0.8521,-0.8521,0.3147,-0.3147,0.8521,0.8521,-0.3147,0.3147,-0.8521,0.0*
%
%ADD63ROTATEDRECTD63*%

%ADD64R,1.6500X0.7600*%
G04:AMPARAMS|DCode=65|XSize=0.76mm|YSize=1.65mm|CornerRadius=0mm|HoleSize=0mm|Usage=FLASHONLY|Rotation=135.000|XOffset=0mm|YOffset=0mm|HoleType=Round|Shape=Rectangle|*
%AMROTATEDRECTD65*
4,1,4,0.8521,0.3147,-0.3147,-0.8521,-0.8521,-0.3147,0.3147,0.8521,0.8521,0.3147,0.0*
%
%ADD65ROTATEDRECTD65*%

%ADD66R,0.7600X1.6500*%
G04:AMPARAMS|DCode=67|XSize=1.8mm|YSize=1.15mm|CornerRadius=0.1437mm|HoleSize=0mm|Usage=FLASHONLY|Rotation=270.000|XOffset=0mm|YOffset=0mm|HoleType=Round|Shape=RoundedRectangle|*
%AMROUNDEDRECTD67*
21,1,1.8000,0.8625,0,0,270.0*
21,1,1.5125,1.1500,0,0,270.0*
1,1,0.2875,-0.4313,-0.7562*
1,1,0.2875,-0.4313,0.7562*
1,1,0.2875,0.4313,0.7562*
1,1,0.2875,0.4313,-0.7562*
%
%ADD67ROUNDEDRECTD67*%
%ADD68O,2.2000X0.6000*%
%ADD69R,0.7000X4.2000*%
%ADD70R,0.7000X3.2000*%
%ADD71R,3.2004X1.2700*%
G04:AMPARAMS|DCode=72|XSize=0.7mm|YSize=0.4mm|CornerRadius=0.05mm|HoleSize=0mm|Usage=FLASHONLY|Rotation=270.000|XOffset=0mm|YOffset=0mm|HoleType=Round|Shape=RoundedRectangle|*
%AMROUNDEDRECTD72*
21,1,0.7000,0.3000,0,0,270.0*
21,1,0.6000,0.4000,0,0,270.0*
1,1,0.1000,-0.1500,-0.3000*
1,1,0.1000,-0.1500,0.3000*
1,1,0.1000,0.1500,0.3000*
1,1,0.1000,0.1500,-0.3000*
%
%ADD72ROUNDEDRECTD72*%
%ADD73R,0.7500X2.4000*%
%ADD74R,0.5500X2.2000*%
G04:AMPARAMS|DCode=75|XSize=1mm|YSize=0.9mm|CornerRadius=0.1125mm|HoleSize=0mm|Usage=FLASHONLY|Rotation=90.000|XOffset=0mm|YOffset=0mm|HoleType=Round|Shape=RoundedRectangle|*
%AMROUNDEDRECTD75*
21,1,1.0000,0.6750,0,0,90.0*
21,1,0.7750,0.9000,0,0,90.0*
1,1,0.2250,0.3375,0.3875*
1,1,0.2250,0.3375,-0.3875*
1,1,0.2250,-0.3375,-0.3875*
1,1,0.2250,-0.3375,0.3875*
%
%ADD75ROUNDEDRECTD75*%
%ADD76C,0.5000*%
%ADD77R,5.0000X4.0000*%
G04:AMPARAMS|DCode=78|XSize=0.8mm|YSize=0.8mm|CornerRadius=0.1mm|HoleSize=0mm|Usage=FLASHONLY|Rotation=90.000|XOffset=0mm|YOffset=0mm|HoleType=Round|Shape=RoundedRectangle|*
%AMROUNDEDRECTD78*
21,1,0.8000,0.6000,0,0,90.0*
21,1,0.6000,0.8000,0,0,90.0*
1,1,0.2000,0.3000,0.3000*
1,1,0.2000,0.3000,-0.3000*
1,1,0.2000,-0.3000,-0.3000*
1,1,0.2000,-0.3000,0.3000*
%
%ADD78ROUNDEDRECTD78*%
%ADD79R,0.8000X1.4000*%
%ADD80R,4.0500X4.3000*%
%ADD81R,1.2000X0.5000*%
%ADD82R,0.9500X0.4000*%
%ADD83R,0.4000X0.9500*%
%ADD84C,0.4500*%
%ADD85R,0.9500X0.3500*%
%ADD86R,0.3500X0.9500*%
%ADD87C,1.0000*%
%ADD88R,1.4000X1.3000*%
%ADD89R,2.0000X1.3000*%
%ADD90R,1.3000X1.4000*%
%ADD91R,1.3000X2.0000*%
G04:AMPARAMS|DCode=92|XSize=0.6mm|YSize=0.6mm|CornerRadius=0.06mm|HoleSize=0mm|Usage=FLASHONLY|Rotation=295.000|XOffset=0mm|YOffset=0mm|HoleType=Round|Shape=RoundedRectangle|*
%AMROUNDEDRECTD92*
21,1,0.6000,0.4800,0,0,295.0*
21,1,0.4800,0.6000,0,0,295.0*
1,1,0.1200,-0.1161,-0.3189*
1,1,0.1200,-0.3189,0.1161*
1,1,0.1200,0.1161,0.3189*
1,1,0.1200,0.3189,-0.1161*
%
%ADD92ROUNDEDRECTD92*%
%ADD93R,0.2500X0.6000*%
%ADD94R,1.5000X1.6000*%
G04:AMPARAMS|DCode=95|XSize=0.76mm|YSize=1.65mm|CornerRadius=0mm|HoleSize=0mm|Usage=FLASHONLY|Rotation=337.500|XOffset=0mm|YOffset=0mm|HoleType=Round|Shape=Rectangle|*
%AMROTATEDRECTD95*
4,1,4,-0.6668,-0.6168,-0.0354,0.9076,0.6668,0.6168,0.0354,-0.9076,-0.6668,-0.6168,0.0*
%
%ADD95ROTATEDRECTD95*%

G04:AMPARAMS|DCode=96|XSize=0.76mm|YSize=1.65mm|CornerRadius=0mm|HoleSize=0mm|Usage=FLASHONLY|Rotation=205.000|XOffset=0mm|YOffset=0mm|HoleType=Round|Shape=Rectangle|*
%AMROTATEDRECTD96*
4,1,4,-0.0043,0.9083,0.6931,-0.5871,0.0043,-0.9083,-0.6931,0.5871,-0.0043,0.9083,0.0*
%
%ADD96ROTATEDRECTD96*%

%ADD97R,0.2000X0.2000*%
%ADD98C,0.3100*%
%ADD112C,0.6604*%
%ADD113C,2.8800*%
%ADD114C,3.1000*%
%ADD115C,5.0000*%
G04:AMPARAMS|DCode=116|XSize=1.524mm|YSize=1.524mm|CornerRadius=0.1905mm|HoleSize=0mm|Usage=FLASHONLY|Rotation=270.000|XOffset=0mm|YOffset=0mm|HoleType=Round|Shape=RoundedRectangle|*
%AMROUNDEDRECTD116*
21,1,1.5240,1.1430,0,0,270.0*
21,1,1.1430,1.5240,0,0,270.0*
1,1,0.3810,-0.5715,-0.5715*
1,1,0.3810,-0.5715,0.5715*
1,1,0.3810,0.5715,0.5715*
1,1,0.3810,0.5715,-0.5715*
%
%ADD116ROUNDEDRECTD116*%
%ADD117C,1.6000*%
%ADD118C,1.4000*%
G04:AMPARAMS|DCode=119|XSize=1.4mm|YSize=1.4mm|CornerRadius=0.35mm|HoleSize=0mm|Usage=FLASHONLY|Rotation=90.000|XOffset=0mm|YOffset=0mm|HoleType=Round|Shape=RoundedRectangle|*
%AMROUNDEDRECTD119*
21,1,1.4000,0.7000,0,0,90.0*
21,1,0.7000,1.4000,0,0,90.0*
1,1,0.7000,0.3500,0.3500*
1,1,0.7000,0.3500,-0.3500*
1,1,0.7000,-0.3500,-0.3500*
1,1,0.7000,-0.3500,0.3500*
%
%ADD119ROUNDEDRECTD119*%
%ADD120O,5.0000X2.0000*%
%ADD121O,2.2000X5.0000*%
%ADD122O,2.0000X5.0000*%
D17*
X195500Y454750D02*
D03*
X185500D02*
D03*
X226500Y198500D02*
D03*
X216500D02*
D03*
X184750Y254000D02*
D03*
X174750D02*
D03*
X464000Y633750D02*
D03*
X454000D02*
D03*
X454000Y616000D02*
D03*
X464000D02*
D03*
X688375Y195750D02*
D03*
X678375D02*
D03*
X556500Y172500D02*
D03*
X546500D02*
D03*
X608250Y219250D02*
D03*
X618250D02*
D03*
X827250Y265750D02*
D03*
X837250D02*
D03*
X776625Y248750D02*
D03*
X766625D02*
D03*
X1183244Y315256D02*
D03*
X1173244Y315256D02*
D03*
X1099250Y356500D02*
D03*
X1089250D02*
D03*
X348990Y315826D02*
D03*
X358990D02*
D03*
X356445Y516411D02*
D03*
X366445D02*
D03*
X281809Y359372D02*
D03*
X291809D02*
D03*
X281813Y369263D02*
D03*
X291813D02*
D03*
X356445Y547411D02*
D03*
X366445D02*
D03*
X259594Y507383D02*
D03*
X269594D02*
D03*
X866000Y671500D02*
D03*
X856000D02*
D03*
X1055125Y453750D02*
D03*
X1045125D02*
D03*
X874750Y638500D02*
D03*
X884750D02*
D03*
X1037625Y200250D02*
D03*
X1027625D02*
D03*
X572750Y668250D02*
D03*
X562750D02*
D03*
X592750Y668250D02*
D03*
X602750D02*
D03*
X700000Y363500D02*
D03*
X690000D02*
D03*
X285296Y470523D02*
D03*
X275296D02*
D03*
X275296Y480523D02*
D03*
X285296D02*
D03*
X588750Y185250D02*
D03*
X598750D02*
D03*
X720250Y225750D02*
D03*
X730250D02*
D03*
X796250Y277000D02*
D03*
X786250D02*
D03*
X629476Y664765D02*
D03*
X619476D02*
D03*
X1099250Y388500D02*
D03*
X1089250Y388500D02*
D03*
X259500Y443500D02*
D03*
X269500D02*
D03*
D18*
X187760Y360061D02*
D03*
X180689Y352990D02*
D03*
X339700Y198950D02*
D03*
X332629Y191879D02*
D03*
X267750Y217000D02*
D03*
X260679Y209929D02*
D03*
X189983Y597167D02*
D03*
X197054Y604238D02*
D03*
X430388Y522754D02*
D03*
X423317Y515683D02*
D03*
X295399Y321987D02*
D03*
X302470Y329058D02*
D03*
X458863Y215679D02*
D03*
X465934Y222750D02*
D03*
X302470Y314915D02*
D03*
X309541Y321987D02*
D03*
X398796Y337272D02*
D03*
X391725Y330201D02*
D03*
X423317Y529826D02*
D03*
X416246Y522755D02*
D03*
X460665Y514954D02*
D03*
X453594Y507883D02*
D03*
X284410Y553368D02*
D03*
X277338Y546297D02*
D03*
X420716Y315352D02*
D03*
X413645Y308281D02*
D03*
X299259Y524377D02*
D03*
X306330Y531448D02*
D03*
X415347Y559947D02*
D03*
X408276Y552876D02*
D03*
D19*
X468625Y237462D02*
D03*
X471100Y239937D02*
D03*
X473575Y242412D02*
D03*
X479585Y236401D02*
D03*
X477110Y233926D02*
D03*
X474635Y231451D02*
D03*
X484950Y620000D02*
D03*
X482475Y617525D02*
D03*
X480000Y615050D02*
D03*
X473990Y621061D02*
D03*
X476465Y623536D02*
D03*
X478939Y626010D02*
D03*
X216143Y611306D02*
D03*
X213669Y608831D02*
D03*
X211194Y606357D02*
D03*
X205183Y612367D02*
D03*
X207658Y614842D02*
D03*
X210133Y617317D02*
D03*
D20*
X229000Y218000D02*
D03*
Y228000D02*
D03*
X487000Y592000D02*
D03*
Y602000D02*
D03*
X976000Y220250D02*
D03*
Y210250D02*
D03*
X679750Y227250D02*
D03*
X679750Y217250D02*
D03*
X1213244Y290756D02*
D03*
Y280756D02*
D03*
X1123750Y386500D02*
D03*
Y396500D02*
D03*
X408000Y211250D02*
D03*
Y221250D02*
D03*
X393594Y552633D02*
D03*
Y542633D02*
D03*
X366445Y536911D02*
D03*
Y526911D02*
D03*
X348990Y295326D02*
D03*
Y305326D02*
D03*
X358990Y295326D02*
D03*
Y305326D02*
D03*
X295904Y470527D02*
D03*
Y480527D02*
D03*
X356445Y526911D02*
D03*
Y536911D02*
D03*
X329454Y552649D02*
D03*
Y542649D02*
D03*
X492164Y209000D02*
D03*
Y219000D02*
D03*
X302309Y359372D02*
D03*
Y369372D02*
D03*
X588500Y146500D02*
D03*
Y156500D02*
D03*
X1042500Y430750D02*
D03*
Y420750D02*
D03*
X1065750Y493875D02*
D03*
Y503875D02*
D03*
X1031750Y513250D02*
D03*
Y523250D02*
D03*
X985375Y149000D02*
D03*
Y159000D02*
D03*
X727250Y474750D02*
D03*
Y484750D02*
D03*
X551500Y332000D02*
D03*
Y322000D02*
D03*
X264796Y470523D02*
D03*
Y480523D02*
D03*
X628000Y452500D02*
D03*
Y442500D02*
D03*
X1182289Y280744D02*
D03*
Y290744D02*
D03*
X1192289Y280744D02*
D03*
X1192289Y290744D02*
D03*
X1113750Y396500D02*
D03*
Y386500D02*
D03*
X546500Y146500D02*
D03*
Y156500D02*
D03*
X567500Y146500D02*
D03*
Y156500D02*
D03*
D21*
X243500Y205500D02*
D03*
Y202000D02*
D03*
Y198500D02*
D03*
X235000D02*
D03*
X235000Y202000D02*
D03*
Y205500D02*
D03*
D22*
X226750Y595750D02*
D03*
X219679Y602821D02*
D03*
X197052Y630398D02*
D03*
X204123Y623327D02*
D03*
X254523Y530954D02*
D03*
X261594Y523883D02*
D03*
X299773Y576204D02*
D03*
X306844Y569133D02*
D03*
X291834Y545944D02*
D03*
X298905Y538873D02*
D03*
X284763Y538873D02*
D03*
X291834Y531802D02*
D03*
X413291Y322777D02*
D03*
X406220Y329848D02*
D03*
X316970Y329303D02*
D03*
X309899Y336374D02*
D03*
X406220Y315706D02*
D03*
X399149Y322777D02*
D03*
X465089Y245947D02*
D03*
X458018Y253018D02*
D03*
X437813Y530179D02*
D03*
X430742Y537250D02*
D03*
X408821Y515330D02*
D03*
X415892Y508259D02*
D03*
X349035Y623214D02*
D03*
X341964Y630285D02*
D03*
D23*
X699250Y451000D02*
D03*
Y485000D02*
D03*
X408000Y198250D02*
D03*
X408000Y164250D02*
D03*
X492164Y198000D02*
D03*
Y164000D02*
D03*
X699500Y433250D02*
D03*
Y399250D02*
D03*
D24*
X716250Y468000D02*
D03*
X682250D02*
D03*
X391000Y181250D02*
D03*
X425000Y181250D02*
D03*
X475164Y181000D02*
D03*
X509164D02*
D03*
X682500Y416250D02*
D03*
X716500D02*
D03*
D25*
X699250Y484000D02*
D03*
Y452000D02*
D03*
X408000Y165250D02*
D03*
Y197250D02*
D03*
X492164Y165000D02*
D03*
Y197000D02*
D03*
X699500Y400250D02*
D03*
Y432250D02*
D03*
D26*
X685250Y468000D02*
D03*
X713250D02*
D03*
X422000Y181250D02*
D03*
X394000Y181250D02*
D03*
X506164Y181000D02*
D03*
X478164D02*
D03*
X713500Y416250D02*
D03*
X685500D02*
D03*
D27*
X652875Y568500D02*
D03*
X652875Y551500D02*
D03*
X577000Y294250D02*
D03*
Y277250D02*
D03*
X574250Y338500D02*
D03*
X574250Y321500D02*
D03*
X610000Y551250D02*
D03*
X610000Y568250D02*
D03*
X632000Y529750D02*
D03*
Y512750D02*
D03*
D28*
X1169500Y325750D02*
D03*
X1179500D02*
D03*
X714500Y363750D02*
D03*
X724500D02*
D03*
X688375Y185250D02*
D03*
X678375D02*
D03*
X691500Y164750D02*
D03*
X701500D02*
D03*
X678375Y206250D02*
D03*
X688375D02*
D03*
X557500Y273250D02*
D03*
X567500D02*
D03*
X766625Y259250D02*
D03*
X776625D02*
D03*
X805000Y221500D02*
D03*
X815000D02*
D03*
X1183244Y304756D02*
D03*
X1173244D02*
D03*
X1169494Y336756D02*
D03*
X1179494D02*
D03*
X1089250Y367000D02*
D03*
X1099250Y367000D02*
D03*
X346445Y505911D02*
D03*
X356445D02*
D03*
X376445Y505911D02*
D03*
X366445D02*
D03*
X975350Y277000D02*
D03*
X985350D02*
D03*
X1016750Y477250D02*
D03*
X1006750D02*
D03*
X1055125Y443250D02*
D03*
X1045125D02*
D03*
X1086250Y503875D02*
D03*
X1076250D02*
D03*
X1024125Y146000D02*
D03*
X1034125D02*
D03*
X618250Y208750D02*
D03*
X608250D02*
D03*
X569750Y242750D02*
D03*
X579750D02*
D03*
X964875Y159000D02*
D03*
X974875D02*
D03*
X616750Y384500D02*
D03*
X606750D02*
D03*
X616750Y395750D02*
D03*
X606750D02*
D03*
X558500Y256250D02*
D03*
X568500D02*
D03*
X1013750Y382500D02*
D03*
X1023750D02*
D03*
X1035750D02*
D03*
X1045750D02*
D03*
X1013750Y394500D02*
D03*
X1023750D02*
D03*
X1035750D02*
D03*
X1045750D02*
D03*
X1013750Y370500D02*
D03*
X1023750D02*
D03*
X1035750D02*
D03*
X1045750D02*
D03*
X1035750Y358500D02*
D03*
X1045750D02*
D03*
X1013750D02*
D03*
X1023750D02*
D03*
X616750Y406750D02*
D03*
X606750D02*
D03*
X1099250Y378000D02*
D03*
X1089250D02*
D03*
X993000Y310000D02*
D03*
X1003000D02*
D03*
X993000Y332000D02*
D03*
X1003000D02*
D03*
X993000Y321000D02*
D03*
X1003000D02*
D03*
X605250Y493000D02*
D03*
X595250D02*
D03*
X644250Y525000D02*
D03*
X654250D02*
D03*
X617000Y493000D02*
D03*
X627000D02*
D03*
X654250Y536000D02*
D03*
X644250D02*
D03*
X358990Y284826D02*
D03*
X348990D02*
D03*
X573000Y479500D02*
D03*
X563000D02*
D03*
D29*
X815750Y661250D02*
D03*
D30*
Y656250D02*
D03*
Y651250D02*
D03*
Y646250D02*
D03*
Y641250D02*
D03*
X857750Y661250D02*
D03*
Y656250D02*
D03*
Y651250D02*
D03*
Y646250D02*
D03*
Y641250D02*
D03*
D31*
X836750Y651250D02*
D03*
D32*
X801750Y248750D02*
D03*
X1020875Y173250D02*
D03*
X713500Y196750D02*
D03*
X583000Y215500D02*
D03*
X1020000Y450000D02*
D03*
D33*
X792000Y262500D02*
D03*
X798500D02*
D03*
X805000D02*
D03*
X811500D02*
D03*
Y235000D02*
D03*
X805000D02*
D03*
X798500D02*
D03*
X792000D02*
D03*
X1011125Y159500D02*
D03*
X1017625D02*
D03*
X1024125D02*
D03*
X1030625D02*
D03*
Y187000D02*
D03*
X1024125D02*
D03*
X1017625D02*
D03*
X1011125D02*
D03*
X703750Y210500D02*
D03*
X710250D02*
D03*
X716750D02*
D03*
X723250D02*
D03*
Y183000D02*
D03*
X716750D02*
D03*
X710250D02*
D03*
X703750D02*
D03*
X592750Y201750D02*
D03*
X586250D02*
D03*
X579750D02*
D03*
X573250D02*
D03*
Y229250D02*
D03*
X579750D02*
D03*
X586250D02*
D03*
X592750D02*
D03*
X1029750Y463750D02*
D03*
X1023250D02*
D03*
X1016750D02*
D03*
X1010250D02*
D03*
Y436250D02*
D03*
X1016750D02*
D03*
X1023250D02*
D03*
X1029750D02*
D03*
D34*
X1075750Y519250D02*
D03*
Y525750D02*
D03*
Y532250D02*
D03*
Y538750D02*
D03*
X1048250D02*
D03*
Y532250D02*
D03*
Y525750D02*
D03*
Y519250D02*
D03*
D35*
X1062000Y529000D02*
D03*
D36*
X609250Y361500D02*
D03*
Y351500D02*
D03*
X976250Y264500D02*
D03*
Y254500D02*
D03*
X976000Y189250D02*
D03*
Y199250D02*
D03*
X776625Y224500D02*
D03*
Y234500D02*
D03*
X1202744Y290756D02*
D03*
Y280756D02*
D03*
X270710Y359213D02*
D03*
Y369213D02*
D03*
X988000Y521250D02*
D03*
Y511250D02*
D03*
X776500Y156500D02*
D03*
Y146500D02*
D03*
X636500Y156500D02*
D03*
Y146500D02*
D03*
X599500Y361500D02*
D03*
Y351500D02*
D03*
X1045125Y474250D02*
D03*
Y464250D02*
D03*
X608125Y239750D02*
D03*
Y229750D02*
D03*
X1089250Y532250D02*
D03*
Y542250D02*
D03*
X1055250Y493875D02*
D03*
X1055250Y503875D02*
D03*
X995750Y149000D02*
D03*
Y159000D02*
D03*
X619250Y361500D02*
D03*
Y351500D02*
D03*
X886250Y650750D02*
D03*
Y660750D02*
D03*
X875250Y650750D02*
D03*
Y660750D02*
D03*
X579500Y256250D02*
D03*
Y266250D02*
D03*
X557000Y146500D02*
D03*
Y156500D02*
D03*
X578000Y146500D02*
D03*
Y156500D02*
D03*
X652250Y448750D02*
D03*
Y458750D02*
D03*
X1133750Y396500D02*
D03*
Y386500D02*
D03*
X306296Y480523D02*
D03*
Y490523D02*
D03*
X306296Y470523D02*
D03*
Y460523D02*
D03*
X860015Y159525D02*
D03*
Y149525D02*
D03*
X871000Y159500D02*
D03*
Y149500D02*
D03*
X882000Y159500D02*
D03*
Y149500D02*
D03*
X893000Y159500D02*
D03*
Y149500D02*
D03*
D37*
X159507Y254007D02*
D03*
X125507D02*
D03*
X182750Y637250D02*
D03*
X148750Y637250D02*
D03*
X159500Y454750D02*
D03*
X125500Y454750D02*
D03*
X318000Y184000D02*
D03*
X284000D02*
D03*
X159500Y341750D02*
D03*
X125500D02*
D03*
X441250Y633750D02*
D03*
X407250D02*
D03*
X201250Y198500D02*
D03*
X167250Y198500D02*
D03*
X325500Y633600D02*
D03*
X291500D02*
D03*
D38*
X142507Y271007D02*
D03*
Y237007D02*
D03*
X165750Y654250D02*
D03*
X165750Y620250D02*
D03*
X142500Y471750D02*
D03*
X142500Y437750D02*
D03*
X301000Y201000D02*
D03*
Y167000D02*
D03*
X142500Y358750D02*
D03*
Y324750D02*
D03*
X424250Y650750D02*
D03*
Y616750D02*
D03*
X184250Y215500D02*
D03*
X184250Y181500D02*
D03*
X308500Y650600D02*
D03*
Y616600D02*
D03*
D39*
X126507Y254007D02*
D03*
X158507D02*
D03*
X149750Y637250D02*
D03*
X181750D02*
D03*
X126500Y454750D02*
D03*
X158500Y454750D02*
D03*
X285000Y184000D02*
D03*
X317000Y184000D02*
D03*
X126500Y341750D02*
D03*
X158500D02*
D03*
X408250Y633750D02*
D03*
X440250D02*
D03*
X168250Y198500D02*
D03*
X200250D02*
D03*
X292500Y633600D02*
D03*
X324500D02*
D03*
D40*
X142507Y240007D02*
D03*
Y268007D02*
D03*
X165750Y623250D02*
D03*
X165750Y651250D02*
D03*
X142500Y440750D02*
D03*
X142500Y468750D02*
D03*
X301000Y170000D02*
D03*
Y198000D02*
D03*
X142500Y327750D02*
D03*
Y355750D02*
D03*
X424250Y619750D02*
D03*
Y647750D02*
D03*
X184250Y184500D02*
D03*
X184250Y212500D02*
D03*
X308500Y619600D02*
D03*
Y647600D02*
D03*
D41*
X558000Y185500D02*
D03*
X578000D02*
D03*
X827250Y278000D02*
D03*
X807250D02*
D03*
X275197Y494620D02*
D03*
X295197D02*
D03*
X275204Y456170D02*
D03*
X295204D02*
D03*
X641125Y551500D02*
D03*
X621125D02*
D03*
X689750Y226750D02*
D03*
X709750Y226750D02*
D03*
X551500Y309750D02*
D03*
X571500D02*
D03*
D42*
X554500Y430250D02*
D03*
X559500D02*
D03*
X564500D02*
D03*
X569500D02*
D03*
Y402250D02*
D03*
X564500D02*
D03*
X559500D02*
D03*
X554500D02*
D03*
D43*
X562000Y416250D02*
D03*
D44*
X598860Y275100D02*
D03*
X598860Y292150D02*
D03*
X598860Y309200D02*
D03*
X598860Y326250D02*
D03*
Y258050D02*
D03*
D45*
X689860Y292150D02*
D03*
D46*
X1224244Y327756D02*
D03*
D47*
X1209744D02*
D03*
D48*
X1195744Y315256D02*
D03*
Y320256D02*
D03*
Y325256D02*
D03*
X1195744Y330256D02*
D03*
Y335256D02*
D03*
X1195744Y340256D02*
D03*
X1235744Y340256D02*
D03*
Y335256D02*
D03*
X1235744Y330256D02*
D03*
X1235744Y325256D02*
D03*
Y320256D02*
D03*
Y315256D02*
D03*
X1156250Y366500D02*
D03*
Y361500D02*
D03*
Y356500D02*
D03*
X1156250Y351500D02*
D03*
Y346500D02*
D03*
X1156250Y341500D02*
D03*
X1116250Y341500D02*
D03*
X1116250Y346500D02*
D03*
Y351500D02*
D03*
X1116250Y356500D02*
D03*
Y361500D02*
D03*
Y366500D02*
D03*
D49*
X1203244Y347756D02*
D03*
X1208244D02*
D03*
X1213244D02*
D03*
X1218244Y347756D02*
D03*
X1223244D02*
D03*
X1228244Y347756D02*
D03*
X1228244Y307756D02*
D03*
X1223244Y307756D02*
D03*
X1218244D02*
D03*
X1213244Y307756D02*
D03*
X1208244D02*
D03*
X1203244Y307756D02*
D03*
X1123750Y374000D02*
D03*
X1128750Y374000D02*
D03*
X1133750D02*
D03*
X1138750Y374000D02*
D03*
X1143750D02*
D03*
X1148750Y374000D02*
D03*
Y334000D02*
D03*
X1143750D02*
D03*
X1138750D02*
D03*
X1133750D02*
D03*
X1128750D02*
D03*
X1123750Y334000D02*
D03*
D50*
X1289528Y319699D02*
D03*
Y349699D02*
D03*
X1266994Y319756D02*
D03*
Y349756D02*
D03*
X1311789Y349744D02*
D03*
Y319744D02*
D03*
D51*
X380650Y537014D02*
D03*
Y517014D02*
D03*
X342200Y537007D02*
D03*
Y517007D02*
D03*
X592750Y539250D02*
D03*
X592750Y519250D02*
D03*
D52*
X274627Y528759D02*
D03*
X288769Y514617D02*
D03*
X301810Y555953D02*
D03*
X315952Y541811D02*
D03*
D53*
X413312Y539966D02*
D03*
X399170Y525824D02*
D03*
X440506Y512783D02*
D03*
X426364Y498641D02*
D03*
D54*
X337360Y318595D02*
D03*
X328121Y322421D02*
D03*
X325305Y289492D02*
D03*
X316066Y293319D02*
D03*
D55*
X1136250Y345500D02*
D03*
D56*
Y360000D02*
D03*
D57*
X1241789Y251494D02*
D03*
X1322289Y251494D02*
D03*
D58*
X320084Y303020D02*
D03*
X323911Y312259D02*
D03*
X329323Y299193D02*
D03*
X333150Y308432D02*
D03*
D59*
X415539Y493763D02*
D03*
X408468Y500834D02*
D03*
X394326Y514976D02*
D03*
X401397Y507905D02*
D03*
X287974Y314562D02*
D03*
X295045Y307491D02*
D03*
D60*
X380860Y300009D02*
D03*
X376633Y309072D02*
D03*
X389923Y304235D02*
D03*
X385696Y313298D02*
D03*
D61*
X381263Y322706D02*
D03*
X372200Y318480D02*
D03*
D62*
X320830Y530986D02*
D03*
X313759Y523915D02*
D03*
X299617Y509773D02*
D03*
X306688Y516844D02*
D03*
D63*
X443452Y303506D02*
D03*
X434472Y294525D02*
D03*
X425491Y285545D02*
D03*
X447977Y263059D02*
D03*
X456958Y272039D02*
D03*
X465938Y281020D02*
D03*
X228367Y576380D02*
D03*
X237347Y585360D02*
D03*
X246327Y594341D02*
D03*
X268813Y571855D02*
D03*
X259833Y562874D02*
D03*
X250853Y553894D02*
D03*
D64*
X242122Y480223D02*
D03*
Y467523D02*
D03*
X242122Y454823D02*
D03*
X210322Y454823D02*
D03*
X210322Y480223D02*
D03*
X247209Y374072D02*
D03*
Y361372D02*
D03*
Y348672D02*
D03*
X215409D02*
D03*
Y374072D02*
D03*
D65*
X442338Y559736D02*
D03*
X451319Y550756D02*
D03*
X460299Y541776D02*
D03*
X482785Y564262D02*
D03*
X473805Y573242D02*
D03*
X464824Y582222D02*
D03*
X243002Y280479D02*
D03*
X260963Y262519D02*
D03*
X283449Y285005D02*
D03*
X274468Y293985D02*
D03*
X265488Y302965D02*
D03*
D66*
X378145Y571511D02*
D03*
X365445Y571511D02*
D03*
X352745D02*
D03*
Y603311D02*
D03*
X378145Y603311D02*
D03*
X345290Y260726D02*
D03*
X357990Y260726D02*
D03*
X370690D02*
D03*
X370690Y228926D02*
D03*
X345290D02*
D03*
D67*
X1156750Y252250D02*
D03*
X1126750D02*
D03*
X1126434Y274620D02*
D03*
X1156434D02*
D03*
X1126500Y296750D02*
D03*
X1156500D02*
D03*
D68*
X957250Y188300D02*
D03*
Y201000D02*
D03*
X957250Y213700D02*
D03*
X957250Y226400D02*
D03*
Y239100D02*
D03*
X957250Y251800D02*
D03*
X957250Y264500D02*
D03*
X860250Y188300D02*
D03*
Y201000D02*
D03*
X860250Y213700D02*
D03*
X860250Y226400D02*
D03*
Y239100D02*
D03*
X860250Y251800D02*
D03*
X860250Y264500D02*
D03*
X957250Y277200D02*
D03*
X860250D02*
D03*
D69*
X736500Y35000D02*
D03*
X716500D02*
D03*
X686500D02*
D03*
X756500D02*
D03*
X706500D02*
D03*
X726500D02*
D03*
X746500D02*
D03*
X766500D02*
D03*
X696500D02*
D03*
X656500D02*
D03*
X666500D02*
D03*
X676500D02*
D03*
X786500D02*
D03*
X456500D02*
D03*
X466500D02*
D03*
X536500D02*
D03*
X506500D02*
D03*
X476500D02*
D03*
X526500D02*
D03*
X486500D02*
D03*
X496500D02*
D03*
X516500D02*
D03*
X546500D02*
D03*
X556500D02*
D03*
X596500D02*
D03*
X646500D02*
D03*
X606500D02*
D03*
X626500D02*
D03*
X616500D02*
D03*
X586500D02*
D03*
D70*
X776500Y40000D02*
D03*
X636500D02*
D03*
D71*
X1285000Y593357D02*
D03*
X1336000D02*
D03*
X1285000Y567929D02*
D03*
X1336000Y567929D02*
D03*
X1285000Y542500D02*
D03*
X1336000D02*
D03*
X1285000Y517071D02*
D03*
X1336000Y517071D02*
D03*
X1285000Y491643D02*
D03*
X1336000D02*
D03*
D72*
X32500Y190000D02*
D03*
Y176000D02*
D03*
X25500Y176000D02*
D03*
Y190000D02*
D03*
X14000Y190000D02*
D03*
X14000Y176000D02*
D03*
X7000Y176000D02*
D03*
Y190000D02*
D03*
D73*
X1242000Y542750D02*
D03*
X1242000Y503750D02*
D03*
X1229250Y542750D02*
D03*
X1229250Y503750D02*
D03*
X1216500Y542750D02*
D03*
Y503750D02*
D03*
X1203750Y542750D02*
D03*
Y503750D02*
D03*
X1191000Y542750D02*
D03*
X1191000Y503750D02*
D03*
X1161500Y543000D02*
D03*
X1161500Y504000D02*
D03*
X1148750Y543000D02*
D03*
X1148750Y504000D02*
D03*
X1136000Y543000D02*
D03*
X1136000Y504000D02*
D03*
X1123250Y543000D02*
D03*
Y504000D02*
D03*
X1110500Y543000D02*
D03*
X1110500Y504000D02*
D03*
D74*
X928300Y257500D02*
D03*
X915600D02*
D03*
X902900D02*
D03*
X890200D02*
D03*
X928300Y209500D02*
D03*
X915600D02*
D03*
X902900D02*
D03*
X890200D02*
D03*
X667550Y425500D02*
D03*
X654850D02*
D03*
X642150D02*
D03*
X629450D02*
D03*
X667550Y377500D02*
D03*
X654850D02*
D03*
X642150D02*
D03*
X629450D02*
D03*
D75*
X576375Y505750D02*
D03*
X593375D02*
D03*
X561250Y551250D02*
D03*
X578250D02*
D03*
X781250Y652500D02*
D03*
X798250D02*
D03*
X781250Y635250D02*
D03*
X798250D02*
D03*
X820500Y673000D02*
D03*
X837500D02*
D03*
D76*
X760500Y516000D02*
D03*
X770500D02*
D03*
X780500D02*
D03*
X790500D02*
D03*
X800500D02*
D03*
X810500D02*
D03*
X820500D02*
D03*
X830500D02*
D03*
X840500D02*
D03*
X850500D02*
D03*
X860500D02*
D03*
X870500D02*
D03*
X880500D02*
D03*
X890500D02*
D03*
X900500D02*
D03*
X910500D02*
D03*
X920500D02*
D03*
X930500D02*
D03*
X940500D02*
D03*
X950500D02*
D03*
X960500D02*
D03*
X970500D02*
D03*
X760500Y506000D02*
D03*
X770500D02*
D03*
X780500D02*
D03*
X790500D02*
D03*
X800500D02*
D03*
X810500D02*
D03*
X820500D02*
D03*
X830500D02*
D03*
X840500D02*
D03*
X850500D02*
D03*
X860500D02*
D03*
X870500D02*
D03*
X880500D02*
D03*
X890500D02*
D03*
X900500D02*
D03*
X910500D02*
D03*
X920500D02*
D03*
X930500D02*
D03*
X940500D02*
D03*
X950500D02*
D03*
X960500D02*
D03*
X970500D02*
D03*
X760500Y496000D02*
D03*
X770500D02*
D03*
X780500D02*
D03*
X790500D02*
D03*
X800500D02*
D03*
X810500D02*
D03*
X820500D02*
D03*
X830500D02*
D03*
X840500D02*
D03*
X850500D02*
D03*
X860500D02*
D03*
X870500D02*
D03*
X880500D02*
D03*
X890500D02*
D03*
X900500D02*
D03*
X910500D02*
D03*
X920500D02*
D03*
X930500D02*
D03*
X940500D02*
D03*
X950500D02*
D03*
X960500D02*
D03*
X970500D02*
D03*
X760500Y486000D02*
D03*
X770500D02*
D03*
X780500D02*
D03*
X790500D02*
D03*
X800500D02*
D03*
X810500D02*
D03*
X820500D02*
D03*
X830500D02*
D03*
X840500D02*
D03*
X850500D02*
D03*
X860500D02*
D03*
X870500D02*
D03*
X880500D02*
D03*
X890500D02*
D03*
X900500D02*
D03*
X910500D02*
D03*
X920500D02*
D03*
X930500D02*
D03*
X940500D02*
D03*
X950500D02*
D03*
X960500D02*
D03*
X970500D02*
D03*
X760500Y476000D02*
D03*
X770500D02*
D03*
X780500D02*
D03*
X790500D02*
D03*
X800500D02*
D03*
X810500D02*
D03*
X820500D02*
D03*
X830500D02*
D03*
X840500D02*
D03*
X850500D02*
D03*
X860500D02*
D03*
X870500D02*
D03*
X880500D02*
D03*
X890500D02*
D03*
X900500D02*
D03*
X910500D02*
D03*
X920500D02*
D03*
X930500D02*
D03*
X940500D02*
D03*
X950500D02*
D03*
X960500D02*
D03*
X970500D02*
D03*
X760500Y466000D02*
D03*
X770500D02*
D03*
X780500D02*
D03*
X790500D02*
D03*
X800500D02*
D03*
X810500D02*
D03*
X820500D02*
D03*
X830500D02*
D03*
X840500D02*
D03*
X850500D02*
D03*
X860500D02*
D03*
X870500D02*
D03*
X880500D02*
D03*
X890500D02*
D03*
X900500D02*
D03*
X910500D02*
D03*
X920500D02*
D03*
X930500D02*
D03*
X940500D02*
D03*
X950500D02*
D03*
X960500D02*
D03*
X970500D02*
D03*
X760500Y456000D02*
D03*
X770500D02*
D03*
X780500D02*
D03*
X790500D02*
D03*
X800500D02*
D03*
X810500D02*
D03*
X820500D02*
D03*
X830500D02*
D03*
X840500D02*
D03*
X850500D02*
D03*
X860500D02*
D03*
X870500D02*
D03*
X880500D02*
D03*
X890500D02*
D03*
X900500D02*
D03*
X910500D02*
D03*
X920500D02*
D03*
X930500D02*
D03*
X940500D02*
D03*
X950500D02*
D03*
X960500D02*
D03*
X970500D02*
D03*
X760500Y446000D02*
D03*
X770500D02*
D03*
X780500D02*
D03*
X790500D02*
D03*
X800500D02*
D03*
X810500D02*
D03*
X820500D02*
D03*
X830500D02*
D03*
X840500D02*
D03*
X850500D02*
D03*
X860500D02*
D03*
X870500D02*
D03*
X880500D02*
D03*
X890500D02*
D03*
X900500D02*
D03*
X910500D02*
D03*
X920500D02*
D03*
X930500D02*
D03*
X940500D02*
D03*
X950500D02*
D03*
X960500D02*
D03*
X970500D02*
D03*
X760500Y436000D02*
D03*
X770500D02*
D03*
X780500D02*
D03*
X790500D02*
D03*
X800500D02*
D03*
X810500D02*
D03*
X820500D02*
D03*
X830500D02*
D03*
X840500D02*
D03*
X850500D02*
D03*
X860500D02*
D03*
X870500D02*
D03*
X880500D02*
D03*
X890500D02*
D03*
X900500D02*
D03*
X910500D02*
D03*
X920500D02*
D03*
X930500D02*
D03*
X940500D02*
D03*
X950500D02*
D03*
X960500D02*
D03*
X970500D02*
D03*
X760500Y426000D02*
D03*
X770500D02*
D03*
X780500D02*
D03*
X790500D02*
D03*
X800500D02*
D03*
X810500D02*
D03*
X820500D02*
D03*
X830500D02*
D03*
X840500D02*
D03*
X850500D02*
D03*
X860500D02*
D03*
X870500D02*
D03*
X880500D02*
D03*
X890500D02*
D03*
X900500D02*
D03*
X910500D02*
D03*
X920500D02*
D03*
X930500D02*
D03*
X940500D02*
D03*
X950500D02*
D03*
X960500D02*
D03*
X970500D02*
D03*
X760500Y416000D02*
D03*
X770500D02*
D03*
X780500D02*
D03*
X790500D02*
D03*
X800500D02*
D03*
X810500D02*
D03*
X820500D02*
D03*
X830500D02*
D03*
X840500D02*
D03*
X850500D02*
D03*
X860500D02*
D03*
X870500D02*
D03*
X880500D02*
D03*
X890500D02*
D03*
X900500D02*
D03*
X910500D02*
D03*
X920500D02*
D03*
X930500D02*
D03*
X940500D02*
D03*
X950500D02*
D03*
X960500D02*
D03*
X970500D02*
D03*
X760500Y406000D02*
D03*
X770500D02*
D03*
X780500D02*
D03*
X790500D02*
D03*
X800500D02*
D03*
X810500D02*
D03*
X820500D02*
D03*
X830500D02*
D03*
X840500D02*
D03*
X850500D02*
D03*
X860500D02*
D03*
X870500D02*
D03*
X880500D02*
D03*
X890500D02*
D03*
X900500D02*
D03*
X910500D02*
D03*
X920500D02*
D03*
X930500D02*
D03*
X940500D02*
D03*
X950500D02*
D03*
X960500D02*
D03*
X970500D02*
D03*
X760500Y396000D02*
D03*
X770500D02*
D03*
X780500D02*
D03*
X790500D02*
D03*
X800500D02*
D03*
X810500D02*
D03*
X820500D02*
D03*
X830500D02*
D03*
X840500D02*
D03*
X850500D02*
D03*
X860500D02*
D03*
X870500D02*
D03*
X880500D02*
D03*
X890500D02*
D03*
X900500D02*
D03*
X910500D02*
D03*
X920500D02*
D03*
X930500D02*
D03*
X940500D02*
D03*
X950500D02*
D03*
X960500D02*
D03*
X970500D02*
D03*
X760500Y386000D02*
D03*
X770500D02*
D03*
X780500D02*
D03*
X790500D02*
D03*
X800500D02*
D03*
X810500D02*
D03*
X820500D02*
D03*
X830500D02*
D03*
X840500D02*
D03*
X850500D02*
D03*
X860500D02*
D03*
X870500D02*
D03*
X880500D02*
D03*
X890500D02*
D03*
X900500D02*
D03*
X910500D02*
D03*
X920500D02*
D03*
X930500D02*
D03*
X940500D02*
D03*
X950500D02*
D03*
X960500D02*
D03*
X970500D02*
D03*
X760500Y376000D02*
D03*
X770500D02*
D03*
X780500D02*
D03*
X790500D02*
D03*
X800500D02*
D03*
X810500D02*
D03*
X820500D02*
D03*
X830500D02*
D03*
X840500D02*
D03*
X850500D02*
D03*
X860500D02*
D03*
X870500D02*
D03*
X880500D02*
D03*
X890500D02*
D03*
X900500D02*
D03*
X910500D02*
D03*
X920500D02*
D03*
X930500D02*
D03*
X940500D02*
D03*
X950500D02*
D03*
X960500D02*
D03*
X970500D02*
D03*
X760500Y366000D02*
D03*
X770500D02*
D03*
X780500D02*
D03*
X790500D02*
D03*
X800500D02*
D03*
X810500D02*
D03*
X820500D02*
D03*
X830500D02*
D03*
X840500D02*
D03*
X850500D02*
D03*
X860500D02*
D03*
X870500D02*
D03*
X880500D02*
D03*
X890500D02*
D03*
X900500D02*
D03*
X910500D02*
D03*
X920500D02*
D03*
X930500D02*
D03*
X940500D02*
D03*
X950500D02*
D03*
X960500D02*
D03*
X970500D02*
D03*
X760500Y356000D02*
D03*
X770500D02*
D03*
X780500D02*
D03*
X790500D02*
D03*
X800500D02*
D03*
X810500D02*
D03*
X820500D02*
D03*
X830500D02*
D03*
X840500D02*
D03*
X850500D02*
D03*
X860500D02*
D03*
X870500D02*
D03*
X880500D02*
D03*
X890500D02*
D03*
X900500D02*
D03*
X910500D02*
D03*
X920500D02*
D03*
X930500D02*
D03*
X940500D02*
D03*
X950500D02*
D03*
X960500D02*
D03*
X970500D02*
D03*
X760500Y346000D02*
D03*
X770500D02*
D03*
X780500D02*
D03*
X790500D02*
D03*
X800500D02*
D03*
X810500D02*
D03*
X820500D02*
D03*
X830500D02*
D03*
X840500D02*
D03*
X850500D02*
D03*
X860500D02*
D03*
X870500D02*
D03*
X880500D02*
D03*
X890500D02*
D03*
X900500D02*
D03*
X910500D02*
D03*
X920500D02*
D03*
X930500D02*
D03*
X940500D02*
D03*
X950500D02*
D03*
X960500D02*
D03*
X970500D02*
D03*
X760500Y336000D02*
D03*
X770500D02*
D03*
X780500D02*
D03*
X790500D02*
D03*
X800500D02*
D03*
X810500D02*
D03*
X820500D02*
D03*
X830500D02*
D03*
X840500D02*
D03*
X850500D02*
D03*
X860500D02*
D03*
X870500D02*
D03*
X880500D02*
D03*
X890500D02*
D03*
X900500D02*
D03*
X910500D02*
D03*
X920500D02*
D03*
X930500D02*
D03*
X940500D02*
D03*
X950500D02*
D03*
X960500D02*
D03*
X970500D02*
D03*
X760500Y326000D02*
D03*
X770500D02*
D03*
X780500D02*
D03*
X790500D02*
D03*
X800500D02*
D03*
X810500D02*
D03*
X820500D02*
D03*
X830500D02*
D03*
X840500D02*
D03*
X850500D02*
D03*
X860500D02*
D03*
X870500D02*
D03*
X880500D02*
D03*
X890500D02*
D03*
X900500D02*
D03*
X910500D02*
D03*
X920500D02*
D03*
X930500D02*
D03*
X940500D02*
D03*
X950500D02*
D03*
X960500D02*
D03*
X970500D02*
D03*
X760500Y316000D02*
D03*
X770500D02*
D03*
X780500D02*
D03*
X790500D02*
D03*
X800500D02*
D03*
X810500D02*
D03*
X820500D02*
D03*
X830500D02*
D03*
X840500D02*
D03*
X850500D02*
D03*
X860500D02*
D03*
X870500D02*
D03*
X880500D02*
D03*
X890500D02*
D03*
X900500D02*
D03*
X910500D02*
D03*
X920500D02*
D03*
X930500D02*
D03*
X940500D02*
D03*
X950500D02*
D03*
X960500D02*
D03*
X970500D02*
D03*
X760500Y306000D02*
D03*
X770500D02*
D03*
X780500D02*
D03*
X790500D02*
D03*
X800500D02*
D03*
X810500D02*
D03*
X820500D02*
D03*
X830500D02*
D03*
X840500D02*
D03*
X850500D02*
D03*
X860500D02*
D03*
X870500D02*
D03*
X880500D02*
D03*
X890500D02*
D03*
X900500D02*
D03*
X910500D02*
D03*
X920500D02*
D03*
X930500D02*
D03*
X940500D02*
D03*
X950500D02*
D03*
X960500D02*
D03*
X970500D02*
D03*
D77*
X1059872Y327870D02*
D03*
Y247370D02*
D03*
D78*
X1172050Y641250D02*
D03*
Y624250D02*
D03*
X1145051Y641250D02*
D03*
Y624250D02*
D03*
X1118000Y641250D02*
D03*
Y624250D02*
D03*
X1091551Y641250D02*
D03*
Y624250D02*
D03*
X1057750Y641250D02*
D03*
Y624250D02*
D03*
D79*
X1243350Y661250D02*
D03*
X1230650D02*
D03*
X1217950D02*
D03*
X1205250D02*
D03*
Y598250D02*
D03*
X1217950D02*
D03*
X1230650D02*
D03*
X1243350D02*
D03*
D80*
X1144000Y432750D02*
D03*
X1196500D02*
D03*
D81*
X1162700Y413700D02*
D03*
Y426400D02*
D03*
Y439100D02*
D03*
Y451800D02*
D03*
X1105300Y413700D02*
D03*
Y426400D02*
D03*
Y439100D02*
D03*
Y451800D02*
D03*
X1177800Y451800D02*
D03*
Y439100D02*
D03*
Y426400D02*
D03*
Y413700D02*
D03*
X1235200Y451800D02*
D03*
Y439100D02*
D03*
Y426400D02*
D03*
Y413700D02*
D03*
D82*
X683750Y524000D02*
D03*
Y516000D02*
D03*
Y508000D02*
D03*
X683750Y500000D02*
D03*
X699750Y524000D02*
D03*
Y516000D02*
D03*
X699750Y508000D02*
D03*
Y500000D02*
D03*
X680250Y627500D02*
D03*
Y635500D02*
D03*
Y643500D02*
D03*
X680250Y651500D02*
D03*
X664250Y627500D02*
D03*
Y635500D02*
D03*
Y643500D02*
D03*
Y651500D02*
D03*
D83*
X717750Y658750D02*
D03*
X709750D02*
D03*
X701750D02*
D03*
X693750Y658750D02*
D03*
X717750Y642750D02*
D03*
X709750D02*
D03*
X701750D02*
D03*
X693750Y642750D02*
D03*
X978250Y659500D02*
D03*
X970250D02*
D03*
X962250D02*
D03*
X954250Y659500D02*
D03*
X978250Y643500D02*
D03*
X970250D02*
D03*
X962250D02*
D03*
X954250Y643500D02*
D03*
D84*
X722000Y564000D02*
D03*
Y572000D02*
D03*
Y604000D02*
D03*
Y612000D02*
D03*
Y620000D02*
D03*
X730000Y556000D02*
D03*
Y564000D02*
D03*
Y572000D02*
D03*
Y604000D02*
D03*
Y612000D02*
D03*
X738000Y564000D02*
D03*
Y572000D02*
D03*
Y604000D02*
D03*
Y612000D02*
D03*
Y620000D02*
D03*
X746000Y556000D02*
D03*
Y564000D02*
D03*
Y572000D02*
D03*
Y604000D02*
D03*
Y612000D02*
D03*
X754000Y564000D02*
D03*
Y572000D02*
D03*
Y604000D02*
D03*
Y612000D02*
D03*
Y620000D02*
D03*
X762000Y556000D02*
D03*
Y564000D02*
D03*
Y572000D02*
D03*
Y604000D02*
D03*
Y612000D02*
D03*
X770000Y556000D02*
D03*
Y564000D02*
D03*
Y572000D02*
D03*
Y604000D02*
D03*
Y612000D02*
D03*
Y620000D02*
D03*
X778000Y556000D02*
D03*
Y564000D02*
D03*
Y572000D02*
D03*
Y604000D02*
D03*
Y612000D02*
D03*
Y620000D02*
D03*
X786000Y556000D02*
D03*
Y564000D02*
D03*
Y572000D02*
D03*
Y604000D02*
D03*
Y612000D02*
D03*
Y620000D02*
D03*
X794000Y556000D02*
D03*
Y564000D02*
D03*
Y572000D02*
D03*
Y604000D02*
D03*
Y612000D02*
D03*
Y620000D02*
D03*
X802000Y556000D02*
D03*
Y564000D02*
D03*
Y572000D02*
D03*
Y604000D02*
D03*
Y612000D02*
D03*
Y620000D02*
D03*
X810000Y556000D02*
D03*
Y564000D02*
D03*
Y572000D02*
D03*
Y604000D02*
D03*
Y612000D02*
D03*
Y620000D02*
D03*
X818000Y556000D02*
D03*
Y564000D02*
D03*
Y572000D02*
D03*
Y604000D02*
D03*
Y612000D02*
D03*
Y620000D02*
D03*
X826000Y556000D02*
D03*
Y564000D02*
D03*
Y572000D02*
D03*
Y604000D02*
D03*
Y612000D02*
D03*
Y620000D02*
D03*
X834000Y556000D02*
D03*
Y564000D02*
D03*
Y572000D02*
D03*
Y604000D02*
D03*
Y612000D02*
D03*
Y620000D02*
D03*
X1008500Y620500D02*
D03*
Y612500D02*
D03*
Y604500D02*
D03*
Y572500D02*
D03*
Y564500D02*
D03*
Y556500D02*
D03*
X1000500Y620500D02*
D03*
Y612500D02*
D03*
Y604500D02*
D03*
Y572500D02*
D03*
X1000500Y564500D02*
D03*
Y556500D02*
D03*
X992500Y620500D02*
D03*
Y612500D02*
D03*
Y604500D02*
D03*
Y572500D02*
D03*
Y564500D02*
D03*
Y556500D02*
D03*
X984500Y620500D02*
D03*
Y612500D02*
D03*
Y604500D02*
D03*
Y572500D02*
D03*
Y564500D02*
D03*
Y556500D02*
D03*
X976500Y620500D02*
D03*
Y612500D02*
D03*
Y604500D02*
D03*
Y572500D02*
D03*
Y564500D02*
D03*
Y556500D02*
D03*
X968500Y620500D02*
D03*
Y612500D02*
D03*
X968500Y604500D02*
D03*
X968500Y572500D02*
D03*
X968500Y564500D02*
D03*
Y556500D02*
D03*
X960500Y620500D02*
D03*
Y612500D02*
D03*
Y604500D02*
D03*
Y572500D02*
D03*
X960500Y564500D02*
D03*
Y556500D02*
D03*
X952500Y620500D02*
D03*
Y612500D02*
D03*
Y604500D02*
D03*
Y572500D02*
D03*
Y564500D02*
D03*
Y556500D02*
D03*
X944500Y620500D02*
D03*
Y612500D02*
D03*
Y604500D02*
D03*
Y572500D02*
D03*
Y564500D02*
D03*
Y556500D02*
D03*
X936500Y612500D02*
D03*
Y604500D02*
D03*
Y572500D02*
D03*
Y564500D02*
D03*
Y556500D02*
D03*
X928500Y620500D02*
D03*
Y612500D02*
D03*
Y604500D02*
D03*
Y572500D02*
D03*
Y564500D02*
D03*
X920500Y612500D02*
D03*
Y604500D02*
D03*
Y572500D02*
D03*
Y564500D02*
D03*
Y556500D02*
D03*
X912500Y620500D02*
D03*
Y612500D02*
D03*
X912500Y604500D02*
D03*
X912500Y572500D02*
D03*
X912500Y564500D02*
D03*
X904500Y612500D02*
D03*
Y604500D02*
D03*
Y572500D02*
D03*
Y564500D02*
D03*
Y556500D02*
D03*
X896500Y620500D02*
D03*
Y612500D02*
D03*
Y604500D02*
D03*
Y572500D02*
D03*
Y564500D02*
D03*
D85*
X683500Y616500D02*
D03*
Y611500D02*
D03*
Y606500D02*
D03*
Y601500D02*
D03*
Y596500D02*
D03*
Y591500D02*
D03*
Y586500D02*
D03*
Y581500D02*
D03*
X700500Y616500D02*
D03*
Y611500D02*
D03*
Y606500D02*
D03*
Y601500D02*
D03*
X700500Y596500D02*
D03*
X700500Y591500D02*
D03*
Y586500D02*
D03*
Y581500D02*
D03*
X683500Y571500D02*
D03*
Y566500D02*
D03*
Y561500D02*
D03*
Y556500D02*
D03*
Y551500D02*
D03*
Y546500D02*
D03*
Y541500D02*
D03*
Y536500D02*
D03*
X700500Y571500D02*
D03*
Y566500D02*
D03*
Y561500D02*
D03*
Y556500D02*
D03*
X700500Y551500D02*
D03*
X700500Y546500D02*
D03*
Y541500D02*
D03*
Y536500D02*
D03*
X858000Y617000D02*
D03*
Y612000D02*
D03*
Y607000D02*
D03*
Y602000D02*
D03*
Y597000D02*
D03*
Y592000D02*
D03*
Y587000D02*
D03*
Y582000D02*
D03*
X875000Y617000D02*
D03*
Y612000D02*
D03*
Y607000D02*
D03*
Y602000D02*
D03*
X875000Y597000D02*
D03*
X875000Y592000D02*
D03*
Y587000D02*
D03*
Y582000D02*
D03*
X858000Y572000D02*
D03*
Y567000D02*
D03*
Y562000D02*
D03*
Y557000D02*
D03*
Y552000D02*
D03*
Y547000D02*
D03*
Y542000D02*
D03*
Y537000D02*
D03*
X875000Y572000D02*
D03*
Y567000D02*
D03*
Y562000D02*
D03*
Y557000D02*
D03*
X875000Y552000D02*
D03*
X875000Y547000D02*
D03*
Y542000D02*
D03*
Y537000D02*
D03*
D86*
X763500Y659500D02*
D03*
X758500D02*
D03*
X753500D02*
D03*
X748500D02*
D03*
X743500D02*
D03*
X738500D02*
D03*
X733500D02*
D03*
X728500D02*
D03*
X763500Y642500D02*
D03*
X758500D02*
D03*
X753500D02*
D03*
X748500D02*
D03*
X743500Y642500D02*
D03*
X738500Y642500D02*
D03*
X733500D02*
D03*
X728500D02*
D03*
X943000Y660000D02*
D03*
X938000D02*
D03*
X933000D02*
D03*
X928000D02*
D03*
X923000D02*
D03*
X918000D02*
D03*
X913000D02*
D03*
X908000D02*
D03*
X943000Y643000D02*
D03*
X938000D02*
D03*
X933000D02*
D03*
X928000D02*
D03*
X923000Y643000D02*
D03*
X918000Y643000D02*
D03*
X913000D02*
D03*
X908000D02*
D03*
D87*
X-63500Y752760D02*
D03*
X-64260Y-62500D02*
D03*
X1431500Y-63260D02*
D03*
X1432260Y752000D02*
D03*
X355750Y691000D02*
D03*
X367500D02*
D03*
X379500D02*
D03*
X1370000Y421250D02*
D03*
Y409500D02*
D03*
Y397500D02*
D03*
X973500Y691000D02*
D03*
X961500D02*
D03*
X949750D02*
D03*
X949500Y126500D02*
D03*
X961500D02*
D03*
X973250D02*
D03*
X-2250Y399250D02*
D03*
Y411000D02*
D03*
Y423000D02*
D03*
D88*
X228750Y146250D02*
D03*
X229750Y669250D02*
D03*
X443750D02*
D03*
X443750Y146250D02*
D03*
D89*
X208750D02*
D03*
X248750D02*
D03*
X209750Y669250D02*
D03*
X249750D02*
D03*
X423750D02*
D03*
X463750D02*
D03*
X423750Y146250D02*
D03*
X463750D02*
D03*
D90*
X532250Y396750D02*
D03*
X532500Y193500D02*
D03*
X97249Y193750D02*
D03*
X97249Y534751D02*
D03*
X532250Y600250D02*
D03*
X97249Y364250D02*
D03*
D91*
X532250Y416750D02*
D03*
Y376750D02*
D03*
X532500Y213500D02*
D03*
Y173500D02*
D03*
X97249Y213750D02*
D03*
Y173750D02*
D03*
X97249Y554751D02*
D03*
Y514751D02*
D03*
X532250Y620250D02*
D03*
Y580250D02*
D03*
X97249Y384250D02*
D03*
Y344250D02*
D03*
D92*
X394360Y294719D02*
D03*
X385297Y290493D02*
D03*
D93*
X619625Y505750D02*
D03*
X614625D02*
D03*
X609625D02*
D03*
X604625D02*
D03*
Y533750D02*
D03*
X609625D02*
D03*
X614625D02*
D03*
X619625D02*
D03*
D94*
X612125Y519750D02*
D03*
D95*
X307027Y234901D02*
D03*
X295294Y239761D02*
D03*
X283560Y244621D02*
D03*
X295730Y274001D02*
D03*
X307463Y269140D02*
D03*
X319196Y264280D02*
D03*
D96*
X401943Y236576D02*
D03*
X424963Y247310D02*
D03*
X411524Y276131D02*
D03*
X400014Y270764D02*
D03*
X388504Y265396D02*
D03*
D97*
X381590Y414617D02*
D03*
D98*
X343190Y359377D02*
D03*
X339860Y362707D02*
D03*
X336530Y366037D02*
D03*
X333200Y369367D02*
D03*
X329870Y372697D02*
D03*
X326540Y376027D02*
D03*
X329870Y379357D02*
D03*
X333200Y376027D02*
D03*
X339860Y369367D02*
D03*
X336530Y372697D02*
D03*
X346520Y362707D02*
D03*
X343190Y366037D02*
D03*
X346520Y369367D02*
D03*
X349850Y366037D02*
D03*
X339860Y376027D02*
D03*
X343190Y372697D02*
D03*
X336530Y379357D02*
D03*
X333200Y382687D02*
D03*
X349850Y372697D02*
D03*
X353180Y369367D02*
D03*
X346520Y376027D02*
D03*
X336530Y386017D02*
D03*
X339860Y382687D02*
D03*
X359840Y362707D02*
D03*
X356510Y366037D02*
D03*
Y359377D02*
D03*
X353180Y362707D02*
D03*
X329870Y392677D02*
D03*
X333200Y389347D02*
D03*
X326540D02*
D03*
X329870Y386017D02*
D03*
X336530Y392677D02*
D03*
X333200Y396007D02*
D03*
X343190Y386017D02*
D03*
X339860Y389347D02*
D03*
X356510Y372697D02*
D03*
X353180Y376027D02*
D03*
X363170Y366037D02*
D03*
X359840Y369367D02*
D03*
X363170Y372697D02*
D03*
X366500Y369367D02*
D03*
X359840Y376027D02*
D03*
X366500D02*
D03*
X369830Y372697D02*
D03*
X373160Y376027D02*
D03*
X326540Y402667D02*
D03*
X329870Y399337D02*
D03*
X333200Y402667D02*
D03*
X329870Y405997D02*
D03*
X343190Y392677D02*
D03*
X336530Y399337D02*
D03*
X339860Y396007D02*
D03*
X329870Y412657D02*
D03*
X326540Y415987D02*
D03*
X339860Y402667D02*
D03*
X343190Y399337D02*
D03*
X333200Y409327D02*
D03*
X336530Y405997D02*
D03*
X343190D02*
D03*
X333200Y415987D02*
D03*
X336530Y412657D02*
D03*
Y419317D02*
D03*
X333200Y422647D02*
D03*
X343190Y412657D02*
D03*
X339860Y415987D02*
D03*
X326540Y429307D02*
D03*
X329870Y425977D02*
D03*
X336530D02*
D03*
X333200Y429307D02*
D03*
X343190Y419317D02*
D03*
X339860Y422647D02*
D03*
X329870Y432637D02*
D03*
X336530D02*
D03*
X333200Y435967D02*
D03*
X326540Y442627D02*
D03*
X329870Y439297D02*
D03*
X336530D02*
D03*
X333200Y442627D02*
D03*
X343190Y432637D02*
D03*
X339860Y435967D02*
D03*
X326540Y449287D02*
D03*
X329870Y445957D02*
D03*
X333200Y449287D02*
D03*
X343190Y439297D02*
D03*
X339860Y442627D02*
D03*
X333200Y455947D02*
D03*
X343190Y445957D02*
D03*
X339860Y449287D02*
D03*
X326540Y462607D02*
D03*
X329870Y459277D02*
D03*
X336530D02*
D03*
X333200Y462607D02*
D03*
X339860Y455947D02*
D03*
X329870Y465937D02*
D03*
X336530D02*
D03*
X343190Y459277D02*
D03*
X339860Y462607D02*
D03*
X333200Y362707D02*
D03*
X386480Y376027D02*
D03*
X393140D02*
D03*
X389810Y372697D02*
D03*
X386480Y369367D02*
D03*
X383150Y366037D02*
D03*
X379820Y362707D02*
D03*
X396470Y372697D02*
D03*
X393140Y369367D02*
D03*
X396470Y366037D02*
D03*
X399800Y369367D02*
D03*
Y362707D02*
D03*
X403130Y366037D02*
D03*
X389810D02*
D03*
X406460Y362707D02*
D03*
X409790Y359377D02*
D03*
X413120Y362707D02*
D03*
X409790Y366037D02*
D03*
X406460Y376027D02*
D03*
X409790Y372697D02*
D03*
X413120Y369367D02*
D03*
X419780Y362707D02*
D03*
X416450Y366037D02*
D03*
X423110Y359377D02*
D03*
X429770D02*
D03*
X423110Y366037D02*
D03*
X426440Y362707D02*
D03*
X419780Y369367D02*
D03*
X416450Y372697D02*
D03*
X413120Y376027D02*
D03*
X426440Y369367D02*
D03*
X423110Y372697D02*
D03*
X419780Y376027D02*
D03*
X436430Y366037D02*
D03*
X429770Y372697D02*
D03*
X433100Y369367D02*
D03*
X426440Y376027D02*
D03*
X423110Y379357D02*
D03*
X419780Y382687D02*
D03*
X436430Y372697D02*
D03*
X429770Y379357D02*
D03*
X433100Y376027D02*
D03*
X426440Y382687D02*
D03*
X423110Y386017D02*
D03*
X419780Y389347D02*
D03*
X429770Y386017D02*
D03*
X433100Y382687D02*
D03*
X426440Y389347D02*
D03*
X423110Y392677D02*
D03*
X419780Y396007D02*
D03*
X436430Y386017D02*
D03*
X429770Y392677D02*
D03*
X433100Y389347D02*
D03*
X426440Y396007D02*
D03*
X423110Y399337D02*
D03*
X419780Y402667D02*
D03*
X429770Y399337D02*
D03*
X433100Y396007D02*
D03*
X426440Y402667D02*
D03*
X423110Y405997D02*
D03*
X419780Y409327D02*
D03*
X436430Y399337D02*
D03*
X429770Y405997D02*
D03*
X433100Y402667D02*
D03*
X426440Y409327D02*
D03*
X423110Y412657D02*
D03*
X419780Y415987D02*
D03*
X429770Y412657D02*
D03*
X433100Y409327D02*
D03*
X426440Y415987D02*
D03*
X423110Y419317D02*
D03*
X419780Y422647D02*
D03*
X436430Y412657D02*
D03*
X429770Y419317D02*
D03*
X433100Y415987D02*
D03*
X426440Y422647D02*
D03*
X423110Y425977D02*
D03*
X429770Y425977D02*
D03*
X433100Y422647D02*
D03*
X426440Y429307D02*
D03*
X423110Y432637D02*
D03*
X436430Y425977D02*
D03*
X429770Y432637D02*
D03*
X433100Y429307D02*
D03*
X426440Y435967D02*
D03*
X423110Y439297D02*
D03*
X433100Y435967D02*
D03*
X426440Y442627D02*
D03*
X429770Y439297D02*
D03*
X423110Y445957D02*
D03*
X419780Y449287D02*
D03*
X416450Y452617D02*
D03*
X436430Y439297D02*
D03*
X429770Y445957D02*
D03*
X433100Y442627D02*
D03*
X426440Y449287D02*
D03*
X423110Y452617D02*
D03*
X419780Y455947D02*
D03*
X413120Y462607D02*
D03*
X416450Y459277D02*
D03*
X409790D02*
D03*
X413120Y455947D02*
D03*
X419780Y462607D02*
D03*
X423110Y459277D02*
D03*
X426440Y455947D02*
D03*
X429770Y452617D02*
D03*
X426440Y462607D02*
D03*
X429770Y459277D02*
D03*
X409790Y452617D02*
D03*
X403130D02*
D03*
X396470D02*
D03*
X389810D02*
D03*
X383150D02*
D03*
X376490D02*
D03*
X369830D02*
D03*
X363170D02*
D03*
X356510D02*
D03*
X349850D02*
D03*
X343190D02*
D03*
X336530D02*
D03*
X329870D02*
D03*
X406460Y455947D02*
D03*
X399800D02*
D03*
X393140D02*
D03*
X386480D02*
D03*
X379820D02*
D03*
X373160D02*
D03*
X366500D02*
D03*
X353180D02*
D03*
X359840D02*
D03*
X349850Y459277D02*
D03*
X356510D02*
D03*
X363170D02*
D03*
X369830D02*
D03*
X376490D02*
D03*
X383150D02*
D03*
X389810D02*
D03*
X396470D02*
D03*
X403130D02*
D03*
X353180Y462607D02*
D03*
X359840D02*
D03*
X366500D02*
D03*
X373160D02*
D03*
X379820D02*
D03*
X386480D02*
D03*
X393140D02*
D03*
X399800D02*
D03*
X406460D02*
D03*
X346520D02*
D03*
X339860Y469267D02*
D03*
X349850Y465937D02*
D03*
X396470D02*
D03*
X389810D02*
D03*
X383150D02*
D03*
X376490D02*
D03*
X369830D02*
D03*
X363170D02*
D03*
X356510D02*
D03*
X346520Y469267D02*
D03*
X353180D02*
D03*
X366500D02*
D03*
X379820D02*
D03*
X393140D02*
D03*
D112*
X832000Y645000D02*
D03*
X841500D02*
D03*
Y657500D02*
D03*
X832000D02*
D03*
X836750Y651250D02*
D03*
D113*
X75000Y632500D02*
D03*
Y93500D02*
D03*
D114*
X816250Y182000D02*
D03*
X617000Y638500D02*
D03*
D115*
X55000Y555000D02*
D03*
Y240000D02*
D03*
X1324000Y166000D02*
D03*
X1323500Y639000D02*
D03*
D116*
X1228700Y367500D02*
D03*
X1205200Y232750D02*
D03*
D117*
X1203300Y367500D02*
D03*
X1179800Y232750D02*
D03*
D118*
X74500Y194750D02*
D03*
X49500D02*
D03*
D119*
X74500Y169750D02*
D03*
X49500D02*
D03*
D120*
X1290250Y458250D02*
D03*
D121*
X1257250Y410250D02*
D03*
D122*
X1320250D02*
D03*
M02*
