G04 Layer_Color=8388736*
%FSLAX44Y44*%
%MOMM*%
G71*
G01*
G75*
%ADD18R,0.5500X2.2000*%
%ADD19C,0.3500*%
G04:AMPARAMS|DCode=21|XSize=1mm|YSize=0.9mm|CornerRadius=0.1125mm|HoleSize=0mm|Usage=FLASHONLY|Rotation=0.000|XOffset=0mm|YOffset=0mm|HoleType=Round|Shape=RoundedRectangle|*
%AMROUNDEDRECTD21*
21,1,1.0000,0.6750,0,0,0.0*
21,1,0.7750,0.9000,0,0,0.0*
1,1,0.2250,0.3875,-0.3375*
1,1,0.2250,-0.3875,-0.3375*
1,1,0.2250,-0.3875,0.3375*
1,1,0.2250,0.3875,0.3375*
%
%ADD21ROUNDEDRECTD21*%
G04:AMPARAMS|DCode=24|XSize=1.6mm|YSize=1.9mm|CornerRadius=0.2mm|HoleSize=0mm|Usage=FLASHONLY|Rotation=180.000|XOffset=0mm|YOffset=0mm|HoleType=Round|Shape=RoundedRectangle|*
%AMROUNDEDRECTD24*
21,1,1.6000,1.5000,0,0,180.0*
21,1,1.2000,1.9000,0,0,180.0*
1,1,0.4000,-0.6000,0.7500*
1,1,0.4000,0.6000,0.7500*
1,1,0.4000,0.6000,-0.7500*
1,1,0.4000,-0.6000,-0.7500*
%
%ADD24ROUNDEDRECTD24*%
G04:AMPARAMS|DCode=29|XSize=0.6mm|YSize=0.6mm|CornerRadius=0.06mm|HoleSize=0mm|Usage=FLASHONLY|Rotation=0.000|XOffset=0mm|YOffset=0mm|HoleType=Round|Shape=RoundedRectangle|*
%AMROUNDEDRECTD29*
21,1,0.6000,0.4800,0,0,0.0*
21,1,0.4800,0.6000,0,0,0.0*
1,1,0.1200,0.2400,-0.2400*
1,1,0.1200,-0.2400,-0.2400*
1,1,0.1200,-0.2400,0.2400*
1,1,0.1200,0.2400,0.2400*
%
%ADD29ROUNDEDRECTD29*%
G04:AMPARAMS|DCode=34|XSize=0.5mm|YSize=0.6mm|CornerRadius=0.05mm|HoleSize=0mm|Usage=FLASHONLY|Rotation=180.000|XOffset=0mm|YOffset=0mm|HoleType=Round|Shape=RoundedRectangle|*
%AMROUNDEDRECTD34*
21,1,0.5000,0.5000,0,0,180.0*
21,1,0.4000,0.6000,0,0,180.0*
1,1,0.1000,-0.2000,0.2500*
1,1,0.1000,0.2000,0.2500*
1,1,0.1000,0.2000,-0.2500*
1,1,0.1000,-0.2000,-0.2500*
%
%ADD34ROUNDEDRECTD34*%
G04:AMPARAMS|DCode=35|XSize=0.5mm|YSize=0.6mm|CornerRadius=0.05mm|HoleSize=0mm|Usage=FLASHONLY|Rotation=90.000|XOffset=0mm|YOffset=0mm|HoleType=Round|Shape=RoundedRectangle|*
%AMROUNDEDRECTD35*
21,1,0.5000,0.5000,0,0,90.0*
21,1,0.4000,0.6000,0,0,90.0*
1,1,0.1000,0.2500,0.2000*
1,1,0.1000,0.2500,-0.2000*
1,1,0.1000,-0.2500,-0.2000*
1,1,0.1000,-0.2500,0.2000*
%
%ADD35ROUNDEDRECTD35*%
G04:AMPARAMS|DCode=36|XSize=0.6mm|YSize=0.6mm|CornerRadius=0.06mm|HoleSize=0mm|Usage=FLASHONLY|Rotation=270.000|XOffset=0mm|YOffset=0mm|HoleType=Round|Shape=RoundedRectangle|*
%AMROUNDEDRECTD36*
21,1,0.6000,0.4800,0,0,270.0*
21,1,0.4800,0.6000,0,0,270.0*
1,1,0.1200,-0.2400,-0.2400*
1,1,0.1200,-0.2400,0.2400*
1,1,0.1200,0.2400,0.2400*
1,1,0.1200,0.2400,-0.2400*
%
%ADD36ROUNDEDRECTD36*%
G04:AMPARAMS|DCode=37|XSize=1.3mm|YSize=0.8mm|CornerRadius=0.1mm|HoleSize=0mm|Usage=FLASHONLY|Rotation=90.000|XOffset=0mm|YOffset=0mm|HoleType=Round|Shape=RoundedRectangle|*
%AMROUNDEDRECTD37*
21,1,1.3000,0.6000,0,0,90.0*
21,1,1.1000,0.8000,0,0,90.0*
1,1,0.2000,0.3000,0.5500*
1,1,0.2000,0.3000,-0.5500*
1,1,0.2000,-0.3000,-0.5500*
1,1,0.2000,-0.3000,0.5500*
%
%ADD37ROUNDEDRECTD37*%
%ADD38R,0.2500X0.6250*%
%ADD39R,1.6000X1.6000*%
G04:AMPARAMS|DCode=40|XSize=2.5mm|YSize=1.1mm|CornerRadius=0.1375mm|HoleSize=0mm|Usage=FLASHONLY|Rotation=180.000|XOffset=0mm|YOffset=0mm|HoleType=Round|Shape=RoundedRectangle|*
%AMROUNDEDRECTD40*
21,1,2.5000,0.8250,0,0,180.0*
21,1,2.2250,1.1000,0,0,180.0*
1,1,0.2750,-1.1125,0.4125*
1,1,0.2750,1.1125,0.4125*
1,1,0.2750,1.1125,-0.4125*
1,1,0.2750,-1.1125,-0.4125*
%
%ADD40ROUNDEDRECTD40*%
G04:AMPARAMS|DCode=41|XSize=10mm|YSize=10.5mm|CornerRadius=1.25mm|HoleSize=0mm|Usage=FLASHONLY|Rotation=180.000|XOffset=0mm|YOffset=0mm|HoleType=Round|Shape=RoundedRectangle|*
%AMROUNDEDRECTD41*
21,1,10.0000,8.0000,0,0,180.0*
21,1,7.5000,10.5000,0,0,180.0*
1,1,2.5000,-3.7500,4.0000*
1,1,2.5000,3.7500,4.0000*
1,1,2.5000,3.7500,-4.0000*
1,1,2.5000,-3.7500,-4.0000*
%
%ADD41ROUNDEDRECTD41*%
G04:AMPARAMS|DCode=46|XSize=1.8mm|YSize=1.15mm|CornerRadius=0.1437mm|HoleSize=0mm|Usage=FLASHONLY|Rotation=0.000|XOffset=0mm|YOffset=0mm|HoleType=Round|Shape=RoundedRectangle|*
%AMROUNDEDRECTD46*
21,1,1.8000,0.8625,0,0,0.0*
21,1,1.5125,1.1500,0,0,0.0*
1,1,0.2875,0.7562,-0.4313*
1,1,0.2875,-0.7562,-0.4313*
1,1,0.2875,-0.7562,0.4313*
1,1,0.2875,0.7562,0.4313*
%
%ADD46ROUNDEDRECTD46*%
G04:AMPARAMS|DCode=47|XSize=1.3mm|YSize=0.8mm|CornerRadius=0.1mm|HoleSize=0mm|Usage=FLASHONLY|Rotation=180.000|XOffset=0mm|YOffset=0mm|HoleType=Round|Shape=RoundedRectangle|*
%AMROUNDEDRECTD47*
21,1,1.3000,0.6000,0,0,180.0*
21,1,1.1000,0.8000,0,0,180.0*
1,1,0.2000,-0.5500,0.3000*
1,1,0.2000,0.5500,0.3000*
1,1,0.2000,0.5500,-0.3000*
1,1,0.2000,-0.5500,-0.3000*
%
%ADD47ROUNDEDRECTD47*%
G04:AMPARAMS|DCode=48|XSize=1.3mm|YSize=0.8mm|CornerRadius=0.1mm|HoleSize=0mm|Usage=FLASHONLY|Rotation=225.000|XOffset=0mm|YOffset=0mm|HoleType=Round|Shape=RoundedRectangle|*
%AMROUNDEDRECTD48*
21,1,1.3000,0.6000,0,0,225.0*
21,1,1.1000,0.8000,0,0,225.0*
1,1,0.2000,-0.6010,-0.1768*
1,1,0.2000,0.1768,0.6010*
1,1,0.2000,0.6010,0.1768*
1,1,0.2000,-0.1768,-0.6010*
%
%ADD48ROUNDEDRECTD48*%
G04:AMPARAMS|DCode=49|XSize=1.3mm|YSize=0.8mm|CornerRadius=0.1mm|HoleSize=0mm|Usage=FLASHONLY|Rotation=135.000|XOffset=0mm|YOffset=0mm|HoleType=Round|Shape=RoundedRectangle|*
%AMROUNDEDRECTD49*
21,1,1.3000,0.6000,0,0,135.0*
21,1,1.1000,0.8000,0,0,135.0*
1,1,0.2000,-0.1768,0.6010*
1,1,0.2000,0.6010,-0.1768*
1,1,0.2000,0.1768,-0.6010*
1,1,0.2000,-0.6010,0.1768*
%
%ADD49ROUNDEDRECTD49*%
G04:AMPARAMS|DCode=50|XSize=0.5mm|YSize=0.6mm|CornerRadius=0.05mm|HoleSize=0mm|Usage=FLASHONLY|Rotation=247.500|XOffset=0mm|YOffset=0mm|HoleType=Round|Shape=RoundedRectangle|*
%AMROUNDEDRECTD50*
21,1,0.5000,0.5000,0,0,247.5*
21,1,0.4000,0.6000,0,0,247.5*
1,1,0.1000,-0.3075,-0.0891*
1,1,0.1000,-0.1544,0.2804*
1,1,0.1000,0.3075,0.0891*
1,1,0.1000,0.1544,-0.2804*
%
%ADD50ROUNDEDRECTD50*%
%ADD53R,4.0000X5.0000*%
G04:AMPARAMS|DCode=54|XSize=0.5mm|YSize=0.6mm|CornerRadius=0.05mm|HoleSize=0mm|Usage=FLASHONLY|Rotation=45.000|XOffset=0mm|YOffset=0mm|HoleType=Round|Shape=RoundedRectangle|*
%AMROUNDEDRECTD54*
21,1,0.5000,0.5000,0,0,45.0*
21,1,0.4000,0.6000,0,0,45.0*
1,1,0.1000,0.3182,-0.0354*
1,1,0.1000,0.0354,-0.3182*
1,1,0.1000,-0.3182,0.0354*
1,1,0.1000,-0.0354,0.3182*
%
%ADD54ROUNDEDRECTD54*%
G04:AMPARAMS|DCode=59|XSize=0.5mm|YSize=0.6mm|CornerRadius=0.05mm|HoleSize=0mm|Usage=FLASHONLY|Rotation=157.500|XOffset=0mm|YOffset=0mm|HoleType=Round|Shape=RoundedRectangle|*
%AMROUNDEDRECTD59*
21,1,0.5000,0.5000,0,0,157.5*
21,1,0.4000,0.6000,0,0,157.5*
1,1,0.1000,-0.0891,0.3075*
1,1,0.1000,0.2804,0.1544*
1,1,0.1000,0.0891,-0.3075*
1,1,0.1000,-0.2804,-0.1544*
%
%ADD59ROUNDEDRECTD59*%
G04:AMPARAMS|DCode=60|XSize=0.6mm|YSize=0.6mm|CornerRadius=0.06mm|HoleSize=0mm|Usage=FLASHONLY|Rotation=45.000|XOffset=0mm|YOffset=0mm|HoleType=Round|Shape=RoundedRectangle|*
%AMROUNDEDRECTD60*
21,1,0.6000,0.4800,0,0,45.0*
21,1,0.4800,0.6000,0,0,45.0*
1,1,0.1200,0.3394,0.0000*
1,1,0.1200,0.0000,-0.3394*
1,1,0.1200,-0.3394,0.0000*
1,1,0.1200,0.0000,0.3394*
%
%ADD60ROUNDEDRECTD60*%
G04:AMPARAMS|DCode=61|XSize=0.5mm|YSize=0.6mm|CornerRadius=0.05mm|HoleSize=0mm|Usage=FLASHONLY|Rotation=315.000|XOffset=0mm|YOffset=0mm|HoleType=Round|Shape=RoundedRectangle|*
%AMROUNDEDRECTD61*
21,1,0.5000,0.5000,0,0,315.0*
21,1,0.4000,0.6000,0,0,315.0*
1,1,0.1000,-0.0354,-0.3182*
1,1,0.1000,-0.3182,-0.0354*
1,1,0.1000,0.0354,0.3182*
1,1,0.1000,0.3182,0.0354*
%
%ADD61ROUNDEDRECTD61*%
G04:AMPARAMS|DCode=62|XSize=0.5mm|YSize=0.6mm|CornerRadius=0.05mm|HoleSize=0mm|Usage=FLASHONLY|Rotation=205.000|XOffset=0mm|YOffset=0mm|HoleType=Round|Shape=RoundedRectangle|*
%AMROUNDEDRECTD62*
21,1,0.5000,0.5000,0,0,205.0*
21,1,0.4000,0.6000,0,0,205.0*
1,1,0.1000,-0.2869,0.1421*
1,1,0.1000,0.0756,0.3111*
1,1,0.1000,0.2869,-0.1421*
1,1,0.1000,-0.0756,-0.3111*
%
%ADD62ROUNDEDRECTD62*%
G04:AMPARAMS|DCode=63|XSize=0.5mm|YSize=0.6mm|CornerRadius=0.05mm|HoleSize=0mm|Usage=FLASHONLY|Rotation=295.000|XOffset=0mm|YOffset=0mm|HoleType=Round|Shape=RoundedRectangle|*
%AMROUNDEDRECTD63*
21,1,0.5000,0.5000,0,0,295.0*
21,1,0.4000,0.6000,0,0,295.0*
1,1,0.1000,-0.1421,-0.2869*
1,1,0.1000,-0.3111,0.0756*
1,1,0.1000,0.1421,0.2869*
1,1,0.1000,0.3111,-0.0756*
%
%ADD63ROUNDEDRECTD63*%
G04:AMPARAMS|DCode=64|XSize=0.6mm|YSize=0.6mm|CornerRadius=0.06mm|HoleSize=0mm|Usage=FLASHONLY|Rotation=135.000|XOffset=0mm|YOffset=0mm|HoleType=Round|Shape=RoundedRectangle|*
%AMROUNDEDRECTD64*
21,1,0.6000,0.4800,0,0,135.0*
21,1,0.4800,0.6000,0,0,135.0*
1,1,0.1200,0.0000,0.3394*
1,1,0.1200,0.3394,0.0000*
1,1,0.1200,0.0000,-0.3394*
1,1,0.1200,-0.3394,0.0000*
%
%ADD64ROUNDEDRECTD64*%
G04:AMPARAMS|DCode=65|XSize=0.76mm|YSize=1.65mm|CornerRadius=0mm|HoleSize=0mm|Usage=FLASHONLY|Rotation=45.000|XOffset=0mm|YOffset=0mm|HoleType=Round|Shape=Rectangle|*
%AMROTATEDRECTD65*
4,1,4,0.3147,-0.8521,-0.8521,0.3147,-0.3147,0.8521,0.8521,-0.3147,0.3147,-0.8521,0.0*
%
%ADD65ROTATEDRECTD65*%

%ADD66R,1.6500X0.7600*%
G04:AMPARAMS|DCode=67|XSize=0.76mm|YSize=1.65mm|CornerRadius=0mm|HoleSize=0mm|Usage=FLASHONLY|Rotation=135.000|XOffset=0mm|YOffset=0mm|HoleType=Round|Shape=Rectangle|*
%AMROTATEDRECTD67*
4,1,4,0.8521,0.3147,-0.3147,-0.8521,-0.8521,-0.3147,0.3147,0.8521,0.8521,0.3147,0.0*
%
%ADD67ROTATEDRECTD67*%

%ADD68R,0.7600X1.6500*%
G04:AMPARAMS|DCode=69|XSize=1.8mm|YSize=1.15mm|CornerRadius=0.1437mm|HoleSize=0mm|Usage=FLASHONLY|Rotation=270.000|XOffset=0mm|YOffset=0mm|HoleType=Round|Shape=RoundedRectangle|*
%AMROUNDEDRECTD69*
21,1,1.8000,0.8625,0,0,270.0*
21,1,1.5125,1.1500,0,0,270.0*
1,1,0.2875,-0.4313,-0.7562*
1,1,0.2875,-0.4313,0.7562*
1,1,0.2875,0.4313,0.7562*
1,1,0.2875,0.4313,-0.7562*
%
%ADD69ROUNDEDRECTD69*%
%ADD70O,2.2000X0.6000*%
%ADD71R,0.7000X4.2000*%
%ADD72R,0.7000X3.2000*%
%ADD73R,3.2004X1.2700*%
G04:AMPARAMS|DCode=74|XSize=0.7mm|YSize=0.4mm|CornerRadius=0.05mm|HoleSize=0mm|Usage=FLASHONLY|Rotation=270.000|XOffset=0mm|YOffset=0mm|HoleType=Round|Shape=RoundedRectangle|*
%AMROUNDEDRECTD74*
21,1,0.7000,0.3000,0,0,270.0*
21,1,0.6000,0.4000,0,0,270.0*
1,1,0.1000,-0.1500,-0.3000*
1,1,0.1000,-0.1500,0.3000*
1,1,0.1000,0.1500,0.3000*
1,1,0.1000,0.1500,-0.3000*
%
%ADD74ROUNDEDRECTD74*%
%ADD75R,0.7500X2.4000*%
G04:AMPARAMS|DCode=76|XSize=1mm|YSize=0.9mm|CornerRadius=0.1125mm|HoleSize=0mm|Usage=FLASHONLY|Rotation=90.000|XOffset=0mm|YOffset=0mm|HoleType=Round|Shape=RoundedRectangle|*
%AMROUNDEDRECTD76*
21,1,1.0000,0.6750,0,0,90.0*
21,1,0.7750,0.9000,0,0,90.0*
1,1,0.2250,0.3375,0.3875*
1,1,0.2250,0.3375,-0.3875*
1,1,0.2250,-0.3375,-0.3875*
1,1,0.2250,-0.3375,0.3875*
%
%ADD76ROUNDEDRECTD76*%
%ADD77C,0.5000*%
%ADD78R,5.0000X4.0000*%
G04:AMPARAMS|DCode=79|XSize=0.8mm|YSize=0.8mm|CornerRadius=0.1mm|HoleSize=0mm|Usage=FLASHONLY|Rotation=90.000|XOffset=0mm|YOffset=0mm|HoleType=Round|Shape=RoundedRectangle|*
%AMROUNDEDRECTD79*
21,1,0.8000,0.6000,0,0,90.0*
21,1,0.6000,0.8000,0,0,90.0*
1,1,0.2000,0.3000,0.3000*
1,1,0.2000,0.3000,-0.3000*
1,1,0.2000,-0.3000,-0.3000*
1,1,0.2000,-0.3000,0.3000*
%
%ADD79ROUNDEDRECTD79*%
%ADD80R,0.8000X1.4000*%
%ADD81R,4.0500X4.3000*%
%ADD82R,1.2000X0.5000*%
%ADD83R,0.9500X0.4000*%
%ADD84R,0.4000X0.9500*%
%ADD85C,0.4500*%
%ADD93R,1.5000X1.6000*%
G04:AMPARAMS|DCode=94|XSize=0.76mm|YSize=1.65mm|CornerRadius=0mm|HoleSize=0mm|Usage=FLASHONLY|Rotation=205.000|XOffset=0mm|YOffset=0mm|HoleType=Round|Shape=Rectangle|*
%AMROTATEDRECTD94*
4,1,4,-0.0043,0.9083,0.6931,-0.5871,0.0043,-0.9083,-0.6931,0.5871,-0.0043,0.9083,0.0*
%
%ADD94ROTATEDRECTD94*%

G04:AMPARAMS|DCode=95|XSize=0.76mm|YSize=1.65mm|CornerRadius=0mm|HoleSize=0mm|Usage=FLASHONLY|Rotation=337.500|XOffset=0mm|YOffset=0mm|HoleType=Round|Shape=Rectangle|*
%AMROTATEDRECTD95*
4,1,4,-0.6668,-0.6168,-0.0354,0.9076,0.6668,0.6168,0.0354,-0.9076,-0.6668,-0.6168,0.0*
%
%ADD95ROTATEDRECTD95*%

G04:AMPARAMS|DCode=96|XSize=0.6mm|YSize=0.6mm|CornerRadius=0.06mm|HoleSize=0mm|Usage=FLASHONLY|Rotation=295.000|XOffset=0mm|YOffset=0mm|HoleType=Round|Shape=RoundedRectangle|*
%AMROUNDEDRECTD96*
21,1,0.6000,0.4800,0,0,295.0*
21,1,0.4800,0.6000,0,0,295.0*
1,1,0.1200,-0.1161,-0.3189*
1,1,0.1200,-0.3189,0.1161*
1,1,0.1200,0.1161,0.3189*
1,1,0.1200,0.3189,-0.1161*
%
%ADD96ROUNDEDRECTD96*%
%ADD111R,7.0000X7.0000*%
%ADD112C,0.6604*%
%ADD113C,2.8800*%
%ADD114C,3.1000*%
%ADD115C,5.0000*%
%ADD116C,1.4000*%
G04:AMPARAMS|DCode=117|XSize=1.4mm|YSize=1.4mm|CornerRadius=0.35mm|HoleSize=0mm|Usage=FLASHONLY|Rotation=90.000|XOffset=0mm|YOffset=0mm|HoleType=Round|Shape=RoundedRectangle|*
%AMROUNDEDRECTD117*
21,1,1.4000,0.7000,0,0,90.0*
21,1,0.7000,1.4000,0,0,90.0*
1,1,0.7000,0.3500,0.3500*
1,1,0.7000,0.3500,-0.3500*
1,1,0.7000,-0.3500,-0.3500*
1,1,0.7000,-0.3500,0.3500*
%
%ADD117ROUNDEDRECTD117*%
%ADD118O,5.0000X2.0000*%
%ADD119O,2.2000X5.0000*%
%ADD120O,2.0000X5.0000*%
G04:AMPARAMS|DCode=121|XSize=1.524mm|YSize=1.524mm|CornerRadius=0.1905mm|HoleSize=0mm|Usage=FLASHONLY|Rotation=270.000|XOffset=0mm|YOffset=0mm|HoleType=Round|Shape=RoundedRectangle|*
%AMROUNDEDRECTD121*
21,1,1.5240,1.1430,0,0,270.0*
21,1,1.1430,1.5240,0,0,270.0*
1,1,0.3810,-0.5715,-0.5715*
1,1,0.3810,-0.5715,0.5715*
1,1,0.3810,0.5715,0.5715*
1,1,0.3810,0.5715,-0.5715*
%
%ADD121ROUNDEDRECTD121*%
%ADD122C,1.6000*%
%ADD168R,1.8500X2.1500*%
%ADD169R,34.8000X5.9750*%
%ADD170C,2.0000*%
G04:AMPARAMS|DCode=171|XSize=1.7mm|YSize=0.4mm|CornerRadius=0.0875mm|HoleSize=0mm|Usage=FLASHONLY|Rotation=0.000|XOffset=0mm|YOffset=0mm|HoleType=Round|Shape=RoundedRectangle|*
%AMROUNDEDRECTD171*
21,1,1.7000,0.2250,0,0,0.0*
21,1,1.5250,0.4000,0,0,0.0*
1,1,0.1750,0.7625,-0.1125*
1,1,0.1750,-0.7625,-0.1125*
1,1,0.1750,-0.7625,0.1125*
1,1,0.1750,0.7625,0.1125*
%
%ADD171ROUNDEDRECTD171*%
%ADD172O,1.7000X0.4000*%
%ADD173R,2.4500X1.7000*%
%ADD174R,0.4000X0.8000*%
%ADD175R,0.8000X0.4000*%
%ADD176R,1.7000X2.4500*%
%ADD177R,1.1000X1.6500*%
%ADD178R,1.7000X1.3000*%
%ADD179R,1.3000X1.3000*%
%ADD180R,2.2500X1.3000*%
%ADD181R,1.0000X2.6500*%
%ADD182R,1.5000X2.6500*%
%ADD183R,1.1000X0.3500*%
%ADD184R,0.3500X1.1000*%
%ADD185R,2.6500X1.0000*%
%ADD186R,2.6500X1.5000*%
%ADD187R,1.6500X1.1000*%
%ADD188R,1.3000X1.7000*%
%ADD189R,1.3000X1.3000*%
%ADD190R,1.3000X2.2500*%
%ADD191R,1.0500X0.4500*%
%ADD192R,0.4500X1.0500*%
%ADD193R,1.5000X1.4000*%
%ADD194R,2.1000X1.4000*%
%ADD195R,1.4000X1.5000*%
%ADD196R,1.4000X2.1000*%
%ADD197R,0.3500X0.7000*%
%ADD198C,3.0000*%
G04:AMPARAMS|DCode=199|XSize=0.45mm|YSize=0.25mm|CornerRadius=0mm|HoleSize=0mm|Usage=FLASHONLY|Rotation=315.000|XOffset=0mm|YOffset=0mm|HoleType=Round|Shape=Rectangle|*
%AMROTATEDRECTD199*
4,1,4,-0.2475,0.0707,-0.0707,0.2475,0.2475,-0.0707,0.0707,-0.2475,-0.2475,0.0707,0.0*
%
%ADD199ROTATEDRECTD199*%

%ADD200R,0.4500X0.2500*%
G36*
X477915Y242197D02*
X478009Y242169D01*
X478096Y242122D01*
X478172Y242060D01*
X478173Y242060D01*
X479233Y240999D01*
X479296Y240923D01*
X479342Y240836D01*
X479362Y240770D01*
X479371Y240742D01*
X479372Y240731D01*
X479380Y240644D01*
X479375Y240585D01*
X479371Y240546D01*
X479359Y240509D01*
X479342Y240452D01*
X479296Y240365D01*
X479244Y240302D01*
X479233Y240289D01*
X476376Y237431D01*
X476376Y236432D01*
X477819Y234989D01*
X477882Y234913D01*
X477910Y234860D01*
X477928Y234826D01*
X477928Y234826D01*
D01*
X477956Y234731D01*
X477963Y234662D01*
X477966Y234634D01*
Y234634D01*
Y234633D01*
X477963Y234601D01*
X477956Y234536D01*
X477956Y234535D01*
Y234535D01*
X477936Y234469D01*
X477928Y234441D01*
D01*
X477928Y234441D01*
X477900Y234389D01*
X477881Y234354D01*
X477881Y234354D01*
X477881Y234354D01*
X477853Y234319D01*
X477819Y234278D01*
X477289Y233748D01*
X477289Y233748D01*
X477289Y233748D01*
X476758Y233218D01*
X476758Y233218D01*
X476758Y233218D01*
X476731Y233195D01*
X476682Y233155D01*
X476595Y233109D01*
D01*
X476595Y233109D01*
X476558Y233097D01*
X476501Y233080D01*
X476403Y233070D01*
X476403D01*
X476403D01*
X476305Y233080D01*
X476239Y233100D01*
X476211Y233109D01*
X476211Y233109D01*
D01*
X476124Y233155D01*
X476063Y233205D01*
X476048Y233218D01*
X476048Y233218D01*
X476048Y233218D01*
X474604Y234661D01*
X473606D01*
X470748Y231803D01*
X470748Y231803D01*
X470672Y231741D01*
X470585Y231695D01*
X470585Y231694D01*
D01*
X470490Y231666D01*
X470414Y231658D01*
X470393Y231656D01*
X470393D01*
X470393D01*
X470294Y231666D01*
X470237Y231683D01*
X470200Y231695D01*
X470200Y231695D01*
D01*
X470113Y231741D01*
X470087Y231763D01*
X470037Y231803D01*
X468977Y232864D01*
X468977Y232864D01*
X468914Y232940D01*
X468868Y233027D01*
X468839Y233121D01*
X468829Y233219D01*
X468839Y233317D01*
X468868Y233412D01*
X468914Y233498D01*
X468977Y233575D01*
X473219Y237817D01*
X473219Y237817D01*
X473219Y237817D01*
X477462Y242060D01*
X477538Y242122D01*
X477625Y242169D01*
X477719Y242197D01*
X477817Y242207D01*
X477915Y242197D01*
D02*
G37*
G36*
X240098Y208493D02*
X240192Y208464D01*
X240279Y208418D01*
X240355Y208355D01*
X240418Y208279D01*
X240464Y208192D01*
X240493Y208098D01*
X240502Y208000D01*
Y202000D01*
D01*
Y196000D01*
X240493Y195902D01*
X240464Y195808D01*
X240418Y195721D01*
X240355Y195645D01*
X240279Y195582D01*
X240192Y195536D01*
X240098Y195507D01*
X240000Y195498D01*
X238500D01*
X238402Y195507D01*
X238345Y195525D01*
X238308Y195536D01*
X238308Y195536D01*
D01*
X238297Y195542D01*
X238221Y195582D01*
X238145Y195645D01*
Y195645D01*
X238145D01*
X238082Y195721D01*
X238042Y195797D01*
X238036Y195808D01*
D01*
X238036Y195808D01*
X238025Y195845D01*
X238007Y195902D01*
X237998Y196000D01*
X237997Y200042D01*
X237291Y200747D01*
X235250Y200748D01*
X235221Y200751D01*
X235152Y200757D01*
X235058Y200786D01*
D01*
X235058Y200786D01*
X235005Y200814D01*
X234971Y200832D01*
X234971Y200832D01*
X234971Y200832D01*
X234928Y200867D01*
X234895Y200895D01*
X234895Y200895D01*
X234895Y200895D01*
X234867Y200928D01*
X234832Y200971D01*
X234832Y200971D01*
X234832Y200971D01*
X234814Y201005D01*
X234786Y201058D01*
X234786Y201058D01*
D01*
X234757Y201152D01*
X234750Y201221D01*
X234748Y201250D01*
Y202000D01*
D01*
Y202750D01*
Y202750D01*
Y202750D01*
X234750Y202779D01*
X234757Y202848D01*
X234786Y202942D01*
D01*
X234786Y202942D01*
X234804Y202976D01*
X234832Y203029D01*
X234895Y203105D01*
X234895Y203105D01*
X234895Y203105D01*
X234971Y203168D01*
X235024Y203196D01*
X235058Y203214D01*
X235058Y203214D01*
D01*
X235152Y203243D01*
X235221Y203250D01*
X235250Y203252D01*
X235250D01*
X235250D01*
X237292Y203252D01*
X237997Y203958D01*
X237998Y208000D01*
X238007Y208098D01*
X238025Y208155D01*
X238036Y208192D01*
X238036Y208192D01*
D01*
X238082Y208279D01*
X238131Y208339D01*
X238145Y208355D01*
X238145D01*
Y208355D01*
X238161Y208369D01*
X238221Y208418D01*
X238308Y208464D01*
D01*
X238308Y208464D01*
X238345Y208475D01*
X238402Y208493D01*
X238500Y208502D01*
X240000D01*
X240098Y208493D01*
D02*
G37*
G36*
X483280Y625796D02*
X483337Y625779D01*
X483374Y625768D01*
X483374Y625768D01*
D01*
X483461Y625721D01*
X483521Y625672D01*
X483537Y625659D01*
X483537Y625659D01*
D01*
D01*
X484598Y624598D01*
X484598Y624598D01*
X484660Y624522D01*
X484707Y624435D01*
X484735Y624341D01*
X484745Y624243D01*
X484735Y624145D01*
X484707Y624050D01*
X484660Y623964D01*
X484598Y623887D01*
X480355Y619645D01*
X480355Y619645D01*
X476113Y615402D01*
X476036Y615340D01*
X475950Y615293D01*
X475855Y615265D01*
X475757Y615255D01*
X475659Y615265D01*
X475565Y615293D01*
X475478Y615340D01*
X475402Y615402D01*
X475402Y615402D01*
X474342Y616463D01*
D01*
D01*
X474341Y616463D01*
X474279Y616539D01*
X474232Y616626D01*
X474213Y616691D01*
X474204Y616720D01*
X474203Y616731D01*
X474194Y616818D01*
X474204Y616916D01*
X474232Y617010D01*
X474279Y617097D01*
X474307Y617132D01*
X474341Y617173D01*
X477199Y620031D01*
X477199Y621029D01*
X475756Y622473D01*
X475715Y622523D01*
X475693Y622549D01*
X475647Y622636D01*
D01*
X475647Y622636D01*
X475635Y622673D01*
X475618Y622730D01*
X475608Y622828D01*
Y622828D01*
Y622828D01*
X475618Y622926D01*
X475635Y622984D01*
X475647Y623021D01*
X475647Y623021D01*
D01*
X475693Y623108D01*
X475756Y623184D01*
X475756Y623184D01*
X476286Y623714D01*
X476286Y623714D01*
X476286Y623714D01*
X476816Y624244D01*
X476816Y624244D01*
X476816Y624244D01*
X476839Y624263D01*
X476892Y624307D01*
X476979Y624353D01*
X476979Y624353D01*
D01*
X477007Y624362D01*
X477074Y624382D01*
X477074D01*
X477074Y624382D01*
X477133Y624388D01*
X477172Y624392D01*
X477172D01*
X477172D01*
X477210Y624388D01*
X477270Y624382D01*
X477270Y624382D01*
X477270D01*
X477290Y624376D01*
X477364Y624353D01*
X477364Y624353D01*
X477364D01*
X477386Y624341D01*
X477451Y624307D01*
X477451Y624307D01*
X477451Y624307D01*
X477486Y624278D01*
X477527Y624244D01*
X477527Y624244D01*
X477527Y624244D01*
X478970Y622800D01*
X479968Y622800D01*
X482827Y625658D01*
X482827Y625659D01*
X482903Y625721D01*
X482990Y625768D01*
D01*
X482990Y625768D01*
X483084Y625796D01*
X483163Y625804D01*
X483182Y625806D01*
X483182D01*
X483182D01*
X483280Y625796D01*
D02*
G37*
G36*
X214474Y617102D02*
X214531Y617085D01*
X214568Y617074D01*
X214568Y617074D01*
D01*
X214655Y617027D01*
X214714Y616978D01*
X214731Y616965D01*
X214731Y616965D01*
D01*
D01*
X215791Y615904D01*
X215792Y615904D01*
X215854Y615828D01*
X215900Y615741D01*
X215929Y615647D01*
X215939Y615549D01*
X215929Y615451D01*
X215900Y615357D01*
X215854Y615270D01*
X215792Y615194D01*
X211549Y610951D01*
X211549Y610951D01*
X211549Y610951D01*
X207306Y606708D01*
X207230Y606646D01*
X207143Y606600D01*
X207049Y606571D01*
X206951Y606561D01*
X206853Y606571D01*
X206759Y606600D01*
X206672Y606646D01*
X206596Y606708D01*
X206596Y606709D01*
X205535Y607769D01*
X205495Y607818D01*
X205473Y607845D01*
X205467Y607856D01*
X205426Y607932D01*
X205406Y607998D01*
X205398Y608026D01*
X205388Y608124D01*
Y608124D01*
Y608124D01*
X205390Y608144D01*
X205398Y608222D01*
X205409Y608260D01*
X205426Y608317D01*
X205459Y608377D01*
X205473Y608404D01*
X205486Y608420D01*
X205535Y608480D01*
X205535Y608480D01*
X208393Y611338D01*
X208393Y612336D01*
X206949Y613779D01*
X206927Y613807D01*
X206887Y613856D01*
X206840Y613942D01*
X206840Y613943D01*
D01*
X206838Y613951D01*
X206812Y614037D01*
X206802Y614135D01*
Y614135D01*
Y614135D01*
X206805Y614161D01*
X206812Y614233D01*
X206840Y614327D01*
D01*
X206840Y614327D01*
X206868Y614379D01*
X206887Y614414D01*
X206887Y614414D01*
X206887Y614414D01*
X206949Y614490D01*
X206950Y614490D01*
X207480Y615020D01*
X208010Y615551D01*
X208010Y615551D01*
X208010Y615551D01*
X208086Y615613D01*
X208139Y615641D01*
X208173Y615660D01*
X208173Y615660D01*
D01*
X208267Y615688D01*
X208365Y615698D01*
X208463Y615688D01*
X208551Y615662D01*
X208557Y615660D01*
D01*
X208557Y615660D01*
X208644Y615613D01*
X208720Y615551D01*
X210164Y614107D01*
X211162D01*
X214020Y616965D01*
X214020Y616965D01*
X214097Y617027D01*
X214183Y617074D01*
X214183Y617074D01*
D01*
X214278Y617102D01*
X214354Y617110D01*
X214376Y617112D01*
X214376D01*
X214376D01*
X214474Y617102D01*
D02*
G37*
D18*
X928300Y269500D02*
D03*
X915600D02*
D03*
X902900D02*
D03*
X890200D02*
D03*
X928300Y197500D02*
D03*
X915600D02*
D03*
X902900D02*
D03*
X890200D02*
D03*
X667550Y425500D02*
D03*
X654850D02*
D03*
X642150D02*
D03*
X629450D02*
D03*
X667550Y377500D02*
D03*
X654850D02*
D03*
X642150D02*
D03*
X629450D02*
D03*
D19*
X393140Y469267D02*
D03*
X379820D02*
D03*
X366500D02*
D03*
X353180D02*
D03*
X346520D02*
D03*
X356510Y465937D02*
D03*
X363170D02*
D03*
X369830D02*
D03*
X376490D02*
D03*
X383150D02*
D03*
X389810D02*
D03*
X396470D02*
D03*
X349850D02*
D03*
X339860Y469267D02*
D03*
X346520Y462607D02*
D03*
X406460D02*
D03*
X399800D02*
D03*
X393140D02*
D03*
X386480D02*
D03*
X379820D02*
D03*
X373160D02*
D03*
X366500D02*
D03*
X359840D02*
D03*
X353180D02*
D03*
X403130Y459277D02*
D03*
X396470D02*
D03*
X389810D02*
D03*
X383150D02*
D03*
X376490D02*
D03*
X369830D02*
D03*
X363170D02*
D03*
X356510D02*
D03*
X349850D02*
D03*
X359840Y455947D02*
D03*
X353180D02*
D03*
X366500D02*
D03*
X373160D02*
D03*
X379820D02*
D03*
X386480D02*
D03*
X393140D02*
D03*
X399800D02*
D03*
X406460D02*
D03*
X329870Y452617D02*
D03*
X336530D02*
D03*
X343190D02*
D03*
X349850D02*
D03*
X356510D02*
D03*
X363170D02*
D03*
X369830D02*
D03*
X376490D02*
D03*
X383150D02*
D03*
X389810D02*
D03*
X396470D02*
D03*
X403130D02*
D03*
X409790D02*
D03*
X429770Y459277D02*
D03*
X426440Y462607D02*
D03*
X429770Y452617D02*
D03*
X426440Y455947D02*
D03*
X423110Y459277D02*
D03*
X419780Y462607D02*
D03*
X413120Y455947D02*
D03*
X409790Y459277D02*
D03*
X416450D02*
D03*
X413120Y462607D02*
D03*
X419780Y455947D02*
D03*
X423110Y452617D02*
D03*
X426440Y449287D02*
D03*
X433100Y442627D02*
D03*
X429770Y445957D02*
D03*
X436430Y439297D02*
D03*
X416450Y452617D02*
D03*
X419780Y449287D02*
D03*
X423110Y445957D02*
D03*
X429770Y439297D02*
D03*
X426440Y442627D02*
D03*
X433100Y435967D02*
D03*
X423110Y439297D02*
D03*
X426440Y435967D02*
D03*
X433100Y429307D02*
D03*
X429770Y432637D02*
D03*
X436430Y425977D02*
D03*
X423110Y432637D02*
D03*
X426440Y429307D02*
D03*
X433100Y422647D02*
D03*
X429770Y425977D02*
D03*
X423110Y425977D02*
D03*
X426440Y422647D02*
D03*
X433100Y415987D02*
D03*
X429770Y419317D02*
D03*
X436430Y412657D02*
D03*
X419780Y422647D02*
D03*
X423110Y419317D02*
D03*
X426440Y415987D02*
D03*
X433100Y409327D02*
D03*
X429770Y412657D02*
D03*
X419780Y415987D02*
D03*
X423110Y412657D02*
D03*
X426440Y409327D02*
D03*
X433100Y402667D02*
D03*
X429770Y405997D02*
D03*
X436430Y399337D02*
D03*
X419780Y409327D02*
D03*
X423110Y405997D02*
D03*
X426440Y402667D02*
D03*
X433100Y396007D02*
D03*
X429770Y399337D02*
D03*
X419780Y402667D02*
D03*
X423110Y399337D02*
D03*
X426440Y396007D02*
D03*
X433100Y389347D02*
D03*
X429770Y392677D02*
D03*
X436430Y386017D02*
D03*
X419780Y396007D02*
D03*
X423110Y392677D02*
D03*
X426440Y389347D02*
D03*
X433100Y382687D02*
D03*
X429770Y386017D02*
D03*
X419780Y389347D02*
D03*
X423110Y386017D02*
D03*
X426440Y382687D02*
D03*
X433100Y376027D02*
D03*
X429770Y379357D02*
D03*
X436430Y372697D02*
D03*
X419780Y382687D02*
D03*
X423110Y379357D02*
D03*
X426440Y376027D02*
D03*
X433100Y369367D02*
D03*
X429770Y372697D02*
D03*
X436430Y366037D02*
D03*
X419780Y376027D02*
D03*
X423110Y372697D02*
D03*
X426440Y369367D02*
D03*
X413120Y376027D02*
D03*
X416450Y372697D02*
D03*
X419780Y369367D02*
D03*
X426440Y362707D02*
D03*
X423110Y366037D02*
D03*
X429770Y359377D02*
D03*
X423110D02*
D03*
X416450Y366037D02*
D03*
X419780Y362707D02*
D03*
X413120Y369367D02*
D03*
X409790Y372697D02*
D03*
X406460Y376027D02*
D03*
X409790Y366037D02*
D03*
X413120Y362707D02*
D03*
X409790Y359377D02*
D03*
X406460Y362707D02*
D03*
X389810Y366037D02*
D03*
X403130D02*
D03*
X399800Y362707D02*
D03*
Y369367D02*
D03*
X396470Y366037D02*
D03*
X393140Y369367D02*
D03*
X396470Y372697D02*
D03*
X379820Y362707D02*
D03*
X383150Y366037D02*
D03*
X386480Y369367D02*
D03*
X389810Y372697D02*
D03*
X393140Y376027D02*
D03*
X386480D02*
D03*
X333200Y362707D02*
D03*
X339860Y462607D02*
D03*
X343190Y459277D02*
D03*
X336530Y465937D02*
D03*
X329870D02*
D03*
X339860Y455947D02*
D03*
X333200Y462607D02*
D03*
X336530Y459277D02*
D03*
X329870D02*
D03*
X326540Y462607D02*
D03*
X339860Y449287D02*
D03*
X343190Y445957D02*
D03*
X333200Y455947D02*
D03*
X339860Y442627D02*
D03*
X343190Y439297D02*
D03*
X333200Y449287D02*
D03*
X329870Y445957D02*
D03*
X326540Y449287D02*
D03*
X339860Y435967D02*
D03*
X343190Y432637D02*
D03*
X333200Y442627D02*
D03*
X336530Y439297D02*
D03*
X329870D02*
D03*
X326540Y442627D02*
D03*
X333200Y435967D02*
D03*
X336530Y432637D02*
D03*
X329870D02*
D03*
X339860Y422647D02*
D03*
X343190Y419317D02*
D03*
X333200Y429307D02*
D03*
X336530Y425977D02*
D03*
X329870D02*
D03*
X326540Y429307D02*
D03*
X339860Y415987D02*
D03*
X343190Y412657D02*
D03*
X333200Y422647D02*
D03*
X336530Y419317D02*
D03*
Y412657D02*
D03*
X333200Y415987D02*
D03*
X343190Y405997D02*
D03*
X336530D02*
D03*
X333200Y409327D02*
D03*
X343190Y399337D02*
D03*
X339860Y402667D02*
D03*
X326540Y415987D02*
D03*
X329870Y412657D02*
D03*
X339860Y396007D02*
D03*
X336530Y399337D02*
D03*
X343190Y392677D02*
D03*
X329870Y405997D02*
D03*
X333200Y402667D02*
D03*
X329870Y399337D02*
D03*
X326540Y402667D02*
D03*
X373160Y376027D02*
D03*
X369830Y372697D02*
D03*
X366500Y376027D02*
D03*
X359840D02*
D03*
X366500Y369367D02*
D03*
X363170Y372697D02*
D03*
X359840Y369367D02*
D03*
X363170Y366037D02*
D03*
X353180Y376027D02*
D03*
X356510Y372697D02*
D03*
X339860Y389347D02*
D03*
X343190Y386017D02*
D03*
X333200Y396007D02*
D03*
X336530Y392677D02*
D03*
X329870Y386017D02*
D03*
X326540Y389347D02*
D03*
X333200D02*
D03*
X329870Y392677D02*
D03*
X353180Y362707D02*
D03*
X356510Y359377D02*
D03*
Y366037D02*
D03*
X359840Y362707D02*
D03*
X339860Y382687D02*
D03*
X336530Y386017D02*
D03*
X346520Y376027D02*
D03*
X353180Y369367D02*
D03*
X349850Y372697D02*
D03*
X333200Y382687D02*
D03*
X336530Y379357D02*
D03*
X343190Y372697D02*
D03*
X339860Y376027D02*
D03*
X349850Y366037D02*
D03*
X346520Y369367D02*
D03*
X343190Y366037D02*
D03*
X346520Y362707D02*
D03*
X336530Y372697D02*
D03*
X339860Y369367D02*
D03*
X333200Y376027D02*
D03*
X329870Y379357D02*
D03*
X326540Y376027D02*
D03*
X329870Y372697D02*
D03*
X333200Y369367D02*
D03*
X336530Y366037D02*
D03*
X339860Y362707D02*
D03*
X343190Y359377D02*
D03*
D21*
X652875Y568500D02*
D03*
X652875Y551500D02*
D03*
X577000Y294250D02*
D03*
Y277250D02*
D03*
X574250Y338500D02*
D03*
X574250Y321500D02*
D03*
X610000Y551250D02*
D03*
X610000Y568250D02*
D03*
X632000Y529750D02*
D03*
Y512750D02*
D03*
D24*
X836750Y651250D02*
D03*
D29*
X609250Y361500D02*
D03*
Y351500D02*
D03*
X976250Y264500D02*
D03*
Y254500D02*
D03*
X976000Y189250D02*
D03*
Y199250D02*
D03*
X776625Y224500D02*
D03*
Y234500D02*
D03*
X1202744Y290756D02*
D03*
Y280756D02*
D03*
X270710Y359213D02*
D03*
Y369213D02*
D03*
X988000Y521250D02*
D03*
Y511250D02*
D03*
X776500Y156500D02*
D03*
Y146500D02*
D03*
X636500Y156500D02*
D03*
Y146500D02*
D03*
X599500Y361500D02*
D03*
Y351500D02*
D03*
X1045125Y474250D02*
D03*
Y464250D02*
D03*
X608125Y239750D02*
D03*
Y229750D02*
D03*
X1089250Y532250D02*
D03*
Y542250D02*
D03*
X1055250Y493875D02*
D03*
X1055250Y503875D02*
D03*
X995750Y149000D02*
D03*
Y159000D02*
D03*
X619250Y361500D02*
D03*
Y351500D02*
D03*
X886250Y650750D02*
D03*
Y660750D02*
D03*
X875250Y650750D02*
D03*
Y660750D02*
D03*
X579500Y256250D02*
D03*
Y266250D02*
D03*
X557000Y146500D02*
D03*
Y156500D02*
D03*
X578000Y146500D02*
D03*
Y156500D02*
D03*
X652250Y448750D02*
D03*
Y458750D02*
D03*
X1133750Y396500D02*
D03*
Y386500D02*
D03*
X893000Y159500D02*
D03*
Y149500D02*
D03*
X882000Y159500D02*
D03*
Y149500D02*
D03*
X871000Y159500D02*
D03*
Y149500D02*
D03*
X860015Y159525D02*
D03*
Y149525D02*
D03*
X306296Y480523D02*
D03*
Y490523D02*
D03*
X306296Y470523D02*
D03*
Y460523D02*
D03*
D34*
X976000Y220250D02*
D03*
Y210250D02*
D03*
X679750Y227250D02*
D03*
X679750Y217250D02*
D03*
X1213244Y290756D02*
D03*
Y280756D02*
D03*
X1123750Y386500D02*
D03*
Y396500D02*
D03*
X408000Y211250D02*
D03*
Y221250D02*
D03*
X393594Y552633D02*
D03*
Y542633D02*
D03*
X366445Y536911D02*
D03*
Y526911D02*
D03*
X348990Y295326D02*
D03*
Y305326D02*
D03*
X358990Y295326D02*
D03*
Y305326D02*
D03*
X295904Y470527D02*
D03*
Y480527D02*
D03*
X356445Y526911D02*
D03*
Y536911D02*
D03*
X329454Y552649D02*
D03*
Y542649D02*
D03*
X492164Y209000D02*
D03*
Y219000D02*
D03*
X302309Y359372D02*
D03*
Y369372D02*
D03*
X588500Y146500D02*
D03*
Y156500D02*
D03*
X1042500Y430750D02*
D03*
Y420750D02*
D03*
X1065750Y493875D02*
D03*
Y503875D02*
D03*
X1031750Y513250D02*
D03*
Y523250D02*
D03*
X985375Y149000D02*
D03*
Y159000D02*
D03*
X727250Y474750D02*
D03*
Y484750D02*
D03*
X551500Y332000D02*
D03*
Y322000D02*
D03*
X264796Y470523D02*
D03*
Y480523D02*
D03*
X628000Y452500D02*
D03*
Y442500D02*
D03*
X1182289Y280744D02*
D03*
Y290744D02*
D03*
X1192289Y280744D02*
D03*
X1192289Y290744D02*
D03*
X1113750Y396500D02*
D03*
Y386500D02*
D03*
X546500Y146500D02*
D03*
Y156500D02*
D03*
X567500Y146500D02*
D03*
Y156500D02*
D03*
X487000Y592000D02*
D03*
Y602000D02*
D03*
X229000Y218000D02*
D03*
Y228000D02*
D03*
X594750Y600750D02*
D03*
Y590750D02*
D03*
D35*
X688375Y195750D02*
D03*
X678375D02*
D03*
X556500Y172500D02*
D03*
X546500D02*
D03*
X608250Y219250D02*
D03*
X618250D02*
D03*
X827250Y265750D02*
D03*
X837250D02*
D03*
X776625Y248750D02*
D03*
X766625D02*
D03*
X1183244Y315256D02*
D03*
X1173244Y315256D02*
D03*
X1099250Y356500D02*
D03*
X1089250D02*
D03*
X348990Y315826D02*
D03*
X358990D02*
D03*
X356445Y516411D02*
D03*
X366445D02*
D03*
X281809Y359372D02*
D03*
X291809D02*
D03*
X281813Y369263D02*
D03*
X291813D02*
D03*
X356445Y547411D02*
D03*
X366445D02*
D03*
X259594Y507383D02*
D03*
X269594D02*
D03*
X866000Y671500D02*
D03*
X856000D02*
D03*
X1055125Y453750D02*
D03*
X1045125D02*
D03*
X874750Y638500D02*
D03*
X884750D02*
D03*
X1037625Y200250D02*
D03*
X1027625D02*
D03*
X572750Y668250D02*
D03*
X562750D02*
D03*
X592750Y668250D02*
D03*
X602750D02*
D03*
X700000Y363500D02*
D03*
X690000D02*
D03*
X285296Y470523D02*
D03*
X275296D02*
D03*
X275296Y480523D02*
D03*
X285296D02*
D03*
X588750Y185250D02*
D03*
X598750D02*
D03*
X720250Y225750D02*
D03*
X730250D02*
D03*
X796250Y277000D02*
D03*
X786250D02*
D03*
X629476Y664765D02*
D03*
X619476D02*
D03*
X1099250Y388500D02*
D03*
X1089250Y388500D02*
D03*
X259500Y443500D02*
D03*
X269500D02*
D03*
X195500Y454750D02*
D03*
X185500D02*
D03*
X464000Y633750D02*
D03*
X454000D02*
D03*
X454000Y616000D02*
D03*
X464000D02*
D03*
X184750Y254000D02*
D03*
X174750D02*
D03*
X226500Y198500D02*
D03*
X216500D02*
D03*
X578750Y610750D02*
D03*
X568750D02*
D03*
D36*
X688375Y185250D02*
D03*
X678375D02*
D03*
X691500Y164750D02*
D03*
X701500D02*
D03*
X678375Y206250D02*
D03*
X688375D02*
D03*
X557500Y273250D02*
D03*
X567500D02*
D03*
X766625Y259250D02*
D03*
X776625D02*
D03*
X805000Y221500D02*
D03*
X815000D02*
D03*
X1183244Y304756D02*
D03*
X1173244D02*
D03*
X1169494Y336756D02*
D03*
X1179494D02*
D03*
X1089250Y367000D02*
D03*
X1099250Y367000D02*
D03*
X346445Y505911D02*
D03*
X356445D02*
D03*
X376445Y505911D02*
D03*
X366445D02*
D03*
X975350Y277000D02*
D03*
X985350D02*
D03*
X1016750Y477250D02*
D03*
X1006750D02*
D03*
X1055125Y443250D02*
D03*
X1045125D02*
D03*
X1086250Y503875D02*
D03*
X1076250D02*
D03*
X1024125Y146000D02*
D03*
X1034125D02*
D03*
X618250Y208750D02*
D03*
X608250D02*
D03*
X569750Y242750D02*
D03*
X579750D02*
D03*
X964875Y159000D02*
D03*
X974875D02*
D03*
X616750Y384500D02*
D03*
X606750D02*
D03*
X616750Y395750D02*
D03*
X606750D02*
D03*
X558500Y256250D02*
D03*
X568500D02*
D03*
X1013750Y382500D02*
D03*
X1023750D02*
D03*
X1035750D02*
D03*
X1045750D02*
D03*
X1013750Y394500D02*
D03*
X1023750D02*
D03*
X1035750D02*
D03*
X1045750D02*
D03*
X1013750Y370500D02*
D03*
X1023750D02*
D03*
X1035750D02*
D03*
X1045750D02*
D03*
X1035750Y358500D02*
D03*
X1045750D02*
D03*
X1013750D02*
D03*
X1023750D02*
D03*
X616750Y406750D02*
D03*
X606750D02*
D03*
X1099250Y378000D02*
D03*
X1089250D02*
D03*
X993000Y310000D02*
D03*
X1003000D02*
D03*
X993000Y332000D02*
D03*
X1003000D02*
D03*
X993000Y321000D02*
D03*
X1003000D02*
D03*
X605250Y493000D02*
D03*
X595250D02*
D03*
X644250Y537500D02*
D03*
X654250D02*
D03*
X617000Y493000D02*
D03*
X627000D02*
D03*
X654250Y526500D02*
D03*
X644250D02*
D03*
X1169500Y325750D02*
D03*
X1179500D02*
D03*
X358990Y284826D02*
D03*
X348990D02*
D03*
X714500Y363750D02*
D03*
X724500D02*
D03*
X573000Y479500D02*
D03*
X563000D02*
D03*
X582250Y578000D02*
D03*
X592250D02*
D03*
X620000Y592000D02*
D03*
X630000D02*
D03*
X630000Y581000D02*
D03*
X640000D02*
D03*
D37*
X558000Y185500D02*
D03*
X578000D02*
D03*
X827250Y278000D02*
D03*
X807250D02*
D03*
X275197Y494620D02*
D03*
X295197D02*
D03*
X275204Y456170D02*
D03*
X295204D02*
D03*
X641125Y551500D02*
D03*
X621125D02*
D03*
X689750Y226750D02*
D03*
X709750Y226750D02*
D03*
X551500Y309750D02*
D03*
X571500D02*
D03*
X610500Y607250D02*
D03*
X630500Y607250D02*
D03*
D38*
X554500Y430250D02*
D03*
X559500D02*
D03*
X564500D02*
D03*
X569500D02*
D03*
Y402250D02*
D03*
X564500D02*
D03*
X559500D02*
D03*
X554500D02*
D03*
D39*
X562000Y416250D02*
D03*
D40*
X598860Y275100D02*
D03*
X598860Y292150D02*
D03*
X598860Y309200D02*
D03*
X598860Y326250D02*
D03*
Y258050D02*
D03*
D41*
X689860Y292150D02*
D03*
D46*
X1289528Y319699D02*
D03*
Y349699D02*
D03*
X1266994Y319756D02*
D03*
Y349756D02*
D03*
X1311789Y349744D02*
D03*
Y319744D02*
D03*
D47*
X380650Y537014D02*
D03*
Y517014D02*
D03*
X342200Y537007D02*
D03*
Y517007D02*
D03*
X592750Y539250D02*
D03*
X592750Y519250D02*
D03*
D48*
X274627Y528759D02*
D03*
X288769Y514617D02*
D03*
X301810Y555953D02*
D03*
X315952Y541811D02*
D03*
D49*
X413312Y539966D02*
D03*
X399170Y525824D02*
D03*
X440506Y512783D02*
D03*
X426364Y498641D02*
D03*
D50*
X337360Y318595D02*
D03*
X328121Y322421D02*
D03*
X325305Y289492D02*
D03*
X316066Y293319D02*
D03*
D53*
X1241789Y251494D02*
D03*
X1322289Y251494D02*
D03*
D54*
X197052Y630398D02*
D03*
X204123Y623327D02*
D03*
X254523Y530954D02*
D03*
X261594Y523883D02*
D03*
X299773Y576204D02*
D03*
X306844Y569133D02*
D03*
X291834Y545944D02*
D03*
X298905Y538873D02*
D03*
X284763Y538873D02*
D03*
X291834Y531802D02*
D03*
X413291Y322777D02*
D03*
X406220Y329848D02*
D03*
X316970Y329303D02*
D03*
X309899Y336374D02*
D03*
X406220Y315706D02*
D03*
X399149Y322777D02*
D03*
X465089Y245947D02*
D03*
X458018Y253018D02*
D03*
X437813Y530179D02*
D03*
X430742Y537250D02*
D03*
X408821Y515330D02*
D03*
X415892Y508259D02*
D03*
X226750Y595750D02*
D03*
X219679Y602821D02*
D03*
X349035Y623214D02*
D03*
X341964Y630285D02*
D03*
D59*
X320084Y303020D02*
D03*
X323911Y312259D02*
D03*
X329323Y299193D02*
D03*
X333150Y308432D02*
D03*
D60*
X415539Y493763D02*
D03*
X408468Y500834D02*
D03*
X394326Y514976D02*
D03*
X401397Y507905D02*
D03*
X287974Y314562D02*
D03*
X295045Y307491D02*
D03*
D61*
X430388Y522754D02*
D03*
X423317Y515683D02*
D03*
X295399Y321987D02*
D03*
X302470Y329058D02*
D03*
X458863Y215679D02*
D03*
X465934Y222750D02*
D03*
X302470Y314915D02*
D03*
X309541Y321987D02*
D03*
X398796Y337272D02*
D03*
X391725Y330201D02*
D03*
X423317Y529826D02*
D03*
X416246Y522755D02*
D03*
X460665Y514954D02*
D03*
X453594Y507883D02*
D03*
X284410Y553368D02*
D03*
X277338Y546297D02*
D03*
X420716Y315352D02*
D03*
X413645Y308281D02*
D03*
X299259Y524377D02*
D03*
X306330Y531448D02*
D03*
X415347Y559947D02*
D03*
X408276Y552876D02*
D03*
X189983Y597167D02*
D03*
X197054Y604238D02*
D03*
X339700Y198950D02*
D03*
X332629Y191879D02*
D03*
X267750Y217000D02*
D03*
X260679Y209929D02*
D03*
X187760Y360061D02*
D03*
X180689Y352990D02*
D03*
D62*
X380860Y300009D02*
D03*
X376633Y309072D02*
D03*
X389923Y304235D02*
D03*
X385696Y313298D02*
D03*
D63*
X381263Y322706D02*
D03*
X372200Y318480D02*
D03*
D64*
X320830Y530986D02*
D03*
X313759Y523915D02*
D03*
X299617Y509773D02*
D03*
X306688Y516844D02*
D03*
D65*
X443452Y303506D02*
D03*
X434472Y294525D02*
D03*
X425491Y285545D02*
D03*
X447977Y263059D02*
D03*
X456958Y272039D02*
D03*
X465938Y281020D02*
D03*
X228367Y576380D02*
D03*
X237347Y585360D02*
D03*
X246327Y594341D02*
D03*
X268813Y571855D02*
D03*
X259833Y562874D02*
D03*
X250853Y553894D02*
D03*
D66*
X242122Y480223D02*
D03*
Y467523D02*
D03*
X242122Y454823D02*
D03*
X210322Y454823D02*
D03*
X210322Y480223D02*
D03*
X247209Y374072D02*
D03*
Y361372D02*
D03*
Y348672D02*
D03*
X215409D02*
D03*
Y374072D02*
D03*
D67*
X442338Y559736D02*
D03*
X451319Y550756D02*
D03*
X460299Y541776D02*
D03*
X482785Y564262D02*
D03*
X473805Y573242D02*
D03*
X464824Y582222D02*
D03*
X243002Y280479D02*
D03*
X260963Y262519D02*
D03*
X283449Y285005D02*
D03*
X274468Y293985D02*
D03*
X265488Y302965D02*
D03*
D68*
X378145Y571511D02*
D03*
X365445Y571511D02*
D03*
X352745D02*
D03*
Y603311D02*
D03*
X378145Y603311D02*
D03*
X345290Y260726D02*
D03*
X357990Y260726D02*
D03*
X370690D02*
D03*
X370690Y228926D02*
D03*
X345290D02*
D03*
D69*
X1156750Y252250D02*
D03*
X1126750D02*
D03*
X1126434Y274620D02*
D03*
X1156434D02*
D03*
X1126500Y296750D02*
D03*
X1156500D02*
D03*
D70*
X957250Y188300D02*
D03*
Y201000D02*
D03*
X957250Y213700D02*
D03*
X957250Y226400D02*
D03*
Y239100D02*
D03*
X957250Y251800D02*
D03*
X957250Y264500D02*
D03*
X860250Y188300D02*
D03*
Y201000D02*
D03*
X860250Y213700D02*
D03*
X860250Y226400D02*
D03*
Y239100D02*
D03*
X860250Y251800D02*
D03*
X860250Y264500D02*
D03*
X957250Y277200D02*
D03*
X860250D02*
D03*
D71*
X736500Y35000D02*
D03*
X716500D02*
D03*
X686500D02*
D03*
X756500D02*
D03*
X706500D02*
D03*
X726500D02*
D03*
X746500D02*
D03*
X766500D02*
D03*
X696500D02*
D03*
X656500D02*
D03*
X666500D02*
D03*
X676500D02*
D03*
X786500D02*
D03*
X456500D02*
D03*
X466500D02*
D03*
X536500D02*
D03*
X506500D02*
D03*
X476500D02*
D03*
X526500D02*
D03*
X486500D02*
D03*
X496500D02*
D03*
X516500D02*
D03*
X546500D02*
D03*
X556500D02*
D03*
X596500D02*
D03*
X646500D02*
D03*
X606500D02*
D03*
X626500D02*
D03*
X616500D02*
D03*
X586500D02*
D03*
D72*
X776500Y40000D02*
D03*
X636500D02*
D03*
D73*
X1285000Y593357D02*
D03*
X1336000D02*
D03*
X1285000Y567929D02*
D03*
X1336000Y567929D02*
D03*
X1285000Y542500D02*
D03*
X1336000D02*
D03*
X1285000Y517071D02*
D03*
X1336000Y517071D02*
D03*
X1285000Y491643D02*
D03*
X1336000D02*
D03*
D74*
X32500Y190000D02*
D03*
Y176000D02*
D03*
X25500Y176000D02*
D03*
Y190000D02*
D03*
X14000Y190000D02*
D03*
X14000Y176000D02*
D03*
X7000Y176000D02*
D03*
Y190000D02*
D03*
D75*
X1242000Y542750D02*
D03*
X1242000Y503750D02*
D03*
X1229250Y542750D02*
D03*
X1229250Y503750D02*
D03*
X1216500Y542750D02*
D03*
Y503750D02*
D03*
X1203750Y542750D02*
D03*
Y503750D02*
D03*
X1191000Y542750D02*
D03*
X1191000Y503750D02*
D03*
X1161500Y543000D02*
D03*
X1161500Y504000D02*
D03*
X1148750Y543000D02*
D03*
X1148750Y504000D02*
D03*
X1136000Y543000D02*
D03*
X1136000Y504000D02*
D03*
X1123250Y543000D02*
D03*
Y504000D02*
D03*
X1110500Y543000D02*
D03*
X1110500Y504000D02*
D03*
D76*
X576375Y505750D02*
D03*
X593375D02*
D03*
X561250Y551250D02*
D03*
X578250D02*
D03*
X781250Y652500D02*
D03*
X798250D02*
D03*
X781250Y635250D02*
D03*
X798250D02*
D03*
X820500Y673000D02*
D03*
X837500D02*
D03*
D77*
X760500Y516000D02*
D03*
X770500D02*
D03*
X780500D02*
D03*
X790500D02*
D03*
X800500D02*
D03*
X810500D02*
D03*
X820500D02*
D03*
X830500D02*
D03*
X840500D02*
D03*
X850500D02*
D03*
X860500D02*
D03*
X870500D02*
D03*
X880500D02*
D03*
X890500D02*
D03*
X900500D02*
D03*
X910500D02*
D03*
X920500D02*
D03*
X930500D02*
D03*
X940500D02*
D03*
X950500D02*
D03*
X960500D02*
D03*
X970500D02*
D03*
X760500Y506000D02*
D03*
X770500D02*
D03*
X780500D02*
D03*
X790500D02*
D03*
X800500D02*
D03*
X810500D02*
D03*
X820500D02*
D03*
X830500D02*
D03*
X840500D02*
D03*
X850500D02*
D03*
X860500D02*
D03*
X870500D02*
D03*
X880500D02*
D03*
X890500D02*
D03*
X900500D02*
D03*
X910500D02*
D03*
X920500D02*
D03*
X930500D02*
D03*
X940500D02*
D03*
X950500D02*
D03*
X960500D02*
D03*
X970500D02*
D03*
X760500Y496000D02*
D03*
X770500D02*
D03*
X780500D02*
D03*
X790500D02*
D03*
X800500D02*
D03*
X810500D02*
D03*
X820500D02*
D03*
X830500D02*
D03*
X840500D02*
D03*
X850500D02*
D03*
X860500D02*
D03*
X870500D02*
D03*
X880500D02*
D03*
X890500D02*
D03*
X900500D02*
D03*
X910500D02*
D03*
X920500D02*
D03*
X930500D02*
D03*
X940500D02*
D03*
X950500D02*
D03*
X960500D02*
D03*
X970500D02*
D03*
X760500Y486000D02*
D03*
X770500D02*
D03*
X780500D02*
D03*
X790500D02*
D03*
X800500D02*
D03*
X810500D02*
D03*
X820500D02*
D03*
X830500D02*
D03*
X840500D02*
D03*
X850500D02*
D03*
X860500D02*
D03*
X870500D02*
D03*
X880500D02*
D03*
X890500D02*
D03*
X900500D02*
D03*
X910500D02*
D03*
X920500D02*
D03*
X930500D02*
D03*
X940500D02*
D03*
X950500D02*
D03*
X960500D02*
D03*
X970500D02*
D03*
X760500Y476000D02*
D03*
X770500D02*
D03*
X780500D02*
D03*
X790500D02*
D03*
X800500D02*
D03*
X810500D02*
D03*
X820500D02*
D03*
X830500D02*
D03*
X840500D02*
D03*
X850500D02*
D03*
X860500D02*
D03*
X870500D02*
D03*
X880500D02*
D03*
X890500D02*
D03*
X900500D02*
D03*
X910500D02*
D03*
X920500D02*
D03*
X930500D02*
D03*
X940500D02*
D03*
X950500D02*
D03*
X960500D02*
D03*
X970500D02*
D03*
X760500Y466000D02*
D03*
X770500D02*
D03*
X780500D02*
D03*
X790500D02*
D03*
X800500D02*
D03*
X810500D02*
D03*
X820500D02*
D03*
X830500D02*
D03*
X840500D02*
D03*
X850500D02*
D03*
X860500D02*
D03*
X870500D02*
D03*
X880500D02*
D03*
X890500D02*
D03*
X900500D02*
D03*
X910500D02*
D03*
X920500D02*
D03*
X930500D02*
D03*
X940500D02*
D03*
X950500D02*
D03*
X960500D02*
D03*
X970500D02*
D03*
X760500Y456000D02*
D03*
X770500D02*
D03*
X780500D02*
D03*
X790500D02*
D03*
X800500D02*
D03*
X810500D02*
D03*
X820500D02*
D03*
X830500D02*
D03*
X840500D02*
D03*
X850500D02*
D03*
X860500D02*
D03*
X870500D02*
D03*
X880500D02*
D03*
X890500D02*
D03*
X900500D02*
D03*
X910500D02*
D03*
X920500D02*
D03*
X930500D02*
D03*
X940500D02*
D03*
X950500D02*
D03*
X960500D02*
D03*
X970500D02*
D03*
X760500Y446000D02*
D03*
X770500D02*
D03*
X780500D02*
D03*
X790500D02*
D03*
X800500D02*
D03*
X810500D02*
D03*
X820500D02*
D03*
X830500D02*
D03*
X840500D02*
D03*
X850500D02*
D03*
X860500D02*
D03*
X870500D02*
D03*
X880500D02*
D03*
X890500D02*
D03*
X900500D02*
D03*
X910500D02*
D03*
X920500D02*
D03*
X930500D02*
D03*
X940500D02*
D03*
X950500D02*
D03*
X960500D02*
D03*
X970500D02*
D03*
X760500Y436000D02*
D03*
X770500D02*
D03*
X780500D02*
D03*
X790500D02*
D03*
X800500D02*
D03*
X810500D02*
D03*
X820500D02*
D03*
X830500D02*
D03*
X840500D02*
D03*
X850500D02*
D03*
X860500D02*
D03*
X870500D02*
D03*
X880500D02*
D03*
X890500D02*
D03*
X900500D02*
D03*
X910500D02*
D03*
X920500D02*
D03*
X930500D02*
D03*
X940500D02*
D03*
X950500D02*
D03*
X960500D02*
D03*
X970500D02*
D03*
X760500Y426000D02*
D03*
X770500D02*
D03*
X780500D02*
D03*
X790500D02*
D03*
X800500D02*
D03*
X810500D02*
D03*
X820500D02*
D03*
X830500D02*
D03*
X840500D02*
D03*
X850500D02*
D03*
X860500D02*
D03*
X870500D02*
D03*
X880500D02*
D03*
X890500D02*
D03*
X900500D02*
D03*
X910500D02*
D03*
X920500D02*
D03*
X930500D02*
D03*
X940500D02*
D03*
X950500D02*
D03*
X960500D02*
D03*
X970500D02*
D03*
X760500Y416000D02*
D03*
X770500D02*
D03*
X780500D02*
D03*
X790500D02*
D03*
X800500D02*
D03*
X810500D02*
D03*
X820500D02*
D03*
X830500D02*
D03*
X840500D02*
D03*
X850500D02*
D03*
X860500D02*
D03*
X870500D02*
D03*
X880500D02*
D03*
X890500D02*
D03*
X900500D02*
D03*
X910500D02*
D03*
X920500D02*
D03*
X930500D02*
D03*
X940500D02*
D03*
X950500D02*
D03*
X960500D02*
D03*
X970500D02*
D03*
X760500Y406000D02*
D03*
X770500D02*
D03*
X780500D02*
D03*
X790500D02*
D03*
X800500D02*
D03*
X810500D02*
D03*
X820500D02*
D03*
X830500D02*
D03*
X840500D02*
D03*
X850500D02*
D03*
X860500D02*
D03*
X870500D02*
D03*
X880500D02*
D03*
X890500D02*
D03*
X900500D02*
D03*
X910500D02*
D03*
X920500D02*
D03*
X930500D02*
D03*
X940500D02*
D03*
X950500D02*
D03*
X960500D02*
D03*
X970500D02*
D03*
X760500Y396000D02*
D03*
X770500D02*
D03*
X780500D02*
D03*
X790500D02*
D03*
X800500D02*
D03*
X810500D02*
D03*
X820500D02*
D03*
X830500D02*
D03*
X840500D02*
D03*
X850500D02*
D03*
X860500D02*
D03*
X870500D02*
D03*
X880500D02*
D03*
X890500D02*
D03*
X900500D02*
D03*
X910500D02*
D03*
X920500D02*
D03*
X930500D02*
D03*
X940500D02*
D03*
X950500D02*
D03*
X960500D02*
D03*
X970500D02*
D03*
X760500Y386000D02*
D03*
X770500D02*
D03*
X780500D02*
D03*
X790500D02*
D03*
X800500D02*
D03*
X810500D02*
D03*
X820500D02*
D03*
X830500D02*
D03*
X840500D02*
D03*
X850500D02*
D03*
X860500D02*
D03*
X870500D02*
D03*
X880500D02*
D03*
X890500D02*
D03*
X900500D02*
D03*
X910500D02*
D03*
X920500D02*
D03*
X930500D02*
D03*
X940500D02*
D03*
X950500D02*
D03*
X960500D02*
D03*
X970500D02*
D03*
X760500Y376000D02*
D03*
X770500D02*
D03*
X780500D02*
D03*
X790500D02*
D03*
X800500D02*
D03*
X810500D02*
D03*
X820500D02*
D03*
X830500D02*
D03*
X840500D02*
D03*
X850500D02*
D03*
X860500D02*
D03*
X870500D02*
D03*
X880500D02*
D03*
X890500D02*
D03*
X900500D02*
D03*
X910500D02*
D03*
X920500D02*
D03*
X930500D02*
D03*
X940500D02*
D03*
X950500D02*
D03*
X960500D02*
D03*
X970500D02*
D03*
X760500Y366000D02*
D03*
X770500D02*
D03*
X780500D02*
D03*
X790500D02*
D03*
X800500D02*
D03*
X810500D02*
D03*
X820500D02*
D03*
X830500D02*
D03*
X840500D02*
D03*
X850500D02*
D03*
X860500D02*
D03*
X870500D02*
D03*
X880500D02*
D03*
X890500D02*
D03*
X900500D02*
D03*
X910500D02*
D03*
X920500D02*
D03*
X930500D02*
D03*
X940500D02*
D03*
X950500D02*
D03*
X960500D02*
D03*
X970500D02*
D03*
X760500Y356000D02*
D03*
X770500D02*
D03*
X780500D02*
D03*
X790500D02*
D03*
X800500D02*
D03*
X810500D02*
D03*
X820500D02*
D03*
X830500D02*
D03*
X840500D02*
D03*
X850500D02*
D03*
X860500D02*
D03*
X870500D02*
D03*
X880500D02*
D03*
X890500D02*
D03*
X900500D02*
D03*
X910500D02*
D03*
X920500D02*
D03*
X930500D02*
D03*
X940500D02*
D03*
X950500D02*
D03*
X960500D02*
D03*
X970500D02*
D03*
X760500Y346000D02*
D03*
X770500D02*
D03*
X780500D02*
D03*
X790500D02*
D03*
X800500D02*
D03*
X810500D02*
D03*
X820500D02*
D03*
X830500D02*
D03*
X840500D02*
D03*
X850500D02*
D03*
X860500D02*
D03*
X870500D02*
D03*
X880500D02*
D03*
X890500D02*
D03*
X900500D02*
D03*
X910500D02*
D03*
X920500D02*
D03*
X930500D02*
D03*
X940500D02*
D03*
X950500D02*
D03*
X960500D02*
D03*
X970500D02*
D03*
X760500Y336000D02*
D03*
X770500D02*
D03*
X780500D02*
D03*
X790500D02*
D03*
X800500D02*
D03*
X810500D02*
D03*
X820500D02*
D03*
X830500D02*
D03*
X840500D02*
D03*
X850500D02*
D03*
X860500D02*
D03*
X870500D02*
D03*
X880500D02*
D03*
X890500D02*
D03*
X900500D02*
D03*
X910500D02*
D03*
X920500D02*
D03*
X930500D02*
D03*
X940500D02*
D03*
X950500D02*
D03*
X960500D02*
D03*
X970500D02*
D03*
X760500Y326000D02*
D03*
X770500D02*
D03*
X780500D02*
D03*
X790500D02*
D03*
X800500D02*
D03*
X810500D02*
D03*
X820500D02*
D03*
X830500D02*
D03*
X840500D02*
D03*
X850500D02*
D03*
X860500D02*
D03*
X870500D02*
D03*
X880500D02*
D03*
X890500D02*
D03*
X900500D02*
D03*
X910500D02*
D03*
X920500D02*
D03*
X930500D02*
D03*
X940500D02*
D03*
X950500D02*
D03*
X960500D02*
D03*
X970500D02*
D03*
X760500Y316000D02*
D03*
X770500D02*
D03*
X780500D02*
D03*
X790500D02*
D03*
X800500D02*
D03*
X810500D02*
D03*
X820500D02*
D03*
X830500D02*
D03*
X840500D02*
D03*
X850500D02*
D03*
X860500D02*
D03*
X870500D02*
D03*
X880500D02*
D03*
X890500D02*
D03*
X900500D02*
D03*
X910500D02*
D03*
X920500D02*
D03*
X930500D02*
D03*
X940500D02*
D03*
X950500D02*
D03*
X960500D02*
D03*
X970500D02*
D03*
X760500Y306000D02*
D03*
X770500D02*
D03*
X780500D02*
D03*
X790500D02*
D03*
X800500D02*
D03*
X810500D02*
D03*
X820500D02*
D03*
X830500D02*
D03*
X840500D02*
D03*
X850500D02*
D03*
X860500D02*
D03*
X870500D02*
D03*
X880500D02*
D03*
X890500D02*
D03*
X900500D02*
D03*
X910500D02*
D03*
X920500D02*
D03*
X930500D02*
D03*
X940500D02*
D03*
X950500D02*
D03*
X960500D02*
D03*
X970500D02*
D03*
D78*
X1059872Y327870D02*
D03*
Y247370D02*
D03*
D79*
X1172050Y641250D02*
D03*
Y624250D02*
D03*
X1145051Y641250D02*
D03*
Y624250D02*
D03*
X1118000Y641250D02*
D03*
Y624250D02*
D03*
X1091551Y641250D02*
D03*
Y624250D02*
D03*
X1057750Y641250D02*
D03*
Y624250D02*
D03*
D80*
X1243350Y661250D02*
D03*
X1230650D02*
D03*
X1217950D02*
D03*
X1205250D02*
D03*
Y598250D02*
D03*
X1217950D02*
D03*
X1230650D02*
D03*
X1243350D02*
D03*
D81*
X1144000Y432750D02*
D03*
X1196500D02*
D03*
D82*
X1162700Y413700D02*
D03*
Y426400D02*
D03*
Y439100D02*
D03*
Y451800D02*
D03*
X1105300Y413700D02*
D03*
Y426400D02*
D03*
Y439100D02*
D03*
Y451800D02*
D03*
X1177800Y451800D02*
D03*
Y439100D02*
D03*
Y426400D02*
D03*
Y413700D02*
D03*
X1235200Y451800D02*
D03*
Y439100D02*
D03*
Y426400D02*
D03*
Y413700D02*
D03*
D83*
X683750Y524000D02*
D03*
Y516000D02*
D03*
Y508000D02*
D03*
X683750Y500000D02*
D03*
X699750Y524000D02*
D03*
Y516000D02*
D03*
X699750Y508000D02*
D03*
Y500000D02*
D03*
X680250Y627500D02*
D03*
Y635500D02*
D03*
Y643500D02*
D03*
X680250Y651500D02*
D03*
X664250Y627500D02*
D03*
Y635500D02*
D03*
Y643500D02*
D03*
Y651500D02*
D03*
D84*
X717750Y658750D02*
D03*
X709750D02*
D03*
X701750D02*
D03*
X693750Y658750D02*
D03*
X717750Y642750D02*
D03*
X709750D02*
D03*
X701750D02*
D03*
X693750Y642750D02*
D03*
X978250Y659500D02*
D03*
X970250D02*
D03*
X962250D02*
D03*
X954250Y659500D02*
D03*
X978250Y643500D02*
D03*
X970250D02*
D03*
X962250D02*
D03*
X954250Y643500D02*
D03*
D85*
X722000Y564000D02*
D03*
Y572000D02*
D03*
Y604000D02*
D03*
Y612000D02*
D03*
Y620000D02*
D03*
X730000Y556000D02*
D03*
Y564000D02*
D03*
Y572000D02*
D03*
Y604000D02*
D03*
Y612000D02*
D03*
X738000Y564000D02*
D03*
Y572000D02*
D03*
Y604000D02*
D03*
Y612000D02*
D03*
Y620000D02*
D03*
X746000Y556000D02*
D03*
Y564000D02*
D03*
Y572000D02*
D03*
Y604000D02*
D03*
Y612000D02*
D03*
X754000Y564000D02*
D03*
Y572000D02*
D03*
Y604000D02*
D03*
Y612000D02*
D03*
Y620000D02*
D03*
X762000Y556000D02*
D03*
Y564000D02*
D03*
Y572000D02*
D03*
Y604000D02*
D03*
Y612000D02*
D03*
X770000Y556000D02*
D03*
Y564000D02*
D03*
Y572000D02*
D03*
Y604000D02*
D03*
Y612000D02*
D03*
Y620000D02*
D03*
X778000Y556000D02*
D03*
Y564000D02*
D03*
Y572000D02*
D03*
Y604000D02*
D03*
Y612000D02*
D03*
Y620000D02*
D03*
X786000Y556000D02*
D03*
Y564000D02*
D03*
Y572000D02*
D03*
Y604000D02*
D03*
Y612000D02*
D03*
Y620000D02*
D03*
X794000Y556000D02*
D03*
Y564000D02*
D03*
Y572000D02*
D03*
Y604000D02*
D03*
Y612000D02*
D03*
Y620000D02*
D03*
X802000Y556000D02*
D03*
Y564000D02*
D03*
Y572000D02*
D03*
Y604000D02*
D03*
Y612000D02*
D03*
Y620000D02*
D03*
X810000Y556000D02*
D03*
Y564000D02*
D03*
Y572000D02*
D03*
Y604000D02*
D03*
Y612000D02*
D03*
Y620000D02*
D03*
X818000Y556000D02*
D03*
Y564000D02*
D03*
Y572000D02*
D03*
Y604000D02*
D03*
Y612000D02*
D03*
Y620000D02*
D03*
X826000Y556000D02*
D03*
Y564000D02*
D03*
Y572000D02*
D03*
Y604000D02*
D03*
Y612000D02*
D03*
Y620000D02*
D03*
X834000Y556000D02*
D03*
Y564000D02*
D03*
Y572000D02*
D03*
Y604000D02*
D03*
Y612000D02*
D03*
Y620000D02*
D03*
X1008500Y620500D02*
D03*
Y612500D02*
D03*
Y604500D02*
D03*
Y572500D02*
D03*
Y564500D02*
D03*
Y556500D02*
D03*
X1000500Y620500D02*
D03*
Y612500D02*
D03*
Y604500D02*
D03*
Y572500D02*
D03*
X1000500Y564500D02*
D03*
Y556500D02*
D03*
X992500Y620500D02*
D03*
Y612500D02*
D03*
Y604500D02*
D03*
Y572500D02*
D03*
Y564500D02*
D03*
Y556500D02*
D03*
X984500Y620500D02*
D03*
Y612500D02*
D03*
Y604500D02*
D03*
Y572500D02*
D03*
Y564500D02*
D03*
Y556500D02*
D03*
X976500Y620500D02*
D03*
Y612500D02*
D03*
Y604500D02*
D03*
Y572500D02*
D03*
Y564500D02*
D03*
Y556500D02*
D03*
X968500Y620500D02*
D03*
Y612500D02*
D03*
X968500Y604500D02*
D03*
X968500Y572500D02*
D03*
X968500Y564500D02*
D03*
Y556500D02*
D03*
X960500Y620500D02*
D03*
Y612500D02*
D03*
Y604500D02*
D03*
Y572500D02*
D03*
X960500Y564500D02*
D03*
Y556500D02*
D03*
X952500Y620500D02*
D03*
Y612500D02*
D03*
Y604500D02*
D03*
Y572500D02*
D03*
Y564500D02*
D03*
Y556500D02*
D03*
X944500Y620500D02*
D03*
Y612500D02*
D03*
Y604500D02*
D03*
Y572500D02*
D03*
Y564500D02*
D03*
Y556500D02*
D03*
X936500Y612500D02*
D03*
Y604500D02*
D03*
Y572500D02*
D03*
Y564500D02*
D03*
Y556500D02*
D03*
X928500Y620500D02*
D03*
Y612500D02*
D03*
Y604500D02*
D03*
Y572500D02*
D03*
Y564500D02*
D03*
X920500Y612500D02*
D03*
Y604500D02*
D03*
Y572500D02*
D03*
Y564500D02*
D03*
Y556500D02*
D03*
X912500Y620500D02*
D03*
Y612500D02*
D03*
X912500Y604500D02*
D03*
X912500Y572500D02*
D03*
X912500Y564500D02*
D03*
X904500Y612500D02*
D03*
Y604500D02*
D03*
Y572500D02*
D03*
Y564500D02*
D03*
Y556500D02*
D03*
X896500Y620500D02*
D03*
Y612500D02*
D03*
Y604500D02*
D03*
Y572500D02*
D03*
Y564500D02*
D03*
D93*
X612125Y519750D02*
D03*
D94*
X401943Y236576D02*
D03*
X424963Y247310D02*
D03*
X411524Y276131D02*
D03*
X400014Y270764D02*
D03*
X388504Y265396D02*
D03*
D95*
X307027Y234901D02*
D03*
X295294Y239761D02*
D03*
X283560Y244621D02*
D03*
X295730Y274001D02*
D03*
X307463Y269140D02*
D03*
X319196Y264280D02*
D03*
D96*
X394360Y294719D02*
D03*
X385297Y290493D02*
D03*
D111*
X381590Y414367D02*
D03*
D112*
X832000Y645000D02*
D03*
X841500D02*
D03*
Y657500D02*
D03*
X832000D02*
D03*
X836750Y651250D02*
D03*
D113*
X75000Y632500D02*
D03*
Y93500D02*
D03*
D114*
X816250Y182000D02*
D03*
X617000Y638500D02*
D03*
D115*
X55000Y555000D02*
D03*
Y240000D02*
D03*
X1324000Y166000D02*
D03*
X1323500Y639000D02*
D03*
D116*
X74500Y194750D02*
D03*
X49500D02*
D03*
D117*
X74500Y169750D02*
D03*
X49500D02*
D03*
D118*
X1290250Y458250D02*
D03*
D119*
X1257250Y410250D02*
D03*
D120*
X1320250D02*
D03*
D121*
X1195950Y223500D02*
D03*
X1228700Y367500D02*
D03*
D122*
X1170550Y223500D02*
D03*
X1203300Y367500D02*
D03*
D168*
X836750Y651250D02*
D03*
D169*
X621500Y27375D02*
D03*
D170*
X982250Y537250D02*
D03*
X460000Y359250D02*
D03*
D171*
X815750Y661250D02*
D03*
D172*
Y656250D02*
D03*
Y651250D02*
D03*
Y646250D02*
D03*
Y641250D02*
D03*
X857750Y661250D02*
D03*
Y656250D02*
D03*
Y651250D02*
D03*
Y646250D02*
D03*
Y641250D02*
D03*
D173*
X801750Y248750D02*
D03*
X1020875Y173250D02*
D03*
X713500Y196750D02*
D03*
X583000Y215500D02*
D03*
X1020000Y450000D02*
D03*
D174*
X792000Y262500D02*
D03*
X798500D02*
D03*
X805000D02*
D03*
X811500D02*
D03*
Y235000D02*
D03*
X805000D02*
D03*
X798500D02*
D03*
X792000D02*
D03*
X1011125Y159500D02*
D03*
X1017625D02*
D03*
X1024125D02*
D03*
X1030625D02*
D03*
Y187000D02*
D03*
X1024125D02*
D03*
X1017625D02*
D03*
X1011125D02*
D03*
X703750Y210500D02*
D03*
X710250D02*
D03*
X716750D02*
D03*
X723250D02*
D03*
Y183000D02*
D03*
X716750D02*
D03*
X710250D02*
D03*
X703750D02*
D03*
X592750Y201750D02*
D03*
X586250D02*
D03*
X579750D02*
D03*
X573250D02*
D03*
Y229250D02*
D03*
X579750D02*
D03*
X586250D02*
D03*
X592750D02*
D03*
X1029750Y463750D02*
D03*
X1023250D02*
D03*
X1016750D02*
D03*
X1010250D02*
D03*
Y436250D02*
D03*
X1016750D02*
D03*
X1023250D02*
D03*
X1029750D02*
D03*
D175*
X1075750Y519250D02*
D03*
Y525750D02*
D03*
Y532250D02*
D03*
Y538750D02*
D03*
X1048250D02*
D03*
Y532250D02*
D03*
Y525750D02*
D03*
Y519250D02*
D03*
D176*
X1062000Y529000D02*
D03*
D177*
X159507Y254007D02*
D03*
X125507D02*
D03*
X182750Y637250D02*
D03*
X148750Y637250D02*
D03*
X159500Y454750D02*
D03*
X125500Y454750D02*
D03*
X318000Y184000D02*
D03*
X284000D02*
D03*
X159500Y341750D02*
D03*
X125500D02*
D03*
X441250Y633750D02*
D03*
X407250D02*
D03*
X201250Y198500D02*
D03*
X167250Y198500D02*
D03*
X325500Y633600D02*
D03*
X291500D02*
D03*
D178*
X142507Y271007D02*
D03*
Y237007D02*
D03*
X165750Y654250D02*
D03*
X165750Y620250D02*
D03*
X142500Y471750D02*
D03*
X142500Y437750D02*
D03*
X301000Y201000D02*
D03*
Y167000D02*
D03*
X142500Y358750D02*
D03*
Y324750D02*
D03*
X424250Y650750D02*
D03*
Y616750D02*
D03*
X184250Y215500D02*
D03*
X184250Y181500D02*
D03*
X308500Y650600D02*
D03*
Y616600D02*
D03*
D179*
X126507Y254007D02*
D03*
X158507D02*
D03*
X149750Y637250D02*
D03*
X181750D02*
D03*
X126500Y454750D02*
D03*
X158500Y454750D02*
D03*
X285000Y184000D02*
D03*
X317000Y184000D02*
D03*
X126500Y341750D02*
D03*
X158500D02*
D03*
X408250Y633750D02*
D03*
X440250D02*
D03*
X168250Y198500D02*
D03*
X200250D02*
D03*
X292500Y633600D02*
D03*
X324500D02*
D03*
D180*
X142507Y240007D02*
D03*
Y268007D02*
D03*
X165750Y623250D02*
D03*
X165750Y651250D02*
D03*
X142500Y440750D02*
D03*
X142500Y468750D02*
D03*
X301000Y170000D02*
D03*
Y198000D02*
D03*
X142500Y327750D02*
D03*
Y355750D02*
D03*
X424250Y619750D02*
D03*
Y647750D02*
D03*
X184250Y184500D02*
D03*
X184250Y212500D02*
D03*
X308500Y619600D02*
D03*
Y647600D02*
D03*
D181*
X1224244Y327756D02*
D03*
D182*
X1209744D02*
D03*
D183*
X1195744Y315256D02*
D03*
Y320256D02*
D03*
Y325256D02*
D03*
X1195744Y330256D02*
D03*
Y335256D02*
D03*
X1195744Y340256D02*
D03*
X1235744Y340256D02*
D03*
Y335256D02*
D03*
X1235744Y330256D02*
D03*
X1235744Y325256D02*
D03*
Y320256D02*
D03*
Y315256D02*
D03*
X1156250Y366500D02*
D03*
Y361500D02*
D03*
Y356500D02*
D03*
X1156250Y351500D02*
D03*
Y346500D02*
D03*
X1156250Y341500D02*
D03*
X1116250Y341500D02*
D03*
X1116250Y346500D02*
D03*
Y351500D02*
D03*
X1116250Y356500D02*
D03*
Y361500D02*
D03*
Y366500D02*
D03*
D184*
X1203244Y347756D02*
D03*
X1208244D02*
D03*
X1213244D02*
D03*
X1218244Y347756D02*
D03*
X1223244D02*
D03*
X1228244Y347756D02*
D03*
X1228244Y307756D02*
D03*
X1223244Y307756D02*
D03*
X1218244D02*
D03*
X1213244Y307756D02*
D03*
X1208244D02*
D03*
X1203244Y307756D02*
D03*
X1123750Y374000D02*
D03*
X1128750Y374000D02*
D03*
X1133750D02*
D03*
X1138750Y374000D02*
D03*
X1143750D02*
D03*
X1148750Y374000D02*
D03*
Y334000D02*
D03*
X1143750D02*
D03*
X1138750D02*
D03*
X1133750D02*
D03*
X1128750D02*
D03*
X1123750Y334000D02*
D03*
D185*
X1136250Y345500D02*
D03*
D186*
Y360000D02*
D03*
D187*
X408000Y198250D02*
D03*
X408000Y164250D02*
D03*
X492164Y198000D02*
D03*
Y164000D02*
D03*
X699500Y433250D02*
D03*
Y399250D02*
D03*
X699250Y451000D02*
D03*
Y485000D02*
D03*
D188*
X391000Y181250D02*
D03*
X425000Y181250D02*
D03*
X475164Y181000D02*
D03*
X509164D02*
D03*
X682500Y416250D02*
D03*
X716500D02*
D03*
X716250Y468000D02*
D03*
X682250D02*
D03*
D189*
X408000Y165250D02*
D03*
Y197250D02*
D03*
X492164Y165000D02*
D03*
Y197000D02*
D03*
X699500Y400250D02*
D03*
Y432250D02*
D03*
X699250Y484000D02*
D03*
Y452000D02*
D03*
D190*
X422000Y181250D02*
D03*
X394000Y181250D02*
D03*
X506164Y181000D02*
D03*
X478164D02*
D03*
X713500Y416250D02*
D03*
X685500D02*
D03*
X685250Y468000D02*
D03*
X713250D02*
D03*
D191*
X683500Y616500D02*
D03*
Y611500D02*
D03*
Y606500D02*
D03*
Y601500D02*
D03*
Y596500D02*
D03*
Y591500D02*
D03*
Y586500D02*
D03*
Y581500D02*
D03*
X700500Y616500D02*
D03*
Y611500D02*
D03*
Y606500D02*
D03*
Y601500D02*
D03*
X700500Y596500D02*
D03*
X700500Y591500D02*
D03*
Y586500D02*
D03*
Y581500D02*
D03*
X683500Y571500D02*
D03*
Y566500D02*
D03*
Y561500D02*
D03*
Y556500D02*
D03*
Y551500D02*
D03*
Y546500D02*
D03*
Y541500D02*
D03*
Y536500D02*
D03*
X700500Y571500D02*
D03*
Y566500D02*
D03*
Y561500D02*
D03*
Y556500D02*
D03*
X700500Y551500D02*
D03*
X700500Y546500D02*
D03*
Y541500D02*
D03*
Y536500D02*
D03*
X858000Y617000D02*
D03*
Y612000D02*
D03*
Y607000D02*
D03*
Y602000D02*
D03*
Y597000D02*
D03*
Y592000D02*
D03*
Y587000D02*
D03*
Y582000D02*
D03*
X875000Y617000D02*
D03*
Y612000D02*
D03*
Y607000D02*
D03*
Y602000D02*
D03*
X875000Y597000D02*
D03*
X875000Y592000D02*
D03*
Y587000D02*
D03*
Y582000D02*
D03*
X858000Y572000D02*
D03*
Y567000D02*
D03*
Y562000D02*
D03*
Y557000D02*
D03*
Y552000D02*
D03*
Y547000D02*
D03*
Y542000D02*
D03*
Y537000D02*
D03*
X875000Y572000D02*
D03*
Y567000D02*
D03*
Y562000D02*
D03*
Y557000D02*
D03*
X875000Y552000D02*
D03*
X875000Y547000D02*
D03*
Y542000D02*
D03*
Y537000D02*
D03*
D192*
X763500Y659500D02*
D03*
X758500D02*
D03*
X753500D02*
D03*
X748500D02*
D03*
X743500D02*
D03*
X738500D02*
D03*
X733500D02*
D03*
X728500D02*
D03*
X763500Y642500D02*
D03*
X758500D02*
D03*
X753500D02*
D03*
X748500D02*
D03*
X743500Y642500D02*
D03*
X738500Y642500D02*
D03*
X733500D02*
D03*
X728500D02*
D03*
X943000Y660000D02*
D03*
X938000D02*
D03*
X933000D02*
D03*
X928000D02*
D03*
X923000D02*
D03*
X918000D02*
D03*
X913000D02*
D03*
X908000D02*
D03*
X943000Y643000D02*
D03*
X938000D02*
D03*
X933000D02*
D03*
X928000D02*
D03*
X923000Y643000D02*
D03*
X918000Y643000D02*
D03*
X913000D02*
D03*
X908000D02*
D03*
D193*
X228750Y146250D02*
D03*
X229750Y669250D02*
D03*
X443750D02*
D03*
X443750Y146250D02*
D03*
D194*
X208750D02*
D03*
X248750D02*
D03*
X209750Y669250D02*
D03*
X249750D02*
D03*
X423750D02*
D03*
X463750D02*
D03*
X423750Y146250D02*
D03*
X463750D02*
D03*
D195*
X532250Y396750D02*
D03*
X532500Y193500D02*
D03*
X97249Y193750D02*
D03*
X97249Y534751D02*
D03*
X532250Y600250D02*
D03*
X97249Y364250D02*
D03*
D196*
X532250Y416750D02*
D03*
Y376750D02*
D03*
X532500Y213500D02*
D03*
Y173500D02*
D03*
X97249Y213750D02*
D03*
Y173750D02*
D03*
X97249Y554751D02*
D03*
Y514751D02*
D03*
X532250Y620250D02*
D03*
Y580250D02*
D03*
X97249Y384250D02*
D03*
Y344250D02*
D03*
D197*
X619625Y505750D02*
D03*
X614625D02*
D03*
X609625D02*
D03*
X604625D02*
D03*
Y533750D02*
D03*
X609625D02*
D03*
X614625D02*
D03*
X619625D02*
D03*
D198*
X1432260Y752000D02*
D03*
X1431500Y-63260D02*
D03*
X-64260Y-62500D02*
D03*
X-63500Y752760D02*
D03*
D199*
X216143Y611306D02*
D03*
X213669Y608831D02*
D03*
X211194Y606357D02*
D03*
X205183Y612367D02*
D03*
X207658Y614842D02*
D03*
X210133Y617317D02*
D03*
X468625Y237462D02*
D03*
X471100Y239937D02*
D03*
X473575Y242412D02*
D03*
X479585Y236401D02*
D03*
X477110Y233926D02*
D03*
X474635Y231451D02*
D03*
X484950Y620000D02*
D03*
X482475Y617525D02*
D03*
X480000Y615050D02*
D03*
X473990Y621061D02*
D03*
X476465Y623536D02*
D03*
X478939Y626010D02*
D03*
D200*
X243500Y205500D02*
D03*
Y202000D02*
D03*
Y198500D02*
D03*
X235000D02*
D03*
X235000Y202000D02*
D03*
Y205500D02*
D03*
M02*
